<?xml version="1.0" encoding="utf-8"?>
<!-- Generator: Adobe Illustrator 24.0.0, SVG Export Plug-In . SVG Version: 6.00 Build 0)  -->
<svg version="1.1" id="Layer_1" xmlns="http://www.w3.org/2000/svg" xmlns:xlink="http://www.w3.org/1999/xlink" x="0px" y="0px"
	 viewBox="0 0 808 808" style="enable-background:new 0 0 808 808;" xml:space="preserve">
<style type="text/css">
	.st0{fill:#00E3BA;}
	.st1{fill:#002620;}
</style>
<g>
	<g>
		<path class="st0" d="M4.1,404c0-131.8,0-263.6-0.1-395.4C4,4.8,4.8,4,8.6,4c263.6,0.1,527.2,0.1,790.8,0c3.7,0,4.6,0.8,4.6,4.6
			c-0.1,263.6-0.1,527.2,0,790.8c0,3.7-0.8,4.6-4.6,4.6c-263.6-0.1-527.2-0.1-790.8,0c-3.7,0-4.6-0.8-4.6-4.6
			C4.1,667.6,4.1,535.8,4.1,404z"/>
		<path class="st1" d="M404,768.9c-119.6,0-239.3,0-358.9,0.1c-5.1,0-6.2-1.3-6.2-6.3c0.1-239.3,0.1-478.5,0-717.8
			c0-4.7,0.9-6.1,5.9-6.1c239.4,0.1,478.8,0.1,718.3,0c4.9,0,5.9,1.2,5.9,6c-0.1,239.3-0.1,478.5,0,717.8c0,4.8-0.9,6.3-6.1,6.3
			C643.3,768.9,523.7,768.9,404,768.9z"/>
		<path class="st0" d="M282.8,190.2c9.5,0,19,0.3,28.5-0.1c5-0.2,7.3,1.5,8.8,6.4c11.5,38.6,23.1,77.1,34.8,115.6
			c24.3,79.9,48.6,159.7,72.9,239.6c2.2,7.2,1.5,8.1-6,8.1c-15.2,0-30.3-0.2-45.5,0.1c-5.6,0.1-7.9-2-9.4-7.2
			c-9.1-30.6-18.6-61.1-27.8-91.7c-1-3.2-2.3-4.4-5.8-4.4c-33.3,0.2-66.6,0.1-100,0c-3.2,0-4.5,1-5.4,4.2
			c-8.9,30.8-18.1,61.6-26.9,92.4c-1.4,4.9-3.7,6.6-8.7,6.5c-13.8-0.3-27.7-0.1-41.5-0.1c-7.9,0-8.7-1.1-6.4-8.9
			c15.1-50.5,30.1-101,45.3-151.5c17.2-57,34.6-113.9,52-170.9c3.2-10.6,4.3-21.5,4.7-32.5c0.2-4.6,2-6,6.4-5.9
			C262.8,190.4,272.8,190.2,282.8,190.2z"/>
		<path class="st0" d="M656.1,416.5c0,33.8-0.1,67.6,0,101.4c0,6.5,0.5,13,1,19.4c0.2,3.1-0.7,4.7-3.8,5.9
			c-26.8,10.2-54,18.9-82.9,21.2c-18,1.4-35.9,1.2-53.6-3.3c-34-8.6-53.3-30.7-59.9-64.7c-2-10.4-2.4-20.8-2.4-31.3
			c-0.1-55.6,0-111.3,0-166.9c0-1.3,0-2.7,0-4c0-4,1.7-5.4,5.8-5.4c16,0.2,32,0.1,48,0.1c6.2,0,6.5,0.3,6.5,6.5
			c0,42.6,0,85.3,0,127.9c0,14.3,0.1,28.7,0.2,43c0,5.7,0.9,11.3,2.3,16.8c4.2,16.1,15.6,25.8,32.8,27.8c13.4,1.5,26.6,0.4,39.6-3.2
			c4.3-1.2,6-3,6-7.9c-0.2-65.3-0.1-130.6-0.1-195.9c0-3,0.1-6,0-9c-0.3-4.4,1.3-6.2,6.1-6.1c15.7,0.3,31.3,0.1,47,0.1
			c7.2,0,7.3,0.2,7.3,7.2c0,40.1,0,80.3,0,120.4C655.9,416.5,656,416.5,656.1,416.5z"/>
		<path class="st1" d="M282.5,247.5c3.2,12,6,22.9,9,33.8c10.6,38.1,21.2,76.2,32,114.3c1.1,4.1,1,5.6-4.1,5.5
			c-24.1-0.3-48.3-0.3-72.4,0c-5,0.1-5.2-1.3-4-5.6c11.6-42,24.1-83.7,34.5-126C279.2,262.6,280.7,255.7,282.5,247.5z"/>
	</g>
</g>
</svg>
