<?xml version="1.0" encoding="utf-8"?>
<!-- Generator: Adobe Illustrator 24.0.0, SVG Export Plug-In . SVG Version: 6.00 Build 0)  -->
<svg version="1.1" id="Layer_1" xmlns="http://www.w3.org/2000/svg" xmlns:xlink="http://www.w3.org/1999/xlink" x="0px" y="0px"
	 viewBox="0 0 612 612" style="enable-background:new 0 0 612 612;" xml:space="preserve">
<g>
	<path d="M293,2c9.1,0,18.2,0,27.3,0c4.1,0.4,8.2,0.8,12.3,1.2C368,6,401.8,15,434,30c98.8,45.8,167,141.7,175.9,251.2
		c3,36.9-0.2,73.3-10.6,108.8c-21.4,73.3-64.3,130.9-128.1,172.7c-40.1,26.3-84.3,41.7-132.1,46.8c-6.3,0.7-12.5,1.2-18.8,1.8
		c-9.1,0-18.2,0-27.3,0c-1.3-0.2-2.6-0.5-4-0.5c-30-1.7-59.2-7.6-87.4-18.2c-60.9-22.8-109.9-61.1-146.6-114.8
		C26.4,435.9,9.5,389.6,4.1,339.1c-0.7-6.3-1.2-12.5-1.8-18.8c0-9.1,0-18.2,0-27.4c0.2-1.2,0.5-2.4,0.5-3.6
		c1.5-27.4,6.5-54.2,15.5-80.2c26.1-74.9,73.9-131.6,143-170.1C196.5,19.5,234.3,8,274.2,3.8C280.5,3.1,286.7,2.6,293,2z
		 M561.4,306.9C561.7,166.3,447.8,52.1,307,51.6C166.7,51.2,52.2,165.6,52,306.3c-0.2,140.6,113.6,254.9,254.4,255.3
		C446.6,562,561.1,447.7,561.4,306.9z"/>
	<path d="M319.8,308.2c9.7-6.7,18.8-13,27.9-19.3c30.9-21.4,61.8-42.7,92.7-64.1c11.1-7.6,24.7-2,26.2,11c0.8,7-2.5,12.1-8.2,16
		c-14.3,9.8-28.6,19.7-42.9,29.6c-33.9,23.4-67.8,46.8-101.6,70.2c-7.8,5.4-16.7,4.6-22.4-2c-2.8-3.2-4.1-6.9-4.1-11.1
		c0-11,0-22,0-32.9c0-60.9,0-121.8,0-182.8c0-9.7,5.8-16.5,15-17.4c8.6-0.9,16.7,6,17.3,14.6c0.1,1.5,0.1,3.1,0.1,4.7
		c0,59.7,0,119.4,0,179C319.8,305,319.8,306.2,319.8,308.2z"/>
</g>
</svg>
