<?xml version="1.0" encoding="utf-8"?>
<!-- Generator: Adobe Illustrator 24.0.0, SVG Export Plug-In . SVG Version: 6.00 Build 0)  -->
<svg version="1.1" xmlns="http://www.w3.org/2000/svg" xmlns:xlink="http://www.w3.org/1999/xlink" x="0px" y="0px"
	 viewBox="0 0 200 215" style="enable-background:new 0 0 200 215;" xml:space="preserve">
<style type="text/css">
	.st0{fill:#FFFFFF;}
	.st1{fill:#E2E2E2;}
	.st2{fill:#9B9A9A;}
	.st3{fill:none;stroke:#000000;stroke-width:3;stroke-miterlimit:10;}
</style>
<g id="Layer_1">
</g>
<g id="html">
	<rect x="12.1" y="30" class="st0" width="180" height="175"/>
	<rect x="7.1" y="80" class="st1" width="30" height="125"/>
	<rect x="162.1" y="80" class="st1" width="30" height="125"/>
	<rect x="12.1" y="80" class="st2" width="180" height="25"/>
	<g id="date_3_">
		<path d="M40.1,24.4c0-1.5,0-2.9,0-4.2c0-3.7,0-7.5,0-11.2c0-4.7,3.3-8.1,7.7-8.2c4.4-0.1,7.8,3.5,7.9,8.1c0,4.8,0,9.6,0,14.3
			c0,0.4,0,0.7,0.1,1.1c28.1,0,56.1,0,84.3,0c0-0.5,0-0.9,0-1.4c0-4.7,0-9.4,0-14.1c0-4.6,3.4-8.1,7.9-8.1c4.3,0,7.8,3.5,7.8,8
			c0,4.7,0,9.4,0,14.1c0,0.4,0,0.9,0,1.5c0.6,0,1.1,0,1.6,0c8.9,0,17.8,0,26.7,0c8.8,0,15.4,6.7,15.4,15.5c0,53.2,0,106.4,0,159.6
			c0,8.8-6.7,15.5-15.4,15.5c-56.2,0-112.4,0-168.6,0C6.7,215,0,208.3,0,199.5C0,146.3,0,93.1,0,39.9c0-8.8,6.7-15.4,15.5-15.5
			c7.7,0,15.4,0,23.1,0C39,24.4,39.4,24.4,40.1,24.4z M11.9,81.3c0,0.6,0,1,0,1.5c0,36.7,0,73.4,0,110.1c0,6.4,4.5,10.9,10.9,10.9
			c51.9,0,103.7,0,155.6,0c5.2,0,9.2-4.1,9.2-9.2c-0.1-37.3,0-74.7,0-112c0-0.4,0-0.9,0-1.4C129,81.3,70.6,81.3,11.9,81.3z
			 M140.2,34.8c-3.8,2.9-5.2,8.6-3.5,13.3c1.8,4.8,6.6,8.2,11.6,8c5.5-0.2,10-3.8,11.4-9.1c1.3-4.8-1-10.2-3.8-11.9
			c0,0.1-0.1,0.1-0.1,0.2c0,2.8,0,5.6-0.1,8.3c0,1.1-0.2,2.3-0.6,3.4c-1.3,3.4-4.9,5.4-8.5,4.7c-3.8-0.7-6.4-3.8-6.5-7.6
			C140.1,41.1,140.2,38.1,140.2,34.8z M40.1,34.8c-3.9,3-5.3,8.7-3.5,13.4c1.8,4.8,6.8,8.1,11.7,7.8c5.6-0.3,10-3.9,11.4-9.3
			c1.1-4.3-0.7-9.8-4-11.7c0,2.5,0,4.9,0,7.3c0,1.2,0,2.5-0.3,3.7c-0.9,3.7-4.6,6.3-8.2,5.9c-4.2-0.5-7.1-3.7-7.1-7.8
			C40.1,41,40.1,38,40.1,34.8z"/>
	</g>
	<line class="st3" x1="37.1" y1="75.8" x2="37.1" y2="205.8"/>
	<line class="st3" x1="62.1" y1="75.8" x2="62.1" y2="205.8"/>
	<line class="st3" x1="87.1" y1="75.8" x2="87.1" y2="205.8"/>
	<line class="st3" x1="112.1" y1="75.8" x2="112.1" y2="205.8"/>
	<line class="st3" x1="137.1" y1="75.8" x2="137.1" y2="205.8"/>
	<line class="st3" x1="162.1" y1="75.8" x2="162.1" y2="205.8"/>
	<line class="st3" x1="12.1" y1="105" x2="192.1" y2="105"/>
	<line class="st3" x1="7.1" y1="130" x2="192.1" y2="130"/>
	<line class="st3" x1="12.1" y1="155" x2="192.1" y2="155"/>
	<line class="st3" x1="7.1" y1="180" x2="192.1" y2="180"/>
</g>
</svg>
