<?xml version="1.0" encoding="utf-8"?>
<!-- Generator: Adobe Illustrator 24.0.0, SVG Export Plug-In . SVG Version: 6.00 Build 0)  -->
<svg version="1.1" id="Layer_1" xmlns="http://www.w3.org/2000/svg" xmlns:xlink="http://www.w3.org/1999/xlink" x="0px" y="0px"
	 viewBox="0 0 792 792.1" style="enable-background:new 0 0 792 792.1;" xml:space="preserve">
<g>
	<path d="M783.5,617c-3.8,7.3-3.7,6.9-6.3,9.6c-8.3,9-21.8,10.8-32.8,5.4c-11.2-5.4-17.4-16.5-16.3-29.1c2.2-24,7.4-47.3,16.2-70.1
		c0.5-1.3,0.1-2.7-1-3.4c-7.6-5.1-13.5-11.5-14.8-21.5c-1.5-11.3,2.5-20.1,11-27.4c2.1-1.8,4.4-5,4.5-7.6
		c0.3-53.6,0.2-107.1,0.2-160.7l0,0c0-2-1.9-3.3-3.8-2.7c-1.6,0.5-3.1,1.1-4.6,1.7c-110,42.8-220,85.6-329.9,128.5
		c-9.8,3.8-18.6,3.7-28.4-0.1c-118.9-46.4-237.8-92.6-356.7-139c-1.8-0.7-3.4-1.9-5-3.3c-2.9-2.5-2.8-7.1,0.3-9.4
		c1.5-1.1,3.1-2.1,4.8-2.7c118.8-42.1,237.8-84,356.6-126.1c9.8-3.5,18.8-3.4,28.6,0.1c118.4,41.9,236.8,83.7,355.2,125.5
		c2.6,0.9,5.9,1.3,7.6,3.1c1.8,1.9,3.1,5.2,3.1,7.9c0,3.5-2.2,7-2.2,10.6c-0.2,54.8-0.1,109.6-0.2,164.5c0,4.7-0.5,8,3.8,10
		c20,9.5,13.3,41.7-3.2,49.2c-0.8,0.4,0.2,4,0.5,4.9c1.9,6,4.7,13.8,6.7,21.9c3.3,13.7,6,27.6,8.9,41.5
		C787,606.7,786.7,609,783.5,617z"/>
	<path d="M130.2,374.5c0-2,2.1-3.5,4-2.7c16.9,6.5,33,12.7,49.1,19c65.1,25.3,130.2,50.6,195.2,76.2c9.6,3.8,18.1,3.8,27.7,0
		c80-31.4,160.2-62.5,240.4-93.6c2.3-0.9,4.6-1.7,6.8-2.5c0.6,0.7,1.1,1,1.1,1.4c-0.1,33.1,0.3,66.2-0.4,99.2
		c-0.6,27.3-14.8,48.3-34,66.1c-32.9,30.6-73.1,47.1-115.6,58.6c-94.2,25.4-186.5,19.3-276.4-18.4c-28.1-11.8-53.8-27.9-74-51.4
		c-15.3-17.9-23.9-38.2-23.7-62.2c0.3-28.5,0-57.1,0-85.6C130.2,377.3,130.2,376,130.2,374.5z"/>
</g>
</svg>
