<?xml version="1.0" encoding="utf-8"?>
<!-- Generator: Adobe Illustrator 24.0.0, SVG Export Plug-In . SVG Version: 6.00 Build 0)  -->
<svg version="1.1" id="Layer_1" xmlns="http://www.w3.org/2000/svg" xmlns:xlink="http://www.w3.org/1999/xlink" x="0px" y="0px"
	 viewBox="0 0 1500 1501.7" style="enable-background:new 0 0 1500 1501.7;" xml:space="preserve">
<style type="text/css">
	.st0{fill:#474648;}
	.st1{fill:#454446;}
	.st2{fill:#454546;}
	.st3{fill:#464547;}
	.st4{fill:#444345;}
	.st5{fill:#49484A;}
</style>
<g>
	<path class="st0" d="M1500,806.9c-2.2,0-4.3,0.1-6.5,0.1c-495.7,0-991.3,0-1487,0c-2.2,0-4.3-0.1-6.5-0.1c0-2.3,0-4.7,0-7
		c2.5,0,5,0,7.5,0c495.1,0,990.2,0,1485.2,0c2.4,0,4.8,0.6,7.3,0.9C1500,802.9,1500,804.9,1500,806.9z"/>
	<path class="st1" d="M1500,737.9c-4.9-0.3-9.8-0.6-15.1-0.9c-17-33.1-34-66.4-51.2-99.9c-24.7,0-49.5,0-74.6,0
		c0,33.4,0,66.5,0,99.9c-4.8,0-9.2,0-14,0c0-69.6,0-139.2,0-209c0.7-0.1,1.5-0.4,2.3-0.4c29.2,0,58.3-0.3,87.5,0.3
		c19.3,0.4,36.4,7.1,48.3,23.2c19.8,26.9,8.7,65.6-22.2,78.8c-4.1,1.7-8.4,3.1-13.1,4.8c3,5.9,5.9,11.7,8.8,17.4
		c13.2,26.2,26.4,52.3,39.7,78.5c1,1.9,2.5,3.6,3.7,5.3C1500,736.5,1500,737.2,1500,737.9z M1359.2,539.8c0,28.4,0,56.2,0,84.1
		c1.4,0.1,2.5,0.3,3.6,0.3c21.3,0,42.6,0.3,63.9-0.1c6.9-0.1,14-1.3,20.6-3.4c23.8-7.3,35.9-28.3,29.3-50.1
		c-5.3-17.7-23.6-30.4-44.7-30.7c-7.3-0.1-14.7,0-22,0C1393.3,539.8,1376.5,539.8,1359.2,539.8z"/>
	<path class="st2" d="M1224.8,522.8c1.6,0.3,2.9,0.5,3.9,0.7c30.9,5.4,52.6,23.1,65.3,51.1c17.9,39.6,18.7,80-0.5,119.3
		c-15.8,32.3-42.4,50.2-78.9,50.4c-36.1,0.1-62.7-17.5-78.5-49.3c-20.2-40.6-20.1-82.5-0.3-123.3c13.8-28.4,37.1-45.1,69-48.8
		c0.7-0.1,1-0.1,2.1-0.3C1215.6,522.3,1218,522.4,1224.8,522.8z M1136.8,636.9c-0.1,14.8,3,33.6,11.7,51.1
		c13,26,33.1,42.4,63.3,43.2c29.9,0.7,52.8-12.2,66.2-39c19.4-38.8,19.7-78.5,0.3-117.3c-13.2-26.4-36.1-39.4-65.8-39.2
		c-29.4,0.3-50.1,14.9-63.4,40.5C1140,593.7,1136.9,612.7,1136.8,636.9z"/>
	<path class="st1" d="M0,526.9c1.6,0.2,3.1,0.6,4.7,0.6c38,0,76,0,114,0c1.8,0,3.6,0,6.2,0c-1.6,4.7-2.9,8.8-4.4,13.3
		c-35.2,0-70.2,0-105.5,0c0,28.5,0,56.5,0,85c30.6,0,61,0,91.7,0c0,4.6,0,8.6,0,13.2c-30.6,0-61,0-91.7,0c0,28.4,0,56.3,0,84.9
		c37,0,74,0,111.3,0c0,4.7,0,8.8,0,13.4c-2,0-3.8,0-5.6,0c-38.7,0-77.3,0-116,0c-1.6,0-3.2,0.4-4.8,0.6c0-0.7,0-1.3,0-2
		c0.3-1.7,0.9-3.4,0.9-5.1c0-65.6,0-131.2,0-196.7c0-1.7-0.6-3.4-0.9-5.1C0,528.2,0,527.5,0,526.9z"/>
	<path class="st3" d="M1500,897.9c-4.1,0-8.3,0-12.8,0c-0.5-3.3-0.9-6.3-1.5-9.4c-2.2-10.8-7.5-16.4-15.6-16.8
		c-9.1-0.4-15.9,4.3-17.7,15.5c-2.2,13.7-3.1,27.7-3.1,41.6c0,9.2,1.8,18.6,4.3,27.4c2.6,9.2,9.2,12.7,18.3,11.8
		c9-0.9,14.4-6.3,15-15.7c0.4-5.8,0.1-11.6,0.1-18.1c-5,0-9.9,0-15.1,0c0-3.8,0-7.1,0-11.4c9.5,0,18.9,0,28.3,0c0,0.7,0,1.3,0,2
		c-0.3,1.7-0.9,3.4-0.9,5.1c-0.1,15.6-0.1,31.3-0.1,46.9c-2.6,0-5.1,0-7.5,0c-0.7-2.6-1.2-4.7-1.6-6.4c-4.9,2.9-9.4,5.7-13.9,8.4
		c-4.7,0-9.3,0-14,0c-15.1-4.9-21-17-23.5-31.2c-3.5-19.3-3.6-38.8,0.6-58.1c1-4.5,2.6-9,4.7-13.1c5.3-10.8,14.2-15.9,26.3-15.6
		c11.7,0.3,19.9,6.1,24.5,16.6c2.4,5.5,3.7,11.5,5.5,17.3C1500,895.9,1500,896.9,1500,897.9z"/>
	<path class="st0" d="M739,978.9c-2.6-1.3-5.4-2.5-7.8-4c-10.1-6.5-13.2-16.5-13.8-28.2c4,0,7.5,0,11.4,0c0.3,1.8,0.6,3.7,1,5.7
		c1.4,7.4,5,13.2,12.6,15.2c6.8,1.7,13.5,1.1,18.2-4.8c5-6.4,5.9-14.2,2.2-21.2c-2.6-5-6.9-9.3-11.3-13c-5.8-5-12.4-9-18.4-13.7
		c-9-7.2-14.9-16-14.4-28.2c0.5-12.2,7.3-21.4,18.5-24.4c13.3-3.6,26.2,0.3,32.1,10.8c3.1,5.6,4.5,12.2,6.9,19.1
		c-5.3,0-8.9,0-12.6,0c-0.7-2.9-1.3-5.8-2.2-8.6c-2-6.4-6.1-10.7-13-11.5c-6.3-0.8-12.1,0.6-15.8,6.3c-3.9,6.1-3.7,12.8,0.5,18.3
		c3.7,4.9,8.8,9,13.6,13c6.1,5.1,13.1,9.3,18.9,14.7c10,9.3,12.4,21.3,9.6,34.4c-1.9,9.2-7.4,15.5-16.3,18.6c-1,0.3-1.8,1.2-2.7,1.8
		C750.3,978.9,744.7,978.9,739,978.9z"/>
	<path class="st4" d="M180.2,545.8c0,63.6,0,127.2,0,191.1c-4.7,0-9.1,0-13.9,0c0-69.6,0-139.1,0-209c6.4,0,12.8,0,19.9,0
		c40.1,62.5,80.4,125.4,121.6,189.7c0-64.1,0-126.8,0-189.7c5,0,9.4,0,14.1,0c0,69.6,0,139.2,0,209.1c-5.8,0-11.6,0-17.7,0
		c-40.9-63.7-82-127.6-123-191.5C180.9,545.6,180.6,545.7,180.2,545.8z"/>
	<path class="st4" d="M378.9,527.6c1.9,0,3.5,0,5.1,0c22,0,44,0,66,0c43.6,0.1,75.6,23.5,88,65.4c8.8,29.8,9.6,59.9-2,89.2
		c-11.1,28-31.5,45.9-61.3,51.9c-31.7,6.4-63.7,1.8-95.8,3.5C378.9,667.2,378.9,597.6,378.9,527.6z M393.3,723
		c23.2,0,46.2,1.3,69-0.3c30.4-2.2,50.6-19.6,60.8-48.2c8.7-24.4,8.6-49.4,2.1-74.3c-9.7-37.4-33.9-57.4-72.4-59.5
		c-19.3-1-38.6-0.4-58-0.5c-0.4,0-0.9,0.3-1.5,0.5C393.3,601.7,393.3,662.6,393.3,723z"/>
	<path class="st3" d="M689.9,625.7c0,4.9,0,8.8,0,13.4c-30.7,0-61.3,0-92.2,0c0,28.5,0,56.4,0,84.9c37.1,0,74.2,0,111.6,0
		c0,4.6,0,8.7,0,13.1c-41.7,0-83.5,0-125.6,0c0-69.6,0-139.1,0-209c41,0,82.2,0,124,0c-1.5,4.4-2.8,8.4-4.3,12.9
		c-35.2,0-70.3,0-105.7,0c0,28.4,0,56.3,0,84.9C628.3,625.7,658.9,625.7,689.9,625.7z"/>
	<path class="st3" d="M931.6,737.8c-5,0-9.3,0-14,0c-26.8-64.4-53.6-129-80.9-194.7c-17.5,42.1-34.5,83.1-51.7,124.7
		c29.1,0,57.3,0,86.5,0c-1.5,4.6-2.8,8.6-4.2,12.9c-29.4,0-58.4,0-87.7,0c-8,19.2-15.9,38-23.9,57.1c-4.5,0-8.9,0-14.3,0
		c29-69.9,57.9-139.4,86.8-209.1c5.7,0,11.1,0,17.1,0C873.9,598.2,902.7,667.8,931.6,737.8z"/>
	<path class="st3" d="M919.7,528.4c5.1,0,9.3,0,14,0c26.8,64.5,53.7,129.1,81.1,195c27.4-65.8,54.4-130.4,81.4-195c4.7,0,9,0,14.2,0
		c-29.1,70-58,139.7-86.9,209.4c-5.7,0-11.2,0-17,0C977.6,668.3,948.8,598.7,919.7,528.4z"/>
	<path class="st3" d="M1247.9,977c-3.8,0-7.3,0-11.5,0c0-33.1,0-65.9,0-98.7c-0.4,0-0.8-0.1-1.2-0.1c-7.5,32.9-14.9,65.7-22.5,98.8
		c-2.8,0-5.4,0-8.5,0c-7.5-32.8-15-65.8-22.5-98.8c-0.4,0.1-0.7,0.1-1.1,0.2c0,32.7,0,65.5,0,98.6c-4,0-7.6,0-11.5,0
		c0-37.8,0-75.7,0-113.9c6.4,0,12.8,0,19.5,0c6.5,28.1,13,56.2,19.5,84.3c0.3,0,0.6,0,0.9,0.1c6.3-28,12.7-56.1,19.1-84.4
		c6.6,0,13,0,19.7,0C1247.9,900.9,1247.9,938.8,1247.9,977z"/>
	<path class="st0" d="M1388.3,943.3c0-26.6,0-53.2,0-80.3c4.3,0,8.4,0,12.5,0c0,38,0,75.9,0,114c-4.5,0-8.8,0-13.5,0
		c-11.5-32.2-23-64.4-34.5-96.5c-0.3,0.1-0.6,0.1-0.9,0.2c0,32,0,64,0,96.3c-4.4,0-8.3,0-12.5,0c0-38,0-75.9,0-114.1
		c6.4,0,12.7,0,19.5,0c9.4,26.8,18.8,53.7,28.3,80.6C1387.5,943.4,1387.9,943.3,1388.3,943.3z"/>
	<path class="st4" d="M921.2,923.1c-5.4,0.2-10.4,0.5-15.9,0.7c0,17.7,0,35.3,0,53.2c-4.3,0-8.1,0-12.2,0c0-37.9,0-75.8,0-113.3
		c12.4,0,25-1.3,37.2,0.3c12.7,1.7,20.1,11.6,21.5,24.3c1.5,13.9-4,25.1-15.3,31c-0.9,0.4-1.7,0.9-2.8,1.6c6.3,18.6,12.6,37,19,55.9
		c-4.5,0-8.7,0-13.3,0C933.4,959,927.3,941.1,921.2,923.1z M905.5,872.5c0,14.2,0,27,0,40.9c7.9-0.8,15.4-0.9,22.6-2.6
		c7.7-1.8,11-7.8,11.1-17.4c0.1-9.9-3.1-16.5-10.7-18.2C921.1,873.5,913.3,873.4,905.5,872.5z"/>
	<path class="st3" d="M1096.8,862.8c5.9,0,11.4,0,17.5,0c8.4,37.9,16.7,75.8,25.2,114.1c-4.4,0-8.2,0-12.6,0
		c-2.2-10.8-4.5-21.8-6.8-33.2c-9.6,0-19,0-29,0c-2.2,10.8-4.5,21.8-6.8,33.1c-4.1,0-8,0-12.6,0
		C1080.1,938.8,1088.4,900.9,1096.8,862.8z M1106.1,873.5c-0.3,0-0.7-0.1-1-0.1c-4,19.6-8.1,39.2-12.2,59c8.7,0,16.8,0,25.3,0
		C1114.1,912.5,1110.1,893,1106.1,873.5z"/>
	<path class="st0" d="M1004,922.7c0,15,0,29.3,0,43.9c13.9,0,27.5,0,41.4,0c0,3.7,0,6.9,0,10.4c-18.1,0-36,0-54.1,0
		c0-38.1,0-76,0-114.2c17.5,0,34.8,0,52.3,0c0,3.3,0,6.4,0,10.1c-13,0-26.1,0-39.5,0c0,13.1,0,25.7,0,38.9c9.5,0,19,0,28.8,0
		c0,3.9,0,7.1,0,10.8C1023.2,922.7,1013.8,922.7,1004,922.7z"/>
	<path class="st4" d="M802.8,862.9c19.8,0,39.2,0,58.9,0c0,3.4,0,6.5,0,10.2c-7.7,0-15.2,0-23.2,0c0,34.9,0,69.1,0,103.7
		c-4.3,0-8.2,0-12.5,0c0-34.5,0-68.7,0-103.5c-7.9,0-15.3,0-23.2,0C802.8,869.7,802.8,866.5,802.8,862.9z"/>
	<path class="st5" d="M1287.5,976.8c0-38,0-75.7,0-113.9c4.1,0,8.1,0,12.4,0c0,37.9,0,75.7,0,113.9
		C1295.8,976.8,1291.8,976.8,1287.5,976.8z"/>
</g>
</svg>
