<?xml version="1.0" encoding="utf-8"?>
<!-- Generator: Adobe Illustrator 24.0.0, SVG Export Plug-In . SVG Version: 6.00 Build 0)  -->
<svg version="1.1" id="Layer_1" xmlns="http://www.w3.org/2000/svg" xmlns:xlink="http://www.w3.org/1999/xlink" x="0px" y="0px"
	 viewBox="0 0 287.2 380.3" style="enable-background:new 0 0 287.2 380.3;" xml:space="preserve">
<style type="text/css">
	.st0{fill:none;stroke:#000000;stroke-width:3;stroke-miterlimit:10;}
	.st1{fill:none;stroke:#000000;stroke-width:0.5;stroke-miterlimit:10;}
</style>
<g>
	<path class="st0" d="M178,142.9c2-6.4,3.8-12.8,5.5-19.4c3.3-13.3,6.5-26.5,9.5-39.9c1.9-8.5,3.2-17,5.3-25.5
		c1.6-6.5,4.2-12.5,8-18.1c0.4-0.5,0.7-1.1,1.2-1.5c3.4-3.3,6.7-5.9,11.7-4.3c5,1.6,7.9,5.2,8.9,10.5c1.1,6.2,0,12.4-0.9,18.7
		c-1.5,11.3-2.8,22.7-3.9,34.1c-1.5,14.5-4.5,28.9-7.4,43.1c-1.5,7.5-3.5,14.6-5,22c-0.2,0.8-0.2,2-0.3,2.8c2.3-0.7,4.4-2,5.9-3.9
		c6.7-8.2,13.6-16.4,20.3-24.5c4.5-5.4,9-10.8,13.3-16.3c3.3-4.2,6.1-8.8,9.3-13.1c2.2-2.9,4.6-5.7,8-7.2c4.9-2.1,9.6-1.4,12.9,3.1
		c3.2,4.5,3.8,9.4,1.4,14.6c-2.9,6.2-6.5,12.2-10.1,18.1c-4.9,8-10.2,15.9-15.2,24c-1.6,2.5-3.8,4.8-5.8,7.1
		c-5.7,6.5-9.8,13.9-13.2,21.8c-5.1,11.7-7.6,24.1-11.3,36.3c-4.2,13.8-8.9,27.4-13.9,40.9c-1.4,3.8-4.1,7.4-6.4,10.6
		c-4.1,5.7-5.9,11.1-4.8,17.9c0.6,3.6,1.6,6.6,2.2,10c0.5,3,0.2,4.3-2.4,6c-4.2,2.6-8.6,3.9-13.6,4.9c-25.1,4.8-50.5,6.7-76,7.1
		c-5,0.1-9.6-0.5-14.4-0.9c-2.2-0.2-3.4-1.4-4.3-3.1c-0.9-1.7-1.2-3.3-1.7-4.9c-1.2-4.2-2.3-8.4-3.5-12.5c-0.3-1.1-0.7-2.2-1.4-2.8
		c-6.5-6.1-10.1-13.4-13.8-21.1c-2.6-5.3-4.6-10.1-7.6-15.1c-3-5-6.5-9.4-10.1-14.1c-2.8-3.7-5.5-7.5-7-12.1c-0.7-2.1-1-4.4-1.4-6.6
		c-1.3-6.9-3.7-12.8-8.1-18.3c-3.8-4.7-7.2-9.3-11.1-14.1c-5.1-6.2-11.5-11.2-17.8-16.3c-0.9-0.8-2.1-1.4-3-2.3
		c-4.2-4.2-3.8-9.3,1.1-12.8c3.5-2.5,7.6-3.9,11.8-4.3c11.5-1.2,21.2,2.1,31,7.8c2.8,1.6,4,4.1,5.4,6.8c0.7,1.3,1.1,2.8,1.7,4.1
		c1.4,3.2,3,6,5.8,8.2c3.6,2.8,7,5.7,10.8,8.3c3,2,5.9,1.6,8.7-1c8-7.5,13.7-16,15.2-27.1c2-15.4,0.2-30.1-1.9-45.3
		c-1.3-10.1-2.2-19.9-3.1-30.1c-0.9-10.2-2-20.7-2.8-30.9c-0.4-5.5-1-11.1-1.1-16.5c-0.1-3.7,0.4-7.8,2.3-10.8
		c4.3-7.1,11.7-8.8,18.8-5.4c2.3,1.1,3.2,3.2,3.9,5.2c1.7,4.8,2.6,9.7,3.8,14.6c5.5,21.5,8.2,43.5,11.7,65.4
		c0.8,5.2,2.2,10.3,3.3,15.4c0.1,0.7,0.4,1.4,0.7,1.9c0.7,1,1.4,1.8,2.2,2.7c0.8-0.8,2.3-1.5,2.7-2.5c1.3-3.4,2.3-6.8,3-10.4
		c1.4-6.6,2.6-13.2,3.6-19.9c1-6.2,1.4-12.5,2.4-18.7c1.4-9.4,3-18.7,4.8-28c1.9-9.7,3.6-19.5,4.5-29.3c0.4-4.8,1-9.6,3.4-13.9
		c2.6-4.6,5.8-8.1,11.5-8.3c7.8-0.2,13.4,5.3,13.8,13.1c0.4,8.9-0.3,17.7-0.9,26.6c-0.9,13.6-2.5,27.2-3.9,40.8
		c-0.7,6.9-1.9,13.6-2.8,20.5c-1.5,11.2-2.9,22.2-1.4,33.6c0.2,1.7,1.1,3.2,1.6,4.8C177.5,143,177.8,143,178,142.9z"/>
</g>
<path d="M94.5,330.1c0,0,9,30.9,6.1,46.8c0,0,85.1,6.8,108.4-10c0,0,2.7-31.1-2.7-50.3C206.2,316.6,206.6,333.2,94.5,330.1z"/>
<g id="joints">
	<path class="st1" d="M36,207.4c0,0,20.3-12.3,22.4-20.9"/>
	<path class="st1" d="M48.9,225.1c0,0,20-14.8,21.7-24.7"/>
	<path class="st1" d="M49.2,230.1c0,0,24.7-17.1,27.1-30"/>
	<path class="st1" d="M99.4,145c0,0,22.3-1.4,31.7-10.4"/>
	<path class="st1" d="M91,72c0,0,14.9,4.3,28.4-3.3"/>
	<path class="st1" d="M96.6,110.9c0,0,21.5,0.6,28.2-6.1"/>
	<path class="st1" d="M97.2,108.2c0,0,13.7-3.3,18.2-3.1"/>
	<path class="st1" d="M116.8,107.2c0,0,7.8-3.3,8-4.5"/>
	<path class="st1" d="M141,131.1c0,0,24.3,2.3,30.5,6.7"/>
	<path class="st1" d="M143,126c0,0,19.4,3.9,26.8,5.9"/>
	<path class="st1" d="M147.3,100c0,0,6.8,3.7,16.4,4.9c9.6,1.2,10.2,0.6,10.2,0.6"/>
	<line class="st1" x1="149.1" y1="98.4" x2="155.9" y2="100"/>
	<path class="st1" d="M148.7,96c0,0,21.9,2.9,24.1,5.1"/>
	<path class="st1" d="M153,61.4c0,0,11.2-0.8,18.6-0.2"/>
	<path class="st1" d="M165.1,64c0,0,9.8,0.6,14.5,0.4"/>
	<path class="st1" d="M112.5,190.7c0,0,27.4,29.7,26.6,48.1s-34.8,51.3-34.8,51.3"/>
	<path class="st1" d="M112.7,173.5c0,0,51.4,60,53.2,86.3"/>
	<path class="st1" d="M132.8,166c0,0,24,49.6,54,50.6s31.8,5.2,31.8,5.2"/>
	<path class="st1" d="M198.8,66.3c0,0,7.2,1,14.2,2.1c7,1,10.6,2.6,10.6,2.6"/>
	<path class="st1" d="M191.9,104.3c0,0,9.8,0.8,14.6,1.7c4.8,0.9,11,4,11,4"/>
	<path class="st1" d="M190.6,106.3c0,0,8.1,3.3,15.1,4.6c7,1.3,12,1.2,12,1.2"/>
	<line class="st1" x1="207.8" y1="109.2" x2="219" y2="111.2"/>
	<line class="st1" x1="197.3" y1="103" x2="211.3" y2="105"/>
	<path class="st1" d="M181.2,143.9c0,0,5.7,5.5,12.3,9c6.5,3.5,14.1,5.6,14.1,5.6"/>
	<path class="st1" d="M181.7,140.4c0,0,14,2.6,27.3,14.7"/>
	<line class="st1" x1="187.3" y1="145.2" x2="204.4" y2="154.9"/>
	<path class="st1" d="M213.5,167.1c0,0,14.8,23.1,18.9,26.2"/>
	<path class="st1" d="M215.4,165.6c0,0,12.5,21.8,17.7,25.8"/>
	<path class="st1" d="M216.9,164.9c0,0,13.6,17.1,16.2,24.6"/>
	<path class="st1" d="M234.3,144.7c0,0,7.3,13.6,15.7,17.6"/>
	<line class="st1" x1="236.5" y1="145" x2="238.6" y2="147.6"/>
	<line class="st1" x1="246.8" y1="156.7" x2="251" y2="160.7"/>
	<path class="st1" d="M237.7,143.9c0,0,11.2,10,13.8,14.2"/>
	<path class="st1" d="M249.5,124.7c0,0,12.7,8.7,17,13.2"/>
</g>
</svg>
