<?xml version="1.0" encoding="utf-8"?>
<!-- Generator: Adobe Illustrator 24.0.0, SVG Export Plug-In . SVG Version: 6.00 Build 0)  -->
<svg version="1.1" id="Layer_1" xmlns="http://www.w3.org/2000/svg" xmlns:xlink="http://www.w3.org/1999/xlink" x="0px" y="0px"
	 viewBox="0 0 317.6 317.8" style="enable-background:new 0 0 317.6 317.8;" xml:space="preserve">
<style type="text/css">
	.st0{fill:#CC6699;}
	.st1{fill:#FEFEFE;}
</style>
<circle id="background" class="st0" cx="158.8" cy="159.3" r="158.8"/>
<g id="s">
	<path class="st1" d="M119.7,203.3c-8.8-7.4-18.2-13-27-19.5c-8-5.9-15.9-12.1-22.5-19.6c-15.8-17.9-17-33.4-4.1-53.5
		c11.1-17.4,26.4-30.3,43.7-41c22.8-14.1,46.8-25.5,73.5-30.1c16-2.8,32.2-2.9,47.9,2.3c27.3,9,36.8,31.3,24.5,57.3
		c-11.4,23.9-30.6,38.4-55.8,45.5c-14.4,4.1-29.1,5.7-44,3.3c-7.4-1.2-13.9-4.5-19.3-9.8c-1.8-1.8-3.2-3.8-4.3-6.1
		c-0.7-1.5-1.6-3.5,0-4.6c1.8-1.3,2.9,0.7,4.1,1.8c5.7,5.5,12.7,8.3,20.3,8.4c31.5,0.7,57.9-10.5,77.7-35.6
		c5.3-6.7,8.7-14.5,8.5-23.5c-0.2-6.5-3-11.5-8.6-14.9c-7.8-4.7-16.5-6.1-25.4-6.2c-24.5-0.4-46.8,7.6-68.1,18.7
		C125,84.4,110,93.6,97.5,106.3c-5.4,5.5-10,11.6-13,18.8c-5.4,13.2-3.3,25,6,35.8c6.3,7.2,13.8,13,21.4,18.8
		c6.2,4.8,12.5,9.4,18,15.1c1.1,1.1,2.9,3.1,2.9,3.1s2.6-0.8,4.1-1.1c13.7-3,27.4-4,40.8,1c12.8,4.7,21.8,13.2,24.7,27.1
		c2.1,10.2-2.9,20-12.3,24.3c-1.6,0.7-3.8,2-4.8,0c-1-2,1.6-2.5,2.8-3.5c8.8-6.7,10.4-15.7,4.2-24.9c-6.3-9.4-15.9-12.7-26.3-14.6
		c-7.1-1.3-14.2-1.3-21.4-0.2c-2,0.3-5.5,1.6-5.5,1.6s1.2,2.4,1.7,4.2c7.1,27.8-6.2,54.2-32.3,64.9c-9,3.7-18.5,4.2-27.9,1.9
		c-6.4-1.6-11.6-8.8-12.5-17.1c-1.1-10.5,2.1-19.7,9.1-27.6c9.7-10.9,21.8-18.4,34.3-25.6C113.8,206.5,116.5,205,119.7,203.3z"/>
	<path class="st0" d="M128.5,222.4c0,18.5-11.8,34.7-28,39.9c-1.7,0.5-3.5,1-5.3,1.1c-5.4,0.3-8.5-2.6-8.4-8.1
		c0.1-6.6,3-12.2,6.8-17.3c8.1-10.7,18.9-18.1,30.6-24.3c1-0.5,2.6-1.5,2.6-1.5s1.2,3.4,1.3,4.5C128.5,219.5,128.3,221,128.5,222.4z
		"/>
</g>
</svg>
