<?xml version="1.0" encoding="utf-8"?>
<!-- Generator: Adobe Illustrator 24.0.0, SVG Export Plug-In . SVG Version: 6.00 Build 0)  -->
<svg version="1.1" id="Layer_1" xmlns="http://www.w3.org/2000/svg" xmlns:xlink="http://www.w3.org/1999/xlink" x="0px" y="0px"
	 viewBox="0 0 406.2 372.5" style="enable-background:new 0 0 406.2 372.5;" xml:space="preserve">
<style type="text/css">
	.st0{fill:#FFFFFF;}
	.st1{fill:#000101;}
	.st2{fill:#FFFFFF;stroke:#000000;stroke-width:3;stroke-miterlimit:10;}
</style>
<g id="type_1_">
	<polygon class="st0" points="30.6,340.2 39.9,305.6 65.7,301.6 63.7,324.4 89,324.1 83.9,349.3 49.3,359.7 	"/>
	<path class="st1" d="M19.8,369.5c5.7-20.9,11.3-41,16.9-61.2c0.4-1.6,1.6-3.1,2.7-4.2c37.4-37.4,74.8-74.8,112.3-112.2
		c0.1-0.1,0.3-0.1,1.2-0.4c13.9,16.1,27.9,32.5,42.6,49.5c-10.2,10-20.3,19.8-30.2,29.7c-26.2,26.1-52.3,52.2-78.5,78.3
		c-1.6,1.6-3.7,3.2-5.8,3.9c-19.5,5.6-39,10.9-58.5,16.3C21.8,369.3,21.1,369.3,19.8,369.5z M85.1,326.4c-8.4,0.8-16,1.6-24.1,2.4
		c0.7-8.2,1.4-15.7,2.2-24.1c-6.9,0.7-13.4,1.2-19.8,2.1c-1.1,0.1-2.6,1.3-2.9,2.3c-2.8,9.6-5.5,19.3-8.2,29.1
		c9.5,3.7,15.6,10,19.2,19.2c9.9-2.7,19.5-5.3,29-8.1c1-0.3,2.1-1.9,2.3-2.9C83.6,340.1,84.2,333.8,85.1,326.4z"/>
	<path class="st1" d="M242.1,192.6c-16-13.7-32.4-27.8-48.6-41.7c37.5-37.5,74.8-74.7,111.8-111.6c14.8,15,30,30.2,44.9,45.3
		C314.8,120,278.6,156.1,242.1,192.6z"/>
	<path class="st1" d="M282,240.7c-13.3,13.1-26.2,25.9-39.5,39.1C164.5,188.9,86,97.7,7.5,6.4C7.8,6.2,8,5.9,8.3,5.6
		C99.5,84,190.8,162.3,282,240.7z"/>
	<path class="st2" d="M400.1,353.1c-21.2,9.5-41.7,16.7-63.9,17c-29.8,0.4-50.7-17.8-54.9-47.2c-0.3-2,0.6-4.9,2-6.3
		c11.7-12.1,23.7-24,35.7-35.8c1.1-1.1,3.3-1.8,4.9-1.6c20,2.3,29.6,12.2,31.5,32.3c0.3,2.9,1,5.8,0.8,8.7
		c-0.7,11.3,4.9,18.9,14.7,23.1c8,3.4,16.5,5.6,24.8,8.3C396.7,352,397.9,352.3,400.1,353.1z"/>
	<path class="st1" d="M359.8,76.5c-15.7-15.7-30.7-30.7-46-46c0.6-0.7,1.2-1.7,2-2.5c7.1-7.2,14.3-14.4,21.5-21.5
		c6.1-6,11.9-6.1,18-0.2c9.5,9.4,19,18.9,28.4,28.4c5.8,5.9,5.8,11.6,0.1,17.5C375.8,60.4,367.8,68.4,359.8,76.5z"/>
	<path class="st1" d="M290.2,248.9c7.6,7.3,15.2,14.7,22.6,21.9c-13.4,13.4-26.6,26.5-39.8,39.6c-7.1-7.2-14.6-14.8-22.1-22.3
		C263.8,275.2,277,262,290.2,248.9z"/>
</g>
</svg>
