<?xml version="1.0" encoding="utf-8"?>
<!-- Generator: Adobe Illustrator 24.0.0, SVG Export Plug-In . SVG Version: 6.00 Build 0)  -->
<svg version="1.1" id="Layer_1" xmlns="http://www.w3.org/2000/svg" xmlns:xlink="http://www.w3.org/1999/xlink" x="0px" y="0px"
	 viewBox="0 0 255.8 255.8" style="enable-background:new 0 0 255.8 255.8;" xml:space="preserve">
<style type="text/css">
	.st0{stroke:#000000;stroke-width:5;stroke-miterlimit:10;}
</style>
<path class="st0" d="M20.4,166V229c0,3.6,2.9,6.4,6.4,6.4h62.9c3.1,0,5.6-2.5,5.6-5.6v0c0-3.1-2.5-5.6-5.6-5.6H31.6V166
	c0-3.1-2.5-5.6-5.6-5.6h0C22.9,160.4,20.4,162.9,20.4,166z"/>
<path class="st0" d="M89.8,20.4H26.8c-3.6,0-6.4,2.9-6.4,6.4v62.9c0,3.1,2.5,5.6,5.6,5.6h0c3.1,0,5.6-2.5,5.6-5.6V31.6h58.1
	c3.1,0,5.6-2.5,5.6-5.6v0C95.4,22.9,92.9,20.4,89.8,20.4z"/>
<path class="st0" d="M235.4,89.8V26.8c0-3.6-2.9-6.4-6.4-6.4H166c-3.1,0-5.6,2.5-5.6,5.6v0c0,3.1,2.5,5.6,5.6,5.6h58.1v58.1
	c0,3.1,2.5,5.6,5.6,5.6h0C232.9,95.4,235.4,92.9,235.4,89.8z"/>
<path class="st0" d="M166,235.4H229c3.6,0,6.4-2.9,6.4-6.4V166c0-3.1-2.5-5.6-5.6-5.6h0c-3.1,0-5.6,2.5-5.6,5.6v58.1H166
	c-3.1,0-5.6,2.5-5.6,5.6v0C160.4,232.9,162.9,235.4,166,235.4z"/>
</svg>
