<?xml version="1.0" encoding="utf-8"?>
<!-- Generator: Adobe Illustrator 24.0.0, SVG Export Plug-In . SVG Version: 6.00 Build 0)  -->
<svg version="1.1" id="Layer_1" xmlns="http://www.w3.org/2000/svg" xmlns:xlink="http://www.w3.org/1999/xlink" x="0px" y="0px"
	 viewBox="0 0 622.7 622" style="enable-background:new 0 0 622.7 622;" xml:space="preserve">
<g>
	<path d="M313.6,617.9c-26-1.4-51.8-2-77.5-4.3c-42.7-3.8-85-10.8-126.1-23.2c-27-8.1-53.4-17.9-76.5-34.4
		c-7.7-5.5-15-12.1-21.2-19.2c-9.9-11.3-14.8-24.6-10.5-39.9c5.3-18.6,10.8-37.3,16.5-55.8c3.7-11.8,12.1-20.3,21.7-27.7
		c19.3-14.9,40.6-26.3,62.4-37.1c28.6-14.2,58.3-25.5,88.2-36.5c1.3-0.5,3.6,0.1,4.7,1c9.4,7.7,18.3,16.2,28.1,23.3
		c15.5,11.4,32.3,21,51.4,24.9c28.2,5.9,56.6,6.9,84.3-3.2c23.8-8.6,44.7-21.9,62.3-40c5.9-6,10.5-6.7,18.2-3.8
		c41,15.1,80.7,33.2,118.7,54.8c8.6,4.9,16.8,10.7,24.9,16.5c11,8,18.9,18.6,23,31.6c5.5,17.2,10.4,34.7,15.1,52.1
		c4,14.9-0.7,27.8-10.3,39.3c-12.5,15.1-28.8,25.1-46.1,33.7c-30.9,15.4-63.7,25.5-97.5,31.9c-25.4,4.8-51,8.8-76.7,11.5
		C365.1,616.1,339.2,616.5,313.6,617.9z"/>
	<path d="M160,162.8C162,106.9,184.4,61.7,231.1,30c26.6-18.1,56.7-27.5,89-24.5c48.8,4.7,88.1,26.9,115.6,68.3
		c11.7,17.5,20,36.5,23.8,57.3c3.1,17.5,3.8,35,1.8,52.6c-4.7,42.8-20.1,81.5-46.4,115.6c-17.2,22.3-38.2,40.1-64.1,51.8
		c-9.6,4.3-19.9,5.5-30.2,6.5c-33.4,3.1-61.4-8.8-86-30.4c-33.4-29.3-54.4-66.1-66.5-108.4C162.9,200.6,160.2,182,160,162.8z"/>
</g>
</svg>
