<?xml version="1.0" encoding="utf-8"?>
<!-- Generator: Adobe Illustrator 24.0.0, SVG Export Plug-In . SVG Version: 6.00 Build 0)  -->
<svg version="1.1" id="Layer_1" xmlns="http://www.w3.org/2000/svg" xmlns:xlink="http://www.w3.org/1999/xlink" x="0px" y="0px"
	 viewBox="0 0 612 612" style="enable-background:new 0 0 612 612;" xml:space="preserve">
<path id="trophy" d="M250.7,474c0-33.9,0-65.3,0-97.6c-67.1-23.7-110.8-69.6-129.6-140.1c-8-1.3-16.5-2.4-24.9-4.2
	C44.1,220.3,4.8,172.5,3,118.6C2.4,103.4,2.6,88.2,2.8,73C3,56.1,8.1,50.8,25.3,50.7c29.8-0.2,59.5-0.1,91.4-0.1
	c0-6.8,0-12.5,0-18.2c0.2-20,4.6-24.4,25.2-24.4c61.3-0.1,122.6,0,183.9,0c47.2,0,94.4,0,141.6,0c23.4,0,26.9,3.5,27.1,27.5
	c0.1,4.7,0.4,9.5,0.8,15.9c28.9,0,57,0,85,0c24.7,0,28.2,3.5,28.1,28.2c-0.1,16.3,1,32.7-1,48.8c-6.7,54.5-45.7,95.1-100.1,105.6
	c-5.8,1.1-11.6,2-17.9,3.1c-18.7,69.7-62.3,116.4-130,140.2c0,32.2,0,63.5,0,97.6c12.2,0,23.9-0.2,35.6,0
	c17.5,0.4,22.1,4.9,22.3,22.4c0.2,29.3-0.1,58.6,0.1,87.9c0.1,14.4-6.6,21-20.7,21c-58.6,0-117.2,0-175.7,0
	c-14,0-20.9-6.5-20.8-20.9c0.3-29.8-0.1-59.7,0.2-89.5c0.2-16.6,4.9-21.2,21.4-21.6C230.9,473.8,240,474,250.7,474z M459.7,41.6
	c-103.2,0-206.4,0-310.4,0c0,52.6-0.4,104.1,0.1,155.5c0.7,66.9,44.5,126,108.3,147.3c27.2,9.1,27.2,9.1,27.2,38.7
	c0,30.2,0,60.4,0,91c15.1,0,28.2,0,42.4,0c0-35.1,0.5-68.7-0.2-102.2c-0.3-15.1,5.6-21.7,20.1-26.2
	c62.5-19.3,104.5-61.2,111.2-126.3C464.5,161.2,459.7,101.7,459.7,41.6z M234.2,573.7c50.9,0,99.9,0,149.6,0c0-22.1,0-43.4,0-65.2
	c-50.4,0-99.8,0-149.6,0C234.2,530.7,234.2,551.7,234.2,573.7z M116.2,84.3c-27.6,0-53.7,0-79.8,0c-8.8,65.5,25.6,115.6,79.8,116.6
	C116.2,162.5,116.2,124.2,116.2,84.3z M495,201.9c59-7.6,93.8-60.6,78.7-117.4c-26.2,0-52.4,0-78.7,0C495,124.2,495,162.5,495,201.9
	z"/>
<path id="star" d="M231.5,272.6c1.2-7.3,2.3-14.6,3.5-21.9c2.2-13.6,4.5-27.2,6.8-40.8c0.4-2.2-0.8-3.5-2.1-4.8
	c-8-8.1-16-16.2-24-24.3c-6.6-6.7-13.2-13.4-19.8-20c-3.7-3.8-3.9-8-1.8-12.5c1.3-2.8,3.3-4.7,6.4-5.2c9.5-1.6,18.9-3.4,28.4-4.8
	c11.7-1.8,23.5-3.4,35.3-5c1.6-0.2,2.5-0.9,3.3-2.4c8.8-17.4,17.6-34.8,26.4-52.2c0.9-1.8,2-3.6,3.1-5.3c4.2-6.5,13.2-6.9,17.4-0.5
	c4,6.2,7.4,12.8,10.7,19.4c6.5,12.8,12.7,25.6,19,38.5c0.8,1.6,1.7,2.2,3.4,2.5c14.7,2,29.4,4.1,44,6.3c6.7,1,13.3,2.2,19.9,3.5
	c6.4,1.3,9.9,10.1,6.1,15.4c-2,2.9-4.4,5.5-6.9,8c-12.1,12.1-24.1,24.3-36.4,36.2c-3.5,3.4-4.5,6.7-3.6,11.6
	c2.9,15.6,5.4,31.2,7.9,46.9c0.7,4.3,1.1,8.6,1.2,12.9c0.1,6-5.9,10.7-11.7,9.2c-3.9-1-7.8-2.5-11.5-4.4c-16-8.1-32-16.4-47.9-24.7
	c-2.1-1.1-3.5-1-5.6,0c-16.8,8.8-33.7,17.4-50.7,26.1c-2.4,1.2-5,2.2-7.6,3c-4.4,1.4-7.5,0.4-10.3-3.2
	C233,277.9,231.5,275.6,231.5,272.6z M258.9,250.6c1.5-0.7,2.4-1.1,3.3-1.5c11.6-5.9,23.1-11.9,34.7-17.7c8.9-4.4,9.4-4.4,18.3,0
	c11.9,5.9,23.6,12.1,35.4,18.2c0.7,0.3,1.3,0.6,2.3,1.1c-0.4-2.5-0.7-4.6-1-6.7c-1.9-11.6-4-23.3-5.8-34.9c-1.5-9.2-1.5-9.5,5-16.3
	c9.3-9.7,18.9-19.1,28.3-28.7c0.6-0.6,1.1-1.2,1.9-2.1c-0.8-0.2-1.3-0.4-1.8-0.4c-12.9-2.1-25.8-4.1-38.7-6.2
	c-10.8-1.7-11.5-2.2-16.4-11.9c-5.7-11.1-11.2-22.3-16.8-33.4c-0.4-0.9-1-1.7-1.6-2.9c-0.6,1.1-1.1,1.9-1.5,2.7
	c-4.4,8.9-8.7,17.8-13.2,26.6c-2.2,4.3-4.5,8.6-7.1,12.7c-1.7,2.7-3.9,5.1-7.3,5.6c-13.1,2-26.3,3.9-39.4,5.9
	c-2.2,0.3-4.3,0.8-6.5,1.1c-0.1,0.3-0.2,0.5-0.3,0.8c3,2.8,6.1,5.5,9,8.5c8,8,15.9,16.1,23.8,24.2c2.3,2.3,3.7,4.9,3.1,8.4
	c-1.7,9.8-3.1,19.6-4.6,29.3C261,238.8,260,244.5,258.9,250.6z"/>
</svg>
