<?xml version="1.0" encoding="utf-8"?>
<!-- Generator: Adobe Illustrator 24.0.0, SVG Export Plug-In . SVG Version: 6.00 Build 0)  -->
<svg version="1.1" id="Layer_1" xmlns="http://www.w3.org/2000/svg" xmlns:xlink="http://www.w3.org/1999/xlink" x="0px" y="0px"
	 viewBox="0 0 612.7 612" style="enable-background:new 0 0 612.7 612;" xml:space="preserve">
<style type="text/css">
	.st0{fill:#CD1126;}
	.st1{fill:#D53648;}
	.st2{fill:#D43143;}
	.st3{fill:#003F86;}
	.st4{fill:#AABED6;}
	.st5{fill:#7F9EC2;}
	.st6{fill:#FDFDFE;}
	.st7{fill:#FDFEFE;}
</style>
<g>
	<path class="st0" d="M306.1,610.6c-6.1-6-12-12.1-17.4-18.7c-13.3-16.3-23.8-34.4-33.2-53.1c-1.4-2.9-1.4-2.8-4.3-1.6
		c-12.4,5.5-25.3,6.6-38.6,4.7c-35.6-5-59.4-32.7-67-63.9c-3.7-15.3-4.4-30.8-2-46.2c1.5-9.7,4.7-19.2,10.5-27.6
		c0.4,2.7,0.3,5.4,0.8,8.1c3,16.9,11.9,30,27.4,37.4c13.4,6.3,26.7,3.9,38.7-4.5c1.5-1,2.6-1.2,4.1-0.3c2.9,1.7,5.5,3.9,8.2,5.9
		c1.1,0.8,0.9,1.3,0.1,2.2c-5.9,6.5-13.1,11.1-21.5,13.7c-19.6,5.9-37,2.1-51.8-12.3c-0.2-0.2-0.3-0.3-0.5-0.4c0,0-0.1,0-0.4,0
		c-0.5,6.5,0.1,13,1.7,19.3c5.2,20,15.9,36,34.3,46.2c11.6,6.4,24.2,9.1,37.2,6.3c9.8-2.1,18.9-6.4,26.2-13.7
		c1.3-1.3,1.7-1.4,2.5,0.4c7.2,16.4,14.6,32.7,23.9,48c6.3,10.5,13.4,20.5,21.7,29.7c21.2-22.8,34.7-50.1,45.7-78.8
		c2.7,2,5.4,4,8,5.9c15.6,11.2,32.5,12.5,50.2,5.9c18.7-6.9,30.8-20.7,38.3-38.8c3.5-8.5,5.3-17.4,6-26.5c0.1-0.9,0.8-2.2-0.4-2.7
		c-1.1-0.5-2.2,0.1-3.1,1c-4.6,4.2-9.7,7.6-15.4,10c-15.8,6.6-31,4.7-45.5-4c-3.7-2.2-7.2-4.8-10.5-7.7c-1.2-1-1.3-1.7-0.2-2.8
		c2.8-3.1,6.6-4.9,10-7.2c0.8-0.6,1.3,0.2,1.9,0.6c6.3,4.7,13.3,7.4,21.1,8.2c13.2,1.3,23.8-3.7,32.6-13.2
		c8.7-9.5,12.5-21.1,13.2-33.7c0-0.6,0.1-1.2,0.1-2c1.5,1.6,2.3,3.4,3.1,5.1c7.8,15.5,10.5,32,9.4,49.1c-1,15.5-4.8,30.3-12.9,43.7
		c-12,19.8-28.8,33.4-51.6,39c-15.3,3.8-30.2,2.1-44.4-4.5c-1.4-0.6-2-0.4-2.8,0.8c-4.8,7.4-9,15.1-13.3,22.8
		c-10.1,18.2-22.5,34.8-37.7,49.1c-0.3,0.2-0.6,0.4-0.6,0.9C307.3,610.6,306.7,610.6,306.1,610.6z"/>
	<path class="st0" d="M41.5,279.8c1-2.5,0.9-5.1,1.3-7.7c1.4-9.9,6.1-23.1,10.9-30.2c3.3,3.8,6.5,7.6,9.8,11.3
		c0.6,0.7,0.3,1.2,0,1.8c-14.3,33.8-3.9,77.4,20.6,103.6c6.7,7.2,13.8,14.1,22.5,19c2.8,1.6,2.7,1.5,3.6-1.5
		c3.9-14.5,10.3-27.6,21-38.4c4.2-4.2,9.1-7.7,14.5-10.3c0.8-0.4,1.5-0.8,2.4-0.2c5.1,3.5,10.3,7,15.2,10.3
		c-30.8,14-42.9,37.5-36.1,70.9c-5.3-1.9-10.1-4.2-14.7-6.8c-27.6-15.8-48.4-37.9-61.5-67c-5.1-11.2-7.7-23.1-9-35.3
		c-0.1-0.5,0.2-1.2-0.5-1.6c0-1.3,0-2.6,0-4c0.4-1.2,0.4-2.4,0-3.5c0-1.2,0-2.4,0-3.5c0.4-1.3,0.4-2.6,0-4
		C41.5,281.8,41.5,280.8,41.5,279.8z"/>
	<path class="st1" d="M41.5,282.9c0.8,1.3,0.7,2.6,0,4C41.5,285.5,41.5,284.2,41.5,282.9z"/>
	<path class="st2" d="M41.5,290.3c0.6,1.2,0.7,2.4,0,3.5C41.5,292.7,41.5,291.5,41.5,290.3z"/>
	<path class="st3" d="M388.6,356c4.1,0.2,8.2,0.4,12.6,0.6c-1,1.3-2.3,1.9-3.5,2.6c-7.2,4.2-14.5,8.4-21.7,12.6
		c-1.3,0.8-2.6,1.7-3.8,2.6c-2.2,1.6-2.3,3.3-0.2,5.4c8.5,8.5,17,17,25.6,25.6c2.9,2.9,5.7,5.8,8.6,8.6c1,1,1.1,1.7,0.3,2.9
		c-5.9,9.1-13.6,16.5-22.4,22.9c-2.7,2-5.6,3.8-8.7,5.5c-2.7-6.3-5.4-12.6-8.1-18.8c-3.4-8-6.9-16-10.4-24c-0.4-1-0.6-1.8-0.1-2.9
		c6.2-12.6,8.8-26.1,10.1-39.9c1.4-15.7,0.9-31.4,1-47.2c0-1.9-1.5-3.3-4.3-3.9c-7.2-1.6-14.5-3.2-21.7-4.8
		c-10.6-2.3-21.2-4.5-31.8-7c-2.1-0.5-3.9-0.1-5.9,0.3c-18.5,3.9-37,7.8-55.5,11.7c-1.1,0.2-1.8,0.4-1.8,1.9
		c-0.4,15.1-1.3,30.3-0.4,45.4c0.9,14.5,3.1,28.7,9.9,41.9c0.4,0.8,0.4,1.5,0,2.3c-6,14.2-12,28.5-18.1,42.7
		c-0.2,0.6-0.3,1.6-1.4,0.8c-10.1-6.7-19.9-13.7-27-23.6c-4.1-5.7-4.1-5.7,1-10.6c10.3-9.9,20.7-19.6,30-30.5c3-3.5,2.7-4.8-1.3-6.9
		c-8.5-4.7-17-9.3-25.5-13.9c-0.8-0.5-1.6-0.9-2.7-1.5c5.3-1.9,10.5-0.4,15.5-1.1c-0.1-1.1-1.1-1-1.8-1.2c-4.5-1.3-9.1-2-13.7-2
		c-8.2-0.1-15.2-3.3-22-7.4c-3.2-1.9-6.5-3.7-9.9-6.2c7.6-1,14.9,0.1,22-1.6c-2.4-1-4.9-1.1-7.4-1.3c-7.5-0.9-15.1-1.5-22.5-3.1
		c-7.3-1.7-14.1-4.5-19.7-9.6c-0.6-0.5-1.2-1.1-1.7-1.7c-0.2-0.2-0.3-0.4-0.7-0.9c10.6-0.8,21-1.2,31.4-1.5c0.6-0.3,1.2,0,1.8-0.2
		c0.1,0,0.6,0.2,0.2-0.3c-0.1-0.1-0.2-0.2-0.3-0.2c-9-1.9-18.1-1.7-27.2-2.3c-7.2-0.5-14.3-1.5-20.9-4.8c-3-1.5-5.8-3.5-8.1-6
		c-0.5-0.6-1.6-1.1-1.3-1.9c0.4-0.9,1.6-1.1,2.7-1.1c3.3,0,6.6-0.1,9.9-0.1c7.9-0.1,15.7-0.2,23.6-0.3c0.7,0,1.4,0.2,2.4-0.6
		c-2.7-1.1-5.2-1.3-7.7-1.5c-9.2-1-18.4-0.1-27.5-0.9c-8.8-0.8-16.9-3.1-23-9.9c-0.6-0.7-1.2-1.3-1.7-2.1c-0.4-0.7-1.5-1.3-1-2.1
		c0.5-0.8,1.6-0.8,2.6-0.8c4.8,0,9.6,0,14.3,0c7.6,0,15.3,0.3,23.5-0.6c-3-0.9-5.6-0.8-8.1-1.1c-11.8-1.2-23.7-2.4-35.5-3.5
		c-3-0.3-5.3-1.9-7.6-3.7c-3.2-2.4-5.7-5.4-8.7-8.5c14.1-2.9,28.1-0.5,41.9-2.6c-4.1-1.1-8.3-1.5-12.5-1.7
		c-8.1-0.3-16.2-0.1-24.2-1.3c-7.7-1.2-14.6-3.9-19.6-10.3c-0.3-0.4-0.6-0.8-0.9-1.2c-0.1-0.2-0.1-0.4-0.3-0.7
		c19.2-0.4,38.2-0.8,57.4-1.2c-0.6-1.1-1.4-1.3-2.3-1.4c-14-1-28-2.1-42-3.2c-3.5-0.3-7.1-0.3-10.5-0.9c-6.8-1.2-12-4.8-15.5-10.9
		c-0.9-1.6-0.2-2.1,1.2-2.3c0.6-0.1,1.3,0,2,0c40.1,0,80.3,0.2,120.4-0.1c15.2-0.1,28.7,4.3,41.1,12.8c9.3,6.3,17.5,13.9,25.7,21.5
		c6.9,6.4,13.8,12.8,21,18.8c1.9,1.6,3.8,1.7,5.9,1.2c3.1-0.8,5.3-2.7,7.2-5.2c2.6-3.5,4.1-7.6,5.7-11.6c0.9-2.2,1.7-4.4,2.6-6.5
		c0.5-1.1,0.3-1.5-0.7-2c-2.8-1.2-5.6-2.3-8.1-4c-1.9-1.3-3.5-2.8-4.2-5.3c5,0.5,9.9,0,14.7,0.8c3.4,0.6,6.4,1.9,8.7,4.7
		c1.2,1.5,1.3,3.1,0.9,4.9c-1.8,8.1-4.7,15.9-7.3,23.7c-0.4,1.1-0.5,1.7,1,1.8c10.9,1,21.8,1.7,32.8,0.9c0.7-0.1,1.4-0.2,2.3-0.3
		c-2.9-11.8-4.5-23.8-5.8-35.7c-0.3-2.9-0.8-5.8-0.9-8.8c-0.1-1.8-1-3-2.3-4c-3.7-2.8-7.9-3.3-12.3-3c-3.7,0.2-7.3,0.9-10.9,1.6
		c-0.7,0.1-1.3,0.3-1.5,1.1c-0.1,0.8,0.7,0.9,1.1,1.2c1.4,0.9,2.9,1.7,4.7,1.5c0.5,0,1.1-0.4,1.4,0.2c0.3,0.6,0,1.2-0.4,1.6
		c-1.6,1.9-3.6,3.3-6,3.8c-3.4,0.7-6.9,0.4-10.3,0.3c-3.4,0-6.8-0.1-10,1.1c-2.8,1-3.1,1.7-2.5,4.6c0.2,1,0.7,1.9,1.1,3
		c-1.6,0.5-2.7-0.2-3.5-1.4c-2.9-4.4-4.2-8.9-1.8-14.1c1.5-3.2,4.2-3.7,7-4.1c3.7-0.6,7.3-0.1,11,0.3c1.5,0.2,2.3-0.1,3.1-1.6
		c4.9-8.8,12.9-12.3,24.2-10.9c3.8,0.5,7.6,1,11.4,1.4c3.7,0.4,7.4,0.8,11.7,0.4c-1.6,2.8-3,5.3-4.5,7.7c-0.9,1.4-1.2,2.9-1,4.6
		c1.6,14.6,3.4,29.2,8,43.2c1.8,5.4,5.9,6.5,10.2,2.6c5.1-4.6,10.1-9.2,15.1-13.9c9.5-8.9,19-17.8,29.9-25c10.5-7,21.8-12,34.6-13.2
		c6.8-0.6,13.7-0.2,20.5-0.2c35.9,0.1,71.7,0.2,107.6,0.4c0.6,0,1.3,0,2.3,0c-2.4,6.1-5.8,10.7-12.3,12c-12.4,2.6-25.1,3.1-37.7,3.9
		c-6.4,0.4-12.7,0.9-19.2,1.3c0.5,1.7,1.7,1.8,3,1.8c17,0.1,34,0.3,50.9,0.4c0.5,0,1,0,1.7,0c-3,5.7-7.5,9.1-13.1,11
		c-6.6,2.3-13.4,2.3-20.3,2.5c-6.7,0.2-13.4,0-20,1.4c-0.5,0.1-1,0.3-1.5,0.4c0.4,1.5,1.6,1.3,2.6,1.3c11.6,0.2,23.2,0.5,34.8,0.7
		c0.6,0,1.2,0.1,1.9,0.2c-2.8,5.4-6.8,9.1-12.2,11.5c-6.6,2.9-13.7,3.1-20.7,3.4c-7.9,0.3-15.9-0.3-23.8,1c-1.4,0.2-2.9,0.4-4.2,1.4
		c13.8,0.8,27.7,0.8,41.8,0.9c-2.7,4.9-6.3,8.3-11,10.7c-5.7,2.9-11.8,3.8-18.1,4.2c-8.8,0.5-17.6,0-26.4,0.9
		c-2.1,0.2-4.2,0.6-6.2,1.1c12.9,2,25.9,0.5,39.2,1.8c-2.1,2.9-4.5,5-7.3,6.8c-5.9,3.7-12.6,5-19.4,5.7c-7.8,0.8-15.7,0.7-23.5,1.7
		c-2.1,0.3-4.3,0.5-6.3,1.6c10.6,0.5,21.2,1.1,32.1,1.6c-2.4,3.2-5.2,5.4-8.4,7.3c-6.2,3.7-13.2,5.3-20.2,6.3
		c-7.9,1.1-15.9,1.6-23.8,3.1c-0.2,0-0.4,0.1-1.2,0.4c8.1,0.3,15.6,0.6,23.6,0.8c-3.5,3.6-7.3,6-11.4,8.1
		c-9.2,4.7-19.3,6.5-29.4,7.9c-1.4,0.2-2.8,0.4-4.1,0.5c-0.8,0.5-1.7,0.5-2.7,0.6C386.8,355.9,387.8,355.3,388.6,356z"/>
	<path class="st0" d="M227.8,229.7c-4.9-3.9-9.8-7.2-14.9-10.1c-20.2-11.4-41.9-17.1-65.1-16.6c-18.4,0.4-35.7,5-51.3,15
		c-4.5,2.9-9,4.4-14.4,4c-4.7-0.4-9.5,0-14.7-0.7c1.3-1.4,2.4-2.7,3.6-3.9c16.4-16.5,36.4-26,59.1-29.8c23.4-3.9,46.2-1.3,68.3,7.6
		c5.1,2,10.3,3.8,15.5,5.8c1.2,0.5,1.5,0.2,1.7-1c5.9-32.5,19.8-61.9,35.5-90.5c11.4-20.8,23.7-41.2,34.7-62.3
		c7.4-14.1,14.1-28.5,19.4-43.5c0.1-0.4,0.3-0.8,0.5-1.2c0.5,0.1,0.6,0.5,0.7,0.8c9.1,23.6,21.3,45.7,33.7,67.7
		c12.5,22,25.5,43.8,36.2,66.7c8.5,18.3,16,37,20.3,56.9c0.4,1.9,0.8,3.7,1,5.6c0.1,1.5,0.6,1.6,1.9,1.1c7.7-2.8,15.4-5.9,23.2-8.2
		c24.5-7.3,49.3-9.3,74.2-2c18.5,5.4,34.2,15.5,47.4,29.6c0.2,0.3,0.4,0.6,0.7,0.8c-0.5,0.7-1.1,0.4-1.6,0.4
		c-6.3,0.1-12.6,0.2-19,0.4c-1.1,0-2-0.1-2.9-0.7c-12.8-9.3-27.3-14.4-42.9-16.6c-19.7-2.9-38.9-1.2-57.7,5.6
		c-9.1,3.3-17.3,8.3-25.2,13.8c-3.2,2.2-6.4,4.3-9.8,6.6c-0.4-5-0.8-9.7-1.3-14.4c-2.2-20.1-8-39.2-15.7-57.8
		c-8.8-21.1-19.9-41-31.1-60.9c-10.5-18.6-21.3-37.2-30.4-56.6c-0.2-0.5-0.3-1.3-1-1.3c-0.6,0-1,0.5-1.3,1
		c-15.8,33.3-36.1,64.2-52.1,97.4c-9.2,19.1-16.9,38.7-21.3,59.5c-2.1,9.9-3.5,20-3.8,30.1C228,228.4,227.9,228.8,227.8,229.7z"/>
	<path class="st0" d="M485.7,408.9c1.2-6.5,1.9-12.9,1.6-19.4c-0.9-16-6.2-29.9-18.7-40.5c-4.8-4-12.6-8.2-18.5-9.9
		c1.5-2,3.6-3.3,5.6-4.6c2.9-2,5.9-3.9,8.7-5.9c0.9-0.7,1.6-0.3,2.4,0c8.5,3.6,15.4,9.3,21.1,16.6c7.5,9.6,12.1,20.5,14.8,32.4
		c0.5,2,1.1,1.9,2.6,1.2c7.2-3.4,13.4-8.3,18.7-14.1c10.3-11.3,19.6-23.2,25-37.7c8.7-23.5,9.3-47.2,0.6-70.8c-0.4-1.2-0.4-2,0.4-3
		c2.6-3.2,5-6.5,8.4-8.9c1.3-0.9,1.9-0.8,2.7,0.7c7.4,15.4,10.3,31.8,9.6,48.7c-0.8,19.3-5.5,37.6-15.2,54.3
		c-16,27.7-38.6,48.2-68.3,60.5C486.7,408.6,486.3,408.7,485.7,408.9z"/>
	<path class="st3" d="M307.2,348.7c-17.2,0-34.4,0-51.6,0c-1.7,0-2-0.5-2.1-2.1c-0.1-8-1-16-0.8-24c0-1.6,0.3-3.2,0.2-4.8
		c-0.1-2,0.7-2.5,2.6-2.8c8.8-1.2,17.2-4.1,25.8-6.4c8.1-2.3,16.3-4.4,24.8-4.7c5.3-0.2,10.4,0.2,15.5,1.6c12.2,3.4,24.7,5.7,37,8.6
		c1.5,0.4,2.2,0.7,2.2,2.5c0,9.8,0.2,19.7,0.4,29.5c0,1.7-0.3,2.2-2.1,2.2c-13.2,0.1-26.4,0.3-39.7,0.4
		C315.4,348.8,311.3,348.8,307.2,348.7C307.2,348.7,307.2,348.7,307.2,348.7z"/>
	<path class="st3" d="M260.5,407.2c2.4,2.7,4.5,5.6,6.5,8.5c4.2,5.9,8.1,12,13.7,16.6c2,1.6,2.2,2.9,1.3,5.2
		c-3.6,8.8-7,17.7-10.4,26.6c-1.1,2.8-1.8,3.2-4.8,2.8c-2.7-0.3-5.2-1.6-7.7-2.5c-1.5-0.5-2.4-0.4-3.3,1c-1.2,1.9-2.5,3.6-3.9,5.3
		c-0.7,0.9-0.5,1.5,0.3,2.2c1.1,0.8,2.3,1.3,3.7,1.4c1.9,0,3.8,0,5.7,0c5.9,0,8.5,2.6,8,8.6c-0.3,3.4-1.4,6.4-4.4,8.4
		c-0.5,0.3-1,0.8-1.6,0.5c-0.6-0.4-0.2-1.1-0.1-1.6c0-0.3,0.2-0.6,0.2-0.8c0.9-3.9-0.5-5.8-4.7-5.8c-11,0.1-22,0.2-33.1,0.3
		c-2.6,0-5.3,0-7.9,0.1c-2.3,0-3.3,1.1-3.2,3.4c0,1.4,0.7,2.7,1,4.1c0.1,0.5,0.6,1,0.1,1.4c-0.4,0.3-1,0-1.5-0.2
		c-3.1-1.7-5-4.4-5.7-7.7c-0.6-3.2-0.1-6.3,2.2-8.9c1.2-1.3,2.5-1.8,4.3-1.6c6.5,0.7,13.1,0.6,19.3-1.9c5-2,8.8-5.4,11.6-10
		c1.1-1.7,0.6-2.8-0.9-3.8c-5.1-3.5-5.1-3.5-2.7-9.2c5.6-13.4,11.1-26.8,16.7-40.2C259.6,408.5,259.7,407.8,260.5,407.2z"/>
	<path class="st3" d="M353.1,407.9c2.6,6,5,11.7,7.5,17.5c3.9,9,7.7,18.1,11.6,27.1c1.1,2.5,0.7,3.7-1.5,5.2
		c-0.4,0.3-0.7,0.5-1.1,0.7c-3.7,2.2-3.7,2.2-1.5,5.9c3.6,6,9.4,8.5,16,9.9c5.6,1.2,11.2,1.2,16.9,1.6c1.3,0.1,2.1,0.6,2.8,1.7
		c2.1,3.9,1.4,9-1.7,12.2c-1.2,1.3-2.3,2.6-3.5,3.9c-0.2-0.1-0.3-0.3-0.5-0.4c0.2-1.8,0.6-3.5,0.6-5.3c0.1-2.7-1.3-4.1-4-4.1
		c-14.1,0.1-28.2,0.2-42.3,0.4c-2,0-3,1.2-3,3.2c0,1.3,0.5,2.4,0.8,3.6c0.1,0.5,0.4,1.1-0.1,1.4c-0.5,0.3-1.1,0-1.4-0.3
		c-4.6-3.5-6.5-10.2-2.9-15.2c1.6-2.2,4.2-2.2,6.6-2.1c2.6,0.1,5.1,0.4,7.7-0.2c2.7-0.7,3-1.4,1.4-3.7c-1.3-1.8-2.8-3.4-4.1-5.2
		c-0.7-0.9-1.5-0.5-2.2-0.3c-3.2,0.7-6.3,1.4-9.4,2.2c-1.1,0.3-1.6,0-2.1-0.9c-5.4-9.6-9.1-19.8-12.7-30.2c-0.3-0.8-0.1-1.4,0.5-2
		c7.8-7.9,14.5-16.8,20.9-25.9C352.4,408.6,352.7,408.3,353.1,407.9z"/>
	<path class="st0" d="M306.6,56.3c1,3,0.9,6.1,1.1,9.1c1.2,16.4,2.2,32.8,3.3,49.2c1.4,20.7,2.8,41.3,4.2,62
		c0.8,11.4,1.5,22.9,2.3,34.3c0.1,1.7-0.2,2.2-2,2.2c-5.9,0-11.8,0.1-17.6,0.4c-1.6,0.1-1.9-0.4-1.8-2c1-14.8,2-29.6,3-44.4
		c1.3-19.2,2.5-38.4,3.8-57.6c0.9-13.8,1.9-27.6,2.8-41.3C306,64.3,306.3,60.3,306.6,56.3z"/>
	<path class="st0" d="M496.5,347c1.9-6.1,3.6-11.9,5.6-17.5c0.9-2.5,0.5-3.8-1.7-5.3c-5-3.4-9.8-7.2-15.1-11.2
		c3.2-0.2,5.9-0.4,8.6-0.6c3.8-0.2,7.6-0.4,11.4-0.6c1.4,0,2.1-0.5,2.5-1.9c1.9-5.5,3.9-10.9,6-16.3c0.2-0.7,0.3-1.5,1-2
		c1.7,2.1,2.2,4.6,2.8,7c0.8,3,1.4,6,2.8,8.8c1.8,3.7,4.5,4.9,8.6,4.8c4.8-0.1,9.6-0.4,14.8,0.6c-5.2,4.1-9.9,8-14.8,11.8
		c-1.4,1.1-1.8,2-1.2,3.8c1.9,5.6,3.6,11.3,5.4,17.1c-0.7,0.3-1-0.2-1.4-0.5c-5-3.1-9.9-6.2-14.8-9.5c-1.4-0.9-2.4-0.8-3.7,0.1
		C507.9,339.5,502.4,343.1,496.5,347z"/>
	<path class="st0" d="M115.9,345.9c-5.7-2.9-10.8-6.7-15.8-10.6c-1.3-1-2.2-1-3.5-0.3c-4.7,2.5-9,5.8-13.5,8.7
		c-1,0.6-2.1,1.2-3.6,2.1c0.7-2.5,1.3-4.6,1.9-6.6c1.3-4.4,2.5-8.7,3.9-13.1c0.4-1.2,0.1-1.8-0.9-2.5c-5-3.4-10-6.9-15.1-10.6
		c2-0.8,3.9-1,5.7-1.1c4.3-0.2,8.5-0.3,12.8-0.4c1.5,0,2.4-0.6,3-2c2.4-4.8,4-9.9,5.9-14.9c0.4-1.1,0.9-2.2,1.5-3.8
		c2,5.7,3.9,10.8,5.4,16.1c0.8,2.7,2.1,3.9,4.9,4.3c5.6,0.8,11.1,0.5,16.7,0.5c0.5,0,1,0,1.7,0c-0.1,1.1-1,1.6-1.6,2.2
		c-3.7,3.4-8,6-12.2,8.7c-2.2,1.5-2.4,3.1-2.1,5.4c0.9,5.5,2.8,10.8,4.7,16C115.8,344.5,116.2,345,115.9,345.9z"/>
	<path class="st3" d="M310.5,466.6c-10-0.1-19.2-1.3-28.3-3.1c-1.6-0.3-2-0.9-1.7-2.5c1.6-7.1,4.1-13.9,7.6-20.3
		c0.7-1.3,1.2-1.3,2.2-0.5c4.4,3.2,8.9,6.1,14,8.1c2.3,0.9,4.3,0.8,6.5-0.1c4.4-2,8.5-4.6,12.6-7.1c1.2-0.7,1.7-0.8,2.3,0.7
		c2.4,6.7,4.9,13.3,7.5,19.9c0.5,1.3,0.4,1.8-1.1,2.2C324.8,465.9,317.3,466.5,310.5,466.6z"/>
	<path class="st0" d="M311.4,397.7c0,13.1-0.1,26.2,0.1,39.2c0,2.1-0.9,3.1-2.5,3.9c-1.7,0.9-3.3,1-5,0c-0.7-0.5-0.9-1-0.9-1.8
		c-0.6-22.6-1-45.3-0.2-67.9c0.2-4.6,0.4-9.1,0.6-13.7c0-1.4,0.5-1.7,1.8-1.7c5.8-0.1,5.8-0.1,5.8,5.6c0,12.1,0,24.3,0,36.4
		C311.1,397.7,311.3,397.7,311.4,397.7z"/>
	<path class="st0" d="M295.2,395.3c0,12.3,0,24.7,0,37c0,1.9-0.5,2.1-2.1,1.4c-5.2-2.1-7-4.8-7-10.4c0.1-18.1,0.1-36.3,0.2-54.4
		c0-3.9,0.3-7.8,0.4-11.7c0-1.3,0.5-1.6,1.7-1.5c1.6,0.2,3.2,0.3,4.8,0.2c1.6-0.1,1.9,0.6,1.9,2.1
		C295.2,370.5,295.2,382.9,295.2,395.3z"/>
	<path class="st0" d="M320.4,433.3c-0.1-0.1-0.2-0.3-0.2-0.4c0.4-22.3-1.2-44.7-0.4-67c0.1-2.9,0.4-5.7,0.6-8.6
		c0.1-1.2,0.5-1.7,1.8-1.5c1.9,0.3,4.4-0.6,5.5,0.6c1.2,1.3,0.4,3.8,0.4,5.7c0.2,20.5,0.3,41,0.4,61.5
		C328.5,427.6,324.3,432.6,320.4,433.3z"/>
	<path class="st0" d="M277.8,418.5c-2.6-3.1-5.3-6.3-7.9-9.4c-0.4-0.5-0.4-1.1-0.4-1.7c0-12.3,0-24.7,0-37c0-4.3,0.5-8.6,0.9-13
		c0.1-1.3,0.6-1.8,1.9-1.6c1.4,0.2,2.8,0.2,4.2,0.2c1.2,0,1.7,0.3,1.7,1.6c0,20.2,0,40.4,0,60.6
		C278.1,418.3,277.9,418.4,277.8,418.5z"/>
	<path class="st0" d="M336.9,418.3c-1-0.8-0.9-1.8-0.9-2.7c0-19.2,0-38.5,0-57.7c0-1.4,0.4-1.9,1.8-2.1c5.7-0.9,6.2-0.6,6.2,5.2
		c0.1,14.8,0.2,29.5,0.3,44.3c0,1.3-0.2,2.5-0.7,3.6C342,412.5,339.4,415.3,336.9,418.3z"/>
	<path class="st0" d="M261.1,388.4c-4.7-9.9-7.1-20.2-7.1-31.1c0-1.3,0.4-1.7,1.6-1.6c0.9,0.1,1.8,0,2.6,0c2.9,0.2,3.6,1.2,3,4.2
		c-0.2,0.8-0.2,1.6-0.2,2.4C261.1,371,261.1,379.7,261.1,388.4z"/>
	<path class="st0" d="M353.8,388.6c-0.4-10.2-1.3-19.9-0.1-29.6c0.1-1.1-0.1-2.7,0.9-3c1.8-0.5,3.8-0.8,5.6,0c0.7,0.3,1,1,0.8,1.7
		c-1.7,10.1-2.4,20.4-6.6,30C354.4,387.9,354.2,388,353.8,388.6z"/>
	<path class="st4" d="M388.6,356c-1,0-2,0-3,0c0.9-0.5,1.9-1,3-0.7C388.6,355.5,388.6,355.7,388.6,356z"/>
	<path class="st5" d="M182.6,318.2c0.6-0.2,1,0.2,1.7,0.6c-1.4,0.2-2.4,0.3-3.5,0.1C181.3,318.5,182.2,318.9,182.6,318.2z"/>
	<path class="st6" d="M340.1,337.6c-3.5,3.8-3.5,3.8-3.1,9c-2.9-2.2-5.8-2.9-8.6,0.1c-0.4-2.1,0.9-3.7,0.2-5.2
		c-0.6-1.3-2-2.3-3.4-3.8c4,0.3,6.5-1.1,7.3-5.1C333.7,336.1,335.7,338.3,340.1,337.6z"/>
	<path class="st6" d="M358,338.1c-1.3,1.8-3.1,2.5-3.3,4c-0.2,1.4,0.3,3,0.5,4.8c-1.6-0.8-3.1-2-4.5-2c-1.4,0-2.9,1.3-4.5,2.1
		c0.2-1.8,1-3.5,0.5-4.9c-0.4-1.4-2-2.4-3.6-4c4.2,0.5,6.5-1.3,7.5-5.1C351.7,336.8,354.1,338.4,358,338.1z"/>
	<path class="st6" d="M299.7,312.6c4.1,0.2,6.2-1.7,7.3-5.3c1.2,3.5,3.2,5.6,7.3,5.2c-3.2,2.2-4.2,4.9-2.7,8.7
		c-3.1-2.4-5.9-2.6-8.9,0C303.5,317.6,303.4,314.6,299.7,312.6z"/>
	<path class="st6" d="M270.4,320.9c-3.4,2.2-4.1,5-2.7,8.6c-3.1-2.2-5.9-2.9-9,0.1c1.2-3.7,0.6-6.6-2.9-8.7c3.9,0.1,6.4-1.5,7.3-5.4
		C264.3,319.1,266.2,321.4,270.4,320.9z"/>
	<path class="st6" d="M294.1,346.1c-0.2-2.3,1-4,0.3-5.4c-0.7-1.3-2.2-2.1-3.2-3.4c3.9,0.1,6.4-1.5,7.2-5.5c1.1,3.7,3.2,5.8,7.4,5.4
		c-3.4,2.2-4.2,5-2.8,8.7C300,343.6,297.1,343.1,294.1,346.1z"/>
	<path class="st6" d="M263.4,332.2c1.1,3.6,3.2,5.4,7.2,5.1c-3.1,2.3-4.2,5-2.7,8.6c-3.1-2.5-5.9-2.5-8.9,0c1.1-3.5,0.7-6.4-2.8-8.5
		C259.9,337.5,262.4,336,263.4,332.2z"/>
	<path class="st6" d="M358.3,322.2c-3.4,2.1-4,4.9-2.7,8.9c-3.2-2.8-6-2.9-9-0.4c1.2-3.6,0.6-6.4-2.9-8.5c3.8-0.1,6.4-1.4,7.2-5.5
		C352,320.5,354.3,322.3,358.3,322.2z"/>
	<path class="st6" d="M297.8,323.7c-3-2.5-5.8-2.5-8.9,0c1.1-3.6,0.5-6.5-3-8.5c3.9,0.1,6.3-1.4,7.2-5.3c1.3,3.3,3.2,5.7,7.4,5.1
		C297.4,317.3,296.2,320,297.8,323.7z"/>
	<path class="st6" d="M341.4,327.4c-3-2.6-6-2.2-9.1,0.1c0.2-2.2,1.3-3.8,0.5-5.2c-0.7-1.2-2.2-2-3.3-3.4c3.9-0.1,6.4-1.5,7.2-5.6
		c1.1,3.7,3.3,5.7,7.3,5.3C341,321,339.9,323.7,341.4,327.4z"/>
	<path class="st6" d="M278.8,312.3c1,3.9,3,5.9,7,5.3c-0.9,1.9-2.9,2.5-3.2,4.1c-0.3,1.5,0.3,3.1,0.6,4.9c-0.5-0.2-0.9-0.3-1.2-0.5
		c-2-1.5-4.1-2.1-6.3-0.2c-0.4,0.4-1,0.5-1.4,0.3c-0.6-0.4,0.1-0.9,0.1-1.3c0.4-2.4,0.4-2.4-2.8-6.8c1.6-0.3,3.4-0.2,4.6-1
		C277.4,316.1,277.8,314.3,278.8,312.3z"/>
	<path class="st6" d="M315.5,332.1c0.9,4,3.2,5.8,7.1,5.3c-3.3,4-3.3,4-2.8,8.9c-2.9-2.2-5.8-3-8.6,0.1c-0.4-2.1,0.7-3.6,0.3-5.1
		c-0.4-1.5-2.1-2.2-3.1-3.5c1.4-1,3.5-0.2,4.6-1.2C313.9,335.7,314.4,334,315.5,332.1z"/>
	<path class="st6" d="M328.8,314.7c-3.2,2.2-4.2,4.8-2.6,8.4c-3.1-2.2-6-2.6-9,0.1c1-3.6,0.7-6.5-2.9-8.5c3.8,0,6.3-1.5,7.3-5.4
		C322.6,313.2,324.9,314.8,328.8,314.7z"/>
	<path class="st7" d="M273.3,337.7c3.9,0.1,6.1-1.6,7.2-5.3c1.2,3.6,3.3,5.6,7.3,5.2c-3.1,2.2-4.2,4.9-2.7,8.6
		c-3.1-2.3-5.9-2.6-8.9,0C277.2,342.6,276.8,339.7,273.3,337.7z"/>
</g>
</svg>
