<?xml version="1.0" encoding="utf-8"?>
<!-- Generator: Adobe Illustrator 24.0.0, SVG Export Plug-In . SVG Version: 6.00 Build 0)  -->
<svg version="1.1" id="Layer_1" xmlns="http://www.w3.org/2000/svg" xmlns:xlink="http://www.w3.org/1999/xlink" x="0px" y="0px"
	 viewBox="0 0 647.1 612" style="enable-background:new 0 0 647.1 612;" xml:space="preserve">
<g>
	<path d="M32.9,213.5c0-24.8,12.4-44.6,26.3-60.6c18-20.6,51.8-22.7,79.1-23.2c44.3-0.7,88.6-0.4,133-0.4c2.8,0,5.5,1.2,5.8,1.3
		c-20.6,20.6-41.5,41.5-68.1,68.1c-14,0-37.2-0.4-60.4,0.1c-33.9,0.7-47.4,14.5-47.5,48.6c-0.2,77.3-0.2,154.7,0,232
		c0.1,35.2,14,49.1,49.2,49.2c77.4,0.2,154.8,0.2,232.2,0c34.1-0.1,48-13.6,48.7-47.4c0.4-22.4,0.1-44.9,0.1-63.2
		c24.3-23.9,45.6-44.8,68.1-66.8c0.6,6,1.6,12.3,1.6,18.6c0.2,31.5-1.2,63.1,0.4,94.6c3.2,64.7-22.3,110.1-84.8,132.3H118.6
		c-44.2-12.9-72.8-41.5-85.7-85.7C32.9,411.9,32.9,238.3,32.9,213.5z"/>
	<path d="M361.8,128c-33.8-35-91.5-94.9-91.5-94.9L257.7,20c0,0,32.2-0.7,40.9-0.8c90.9-0.4,181.8-0.6,272.7,0.2
		c29.5,0.3,39.1,10.2,39.4,40.1c0.7,90.8,1.7,221.8,1.3,312.6c0,8.4-72.1-71.8-106.7-100.5c-20,20.4-39.8,40.7-59.8,60.8
		c-19.6,19.7-38.9,39.7-59,58.8c-30,28.6-66.6,28.6-96.4,0.3c-16.9-16-33.2-32.6-49.4-49.4c-30.4-31.5-30.4-67.8,0.6-99.5
		c32.6-33.3,65.6-66,98.8-98.7C345.9,138.4,353.4,134.2,361.8,128z"/>
</g>
</svg>
