<?xml version="1.0" encoding="utf-8"?>
<!-- Generator: Adobe Illustrator 24.0.0, SVG Export Plug-In . SVG Version: 6.00 Build 0)  -->
<svg version="1.1" id="Layer_1" xmlns="http://www.w3.org/2000/svg" xmlns:xlink="http://www.w3.org/1999/xlink" x="0px" y="0px"
	 viewBox="0 0 1200 1200" style="enable-background:new 0 0 1200 1200;" xml:space="preserve">
<g>
	<path d="M600,375c-149.5,0-299,0-448.4,0c-37.3,0-67.4-24.1-75.1-60.1c-9.6-44.8,25.3-88.9,71.1-89.9c1.5,0,3,0,4.5,0
		c298.6,0,597.2,0,895.9,0c35.3,0,64.6,21.3,74,53.8c14.1,48.4-21.7,96.1-72.5,96.2c-117.3,0.1-234.6,0-351.9,0
		C665,375,632.5,375,600,375z"/>
	<path d="M599.4,675c-149.3,0-298.6,0-447.9,0c-37.3,0-67.3-24.2-75-60.2C66.9,570,101.8,526,147.6,525c1.5,0,3,0,4.5,0
		c298.6,0,597.2,0,895.9,0c34.2,0,62.6,19.9,73,51c16.5,49.1-19.7,98.9-72.2,98.9C899,675,749.2,675,599.4,675z"/>
	<path d="M600.5,825c149.5,0,299,0,448.4,0c36.9,0,66.9,24.3,74.5,60.1c9.6,44.8-25.3,88.8-71.1,89.8c-1.7,0-3.3,0-5,0
		c-298.3,0-596.6,0-894.9,0c-34.4,0-62.8-19.6-73.4-50.5c-16.9-48.9,19.3-99.4,71.5-99.4c141.8-0.1,283.6,0,425.4,0
		C584.2,825,592.4,825,600.5,825z"/>
</g>
</svg>
