<?xml version="1.0" encoding="utf-8"?>
<!-- Generator: Adobe Illustrator 24.0.0, SVG Export Plug-In . SVG Version: 6.00 Build 0)  -->
<svg version="1.1" id="Layer_1" xmlns="http://www.w3.org/2000/svg" xmlns:xlink="http://www.w3.org/1999/xlink" x="0px" y="0px"
	 viewBox="0 0 285.7 378.8" style="enable-background:new 0 0 285.7 378.8;" xml:space="preserve">
<style type="text/css">
	.st0{fill:url(#SVGID_1_);}
	.st1{fill:url(#SVGID_2_);stroke:#000000;stroke-width:3;stroke-miterlimit:10;}
</style>
<linearGradient id="SVGID_1_" gradientUnits="userSpaceOnUse" x1="153.2245" y1="271.8527" x2="211.9824" y2="233.6948">
	<stop  offset="0" style="stop-color:#4C4C4C"/>
	<stop  offset="0.5503" style="stop-color:#000000"/>
</linearGradient>
<path class="st0" d="M79.2,157.9l175.3,211.7c2.2,2.7,6.1,3.1,8.9,1l0,0c2.4-1.9,3.2-5.3,1.7-8l-131-248.8L79.2,157.9z"/>
<radialGradient id="SVGID_2_" cx="44.3913" cy="26.6522" r="112.3243" gradientUnits="userSpaceOnUse">
	<stop  offset="0" style="stop-color:#FFFFFF"/>
	<stop  offset="0.8766" style="stop-color:#BBBBBB"/>
	<stop  offset="1" style="stop-color:#B1B1B1"/>
</radialGradient>
<path class="st1" d="M46,11.5c-1.7,0.5-3.2,1.5-4.4,2.7c-7.3,7-36.2,38.6-16,81.6c15.9,34,33.9,42.7,43.3,44.9
	c3.7,0.9,7.6-0.1,10.5-2.5L110,113c1.1-0.9,2-1.9,2.7-3.1c3-5.1,14.8-25.8-8.9-44c-21-16.1-30.3-1.8-44.4-12.1
	C49,46.3,50,27.3,50.5,14.3C50.6,10.9,48.4,10.7,46,11.5z"/>
</svg>
