<?xml version="1.0" encoding="utf-8"?>
<!-- Generator: Adobe Illustrator 24.0.0, SVG Export Plug-In . SVG Version: 6.00 Build 0)  -->
<svg version="1.1" xmlns="http://www.w3.org/2000/svg" xmlns:xlink="http://www.w3.org/1999/xlink" x="0px" y="0px"
	 viewBox="0 0 2199 2500" style="enable-background:new 0 0 2199 2500;" xml:space="preserve">
<style type="text/css">
	.st0{fill:#FFFFFF;}
	.st1{fill:#D4B830;}
	.st2{fill:#FDD83C;}
</style>
<g id="Layer_2">
	<rect x="245.7" y="389.5" class="st0" width="1699.8" height="1580.9"/>
</g>
<g id="svg4525">
	<g id="g5193" transform="translate(4.988 -113.385)">
		<path id="path5113" class="st1" d="M199,2360.5L-5.1,113.5l2199,0.9l-202.4,2244.4l-898.8,253.9L199,2360.5z M1826,2237.9
			l170.7-1924.5h-900.5L1103,2436L1826,2237.9z M1012.1,595.5H793.4l-2.6,1151.8l-424.5-115.8l0.9,263.3l644.9,174.1L1012.1,595.5
			L1012.1,595.5z"/>
		<path id="path5117" class="st2" d="M1096.1,312.5h900.5L1826,2237l-729.8,198.1V312.5z M1779.7,1914.5l59.2-719.6l-437.4,48.9
			V859.7l466.6-1.7l18.9-262.4l-704.1,3.4l9.4,955.4l425.4-72.9l-6,212.7l-428.8,114.1l4.3,260.7L1779.7,1914.5L1779.7,1914.5z"/>
	</g>
</g>
</svg>
