<?xml version="1.0" encoding="utf-8"?>
<!-- Generator: Adobe Illustrator 24.0.0, SVG Export Plug-In . SVG Version: 6.00 Build 0)  -->
<svg version="1.1" id="Layer_1" xmlns="http://www.w3.org/2000/svg" xmlns:xlink="http://www.w3.org/1999/xlink" x="0px" y="0px"
	 viewBox="0 0 605.9 592.3" style="enable-background:new 0 0 605.9 592.3;" xml:space="preserve">
<g>
	<path d="M590.4,427.8c-2.7,7.5-6.1,14.5-9.9,21.3c-6.2,11.3-13.1,22-20.8,32.4c-7.5,10.1-15.6,19.8-24.6,28.7
		c-5,5-10.1,9.9-15.5,14.6c-5.8,5-11.9,9.6-17.8,14.4c-7,5.6-14.7,10-22.2,14.7c-8.8,5.4-18.1,9.8-27.5,14.1
		c-14.4,6.6-29.4,11.1-44.6,15.1c-14.9,3.9-30.1,6.1-45.4,7.5c-13.4,1.2-26.7,1.7-40.2,1.3c-21.9-0.7-43.7-3.1-65.3-7.1
		c-2.2-0.4-4.2-1.2-6.3-1.8c-11.6-3.5-23.2-7.1-34.4-11.8c-11.3-4.8-22.6-9.7-33.3-15.6c-7.1-3.9-14.2-7.9-21-12.2
		c-8.2-5.2-16.1-10.7-24-16.4c-6-4.4-11.9-9.1-17.6-14c-5.5-4.7-10.9-9.6-16.1-14.6c-4.5-4.3-8.9-8.7-13.1-13.3
		c-9-9.5-17.3-19.6-25.2-30c-6.8-9-13-18.4-18.9-28c-8.5-14.2-16-28.9-22.4-44.2C18.8,369.2,14,355.2,10.3,341
		c-3.7-14.2-6.6-28.5-8-43.2c-0.8-8.6-1.5-17.3-1.8-25.9C0.2,261,1,250.2,2.2,239.3c1.7-15.6,4.9-31,9.9-45.9
		c2.6-7.7,5.6-15.2,8.8-22.6c4.6-10.7,10.4-20.9,17-30.5c1.5-2.1,3-4.2,4.6-6.3c6.6-8.5,13.3-17,19.9-25.5
		c5.2-6.7,10.4-13.5,15.6-20.2c0.5-0.6,1.1-1.3,1.8-1.7c-1.2,2.7-2.4,5.4-3.7,8.1c-8.4,18.5-14.1,37.9-17.5,57.9
		c-3.2,19-4.2,38-3.1,57.2c0.7,13.8,2.5,27.4,5.3,41c3,14.5,6.9,28.8,12,42.7c5.3,14.8,11.7,29.2,19.2,43.1
		c5.4,10,11.3,19.7,17.7,29c6.9,10,14.1,19.7,22.1,28.9c4.2,4.9,8.5,9.7,12.9,14.4c4.7,5,9.6,9.8,14.6,14.5
		c5.3,5,10.7,9.8,16.3,14.4c6.3,5.2,12.6,10.2,19.2,14.9c7,5,14.2,9.6,21.3,14.4c8,5.4,16.6,9.6,25.1,14.1
		c11,5.9,22.5,10.5,34.1,15.1c11.1,4.5,22.5,8,34.1,11c5.6,1.4,11.4,2.3,17.1,3.6c8.9,2,18,3.1,27.1,4.1c6.2,0.7,12.4,1.2,18.6,1.5
		c14.6,0.8,29.2,0.7,43.7-0.5c10.8-0.8,21.5-2,32.1-4.2c16.3-3.4,32.6-7.4,48.1-13.8c10.4-4.3,20.8-8.8,30.4-14.6
		c7.3-4.4,14.5-9,21.3-14c6.2-4.5,12.2-9.5,17.9-14.7c5-4.5,9.6-9.4,14.1-14.3c3.2-3.5,6.1-7.2,9.1-10.8
		C589.3,429.1,589.9,428.4,590.4,427.8z"/>
	<path d="M605.5,274.3c-1.1,2.8-2,5.6-3.2,8.3c-3.7,8.7-8.1,17.1-13,25.1c-6.4,10.4-13.6,20.3-22,29.2c-4.6,4.9-9.4,9.5-14.2,14.1
		c-5.9,5.7-12.7,10.4-19.3,15.1c-7.7,5.4-16,9.7-24.4,13.9c-14.7,7.3-30.3,11.8-46.3,15.3c-19.3,4.2-38.8,5.3-58.5,4.7
		c-13.1-0.4-26.1-1.7-39-3.6c-6.2-0.9-12.2-2.6-18-4.7c-8.3-3.1-16.8-5.9-24.9-9.4c-9.6-4.2-19-8.9-27.9-14.4
		c-6.5-4.1-12.9-8.2-19-12.8c-6.7-5-13.2-10.2-19.5-15.7c-5.2-4.6-10-9.6-15-14.4c-3.1-3-6.2-6.1-9-9.4c-3.5-4.1-6.8-8.3-9.9-12.6
		c-4.1-5.7-8-11.5-11.7-17.4c-6.5-10.3-12.2-21-17-32.1c-7.6-17.7-12.7-36-15.3-55.1c-2-14.6-2.5-29.2-1.2-43.9
		c1.3-15.5,4.5-30.7,9.8-45.3c3.7-10.3,8.3-20.1,14-29.3c2.1-3.3,4.2-6.6,6.5-9.9c7.8-11.2,15.6-22.3,23.4-33.5
		c1.3-1.9,2.5-3.8,4.1-5.5c-0.9,1.9-1.8,3.8-2.7,5.7c-9.3,18.7-14.7,38.4-16.9,59.2c-1.9,17.9-1.2,35.7,1.8,53.4
		c2.5,14.6,6.6,28.8,12.1,42.6c4.1,10.3,8.9,20.2,14.4,29.7c5.7,10,12.2,19.5,19.2,28.6c8.1,10.5,16.9,20.3,26.8,29.3
		c5.3,4.8,10.8,9.4,16.2,14.1c6.5,5.6,13.8,10.2,20.9,15c7.7,5.2,16,9.4,24.2,13.7c12.5,6.5,25.7,11.1,39,15.4
		c14,4.5,28.4,7.2,43,8.8c14.1,1.5,28.3,1.6,42.5,0.3c13.3-1.3,26.4-3.6,39.1-7.7c11.6-3.7,23-8.1,33.7-14.2
		c7.5-4.3,15-8.7,21.8-14.1c5.8-4.7,11.5-9.6,16.9-14.8c6.3-6.2,12.1-12.8,17.1-20.1c0.4-0.6,0.9-1.1,1.3-1.7
		C605.2,274.1,605.3,274.2,605.5,274.3z"/>
	<path d="M360.8,2.3c-0.9,2-1.8,4-2.6,6c-7.1,16.5-9.7,33.8-8.3,51.7c1.2,16,5.5,31.3,12.1,45.9c4.6,10.2,10.3,19.8,17,28.8
		c8.1,11,17.4,20.7,28,29.3c6.3,5.1,13,9.4,19.9,13.6c12,7.2,25,12.2,38.5,15.9c13.8,3.8,27.8,5.6,42,5.9c11.7,0.2,23.3-1,34.5-4.5
		c10.1-3.2,19.7-7.6,28.1-14.2c6-4.8,11.7-9.9,16.1-16.2c0.2-0.3,0.4-0.5,0.6-0.7c0.1,0.1,0.3,0.2,0.4,0.2c-0.4,0.8-0.7,1.6-1.1,2.4
		c-5.3,9.4-11.1,18.5-18.2,26.7c-3.6,4.1-7.4,7.9-11.5,11.6c-8.2,7.4-17.5,13-27.5,17.6c-10.9,5-22.3,7.7-34,9.1
		c-17.9,2.1-35.7,0.8-53.3-2.8c-6.5-1.3-12.7-3.7-18.8-6.3c-7.4-3.2-14.7-6.5-21.6-10.7c-8.1-4.9-15.9-10.3-23-16.6
		c-4.8-4.2-9.4-8.7-13.7-13.3c-8.3-8.9-15.4-18.8-21.2-29.4c-7.6-13.8-13-28.3-15.5-43.9c-2.4-14.4-2.3-28.7,0.5-43
		c3.1-15.8,9.1-30.4,18.4-43.6c4.2-5.9,8.4-11.8,12.5-17.7c0.5-0.6,0.9-1.3,1.4-1.9C360.6,2.1,360.7,2.2,360.8,2.3z"/>
</g>
</svg>
