<?xml version="1.0" encoding="utf-8"?>
<!-- Generator: Adobe Illustrator 24.0.0, SVG Export Plug-In . SVG Version: 6.00 Build 0)  -->
<svg version="1.1" id="color" xmlns="http://www.w3.org/2000/svg" xmlns:xlink="http://www.w3.org/1999/xlink" x="0px" y="0px"
	 viewBox="0 0 453.4 300.5" style="enable-background:new 0 0 453.4 300.5;" xml:space="preserve">
<style type="text/css">
	.st0{fill:#1C1C1C;}
	.st1{fill:url(#SVGID_1_);}
</style>
<g id="C">
	<path class="st0" d="M419.8,40.9c-1.2,2.1-2.6,4.6-4.2,7.5c-0.9,1.7-2,3.7-3.3,6.1c-2.4-1.2-5-2.3-7.7-3.3
		c-4.6-1.6-9.4-2.9-14.3-3.9c-4.9-1-10-1.8-15-2.3c-5.1-0.5-9.7-0.8-13.9-0.8c-13.1,0-25.5,2.1-37,6.3c-1.3-0.7-2.9-1.1-4.5-1.1
		c-5.1,0.1-9.2,4.4-9,9.5c0.2,4.9,4.2,8.8,9.2,8.8c4.5,0,8.3-3.3,9-7.6c10.1-3.6,21-5.4,32.4-5.4c3.8,0,8.1,0.2,12.8,0.7
		c4.7,0.5,9.4,1.2,13.9,2.2c4.5,1,8.9,2.2,13.1,3.6c3.9,1.3,7.3,3,10.2,5l4.8,3.3l2.8-5.1c2.5-4.5,4.5-8.2,6-10.9
		c1.5-2.8,2.9-5.2,4-7.2c1.3-2.2,2.5-4.3,3.6-6.3c1.1-1.9,2.6-4.3,4.5-7.2l2.5-3.8l-3.4-3.1c-3.2-2.9-7.5-5.6-13.2-8.2
		c-5.4-2.5-11.6-4.7-18.5-6.5C397.7,9.5,390.3,8,382.6,7c-2.7-0.4-5.4-0.7-8.1-0.9c-3.1-0.3-5.8,2.2-5.8,5.3v0
		c0,2.8,2.1,5.1,4.9,5.3c2.5,0.2,5.1,0.5,7.6,0.8c7.2,1,14.2,2.3,20.6,4c6.3,1.7,12,3.6,16.8,5.9c2.7,1.2,5,2.5,6.9,3.8
		c-0.8,1.3-1.6,2.6-2.2,3.7C422.2,36.7,421.1,38.8,419.8,40.9z"/>
	<path class="st0" d="M234.9,97.4c7.1-16.5,16.9-31,29.1-43c12.2-12,26.7-21.5,43.2-28.2c9.3-3.8,19.1-6.5,29.1-8.2
		c2,2.1,4.9,3.3,8.1,2.8c4-0.6,7.2-4,7.7-8c0.6-5.5-3.7-10.2-9.1-10.2c-2.8,0-5.4,1.3-7.1,3.3c-0.8,1-2,1.7-3.2,1.9
		c-10.2,1.8-20,4.6-29.5,8.5c-17.7,7.2-33.4,17.5-46.6,30.4c-13.2,13-23.8,28.6-31.4,46.4c-5,11.6-8.4,24.1-10.1,37.3
		c-0.4,3.2,2,6.1,5.3,6.1l0,0c2.7,0,4.9-2,5.3-4.6C227.1,119.7,230.3,108.1,234.9,97.4z"/>
	<path class="st0" d="M259.2,244.5c-11.2-11.9-20-26-25.9-41.8c-4.1-10.9-6.8-22.4-8.1-34.3c2.4-1.9,3.8-5.1,3.3-8.6
		c-0.6-4-3.9-7.2-8-7.7c-5.5-0.6-10.2,3.7-10.2,9.1c0,3.3,1.7,6.1,4.3,7.7c1.4,13,4.3,25.5,8.8,37.4c6.5,17.1,15.9,32.4,28.1,45.3
		c12.2,13,27.3,23.5,44.7,31.1c12.8,5.6,26.8,9.1,42,10.7c3.1,0.3,5.9-2.1,5.9-5.3v0c0-2.7-2.1-5-4.8-5.3
		c-14.1-1.4-27.1-4.7-38.9-9.8C284.3,266.1,270.4,256.4,259.2,244.5z"/>
	<path class="st0" d="M423.6,219.1l-5.2,7c-0.3,0.2-1.4,1.1-5.2,3.1c-3.6,1.9-8.3,3.8-13.9,5.7c-5.6,1.9-12,3.6-19.1,5.1
		c-6.9,1.4-14.1,2.1-21.5,2.1c-10.3,0-20-1.5-29-4.4c-2.5-0.8-5.2,0.4-6.3,2.7v0c-1.4,2.9,0,6.4,3.1,7.4c10.1,3.3,20.9,4.9,32.3,4.9
		c8.1,0,16-0.8,23.6-2.4c7.5-1.5,14.3-3.4,20.4-5.4c6.1-2.1,11.3-4.2,15.4-6.3l0,0c1.3-0.7,2.9-0.1,3.5,1.2l10.6,22.8
		c0.6,1.2,0.1,2.6-1,3.3c-1.8,1-3.9,2.1-6.2,3.2c-5.1,2.5-11.3,4.9-18.2,7c-7,2.2-14.9,4-23.5,5.5c-2.3,0.4-4.6,0.7-6.9,1
		c-2-2-4.9-3-8-2.5c-4,0.7-7.1,4-7.5,8c-0.6,5.5,3.7,10.2,9.1,10.2c3.6,0,6.8-2.1,8.3-5.2c2.3-0.3,4.6-0.6,6.9-1
		c9.1-1.5,17.5-3.5,24.9-5.8c7.5-2.3,14.1-4.9,19.7-7.6c5.7-2.8,10.1-5.4,13.4-7.8l3.4-2.6L423.6,219.1z"/>
	<path class="st0" d="M301.6,238.6c5.5,0,9.8-4.8,9.1-10.4c-0.5-3.5-2.9-6.4-6.2-7.5c-1.9-0.6-3.7-0.6-5.3-0.1
		c-2.7-2.3-5.3-4.7-7.8-7.3c-8.2-8.8-14.6-18.8-19.3-30c-4.6-11.1-6.9-22.8-6.9-34.8c0-12.2,2.4-24.2,7.3-35.5
		c4.8-11.3,11.6-21.5,20.1-30.1c1.9-1.9,3.9-3.8,6-5.5c2-1.7,2.4-4.7,1-6.9v0c-1.7-2.7-5.5-3.2-7.9-1.2c-2.3,2-4.5,4-6.6,6.1
		c-9.5,9.6-17,20.8-22.3,33.4c-5.4,12.6-8.1,26-8.1,39.6c0,13.4,2.6,26.5,7.7,38.8c5.1,12.3,12.3,23.5,21.3,33.1
		c2.8,3,5.8,5.8,8.9,8.4c0,0.2,0,0.3,0,0.5C292.4,234.5,296.5,238.6,301.6,238.6z"/>
</g>
<g id="K">
	<path class="st0" d="M203.1,254.7c-10-13.8-20-27.5-29.9-41.1c-9.9-13.6-19.9-27.2-30.1-40.9c-10.2-13.7-20.8-27.9-31.8-42.5
		c19.8-21.1,39.4-42.4,58.8-63.8c19.4-21.4,39-42.7,58.8-63.8h-55C155.1,21,137,40.1,119.6,59.7c-9.3,10.5-35.1,40-60.9,67.1
		c-17,17.9-47,64.2-47,100.2l-1,70.3h47.9c0-20.9-0.1-40.5-0.2-58.8c-0.1-18.3-0.2-37.9-0.2-58.8c3.7-3.3,7.1-6.4,10.3-9.6
		c3.2-3.1,6.5-6.6,9.9-10.4c9.2,12.2,18,24,26.3,35.4s16.5,22.6,24.7,33.8c8.2,11.1,16.5,22.2,24.9,33.3c8.4,11.1,17.3,22.8,26.5,35
		h53.4C223.5,282.8,213.1,268.6,203.1,254.7z"/>
	<linearGradient id="SVGID_1_" gradientUnits="userSpaceOnUse" x1="34.7441" y1="2.6037" x2="34.7441" y2="156.5253">
		<stop  offset="0" style="stop-color:#1C1C1C"/>
		<stop  offset="0.1862" style="stop-color:#2F2F2F"/>
		<stop  offset="0.4435" style="stop-color:#414141"/>
		<stop  offset="0.7105" style="stop-color:#4C4C4C"/>
		<stop  offset="1" style="stop-color:#505050"/>
	</linearGradient>
	<path class="st1" d="M57.9,99.3C58.2,64,58.7,2.6,58.7,2.6H10.8v153.9C10.8,138.3,35.7,111.2,57.9,99.3z"/>
</g>
</svg>
