<?xml version="1.0" encoding="utf-8"?>
<!-- Generator: Adobe Illustrator 24.0.0, SVG Export Plug-In . SVG Version: 6.00 Build 0)  -->
<svg version="1.1" id="Layer_1" xmlns="http://www.w3.org/2000/svg" xmlns:xlink="http://www.w3.org/1999/xlink" x="0px" y="0px"
	 viewBox="0 0 373.3 377.6" style="enable-background:new 0 0 373.3 377.6;" xml:space="preserve">
<path id="cog" d="M194.8,25c2.9,2.1,5.8,4.2,8.7,6.4c4.4,3.2,5,7.5,1.8,11.9c-3,4.1-6.2,8.3-9.2,12.4c-2.2,3-2.1,6.2,0.2,9.9
	c3.3,5.3,6.4,10.6,9.6,15.9c1.6,2.6,5.5,4.1,8.9,3.5c4.8-0.8,9.5-1.6,14.3-2.2c7.6-1,9.6,2.6,10.6,8.4c1.2,6.6,2.1,13.3,3.1,19.9
	c0.7,4.7-1.6,8.5-6.3,9.5c-4.8,1-9.7,1.6-14.6,2.2c-4.4,0.5-7.2,2.6-8.2,6.9c-1.5,6.3-2.9,12.6-4.4,19c-0.8,3.4,0.3,6.2,3,8.2
	c4.3,3.1,8.7,6.1,12.9,9.3c3.7,2.7,4.6,7.1,2,10.8c-4.6,6.6-9.4,13.2-14.2,19.6c-2.2,2.9-6.3,3.5-9.5,1.3c-4.6-3.1-9.1-6.4-13.5-9.7
	c-3.2-2.3-6-2.4-9.5-0.4c-5.6,3.4-11.3,6.7-16.9,10.1c-2.5,1.5-3.9,5.4-3.4,8.4c0.9,5.3,1.8,10.5,2.4,15.9c0.5,4.6-1.5,7.8-6.1,8.7
	c-5.4,1.1-10.9,1.8-16.4,2.7c-1.2,0.2-2.4,0.4-3.7,0.7c-8,2-11.5-2.1-12.4-9.4c-0.6-4.3-0.9-8.7-1.8-13c-0.8-3.9-3.7-5.8-7.6-6.6
	c-5.7-1.2-11.4-2.6-17-4c-3.8-1-6.8-0.1-9.2,3.2c-2.9,4-5.8,8-8.7,12c-3,4.2-7.5,5.7-12,2.4c-6.3-4.6-12.8-9-18.9-13.9
	c-3-2.4-3.9-5.9-1.4-9.6c3-4.5,6.1-8.9,9.5-13.1c2.7-3.4,2.6-7,0.2-10.6c-3.4-5.2-6.5-10.6-9.6-15.9c-1.5-2.5-5.3-4-8.7-3.5
	c-5.2,0.9-10.4,1.8-15.6,2.4c-4.7,0.6-7.8-1.5-8.7-6c-1.5-8-2.9-16.1-4-24.1c-0.5-3.2,2.8-7,6.5-7.7c5-0.9,10-1.8,15-2.3
	c4-0.5,6.9-2.9,7.9-7.2c1.4-5.9,2.8-11.7,4.2-17.5c1.4-5.6-0.6-7.6-4.6-10.5c-4.1-3-8.3-5.9-12.4-9c-2.8-2.1-3.2-6.8-0.6-10.4
	c4.5-6.4,9.1-12.7,13.8-18.9c2.1-2.8,6.5-3.6,9.4-1.6c4.5,3,8.8,6.1,13.2,9.3c4.2,3.1,6.9,3.1,11,0.4c5.2-3.3,10.4-6.4,15.7-9.5
	c2.4-1.4,4.1-5.2,3.5-8.4c-0.7-4.2-1.4-8.5-2.1-12.7c-1.4-8.7,1.2-12,9.9-12.9c5.6-0.7,11.4-1,16.7-2.6c6.3-1.9,11.4,2.6,11.7,9.6
	c0.2,4.3,0.9,8.7,1.8,13c0.7,3.5,3.1,5.6,6.8,6.4c6.2,1.3,12.4,2.9,18.7,4.4c3.4,0.8,6.2-0.4,8.2-3.3c3.3-4.7,6.7-9.4,10.2-14
	c2-2.7,6.5-3.1,9.5-1c3.3,2.3,6.6,4.8,9.9,7.2C194.8,25.1,194.8,25,194.8,25z M153.4,82.1c-19.9-14.5-48.5-10.3-63.3,10.3
	c-14.4,20.2-10.1,47.8,10.1,62.6c20.1,14.8,48.5,10.3,63.2-10C178.1,124.8,173.6,97.1,153.4,82.1z"/>
<path id="cog_1_" d="M360.5,134.2c0.6,1.7,1.1,3.4,1.7,5.1c0.9,2.5-0.1,4.5-2.7,5.3c-2.4,0.8-4.9,1.6-7.3,2.4
	c-1.8,0.6-2.6,1.9-2.7,4.1c-0.2,3.1-0.4,6.1-0.7,9.2c-0.1,1.5,1,3.2,2.6,4c2.2,1,4.3,2.1,6.4,3.2c3.3,1.8,3.1,3.8,1.9,6.4
	c-1.4,3-3,6-4.4,9c-1,2.1-3.1,3-5.3,2c-2.2-1-4.4-2.1-6.5-3.3c-1.9-1-3.7-1-5.3,0.4c-2.4,2.1-4.8,4.3-7.2,6.4
	c-1.3,1.2-1.7,2.6-1.1,4.2c0.9,2.5,1.8,5,2.6,7.5c0.7,2.2-0.2,4.2-2.3,5c-3.7,1.4-7.6,2.6-11.4,3.9c-1.7,0.5-3.5-0.4-4.2-2.2
	c-1-2.6-1.8-5.2-2.7-7.8c-0.6-1.9-1.7-2.7-3.7-2.9c-3.2-0.2-6.5-0.5-9.7-0.8c-1.4-0.1-3.1,1.1-3.8,2.4c-1.1,2.4-2.3,4.8-3.6,7.1
	c-1.1,2-2.8,2.7-4.9,1.8c-2.5-1.1-4.9-2.4-7.4-3.6c-0.5-0.3-1.1-0.5-1.7-0.8c-3.8-1.5-4.1-4.1-2.3-7.3c1-1.9,2.1-3.8,3-5.8
	c0.8-1.8,0.1-3.4-1.2-4.8c-2-2.1-3.9-4.3-5.7-6.5c-1.3-1.5-2.7-2-4.6-1.3c-2.3,0.8-4.6,1.6-6.9,2.4c-2.4,0.8-4.6,0.2-5.5-2.4
	c-1.2-3.7-2.6-7.3-3.7-11c-0.5-1.8,0.1-3.5,2.2-4.3c2.5-0.9,5-1.9,7.6-2.6c2.1-0.6,3-2.1,3.1-4.2c0.1-3.1,0.4-6.1,0.7-9.2
	c0.1-1.4-1-3.2-2.5-3.9c-2.3-1.1-4.7-2.2-7-3.5c-2-1.1-2.7-2.9-1.8-4.9c1.7-3.7,3.4-7.3,5.2-10.9c0.7-1.4,3.1-2,4.8-1.3
	c2.3,1.1,4.6,2.1,6.7,3.4c1.8,1,3.6,0.8,5.2-0.6c2.2-2,4.4-3.9,6.7-5.9c2.2-1.9,1.9-3.3,1.1-5.6c-0.8-2.4-1.7-4.8-2.4-7.2
	c-0.5-1.7,0.7-3.7,2.7-4.4c3.7-1.3,7.3-2.5,11-3.7c1.7-0.5,3.6,0.4,4.3,2c0.9,2.5,1.8,5,2.7,7.5c0.8,2.5,1.9,3.2,4.3,3.3
	c3,0.1,6,0.4,9.1,0.6c1.4,0.1,3.1-0.9,3.8-2.4c0.9-1.9,1.8-3.8,2.8-5.7c1.9-3.9,3.9-4.5,7.7-2.4c2.4,1.3,4.9,2.8,7.5,3.7
	c3.1,1,3.9,4.3,2,7.2c-1.1,1.8-2.1,3.8-3,5.8c-0.7,1.6-0.4,3.2,0.9,4.5c2.2,2.3,4.2,4.7,6.3,7.1c1.2,1.3,2.6,1.6,4.3,1
	c2.7-0.9,5.4-1.9,8.1-2.7c1.6-0.5,3.5,0.6,4.2,2.3C359.1,130.5,359.8,132.4,360.5,134.2C360.4,134.3,360.5,134.2,360.5,134.2z
	 M327.4,145.5c-3.9-11.5-16.7-18-28.5-13.9c-11.6,4-17.7,16.4-13.8,28.2c3.9,11.7,16.7,18,28.4,14
	C325.2,169.8,331.3,157.3,327.4,145.5z"/>
<path id="cog_2_" d="M314.6,217.6c1.9,2.3,3.8,4.6,5.7,7c2.9,3.5,2.5,7.1-1.1,9.9c-3.3,2.7-6.7,5.3-10,8c-2.4,2-3,4.6-1.9,8
	c1.5,5,2.9,9.9,4.3,14.8c0.7,2.4,3.5,4.5,6.4,4.7c4,0.3,8,0.7,11.9,1.2c6.3,0.8,7.2,4.1,6.8,9c-0.4,5.6-1.2,11.1-1.7,16.7
	c-0.4,3.9-3.1,6.5-7.1,6.3c-4.1-0.2-8.1-0.8-12.2-1.3c-3.6-0.5-6.4,0.6-8.1,3.8c-2.6,4.8-5,9.5-7.5,14.3c-1.3,2.6-1.1,5.1,0.7,7.2
	c2.8,3.4,5.7,6.8,8.4,10.2c2.4,3,2.2,6.6-0.7,9.1c-5.1,4.4-10.4,8.6-15.6,12.7c-2.4,1.9-5.8,1.4-7.9-0.9c-3-3.5-5.9-7.1-8.8-10.6
	c-2.1-2.6-4.3-3.2-7.5-2.3c-5.3,1.5-10.5,3-15.7,4.5c-2.3,0.7-4.3,3.5-4.5,6c-0.4,4.4-0.8,8.9-1.4,13.3c-0.5,3.8-2.9,5.9-6.7,5.7
	c-4.6-0.3-9.2-0.9-13.8-1.4c-1-0.1-2-0.2-3.1-0.2c-6.9-0.1-8.8-4.1-7.9-10.1c0.5-3.6,1.1-7.2,1.3-10.8c0.2-3.3-1.8-5.5-4.7-6.9
	c-4.3-2.2-8.6-4.5-12.8-6.8c-2.9-1.6-5.5-1.5-8,0.6c-3.2,2.6-6.4,5.2-9.5,7.8c-3.3,2.7-7.2,3-10.1-0.6c-4.1-5-8.4-10-12.2-15.2
	c-1.9-2.6-1.9-5.5,0.9-8c3.4-2.9,6.8-5.9,10.4-8.5c2.9-2.2,3.5-5.1,2.4-8.5c-1.6-4.9-3-9.9-4.3-14.8c-0.7-2.3-3.4-4.4-6.2-4.7
	c-4.4-0.4-8.7-0.8-13-1.4c-3.9-0.5-6-2.9-5.7-6.7c0.5-6.7,1.1-13.5,1.9-20.2c0.3-2.7,3.7-5.1,6.8-4.8c4.2,0.3,8.4,0.7,12.6,1.3
	c3.3,0.5,6.1-0.9,7.9-4.1c2.4-4.4,4.7-8.8,7.1-13.2c2.3-4.2,1.1-6.3-1.4-9.4c-2.7-3.3-5.4-6.5-8-9.9c-1.8-2.3-1.1-6.1,1.7-8.5
	c5-4.1,10-8.3,15.1-12.3c2.3-1.8,6-1.5,7.9,0.7c2.9,3.4,5.8,6.8,8.6,10.3c2.8,3.4,4.9,3.9,8.7,2.7c4.8-1.5,9.8-2.9,14.7-4.3
	c2.2-0.6,4.4-3.3,4.6-6c0.3-3.5,0.6-7.1,1-10.6c0.7-7.3,3.5-9.4,10.7-8.3c4.6,0.7,9.4,1.6,14,1.4c5.5-0.2,8.6,4.5,7.4,10.2
	c-0.7,3.5-1.1,7.2-1.3,10.8c-0.2,2.9,1.3,5.2,4.1,6.6c4.7,2.4,9.4,4.9,14.1,7.5c2.6,1.4,5.1,1,7.3-0.9c3.7-3.1,7.4-6.1,11.2-9.1
	c2.2-1.7,5.9-1.1,7.9,1.2c2.2,2.6,4.3,5.2,6.4,7.9C314.6,217.6,314.6,217.6,314.6,217.6z M269.2,254.7
	c-12.9-15.9-36.8-18.6-53.1-5.1c-15.9,13.2-18.2,36.3-5.1,52.5c13,16.2,36.8,18.6,52.9,5.4C280,294.3,282.3,271,269.2,254.7z"/>
</svg>
