<?xml version="1.0" encoding="utf-8"?>
<!-- Generator: Adobe Illustrator 24.0.0, SVG Export Plug-In . SVG Version: 6.00 Build 0)  -->
<svg version="1.1" id="Layer_1" xmlns="http://www.w3.org/2000/svg" xmlns:xlink="http://www.w3.org/1999/xlink" x="0px" y="0px"
	 viewBox="0 0 300 300" style="enable-background:new 0 0 300 300;" xml:space="preserve">
<style type="text/css">
	.st0{fill:#9A0000;}
</style>
<g>
	<path class="st0" d="M235.1,248.4l-53-246.3c-2.2-0.2-4.5-0.4-6.7-0.5l44.5,261.9C225.3,258.7,230.4,253.7,235.1,248.4z"/>
	<path class="st0" d="M275.6,153L214.4,7.4c-2.3-0.5-4.7-1-7.1-1.5l64.8,171.9C274,169.7,275.2,161.4,275.6,153z"/>
	<path class="st0" d="M185,286.8c4-2,7.9-4.2,11.7-6.5L166.4,0.8c-2.4-0.1-4.8-0.1-7.2-0.2l18.4,289.6
		C180.1,289.2,182.5,288.1,185,286.8z"/>
	<path class="st0" d="M262.4,206.4L198,4.2c-2.3-0.4-4.5-0.7-6.8-1l61.1,222.2C256.1,219.3,259.5,213,262.4,206.4z"/>
	<path class="st0" d="M275.8,31.7c-15.5-9.5-33-16.6-51.5-21.7l51.5,107.9V31.7z"/>
	<path class="st0" d="M24.1,31.8v112.3c-0.9,60.5,38.1,116.8,90.8,142.9c11.6,5.7,22.4,9.7,35.1,12.7V0.6
		C104.8,1,59.5,11.7,24.1,31.8z M101.9,134.4l7,21.6l-18.3-13.3L72.2,156l7-21.6L61,121.1h22.6l7-21.5l7,21.5h22.6L101.9,134.4z"/>
</g>
</svg>
