<?xml version="1.0" encoding="utf-8"?>
<!-- Generator: Adobe Illustrator 24.0.0, SVG Export Plug-In . SVG Version: 6.00 Build 0)  -->
<svg version="1.1" id="Layer_1" xmlns="http://www.w3.org/2000/svg" xmlns:xlink="http://www.w3.org/1999/xlink" x="0px" y="0px"
	 viewBox="0 0 2023 2021" style="enable-background:new 0 0 2023 2021;" xml:space="preserve">
<style type="text/css">
	.st0{fill:url(#SVGID_1_);}
	.st1{fill:url(#SVGID_2_);}
	.st2{fill:url(#SVGID_3_);}
</style>
<g transform="matrix(.569 0 0 .569 199.451 -82.735)">
	
		<linearGradient id="SVGID_1_" gradientUnits="userSpaceOnUse" x1="-24189.1875" y1="-1064.9159" x2="-22959.8203" y2="-1791.3296" gradientTransform="matrix(0.1187 0 0 0.1187 3196.1506 3468.0408)">
		<stop  offset="0" style="stop-color:#909CA9"/>
		<stop  offset="1" style="stop-color:#EDEDEE"/>
	</linearGradient>
	<path class="st0" d="M1833.7,1803l-709.5,231.7L507,2307.1l-172.7,45.6c-44,41.8-90.1,84.2-140,127.1
		C139.7,2527,88.7,2569.9,49.6,2601c-43.4,34.3-107.8,98.7-140.5,139.4c-48.8,61.1-87.4,126-104,175.9
		c-29.5,90.1-15,181.3,41.8,265.4c72.9,107.2,218.3,216.6,387.7,291.2c86.3,38.1,231.7,86.9,341.1,114.2
		c181.8,46.1,533.6,96,727.2,103.5c39.1,1.6,91.7,1.6,93.8,0c4.3-2.7,34.3-60.1,69.2-131.4c119-242.9,204.8-470.8,251.5-665.5
		c27.9-118,49.9-275.1,64.3-461.2c3.8-52,5.4-226.3,2.1-285.3c-4.8-96.5-13.4-174.8-26.8-251.5c-2.1-11.3-2.7-21.5-1.6-22
		c2.1-1.6,8.6-3.8,96-29L1833.7,1803L1833.7,1803L1833.7,1803L1833.7,1803z M1671.7,1897.9c6.4,0,23.6,164.6,27.9,268.7
		c1.1,22,0.5,36.5-0.5,36.5c-4.3,0-90.6-50.9-152.3-89.5c-53.6-33.8-155.5-101.4-171.6-114.2c-5.4-3.8-4.8-4.3,39.1-19.3
		C1488.9,1954.8,1665.8,1897.9,1671.7,1897.9z M1310.3,2017c4.8,0,17.2,7,46.7,25.2c110.5,69.2,260.6,152.8,325,180.7
		c19.8,8.6,22,5.4-23.6,36.5c-97.6,66.5-219.3,131.9-368.4,197.9c-26.3,11.8-48.3,20.9-48.8,20.9c-1.1,0,2.1-13.4,6.4-29.5
		c35.9-133.5,56.3-268.7,57.4-377c0.5-53.6,0.5-53.6,5.4-55.2C1309.2,2017,1309.7,2017,1310.3,2017L1310.3,2017z M1235.8,2045.4
		c3.2,3.2,1.1,123.3-3.2,156c-9.7,78.3-24.7,151.2-49.3,233.3c-5.9,19.8-11.3,36.5-12.3,37.5c-2.2,2.7-75.6-69.2-99.8-97.1
		c-41.8-48.3-74.5-96.5-98.7-143.7c-12.3-24.1-31.6-71.3-30-72.9C951,2152.7,1233.6,2043.3,1235.8,2045.4L1235.8,2045.4z
		 M885,2183.2c0.5,0,1.1,0,1.6,0.5c1.1,1.1,4.8,9.7,8,19.3c17.2,46.7,55.8,115.3,89,159.3c36.5,48.3,84.2,99.7,123.9,133.5
		c12.9,10.7,24.7,20.9,26.3,22.5c3.2,3.2,4.3,2.7-83.1,35.9c-101.3,38.6-211.8,77.2-338.4,118c-30.2,9.7-60.4,19.6-90.6,29.5
		c-4.8,1.6-3.2-1.1,10.7-23.1c62.7-98.1,158.2-290.6,211.8-426.9c9.1-23.6,18.2-47.2,19.8-52.6c2.1-7.5,4.8-10.2,11.8-13.9
		C879.7,2184.3,883.4,2183.2,885,2183.2L885,2183.2z M777.8,2227.7c1.6,1.1-25.7,58.5-52.6,111c-52,101.3-108.9,201.1-185,322.3
		c-12.9,20.9-25.2,40.2-26.8,42.4c-2.7,3.8-3.8,2.7-12.3-13.9c-18.2-35.9-33.3-82.1-41.3-124.4c-8-41.8-6.4-114.8,2.7-159.8
		c7-33.2,6.4-32.7,22.5-40.8C553.6,2329.6,775.7,2225.6,777.8,2227.7L777.8,2227.7z M1702.8,2265.3v22.5
		c0,119.6-12.9,283.7-31.6,403.3c-3.2,20.9-5.9,38.1-6.4,38.6c0,0-15.5-4.3-33.8-9.7c-80.4-25.2-167.8-62.2-246.7-105.6
		c-52-28.4-127.6-75.1-125.5-77.2c0.5-0.5,23.1-12.3,49.3-26.3c105.1-54.7,205.9-113.7,293.3-172.1c32.7-22,82-57.4,92.8-67
		L1702.8,2265.3L1702.8,2265.3z M372.9,2424c2.1,0,1.6,4.3-1.6,23.6c-2.1,13.9-4.8,39.7-5.9,57.4c-4.3,78.3,8.6,136.2,47.2,215.6
		c10.7,22,19.3,40.2,18.8,40.8c-3.8,3.2-358.7,107.3-470.3,137.8c-33.2,9.1-62.2,17.2-64.4,17.7c-3.7,1.1-4.3,0.5-2.7-8.6
		c12.3-78.8,72.4-181.8,156-268.7c55.8-57.9,100.3-91.7,176.4-135.1c54.7-31.1,138.9-77.7,145.3-79.9
		C371.9,2424,372.4,2424,372.9,2424L372.9,2424z M1209.5,2573.6c0.5-0.5,13.4,6.4,29,15.6c114.8,66.5,274.6,128.2,410.8,159.8
		l12.3,2.7l-17.2,9.6c-71.3,39.7-305.7,137.3-545.4,226.8c-34.9,12.9-69.2,25.7-75.6,28.4c-6.4,2.7-12.3,4.3-12.3,3.8
		c0-0.5,9.7-19.3,22-42.4c67-125.5,134.6-278.3,168.9-384.5C1206.3,2583.3,1208.9,2574.2,1209.5,2573.6L1209.5,2573.6z
		 M1124.2,2601.5c0.5,0.5-3.8,11.8-9.1,24.7c-46.7,113.1-107.8,236.5-186.1,374.8c-19.8,35.4-36.5,63.8-37,63.8
		c-0.5,0-16.6-9.7-35.9-21.5c-113.7-69.7-214.5-155.5-280.5-238.6l-9.7-11.8l48.8-13.4c174.8-47.7,323.4-99.2,470.8-162.5
		C1106.5,2608.5,1123.7,2601.5,1124.2,2601.5z M1654,2786.5C1654,2786.5,1654.6,2787,1654,2786.5c0.5,12.3-26.8,122.8-49.3,202.7
		c-18.8,67-34.9,119.6-64.3,212.4c-12.9,40.8-24.1,74.5-24.7,74.5c-0.5,0-3.8-0.5-7-1.6c-159.3-29-301.9-69.2-436-122.8
		c-37.5-15-91.2-39.2-94.4-41.8c-1.1-1.1,31.1-16.1,71.9-33.8c244-106.7,497.1-227.9,584-279.9
		C1644.4,2789.7,1652.4,2786.5,1654,2786.5L1654,2786.5z M430.8,2828.3c1.1,1.1-67,99.2-162.5,232.7
		c-33.2,46.7-71.9,101.3-86.3,121.7c-14.5,20.4-36.5,52.6-48.8,71.9l-22.5,34.9l-24.1-20.4c-28.4-23.6-77.8-74-99.7-101.9
		c-46.1-57.4-77.2-118-89.6-173.2c-5.9-25.7-5.9-38.6-0.5-40.2c8-2.1,151.2-35.9,285.3-67c74.5-17.2,160.9-37.5,192-45
		C405.1,2834.2,430.3,2828.3,430.8,2828.3L430.8,2828.3z M499.5,2854.6l17.2,19.3c77.2,86.3,156.1,150.2,251.5,205.9
		c17.2,9.7,30,18.2,29,18.8c-3.7,2.7-331.4,119-483.2,171.6c-85.3,30-155.5,54.2-156,54.2c-0.5,0-5.4-3.2-10.7-7l-9.6-7l15.5-22.5
		c50.4-72.9,113.7-152.8,251.5-319.1L499.5,2854.6L499.5,2854.6z M927.4,3160.8c0.5-0.5,24.1,8,53.1,18.8
		c69.7,26.3,124.9,42.9,199,61.7c91.2,23.1,223.1,45.6,300.8,52c11.8,1.1,18.2,2.1,16.1,3.8c-3.8,2.1-82.6,28.4-140.5,46.7
		c-92.2,29-373.8,112.1-603.3,178c-42.4,12.3-78.8,22.5-81,23.1c-5.4,1.1-23.1-3.8-23.1-5.9c0-1.1,12.9-17.7,28.4-35.9
		c77.2-92.2,153.9-195.2,217.7-292.8C912.4,3183.3,927.4,3161.3,927.4,3160.8L927.4,3160.8z M833,3163.5
		c0.5,0.5-37.5,61.7-104,166.8c-28.4,44.5-60.1,94.9-71.3,112.6c-10.7,17.2-26.8,44-35.9,59l-15.6,27.4l-8-2.1
		c-19.3-5.4-155-53.1-190.9-67.6c-44.5-17.7-90.6-39.1-125-57.4c-42.9-23.1-96.5-57.4-92.2-58.5c1.1-0.5,74.5-20.4,163-44.5
		c234.9-63.8,365.2-100.8,450.5-127.6C819.1,3166.7,832.5,3162.9,833,3163.5L833,3163.5z M1500.7,3320.1h0.5
		c2.1,5.4-84.7,246.7-116.4,322.8c-7,17.2-9.6,21.5-13.4,20.9c-9.1-0.5-135.1-18.2-211.8-29.5c-133.5-20.4-357.7-59.5-414-72.4
		l-12.9-2.7l79.9-18.2c171.6-38.6,254.2-59.5,337.8-85.3c105.6-32.2,210.2-72.4,315.9-121.7
		C1483,3326.5,1496.9,3320.6,1500.7,3320.1L1500.7,3320.1z"/>
	
		<linearGradient id="SVGID_2_" gradientUnits="userSpaceOnUse" x1="-24140.6934" y1="-25126.168" x2="-23151.5137" y2="-25126.168" gradientTransform="matrix(0.1187 0 0 0.1187 3196.1506 3468.0408)">
		<stop  offset="0" style="stop-color:#939FAB"/>
		<stop  offset="1" style="stop-color:#DCDEE1"/>
	</linearGradient>
	<path class="st1" d="M1102.2,149.2c-11.8-1.6-202.2,67-325,116.9c-165.7,67.6-294.4,131.9-373.8,187.7
		c-29.5,20.9-66.5,57.9-72.4,72.4c-2.1,5.4-3.2,11.8-3.2,18.2l71.9,68.1l171.1,54.7l407,72.9l465.5,79.9l4.8-40.2
		c-1.6,0-2.7-0.5-4.3-0.5l-61.1-9.7l-12.3-22c-63.3-111.5-133-249.9-173.7-343.2c-31.6-72.4-61.7-156-78.3-216.1
		C1109.2,151.9,1108.1,149.8,1102.2,149.2L1102.2,149.2L1102.2,149.2L1102.2,149.2z M1093.6,176.6h0.6c0.5,0.5,2.7,15.6,4.8,33.2
		c9.1,75.1,25.7,147.5,52,225.8c19.8,59,19.8,55.8-3.2,48.8c-54.7-15-299.8-57.4-477.3-82c-28.4-3.8-52.6-7.5-52.6-8
		c-2.1-2.1,128.2-70.3,185.5-97.1C877,263.5,1078.6,179.3,1093.6,176.6L1093.6,176.6z M576.7,416.8l20.9,7
		c113.7,38.6,399.5,93.3,557.2,106.2c17.7,1.6,32.7,3.2,33.2,3.2c0.5,0.5-14.5,8.6-33.8,17.7c-76.1,38.1-159.8,84.7-217.7,120.7
		c-17.2,10.7-32.7,19.3-34.9,19.3c-2.1,0-13.4-2.1-25.2-3.8l-21.4-3.2l-53.6-52.6C707,539.6,633,468.8,604.6,442L576.7,416.8z
		 M555.3,433.4l75.6,94.4c41.3,52,83.1,103,92.2,114.2c9.1,11.3,16.6,20.4,16.1,20.9c-2.1,1.6-109.4-19.3-166.2-32.2
		c-58.5-13.4-82.6-19.8-118.5-31.1l-29.5-9.7v-7.5c0.5-35.9,46.1-89.6,123.3-144.2L555.3,433.4L555.3,433.4z M1197.7,562.1
		c2.1,0,4.8,4.8,11.3,19.3c18.2,40.2,75.1,148.5,89,169.5c4.3,7,11.8,7.5-63.8-4.8c-181.8-29.5-240.2-39.1-240.2-40.2
		c0-0.5,5.4-4.3,12.3-8c56.3-31.1,113.1-70.8,163.6-113.1c12.3-10.2,23.6-19.8,25.7-21.5C1196.1,562.1,1197.1,561.6,1197.7,562.1
		L1197.7,562.1z"/>
	
		<radialGradient id="SVGID_3_" cx="-5833.3945" cy="-8073.4395" r="1313.3287" gradientTransform="matrix(-0.114 -1.712736e-02 3.463960e-02 -0.228 985.8749 -510.7076)" gradientUnits="userSpaceOnUse">
		<stop  offset="0" style="stop-color:#EE352C"/>
		<stop  offset="1" style="stop-color:#A91D22"/>
	</radialGradient>
	<path class="st2" d="M334.8,518.7c0,0-11.8,18.8-0.5,46.7c7,17.2,27.4,38.1,50.4,59.5c0,0,238.6,232.7,267.6,266
		c131.9,152.3,189.3,302.4,194.7,509.4c3.2,133-22,249.9-84.7,385.6c-111.5,243.5-347,512.1-710,810.3l53.1-17.7
		c34.3-25.7,81-53.1,190.4-113.1c252.6-138.4,536.8-265.5,885.3-396.3c501.9-188.8,1327.2-409.7,1797-481.6l48.8-7.5l-7.5-11.8
		c-42.9-66.5-72.4-107.8-107.8-151.8c-103-127.6-227.9-231.1-380.7-316.9c-210.2-117.4-482.1-209.1-826.4-277.2
		c-64.9-12.9-207.5-37.5-323.4-55.2c-245.6-38.1-404.3-64.3-579.1-94.4c-62.7-10.7-156.6-26.8-218.8-40.2
		c-32.2-7-93.8-21.5-142.1-38.1C402.4,579.3,346.6,564.3,334.8,518.7L334.8,518.7z M473.2,652.8c0.5-0.5,9.1,2.7,20.4,6.4
		c20.4,7,46.7,15,77.8,23.6c23.5,6.5,47.1,12.7,70.8,18.8c32.2,8,59,15.5,59.5,15.5c3.8,3.8,57.9,177,76.2,243.4
		c7,25.2,12.3,46.7,11.8,46.7c-0.6,0.5-6.4-8.6-13.4-20.9c-62.7-110.5-161.9-222.5-276.7-312.6C484.5,663,473.2,653.3,473.2,652.8
		L473.2,652.8z M737,725.7c2.7,0,14.5,1.6,29,4.8c91.2,20.4,254.7,51.5,359.3,69.2c17.7,2.7,31.6,5.9,31.6,7c0,1.1-6.4,4.8-14.5,9.1
		c-17.7,9.1-89,51.5-112.6,67.6c-59.5,39.7-113.1,82.6-151.8,121.2c-15.5,15.6-29,28.4-29,28.4s-3.2-9.1-5.9-20.4
		c-19.3-74.5-59.5-185-96-262.8c-5.9-12.3-10.7-23.6-10.7-24.7C736.5,726.2,736.5,725.7,737,725.7L737,725.7z M1201.4,814.2
		c3.2,1.1,8.6,19.3,19.3,59.5c19.8,77.8,29,164.6,25.7,245.6c-1.1,22.5-2.1,43.4-3.2,46.1l-1.6,5.4l-27.9-9.1
		c-57.4-18.2-150.7-45.6-230.6-68.1c-45.6-12.3-82.6-23.6-82.6-24.7c0-3.2,66.5-69.7,94.9-94.9
		C1049.7,926.3,1196.6,812.6,1201.4,814.2L1201.4,814.2z M1238.4,819.5c1.6-1.6,222,36.5,322.3,55.8c74.5,14.5,182.9,37,189.3,39.7
		c3.2,1.1-8,7.5-44,23.6c-141.6,63.8-246.7,121.2-351.2,190.9c-27.3,18.2-50.4,33.2-50.9,33.2c-0.5,0-1.1-15.5-1.1-34.3
		c0-101.9-20.4-204.8-57.9-291.7C1241.1,828.1,1237.9,820.1,1238.4,819.5z M1808.5,932.2c1.6,1.6-5.4,45-11.8,70.8
		c-19.3,79.9-71.3,198.4-135.1,310c-11.3,19.8-21.5,35.9-22.5,36.5c-1.1,0.5-15.5-7.5-32.2-17.2c-62.2-36.5-133-70.8-210.2-103
		c-21.4-9.1-40.2-16.6-40.8-17.7c-3.8-3.2,168.9-117.4,260.1-172.1C1688.3,995.4,1806.3,930,1808.5,932.2L1808.5,932.2z
		 M1849.2,938.6c4.8,0,102.4,26.8,153.4,41.8c126,37.5,270.8,90.6,365.2,133.5l39.1,17.7l-27.3,6.4
		c-230.6,53.1-427.9,114.2-618.3,191.4c-15.6,6.4-29.5,11.8-30.6,11.8c-1.1,0,4.3-12.3,11.3-27.4c57.4-121.7,94.4-248.8,103.5-357.1
		C1846,946.6,1847.6,938.6,1849.2,938.6L1849.2,938.6z M877.5,1161.7c1.6-1.6,76.1,16.1,116.4,27.3c61.1,17.2,190.9,60.6,190.9,63.8
		c0,0.5-14.5,12.9-31.6,27.9c-70.2,58.5-137.8,120.1-218.8,198.4c-24.1,23.1-44.5,41.8-45.6,41.8c-1.1,0-1.6-3.2-1.1-7.5
		c12.3-90.1,9.7-205.9-7.5-323.4C878.6,1175.1,877,1162.2,877.5,1161.7z M2443.9,1163.3c1.1,1.1-34.3,56.8-56.8,88.5
		c-32.2,46.1-79.4,107.3-186.1,241.3c-56.3,70.8-119.6,150.7-140.5,177.5c-21.5,26.8-39.1,49.3-39.7,49.3c-0.5,0-7.5-9.6-15-21.4
		c-60.1-90.1-131.9-168.9-217.2-239.7c-16.1-13.4-33.8-27.9-39.7-32.2c-5.9-4.3-10.7-8.6-10.7-9.1c0-1.6,91.2-40.8,160.3-68.6
		c121.2-49.3,286.3-108.3,410.2-146.4C2373.7,1182,2442.8,1162.2,2443.9,1163.3L2443.9,1163.3z M2485.2,1174c2.1-0.5,15,5.9,30.6,15
		c130.3,74.5,257.9,170.5,358.8,269.2c28.4,27.9,98.7,100.8,97.6,101.4c0,0-24.7,2.1-53.6,4.3c-225.8,17.2-514.8,64.9-792.6,131.9
		c-18.8,4.3-35.4,8-36.5,8c-1.1,0,19.8-20.9,46.1-46.1c163-157.1,237.6-256.3,325.5-433.3C2473.4,1198.1,2484.1,1175.6,2485.2,1174
		C2484.7,1174,2484.7,1174,2485.2,1174L2485.2,1174z M1291,1296.3c7.5,1.6,77.2,34.3,129.8,60.6c48.3,24.1,120.7,62.7,124.4,66
		c0.5,0.5-25.2,13.9-56.8,29.5c-100.8,50.4-187.2,98.1-277.3,152.8c-25.7,15.6-47.2,28.4-47.7,28.4c-2.1,0-1.6-2.2,12.9-28.4
		c48.3-87.9,86.9-193,108.9-295.5C1287.2,1301.6,1289.4,1296.3,1291,1296.3L1291,1296.3z M1221.3,1309.1
		c1.6,1.6-16.6,67.6-27.9,103.5c-22,68.1-59,153.4-94.9,217.7c-8.6,15-21.5,37-28.4,49.3l-13.4,21.4l-30-28.9
		c-34.9-33.8-63.3-54.7-99.7-73.5c-14.5-7.5-25.7-13.9-25.7-15c0-4.3,91.7-87.4,161.9-147.5
		C1113.5,1392.8,1219.7,1307.5,1221.3,1309.1L1221.3,1309.1z M1647.6,1484.5l26.3,17.2c60,39.2,130.8,91.2,185,136.7
		c30.6,25.2,89.5,78.3,101.3,91.2l6.4,7l-43.4,12.3c-245.6,68.1-435.4,128.7-656.9,210.2c-24.7,9.1-45.6,16.6-47.2,16.6
		c-3.2,0-5.9,2.7,49.3-48.3c141.6-130.3,267-274,360.4-414L1647.6,1484.5L1647.6,1484.5z M1535.5,1512.4
		c1.1,1.1-72.4,104.6-116.4,163c-52.6,69.7-145.9,186.6-210.2,262.8c-26.8,31.6-49.9,57.9-50.9,58.5c-1.6,0.5-2.1-7.5-2.1-19.8
		c0-64.9-16.6-134.1-45.6-193.1c-12.3-24.7-14.5-30.6-11.8-33.2c10.2-9.1,166.2-98.1,264.9-151.2
		C1429.9,1563.9,1533.9,1511.3,1535.5,1512.4L1535.5,1512.4z M857.7,1678.6c1.6,0,13.9,6.4,27.9,13.9c34.3,18.8,64.9,39.7,92.2,62.2
		c1.1,1.1-12.9,12.3-31.1,25.7c-50.9,36.5-128.2,94.9-173.2,130.9c-47.2,37.5-48.8,38.6-43.4,30.6c35.4-54.2,53.1-84.7,71.9-123.9
		c16.6-34.9,33.2-76.1,45-112.1C851.3,1690.4,856.6,1678.6,857.7,1678.6L857.7,1678.6z M1038.4,1820.2c2.7-0.5,5.9,4.3,20.4,25.7
		c30.6,45.6,54.2,106.7,60.1,156l1.1,10.7l-73.5,28.4c-131.4,50.9-252.6,101.3-334.6,138.9c-23.1,10.7-63.3,30-89.5,42.9
		c-26.3,13.4-47.7,23.6-47.7,23.1c0-0.5,16.6-12.9,37-27.9c160.3-116.4,299.2-244,403.3-371.6c11.3-13.4,21.5-25.7,22.5-26.3
		L1038.4,1820.2L1038.4,1820.2z M955.3,1840.6c2.1,2.1-59,71.3-100.8,113.7c-103.5,105.6-205.9,188.2-333,268.7
		c-16.1,10.2-30.6,19.3-32.2,20.4c-3.8,2.1,1.1-3.2,56.8-63.8c35.4-38.1,62.2-70.2,92.8-109.9c20.4-26.3,24.1-30,53.6-51
		C771.4,1961.8,953.1,1838.4,955.3,1840.6z"/>
</g>
</svg>
