<?xml version="1.0" encoding="utf-8"?>
<!-- Generator: Adobe Illustrator 24.0.0, SVG Export Plug-In . SVG Version: 6.00 Build 0)  -->
<svg version="1.1" id="Layer_1" xmlns="http://www.w3.org/2000/svg" xmlns:xlink="http://www.w3.org/1999/xlink" x="0px" y="0px"
	 viewBox="0 0 796.4 612" style="enable-background:new 0 0 796.4 612;" xml:space="preserve">
<style type="text/css">
	.st0{fill:#FFFFFF;}
</style>
<path d="M496.8,519.6H58.2c-32,0-58.2-26.2-58.2-58.2v-312c0-32,26.2-58.2,58.2-58.2h438.6c32,0,58.2,26.2,58.2,58.2v312
	C555,493.4,528.8,519.6,496.8,519.6z"/>
<path d="M583.3,192.5l189.4-86.7c11.1-5.1,23.7,3,23.7,15.2v365.2c0,12.1-12.5,20.2-23.6,15.3l-189.5-85.1L583.3,192.5z"/>
<g>
	<path class="st0" d="M365.2,188.6c7.8,7.9,15.4,15.4,23.1,23.2c-4.7,4.6-9.5,9.4-14.2,14.1c-8.6,8.6-17.2,17.1-25.8,25.7
		c-23.8,23.8-47.6,47.6-71.4,71.4c-24.5,24.6-49.1,49.1-73.6,73.6c-4.7,4.7-9.3,9.3-14.1,13.9c-5.8,5.7-16,7.3-23.6-0.8
		c-5.5-5.7-5.3-16,0.8-22.1c16.2-16.3,32.5-32.5,48.8-48.8c8.4-8.4,16.8-16.7,25.1-25.1c19.9-19.9,39.7-39.7,59.6-59.6
		c18.6-18.6,37.3-37.3,55.9-55.9C359,195,362.1,191.8,365.2,188.6z"/>
	<path class="st0" d="M135.3,379.4C205.6,309.1,275.6,239,345.6,169c3.7,3.6,7.4,7.4,11.2,11.1c-7.3,7.3-14.5,14.6-21.8,21.9
		c-23.9,23.9-47.8,47.9-71.7,71.8c-14.8,14.8-29.6,29.5-44.4,44.3c-20.4,20.4-40.8,40.9-61.3,61.3c-5.7,5.7-15.4,6-21.5,0.9
		C135.8,380,135.5,379.6,135.3,379.4z"/>
	<path class="st0" d="M197.8,441.8c-6.4-6-6.3-16.3,0.2-22.8c9.2-9.3,18.4-18.5,27.6-27.7c23.6-23.6,47.2-47.2,70.8-70.8
		c13.1-13.1,26.3-26.3,39.4-39.5c20-20,40-40,60-59.9c0.3-0.3,0.7-0.6,1.1-0.9c3.8,3.8,7.6,7.6,11.3,11.3
		C338.1,301.5,268,371.6,197.8,441.8z"/>
	<path class="st0" d="M152.8,392.7c-1.9,9.6,0.1,17.9,6.9,24.7c6.7,6.7,15,8.7,24.5,6.8c-1.2,6-0.9,11.7,1.8,17.3
		c-3.8,1.7-7.4,3.3-11.1,4.8c-10.4,4.5-20.9,8.9-31.3,13.5c-1.6,0.7-2.5,0.6-3.8-0.7c-7.2-7.4-14.5-14.6-21.9-21.8
		c-1.5-1.5-1.4-2.6-0.6-4.3c5.9-13.4,11.6-26.9,17.4-40.3c0.2-0.4,0.5-0.8,0.8-1.5C141,393.5,146.6,394.1,152.8,392.7z"/>
	<path class="st0" d="M374.2,141c11.4-12.2,33.1-13.3,45.4-2c6.7,6.2,13.3,12.7,19.4,19.5c6,6.8,7.9,15.3,7.1,24.4
		c-0.7,7.1-3.5,13.4-8.2,18.8c-0.5,0.6-1,1.1-1.5,1.6C415.7,182.5,395,161.8,374.2,141z"/>
	
		<rect x="378.5" y="142.4" transform="matrix(0.7071 -0.7071 0.7071 0.7071 -17.3187 331.1658)" class="st0" width="25.1" height="88.1"/>
	<path class="st0" d="M97.6,478.6c4.5-10.5,9-21,13.5-31.3c6.2,6.2,12.3,12.3,18.5,18.5c-10.4,4.5-20.8,9-31.3,13.5
		C98.1,479.1,97.9,478.9,97.6,478.6z"/>
</g>
</svg>
