<?xml version="1.0" encoding="UTF-8" standalone="no"?>
<!-- Generator: Adobe Illustrator 21.0.0, SVG Export Plug-In . SVG Version: 6.00 Build 0)  -->

<svg
   xmlns:dc="http://purl.org/dc/elements/1.1/"
   xmlns:cc="http://creativecommons.org/ns#"
   xmlns:rdf="http://www.w3.org/1999/02/22-rdf-syntax-ns#"
   xmlns:svg="http://www.w3.org/2000/svg"
   xmlns="http://www.w3.org/2000/svg"
   xmlns:xlink="http://www.w3.org/1999/xlink"
   xmlns:sodipodi="http://sodipodi.sourceforge.net/DTD/sodipodi-0.dtd"
   xmlns:inkscape="http://www.inkscape.org/namespaces/inkscape"
   version="1.1"
   id="Altice_x5F_Logo_x5F_pos_x5F_pr_x5F_rgb"
   x="0px"
   y="0px"
   viewBox="0 0 1000 1140.6481"
   xml:space="preserve"
   inkscape:version="0.48.5 r10040"
   width="100%"
   height="100%"
   sodipodi:docname="Altice_2017.svg"><metadata
   id="metadata43"><rdf:RDF><cc:Work
       rdf:about=""><dc:format>image/svg+xml</dc:format><dc:type
         rdf:resource="http://purl.org/dc/dcmitype/StillImage" /></cc:Work></rdf:RDF></metadata><defs
   id="defs41"><linearGradient
   id="linearGradient3222"><stop
     id="stop3224"
     offset="0"
     style="stop-color:#bcbcbc;stop-opacity:1" /><stop
     style="stop-color:#bebebe;stop-opacity:1"
     offset="0.25"
     id="stop3226" /><stop
     style="stop-color:#c1c1c1;stop-opacity:1"
     offset="0.5"
     id="stop3228" /><stop
     style="stop-color:#c8c8c8;stop-opacity:1"
     offset="0.75"
     id="stop3230" /><stop
     id="stop3232"
     offset="1"
     style="stop-color:#d5d5d5;stop-opacity:1" /></linearGradient><linearGradient
   inkscape:collect="always"
   id="linearGradient3212"><stop
     style="stop-color:#b8b8b8;stop-opacity:1"
     offset="0"
     id="stop3214" /><stop
     style="stop-color:#b8b8b8;stop-opacity:1"
     offset="1"
     id="stop3216" /></linearGradient><linearGradient
   id="linearGradient3198"><stop
     id="stop3200"
     offset="0"
     style="stop-color:#b8b8b8;stop-opacity:1" /><stop
     style="stop-color:#b8b8b8;stop-opacity:1"
     offset="0.25"
     id="stop3202" /><stop
     style="stop-color:#b7b7b7;stop-opacity:1"
     offset="0.5"
     id="stop3204" /><stop
     style="stop-color:#b4b4b4;stop-opacity:1"
     offset="0.75"
     id="stop3206" /><stop
     id="stop3208"
     offset="1"
     style="stop-color:#afafaf;stop-opacity:1" /></linearGradient><linearGradient
   id="linearGradient3184"><stop
     style="stop-color:#afafaf;stop-opacity:1"
     offset="0"
     id="stop3186" /><stop
     id="stop3188"
     offset="0.25"
     style="stop-color:#a4a4a4;stop-opacity:1" /><stop
     id="stop3190"
     offset="0.5"
     style="stop-color:#9a9a9a;stop-opacity:1" /><stop
     id="stop3192"
     offset="0.75"
     style="stop-color:#919191;stop-opacity:1" /><stop
     style="stop-color:#8e8e8e;stop-opacity:1"
     offset="1"
     id="stop3194" /></linearGradient><linearGradient
   id="linearGradient3170"><stop
     id="stop3172"
     offset="0"
     style="stop-color:#8e8e8e;stop-opacity:1" /><stop
     style="stop-color:#898989;stop-opacity:1"
     offset="0.25"
     id="stop3174" /><stop
     style="stop-color:#838383;stop-opacity:1"
     offset="0.5"
     id="stop3176" /><stop
     style="stop-color:#797979;stop-opacity:1"
     offset="0.75"
     id="stop3178" /><stop
     id="stop3180"
     offset="1"
     style="stop-color:#727272;stop-opacity:1" /></linearGradient><linearGradient
   id="linearGradient3156"><stop
     style="stop-color:#727272;stop-opacity:1"
     offset="0"
     id="stop3158" /><stop
     id="stop3160"
     offset="0.25"
     style="stop-color:#6e6e6e;stop-opacity:1" /><stop
     id="stop3162"
     offset="0.5"
     style="stop-color:#6c6c6c;stop-opacity:1" /><stop
     id="stop3164"
     offset="0.75"
     style="stop-color:#656565;stop-opacity:1" /><stop
     style="stop-color:#616161;stop-opacity:1"
     offset="1"
     id="stop3166" /></linearGradient><linearGradient
   id="linearGradient3142"><stop
     id="stop3144"
     offset="0"
     style="stop-color:#616161;stop-opacity:1" /><stop
     style="stop-color:#5f5f5f;stop-opacity:1"
     offset="0.25"
     id="stop3146" /><stop
     style="stop-color:#5b5b5b;stop-opacity:1"
     offset="0.5"
     id="stop3148" /><stop
     style="stop-color:#555555;stop-opacity:1"
     offset="0.75"
     id="stop3150" /><stop
     id="stop3152"
     offset="1"
     style="stop-color:#515151;stop-opacity:1" /></linearGradient><linearGradient
   id="linearGradient3128"><stop
     style="stop-color:#515151;stop-opacity:1"
     offset="0"
     id="stop3130" /><stop
     id="stop3132"
     offset="0.25"
     style="stop-color:#4a4a4a;stop-opacity:1" /><stop
     id="stop3134"
     offset="0.5"
     style="stop-color:#464646;stop-opacity:1" /><stop
     id="stop3136"
     offset="0.75"
     style="stop-color:#414141;stop-opacity:1" /><stop
     style="stop-color:#3f3f3f;stop-opacity:1"
     offset="1"
     id="stop3138" /></linearGradient><linearGradient
   id="linearGradient3114"><stop
     style="stop-color:#3f3f3f;stop-opacity:1"
     offset="0"
     id="stop3116" /><stop
     id="stop3118"
     offset="0.25"
     style="stop-color:#3d3d3d;stop-opacity:1" /><stop
     id="stop3120"
     offset="0.5"
     style="stop-color:#393939;stop-opacity:1" /><stop
     id="stop3122"
     offset="0.75"
     style="stop-color:#353535;stop-opacity:1" /><stop
     style="stop-color:#2e2e2e;stop-opacity:1"
     offset="1"
     id="stop3124" /></linearGradient><linearGradient
   id="linearGradient3094"><stop
     id="stop3096"
     offset="0"
     style="stop-color:#222222;stop-opacity:1" /><stop
     style="stop-color:#1d1d1d;stop-opacity:1"
     offset="0.25"
     id="stop3098" /><stop
     style="stop-color:#191919;stop-opacity:1"
     offset="0.5"
     id="stop3100" /><stop
     style="stop-color:#181818;stop-opacity:1"
     offset="0.75"
     id="stop3102" /><stop
     id="stop3104"
     offset="1"
     style="stop-color:#181818;stop-opacity:1" /></linearGradient><linearGradient
   id="linearGradient3078"><stop
     style="stop-color:#2e2e2e;stop-opacity:1"
     offset="0"
     id="stop3080" /><stop
     id="stop3090"
     offset="0.25"
     style="stop-color:#2d2d2d;stop-opacity:1" /><stop
     id="stop3088"
     offset="0.5"
     style="stop-color:#2b2b2b;stop-opacity:1" /><stop
     id="stop3086"
     offset="0.75"
     style="stop-color:#272727;stop-opacity:1" /><stop
     style="stop-color:#222222;stop-opacity:1"
     offset="1"
     id="stop3082" /></linearGradient>
	
	

		<defs
   id="defs25">
			<path
   id="SVGID_1_"
   d="M 545.9,718.8 C 629.6,677.4 692.8,607.1 726.8,526 c 26.1,42.2 54.8,82.2 88.2,117.1 35,36.6 71.9,63.6 112.5,82.9 45.7,21.7 95.4,32.6 149,32.6 V 599.2 C 1018.9,599.2 974,578.8 930,532.7 884.7,485.3 847.3,418.1 807.9,347.1 791.5,317.6 773.9,285.9 756.3,256.6 L 756.3,0 H 596.6 V 69.7 C 577.9,56.4 556.6,43.7 535.2,33.9 487.3,11.9 434,0.3 376.5,0.2 320,0.1 262.5,13.8 210.1,39.8 183.4,53.1 158.9,69.2 136.7,87.7 109,110.6 84.8,137.2 64.8,167.1 46.3,194.8 31,225.1 20,257.6 c -32.3,96 -25.4,198.1 19.4,289.7 43.9,89.5 120.2,157.2 217.6,190.9 95.2,32.9 198.5,25.3 288.9,-19.4 z M 596.5,380 c -0.2,80.6 -44.9,158 -121.7,196.2 v 0 C 366.7,629.9 235.2,585.4 181.7,477 155.8,424.5 151.8,365 170.5,309.5 189.2,254 228.3,209 280.7,183 c 30.4,-15.1 63.8,-23.3 95.9,-23.3 65.2,0 115.7,22.3 164.1,72.1 5.1,5.2 9.9,10.4 14.7,16.4 33.3,42 40.1,91.4 41.3,116 l -0.2,15.8 z"
   inkscape:connector-curvature="0" />
		</defs>
		<clipPath
   id="SVGID_2_">
			<use
   xlink:href="#SVGID_1_"
   style="overflow:visible"
   id="use29"
   x="0"
   y="0"
   width="1080"
   height="1232.3" />
		</clipPath>
		
	
		
		
		
		
		
		
		
	<linearGradient
   inkscape:collect="always"
   xlink:href="#linearGradient3078"
   id="linearGradient3084"
   x1="621.42133"
   y1="197.12822"
   x2="790.8999"
   y2="475.61411"
   gradientUnits="userSpaceOnUse"
   gradientTransform="matrix(0.9258507,0,0,0.9258507,0,-0.27777941)" /><linearGradient
   inkscape:collect="always"
   xlink:href="#linearGradient3094"
   id="linearGradient3092"
   x1="798.14795"
   y1="472.82996"
   x2="1073.613"
   y2="758.0791"
   gradientUnits="userSpaceOnUse"
   gradientTransform="matrix(0.9258507,0,0,0.9258507,0,-0.27777941)" /><linearGradient
   inkscape:collect="always"
   xlink:href="#linearGradient3114"
   id="linearGradient3112"
   x1="373.96674"
   y1="158.93587"
   x2="551.40204"
   y2="244.07298"
   gradientUnits="userSpaceOnUse"
   gradientTransform="matrix(0.9258507,0,0,0.9258507,0,-0.27777941)" /><linearGradient
   inkscape:collect="always"
   xlink:href="#linearGradient3128"
   id="linearGradient3126"
   x1="221.52325"
   y1="225.82529"
   x2="374.50854"
   y2="158.44664"
   gradientUnits="userSpaceOnUse"
   gradientTransform="matrix(0.9258507,0,0,0.9258507,0,-0.27777941)" /><linearGradient
   inkscape:collect="always"
   xlink:href="#linearGradient3142"
   id="linearGradient3140"
   x1="157.54344"
   y1="377.86026"
   x2="220.72282"
   y2="225.79828"
   gradientUnits="userSpaceOnUse"
   gradientTransform="matrix(0.9258507,0,0,0.9258507,0,-0.27777941)" /><linearGradient
   inkscape:collect="always"
   xlink:href="#linearGradient3156"
   id="linearGradient3154"
   x1="214.03629"
   y1="525.24365"
   x2="159.30283"
   y2="379.23749"
   gradientUnits="userSpaceOnUse"
   gradientTransform="matrix(0.9258507,0,0,0.9258507,0,-0.27777941)" /><linearGradient
   inkscape:collect="always"
   xlink:href="#linearGradient3170"
   id="linearGradient3168"
   x1="377.52914"
   y1="601.72064"
   x2="214.69333"
   y2="527.32513"
   gradientUnits="userSpaceOnUse"
   gradientTransform="matrix(0.9258507,0,0,0.9258507,0,-0.27777941)" /><linearGradient
   inkscape:collect="always"
   xlink:href="#linearGradient3184"
   id="linearGradient3182"
   x1="539.06329"
   y1="528.32513"
   x2="378.04056"
   y2="599.73682"
   gradientUnits="userSpaceOnUse"
   gradientTransform="matrix(0.9258507,0,0,0.9258507,0,-0.27777941)" /><linearGradient
   inkscape:collect="always"
   xlink:href="#linearGradient3198"
   id="linearGradient3196"
   x1="597.48206"
   y1="379.03543"
   x2="540.0166"
   y2="529.01996"
   gradientUnits="userSpaceOnUse"
   gradientTransform="matrix(0.9258507,0,0,0.9258507,0,-0.27777941)" /><linearGradient
   inkscape:collect="always"
   xlink:href="#linearGradient3212"
   id="linearGradient3218"
   x1="599.14246"
   y1="379.36975"
   x2="599.14246"
   y2="258.88867"
   gradientUnits="userSpaceOnUse"
   gradientTransform="matrix(0.9258507,0,0,0.9258507,0,-0.27777941)" /><linearGradient
   inkscape:collect="always"
   xlink:href="#linearGradient3222"
   id="linearGradient3220"
   x1="753.74951"
   y1="256.71576"
   x2="753.74951"
   y2="-0.12418313"
   gradientUnits="userSpaceOnUse"
   gradientTransform="matrix(0.9258507,0,0,0.9258507,0,-0.27777941)" /></defs><sodipodi:namedview
   pagecolor="#ffffff"
   bordercolor="#666666"
   borderopacity="1"
   objecttolerance="10"
   gridtolerance="10"
   guidetolerance="10"
   inkscape:pageopacity="0"
   inkscape:pageshadow="2"
   inkscape:window-width="1024"
   inkscape:window-height="1037"
   id="namedview39"
   showgrid="false"
   showguides="true"
   inkscape:guide-bbox="true"
   fit-margin-top="0"
   fit-margin-left="0"
   fit-margin-right="0"
   fit-margin-bottom="0"
   inkscape:zoom="0.15709953"
   inkscape:cx="799.58045"
   inkscape:cy="-237.6977"
   inkscape:window-x="892"
   inkscape:window-y="-21"
   inkscape:window-maximized="0"
   inkscape:current-layer="Altice_x5F_Logo_x5F_pos_x5F_pr_x5F_rgb"><inkscape:grid
     type="xygrid"
     id="grid3045"
     empspacing="5"
     visible="true"
     enabled="true"
     snapvisiblegridlinesonly="true"
     originx="0px"
     originy="2.4414063e-005px" /></sodipodi:namedview>
<style
   type="text/css"
   id="style3">
	.st0{clip-path:url(#SVGID_2_);}
</style>
<path
   style="fill:url(#linearGradient3220);stroke:none"
   d="m 552.73287,-2.4414063e-5 147.21026,0 0,241.647034414063 -56.47689,32.60696 -90.73337,-184.446473 z"
   id="path3063"
   inkscape:connector-curvature="0" /><path
   d="m 320.25176,1063.8025 c -1.48136,-6.6661 -2.31463,-14.721 -2.31463,-24.6276 V 857.61551 h -51.66247 v 180.26319 c 0,22.1278 2.68497,41.6633 8.0549,55.8288 10.73987,28.2384 34.90458,43.515 65.7354,43.515 4.90701,0 9.81402,-0.2778 14.9062,-0.9259 v -46.3851 c -1.48136,0.093 -2.96272,0.1852 -4.44408,0.1852 -15.73947,-0.093 -26.47933,-9.3511 -30.27532,-26.2942 z"
   id="path9"
   inkscape:connector-curvature="0" /><path
   d="m 105.73215,976.21697 c -31.664094,0 -54.532606,23.424 -54.532606,57.31023 0,33.9787 22.868512,57.3101 54.532606,57.3101 31.66409,0 54.53261,-23.424 54.53261,-57.3101 0,-33.97873 -22.86852,-57.31023 -54.53261,-57.31023 z m 127.48964,160.91293 c -32.68253,0 -47.86648,-12.9619 -58.23601,-31.2938 -13.70259,18.2393 -37.2192,31.7567 -72.40152,31.7567 -60.365468,0 -102.49167493,-42.404 -102.49167493,-104.0656 0,-59.34713 44.62600393,-104.06563 102.67684493,-104.06563 25.46089,0 44.90376,8.9807 58.60635,23.3314 v -20.7391 h 47.86648 v 107.12103 c 0,9.9066 0.74068,17.9615 2.31463,24.6276 3.88857,16.9431 14.81361,26.109 29.07171,26.2016 1.75911,0 3.14789,-0.093 4.44408,-0.1852 v 46.3851 c -3.79599,0.4629 -7.77714,0.9259 -11.85089,0.9259 z"
   id="path11"
   inkscape:connector-curvature="0" /><path
   d="m 560.97294,1063.8025 c -1.48136,-6.6661 -2.31462,-14.721 -2.31462,-24.6276 V 931.68357 h -51.66247 v 106.10253 c 0,22.1278 2.68496,41.6633 8.0549,55.8288 10.73987,28.2384 34.90457,43.515 65.7354,43.515 4.99959,0 11.20279,-0.463 14.90619,-0.9259 v -46.3851 c -1.57394,0.093 -3.24047,0.1852 -4.81442,0.1852 -15.46171,-0.1852 -26.01641,-9.3511 -29.90498,-26.2016 z"
   id="path13"
   inkscape:connector-curvature="0" /><path
   d="m 434.50174,1060.9324 c -1.48137,-6.9439 -2.12946,-16.6654 -2.12946,-31.3864 v -51.75503 h 42.31138 v -45.5519 h -42.31138 v -49.25525 h -51.66247 v 49.25525 h -23.60919 v 45.5519 h 23.60919 v 59.53223 c 0,13.7951 1.20361,27.6829 3.24048,37.2192 8.70299,41.2929 35.923,62.8652 77.40112,62.8652 6.11061,0 12.96191,-0.5555 16.85048,-1.111 v -46.3851 c -2.4998,0.1852 -4.90701,0.3703 -7.40681,0.3703 -20.55388,0 -32.12702,-9.4437 -36.29334,-29.3494 z"
   id="path15"
   inkscape:connector-curvature="0" /><path
   d="m 532.7345,911.68517 c 16.20238,0 29.44205,-13.23964 29.44205,-29.53462 0,-16.29497 -13.23967,-29.53463 -29.44205,-29.53463 -16.20239,0 -29.44206,13.23966 -29.44206,29.53463 0,16.29498 13.23967,29.53462 29.44206,29.53462 z"
   id="path17"
   inkscape:connector-curvature="0" /><path
   d="m 989.08631,1113.0577 c -21.47974,19.8133 -50.55145,27.5904 -81.38228,27.5904 -65.82798,0 -113.23154,-38.9783 -113.23154,-106.4728 0,-60.92103 43.60757,-106.47293 103.78786,-106.47293 61.47649,0 100.08446,40.182 101.65841,98.88093 0.46294,16.6653 -1.20361,25.8312 -1.20361,25.8312 H 846.13496 c 3.7034,26.3868 28.23845,42.9595 61.56907,42.9595 20.27613,0 36.75627,-5.5551 50.64403,-16.3876 l 30.73825,34.0713 z m -40.45968,-101.6584 c -4.25891,-24.81283 -23.42402,-40.27453 -50.8292,-40.27453 -27.59035,0 -46.10737,17.0357 -50.92179,40.27453 h 101.75099 z"
   id="path19"
   inkscape:connector-curvature="0" /><path
   d="m 760.95669,1078.8939 c -12.86932,9.9991 -28.23844,14.721 -43.42239,14.721 -36.57111,0 -60.36547,-23.9795 -60.36547,-59.9026 0,-34.44163 23.97953,-59.53223 57.31016,-59.53223 16.85048,0 29.99756,5.4626 41.38553,14.9062 l 35.923,-33.238 c -21.94266,-20.3687 -46.84804,-28.4236 -77.67887,-28.4236 -62.032,0 -108.32453,44.626 -108.32453,106.19513 0,63.8837 42.95947,106.8431 110.91691,106.8431 27.22001,0 55.8288,-7.4068 75.73459,-26.6645 l -31.47893,-34.9045 z"
   id="path21"
   inkscape:connector-curvature="0" />
<path
   style="fill:url(#linearGradient3218);fill-opacity:1;stroke:none"
   d="m 552.73287,350.8974 c 0,-81.22118 -39.81158,-123.13815 -39.81158,-123.13815 l 145.92946,84.25242 -40.09051,69.4388 z"
   id="path3067"
   inkscape:connector-curvature="0"
   sodipodi:nodetypes="ccccc" /><path
   style="fill:url(#linearGradient3196);stroke:none"
   d="m 499.03353,488.84915 c 0,0 53.69934,-52.16852 53.69934,-137.95175 l 118.50889,0 1.8517,135.1742 c 0,0 -28.50623,68.78696 -77.77146,114.80549 l -95.36262,-11.11021 z"
   id="path3065"
   inkscape:connector-curvature="0"
   sodipodi:nodetypes="ccccccc" /><path
   style="fill:url(#linearGradient3092);stroke:none"
   d="m 661.98325,469.40629 c 96.09703,162.04678 201.34893,232.7358 334.23211,232.7358 l 0,-147.55754 c -96.15035,0 -152.2285,-67.58947 -208.31641,-162.94972 l -107.39868,0 z"
   id="path3061"
   inkscape:connector-curvature="0"
   sodipodi:nodetypes="cccccc" /><path
   style="fill:url(#linearGradient3084);fill-opacity:1;stroke:none"
   d="M 512.92129,227.75925 C 575.3175,304.141 614.2211,388.85728 661.98325,469.40629 l 125.9157,-77.77146 C 736.75679,307.01497 696.47873,219.32686 631.43018,139.80344 l -108.32453,0 z"
   id="path3059"
   inkscape:connector-curvature="0"
   sodipodi:nodetypes="cccccc" /><path
   style="fill:url(#linearGradient3112);fill-opacity:1;stroke:none"
   d="M 347.19401,-2.4414063e-5 C 533.66821,-2.4414063e-5 631.43018,139.80344 631.43018,139.80344 l -118.50889,87.95581 c 0,0 -61.6206,-80.54901 -165.72728,-80.54901 L 282.38446,82.400687 z"
   id="path3057"
   inkscape:connector-curvature="0"
   sodipodi:nodetypes="cccccc" /><path
   style="fill:url(#linearGradient3182);stroke:none"
   d="m 350.89742,701.79481 c 152.76146,0 244.42458,-100.91772 244.42458,-100.91772 L 499.03353,488.84915 c 0,0 -53.50389,65.7354 -149.06196,65.7354 l -44.44084,76.97378 z"
   id="path3055"
   inkscape:connector-curvature="0"
   sodipodi:nodetypes="cccccc" /><path
   style="fill:url(#linearGradient3168);stroke:none"
   d="m 99.066025,595.32198 c 0,0 91.026905,106.47283 251.831395,106.47283 l -0.92585,-147.21026 c -97.496,0 -150.91367,-67.5871 -150.91367,-67.5871 l -87.95582,0 z"
   id="path3053"
   inkscape:connector-curvature="0"
   sodipodi:nodetypes="cccccc" /><path
   style="fill:url(#linearGradient3154);stroke:none"
   d="M 0,350.8974 C 0,505.30894 99.066025,595.32198 99.066025,595.32198 L 199.0579,486.99745 c 0,0 -51.84764,-51.1073 -51.84764,-136.10005 L 69.438803,305.99603 z"
   id="path3051"
   inkscape:connector-curvature="0"
   sodipodi:nodetypes="cccccc" /><path
   style="fill:url(#linearGradient3140);stroke:none"
   d="m 204.61301,209.24224 c 0,0 -57.40275,51.51635 -57.40275,141.65516 L 0,350.8974 C 0,188.07147 109.25038,96.288447 109.25038,96.288447 l 85.17827,22.823453 z"
   id="path3049"
   inkscape:connector-curvature="0"
   sodipodi:nodetypes="cccccc" /><path
   style="fill:url(#linearGradient3126);stroke:none"
   d="m 347.19401,-2.4414063e-5 0,147.210264414063 c -89.37185,0 -142.581,62.032 -142.581,62.032 L 109.25038,96.288447 c 0,0 90.18544,-96.288471414063 237.94363,-96.288471414063 z"
   id="path3047"
   inkscape:connector-curvature="0"
   sodipodi:nodetypes="ccccc" /></svg>