<?xml version="1.0" encoding="utf-8"?>
<!-- Generator: Adobe Illustrator 24.0.0, SVG Export Plug-In . SVG Version: 6.00 Build 0)  -->
<svg version="1.1" id="Layer_1" xmlns="http://www.w3.org/2000/svg" xmlns:xlink="http://www.w3.org/1999/xlink" x="0px" y="0px"
	 viewBox="0 0 352.9 355.4" style="enable-background:new 0 0 352.9 355.4;" xml:space="preserve">
<g>
	<path d="M269.1,60.7c7.8,7.9,15.4,15.4,23.1,23.2c-4.7,4.6-9.5,9.4-14.2,14.1c-8.6,8.6-17.2,17.1-25.8,25.7
		c-23.8,23.8-47.6,47.6-71.4,71.4c-24.5,24.6-49.1,49.1-73.6,73.6c-4.7,4.7-9.3,9.3-14.1,13.9c-5.8,5.7-16,7.3-23.6-0.8
		c-5.5-5.7-5.3-16,0.8-22.1c16.2-16.3,32.5-32.5,48.8-48.8c8.4-8.4,16.8-16.7,25.1-25.1c19.9-19.9,39.7-39.7,59.6-59.6
		c18.6-18.6,37.3-37.3,55.9-55.9C262.9,67.1,266,63.9,269.1,60.7z"/>
	<path d="M39.2,251.5c70.3-70.3,140.3-140.4,210.3-210.4c3.7,3.6,7.4,7.4,11.2,11.1c-7.3,7.3-14.5,14.6-21.8,21.9
		c-23.9,23.9-47.8,47.9-71.7,71.8c-14.8,14.8-29.6,29.5-44.4,44.3c-20.4,20.4-40.8,40.9-61.3,61.3c-5.7,5.7-15.4,6-21.5,0.9
		C39.7,252.1,39.4,251.7,39.2,251.5z"/>
	<path d="M101.7,313.9c-6.4-6-6.3-16.3,0.2-22.8c9.2-9.3,18.4-18.5,27.6-27.7c23.6-23.6,47.2-47.2,70.8-70.8
		c13.1-13.1,26.3-26.3,39.4-39.5c20-20,40-40,60-59.9c0.3-0.3,0.7-0.6,1.1-0.9c3.8,3.8,7.6,7.6,11.3,11.3
		C242,173.6,171.9,243.7,101.7,313.9z"/>
	<path d="M56.7,264.8c-1.9,9.6,0.1,17.9,6.9,24.7c6.7,6.7,15,8.7,24.5,6.8c-1.2,6-0.9,11.7,1.8,17.3c-3.8,1.7-7.4,3.3-11.1,4.8
		c-10.4,4.5-20.9,8.9-31.3,13.5c-1.6,0.7-2.5,0.6-3.8-0.7c-7.2-7.4-14.5-14.6-21.9-21.8c-1.5-1.5-1.4-2.6-0.6-4.3
		c5.9-13.4,11.6-26.9,17.4-40.3c0.2-0.4,0.5-0.8,0.8-1.5C44.9,265.6,50.5,266.2,56.7,264.8z"/>
	<path d="M278.1,13.1c11.4-12.2,33.1-13.3,45.4-2c6.7,6.2,13.3,12.7,19.4,19.5c6,6.8,7.9,15.3,7.1,24.4c-0.7,7.1-3.5,13.4-8.2,18.8
		c-0.5,0.6-1,1.1-1.5,1.6C319.6,54.6,298.9,33.9,278.1,13.1z"/>
	<rect x="282.4" y="14.5" transform="matrix(0.7071 -0.7071 0.7071 0.7071 45.0045 225.7164)" width="25.1" height="88.1"/>
	<path d="M1.5,350.7c4.5-10.5,9-21,13.5-31.3c6.2,6.2,12.3,12.3,18.5,18.5c-10.4,4.5-20.8,9-31.3,13.5C2,351.2,1.8,351,1.5,350.7z"
		/>
</g>
</svg>
