<?xml version="1.0" encoding="utf-8"?>
<!-- Generator: Adobe Illustrator 24.0.0, SVG Export Plug-In . SVG Version: 6.00 Build 0)  -->
<svg version="1.1" id="Livello_1" xmlns="http://www.w3.org/2000/svg" xmlns:xlink="http://www.w3.org/1999/xlink" x="0px" y="0px"
	 viewBox="0 0 160.1 160" style="enable-background:new 0 0 160.1 160;" xml:space="preserve">
<style type="text/css">
	.st0{clip-path:url(#SVGID_2_);}
	.st1{fill:url(#SVGID_3_);}
	.st2{clip-path:url(#SVGID_5_);}
	.st3{fill:url(#SVGID_6_);}
	.st4{fill:#00599A;}
	.st5{filter:url(#Adobe_OpacityMaskFilter);}
	.st6{enable-background:new    ;}
	.st7{clip-path:url(#SVGID_9_);}
	.st8{clip-path:url(#SVGID_11_);}
	.st9{clip-path:url(#SVGID_13_);fill:url(#SVGID_14_);}
	.st10{mask:url(#SVGID_7_);}
	.st11{clip-path:url(#SVGID_16_);}
	.st12{clip-path:url(#SVGID_18_);}
	.st13{fill:url(#SVGID_19_);}
	.st14{filter:url(#Adobe_OpacityMaskFilter_1_);}
	.st15{clip-path:url(#SVGID_22_);}
	.st16{clip-path:url(#SVGID_24_);}
	.st17{clip-path:url(#SVGID_26_);fill:url(#SVGID_27_);}
	.st18{mask:url(#SVGID_20_);}
	.st19{clip-path:url(#SVGID_29_);fill:#0092C0;}
	.st20{fill:#006CB7;}
	.st21{clip-path:url(#SVGID_31_);}
	.st22{fill:url(#SVGID_32_);}
	.st23{clip-path:url(#SVGID_34_);}
	.st24{fill:url(#SVGID_35_);}
	.st25{filter:url(#Adobe_OpacityMaskFilter_2_);}
	.st26{clip-path:url(#SVGID_38_);}
	.st27{clip-path:url(#SVGID_40_);}
	.st28{clip-path:url(#SVGID_42_);fill:url(#SVGID_43_);}
	.st29{mask:url(#SVGID_36_);}
	.st30{clip-path:url(#SVGID_45_);fill:#00B9F2;}
	.st31{fill:#0078AF;}
	.st32{fill:#005E9E;}
	.st33{filter:url(#Adobe_OpacityMaskFilter_3_);}
	.st34{clip-path:url(#SVGID_48_);}
	.st35{clip-path:url(#SVGID_50_);}
	.st36{clip-path:url(#SVGID_52_);fill:url(#SVGID_53_);}
	.st37{mask:url(#SVGID_46_);}
	.st38{clip-path:url(#SVGID_55_);}
	.st39{clip-path:url(#SVGID_57_);}
	.st40{fill:url(#SVGID_58_);}
	.st41{filter:url(#Adobe_OpacityMaskFilter_4_);}
	.st42{clip-path:url(#SVGID_61_);}
	.st43{clip-path:url(#SVGID_63_);}
	.st44{clip-path:url(#SVGID_65_);fill:url(#SVGID_66_);}
	.st45{mask:url(#SVGID_59_);}
	.st46{clip-path:url(#SVGID_68_);fill:#00A1E4;}
	.st47{fill:#0083C5;}
	.st48{clip-path:url(#SVGID_70_);}
	.st49{fill:url(#SVGID_71_);}
	.st50{fill:#007DC5;}
	.st51{filter:url(#Adobe_OpacityMaskFilter_5_);}
	.st52{clip-path:url(#SVGID_74_);}
	.st53{clip-path:url(#SVGID_76_);}
	.st54{clip-path:url(#SVGID_78_);fill:url(#SVGID_79_);}
	.st55{mask:url(#SVGID_72_);}
	.st56{clip-path:url(#SVGID_81_);}
	.st57{clip-path:url(#SVGID_83_);}
	.st58{fill:url(#SVGID_84_);}
	.st59{clip-path:url(#SVGID_86_);}
	.st60{fill:url(#SVGID_87_);}
	.st61{fill:#00A1E4;}
	.st62{clip-path:url(#SVGID_89_);}
	.st63{fill:url(#SVGID_90_);}
	.st64{clip-path:url(#SVGID_92_);}
	.st65{fill:url(#SVGID_93_);}
	.st66{filter:url(#Adobe_OpacityMaskFilter_6_);}
	.st67{clip-path:url(#SVGID_96_);}
	.st68{clip-path:url(#SVGID_98_);}
	.st69{clip-path:url(#SVGID_100_);fill:url(#SVGID_101_);}
	.st70{mask:url(#SVGID_94_);}
	.st71{clip-path:url(#SVGID_103_);}
	.st72{clip-path:url(#SVGID_105_);}
	.st73{fill:url(#SVGID_106_);}
	.st74{fill:#009BDF;}
	.st75{fill:#0061AF;}
	.st76{fill:#0064B1;}
	.st77{fill:#0062A8;}
	.st78{clip-path:url(#SVGID_108_);}
	.st79{fill:url(#SVGID_109_);}
	.st80{filter:url(#Adobe_OpacityMaskFilter_7_);}
	.st81{clip-path:url(#SVGID_112_);}
	.st82{clip-path:url(#SVGID_114_);}
	.st83{clip-path:url(#SVGID_116_);fill:url(#SVGID_117_);}
	.st84{mask:url(#SVGID_110_);}
	.st85{clip-path:url(#SVGID_119_);fill:#6DC3E8;}
	.st86{clip-path:url(#SVGID_119_);fill:#37BEEA;}
	.st87{clip-path:url(#SVGID_119_);}
	.st88{clip-path:url(#SVGID_121_);}
	.st89{fill:url(#SVGID_122_);}
	.st90{clip-path:url(#SVGID_124_);}
	.st91{fill:url(#SVGID_125_);}
	.st92{filter:url(#Adobe_OpacityMaskFilter_8_);}
	.st93{clip-path:url(#SVGID_128_);}
	.st94{clip-path:url(#SVGID_130_);}
	.st95{clip-path:url(#SVGID_132_);fill:url(#SVGID_133_);}
	.st96{mask:url(#SVGID_126_);}
	.st97{clip-path:url(#SVGID_135_);}
	.st98{clip-path:url(#SVGID_137_);}
	.st99{fill:url(#SVGID_138_);}
</style>
<g>
	<g>
		<defs>
			<path id="SVGID_1_" d="M55.6,61c5.8,17.6,8,49.1,24.8,49.1l0,0c1.3,0,2.6-0.1,3.9-0.4l0,0C69,106.2,67.2,75.1,57.8,58.9l0,0
				C57.1,59.6,56.3,60.3,55.6,61"/>
		</defs>
		<clipPath id="SVGID_2_">
			<use xlink:href="#SVGID_1_"  style="overflow:visible;"/>
		</clipPath>
		<g class="st0">
			
				<linearGradient id="SVGID_3_" gradientUnits="userSpaceOnUse" x1="-111.2168" y1="463.0491" x2="-110.2168" y2="463.0491" gradientTransform="matrix(0 76.3782 76.3782 0 -35296.9648 8543.5117)">
				<stop  offset="0" style="stop-color:#0095DA"/>
				<stop  offset="0.1099" style="stop-color:#0095DA"/>
				<stop  offset="0.35" style="stop-color:#44C8F5"/>
				<stop  offset="0.45" style="stop-color:#44C8F5"/>
				<stop  offset="0.8462" style="stop-color:#007DC5"/>
				<stop  offset="1" style="stop-color:#007DC5"/>
			</linearGradient>
			<rect x="-144.8" y="59" class="st1" width="229.1" height="229.1"/>
		</g>
	</g>
	<g>
		<defs>
			<path id="SVGID_4_" d="M57.8,58.9c9.4,16.1,11.2,47.3,26.5,50.8l0,0c1.2-0.2,2.4-0.6,3.6-1l0,0c-13.8-6.7-17.6-37-28.2-51.5l0,0
				C59.1,57.8,58.5,58.4,57.8,58.9"/>
		</defs>
		<clipPath id="SVGID_5_">
			<use xlink:href="#SVGID_4_"  style="overflow:visible;"/>
		</clipPath>
		<g class="st2">
			
				<linearGradient id="SVGID_6_" gradientUnits="userSpaceOnUse" x1="-111.2168" y1="463.0491" x2="-110.2168" y2="463.0491" gradientTransform="matrix(0 78.3247 78.3247 0 -36195.3203 8758.0605)">
				<stop  offset="0" style="stop-color:#0078B9"/>
				<stop  offset="0.1758" style="stop-color:#0078B9"/>
				<stop  offset="0.36" style="stop-color:#00AAE5"/>
				<stop  offset="0.52" style="stop-color:#00AAE5"/>
				<stop  offset="0.8462" style="stop-color:#00AEEF"/>
				<stop  offset="1" style="stop-color:#00AEEF"/>
			</linearGradient>
			<rect x="-147" y="57.3" class="st3" width="235" height="235"/>
		</g>
	</g>
	<path class="st4" d="M71.3,49.4c-1.3,0-2.6,0.1-3.9,0.4c-3.4,0.6-6.9,2.1-10.4,4.3c1,0.9,1.9,2,2.7,3.2c3.6-3,7.1-5.1,10.6-6.4
		c1.3-0.5,2.6-0.9,4-1.1C73.4,49.5,72.4,49.4,71.3,49.4"/>
	<defs>
		<filter id="Adobe_OpacityMaskFilter" filterUnits="userSpaceOnUse" x="74.2" y="49.3" width="28.7" height="53.3">
			<feFlood  style="flood-color:white;flood-opacity:1" result="back"/>
			<feBlend  in="SourceGraphic" in2="back" mode="normal"/>
		</filter>
	</defs>
	<mask maskUnits="userSpaceOnUse" x="74.2" y="49.3" width="28.7" height="53.3" id="SVGID_7_">
		<g class="st5">
			<g>
				<g>
					<defs>
						<rect id="SVGID_8_" x="29.9" y="47.5" width="89.5" height="31.4"/>
					</defs>
					<clipPath id="SVGID_9_">
						<use xlink:href="#SVGID_8_"  style="overflow:visible;"/>
					</clipPath>
					<g class="st6">
						<g>
							<defs>
								<rect id="SVGID_10_" x="29.9" y="47.5" width="89.5" height="31.4"/>
							</defs>
							<clipPath id="SVGID_11_" class="st7">
								<use xlink:href="#SVGID_10_"  style="overflow:visible;"/>
							</clipPath>
							<g>
								<defs>
									<rect id="SVGID_12_" x="29.9" y="47.5" width="89.5" height="31.4"/>
								</defs>
								<clipPath id="SVGID_13_" class="st8">
									<use xlink:href="#SVGID_12_"  style="overflow:visible;"/>
								</clipPath>
								<g>
									
										<linearGradient id="SVGID_14_" gradientUnits="userSpaceOnUse" x1="-111.2168" y1="463.0491" x2="-110.2168" y2="463.0491" gradientTransform="matrix(0 31.3729 31.3729 0 -14452.46 3536.7444)">
										<stop  offset="0" style="stop-color:#000000"/>
										<stop  offset="1" style="stop-color:#FFFFFF"/>
									</linearGradient>
									<rect x="25.3" y="47.6" class="st9" width="94.1" height="94.1"/>
								</g>
							</g>
						</g>
					</g>
				</g>
			</g>
		</g>
	</mask>
	<g class="st10">
		<g>
			<defs>
				<rect id="SVGID_15_" x="74.3" y="49.4" width="28.6" height="53.2"/>
			</defs>
			<clipPath id="SVGID_16_">
				<use xlink:href="#SVGID_15_"  style="overflow:visible;"/>
			</clipPath>
			<g class="st11">
				<defs>
					<path id="SVGID_17_" d="M98.7,102.6c1.4-1.1,2.8-2.4,4.2-3.7c-5.9-17.6-8-49.5-25-49.5c-1.2,0-2.4,0.1-3.7,0.3
						C89.8,53.6,91.8,87.2,98.7,102.6"/>
				</defs>
				<clipPath id="SVGID_18_">
					<use xlink:href="#SVGID_17_"  style="overflow:visible;"/>
				</clipPath>
				<g class="st12">
					
						<linearGradient id="SVGID_19_" gradientUnits="userSpaceOnUse" x1="-111.2168" y1="463.0491" x2="-110.2168" y2="463.0491" gradientTransform="matrix(0 -62.3219 -62.3219 0 28946.5879 -6822.9536)">
						<stop  offset="0" style="stop-color:#0066B3"/>
						<stop  offset="0.5" style="stop-color:#00B9F2"/>
						<stop  offset="1" style="stop-color:#00B9F2"/>
					</linearGradient>
					<rect x="74.2" y="-84.5" class="st13" width="187" height="187"/>
				</g>
			</g>
		</g>
	</g>
	<defs>
		<filter id="Adobe_OpacityMaskFilter_1_" filterUnits="userSpaceOnUse" x="71.3" y="49.4" width="6.7" height="0.4">
			<feFlood  style="flood-color:white;flood-opacity:1" result="back"/>
			<feBlend  in="SourceGraphic" in2="back" mode="normal"/>
		</filter>
	</defs>
	<mask maskUnits="userSpaceOnUse" x="71.3" y="49.4" width="6.7" height="0.4" id="SVGID_20_">
		<g class="st14">
			<g>
				<g>
					<defs>
						<rect id="SVGID_21_" x="29.9" y="47.5" width="89.5" height="31.4"/>
					</defs>
					<clipPath id="SVGID_22_">
						<use xlink:href="#SVGID_21_"  style="overflow:visible;"/>
					</clipPath>
					<g class="st6">
						<g>
							<defs>
								<rect id="SVGID_23_" x="29.9" y="47.5" width="89.5" height="31.4"/>
							</defs>
							<clipPath id="SVGID_24_" class="st15">
								<use xlink:href="#SVGID_23_"  style="overflow:visible;"/>
							</clipPath>
							<g>
								<defs>
									<rect id="SVGID_25_" x="29.9" y="47.5" width="89.5" height="31.4"/>
								</defs>
								<clipPath id="SVGID_26_" class="st16">
									<use xlink:href="#SVGID_25_"  style="overflow:visible;"/>
								</clipPath>
								<g>
									
										<linearGradient id="SVGID_27_" gradientUnits="userSpaceOnUse" x1="-111.2168" y1="463.0491" x2="-110.2168" y2="463.0491" gradientTransform="matrix(0 31.3729 31.3729 0 -14452.46 3536.7444)">
										<stop  offset="0" style="stop-color:#000000"/>
										<stop  offset="1" style="stop-color:#FFFFFF"/>
									</linearGradient>
									<rect x="25.3" y="47.6" class="st17" width="94.1" height="94.1"/>
								</g>
							</g>
						</g>
					</g>
				</g>
			</g>
		</g>
	</mask>
	<g class="st18">
		<g>
			<defs>
				<rect id="SVGID_28_" x="71.3" y="49.4" width="6.7" height="0.4"/>
			</defs>
			<clipPath id="SVGID_29_">
				<use xlink:href="#SVGID_28_"  style="overflow:visible;"/>
			</clipPath>
			<path class="st19" d="M74.3,49.7c-1-0.2-2-0.4-3-0.4l6.7,0C76.8,49.4,75.5,49.5,74.3,49.7"/>
		</g>
	</g>
	<path class="st20" d="M98.4,106.3c-0.7-0.6-1.3-1.3-1.9-2.1c-2.9,2-5.7,3.6-8.5,4.6c1,0.5,2.1,0.9,3.2,1.1c0.9,0.2,1.8,0.3,2.7,0.3
		c3.2,0,5.7-0.4,7.8-1.4C100.5,108.1,99.4,107.3,98.4,106.3"/>
	<g>
		<defs>
			<path id="SVGID_30_" d="M70.4,50.8c13.9,7.3,15.1,40.1,26.1,53.4l0,0c0.7-0.5,1.5-1.1,2.2-1.7l0,0c-6.9-15.3-8.9-49-24.4-52.9
				l0,0C73,50,71.7,50.3,70.4,50.8"/>
		</defs>
		<clipPath id="SVGID_31_">
			<use xlink:href="#SVGID_30_"  style="overflow:visible;"/>
		</clipPath>
		<g class="st21">
			
				<linearGradient id="SVGID_32_" gradientUnits="userSpaceOnUse" x1="-111.2168" y1="463.0491" x2="-110.2168" y2="463.0491" gradientTransform="matrix(0 81.3213 81.3213 0 -37571.3359 9083.2158)">
				<stop  offset="0" style="stop-color:#006CB2"/>
				<stop  offset="9.890750e-02" style="stop-color:#006CB2"/>
				<stop  offset="0.4" style="stop-color:#00AAE5"/>
				<stop  offset="0.5165" style="stop-color:#00AAE5"/>
				<stop  offset="0.8462" style="stop-color:#0097D9"/>
				<stop  offset="1" style="stop-color:#0097D9"/>
			</linearGradient>
			<rect x="-145.4" y="49.6" class="st22" width="244" height="244"/>
		</g>
	</g>
	<g>
		<defs>
			<path id="SVGID_33_" d="M59.7,57.3c10.6,14.6,14.4,44.8,28.2,51.5l0,0c2.8-1,5.7-2.5,8.5-4.6l0,0C85.4,90.9,84.2,58.1,70.4,50.8
				l0,0C66.8,52.1,63.3,54.3,59.7,57.3"/>
		</defs>
		<clipPath id="SVGID_34_">
			<use xlink:href="#SVGID_33_"  style="overflow:visible;"/>
		</clipPath>
		<g class="st23">
			
				<linearGradient id="SVGID_35_" gradientUnits="userSpaceOnUse" x1="-111.2168" y1="463.0491" x2="-110.2168" y2="463.0491" gradientTransform="matrix(0 86.4744 86.4744 0 -39964.1797 9656.6777)">
				<stop  offset="0" style="stop-color:#00487E"/>
				<stop  offset="0.1099" style="stop-color:#00487E"/>
				<stop  offset="0.39" style="stop-color:#0087C7"/>
				<stop  offset="0.52" style="stop-color:#0087C7"/>
				<stop  offset="0.7802" style="stop-color:#005598"/>
				<stop  offset="1" style="stop-color:#005598"/>
			</linearGradient>
			<rect x="59.3" y="50.6" class="st24" width="36.7" height="58"/>
		</g>
	</g>
	<defs>
		<filter id="Adobe_OpacityMaskFilter_2_" filterUnits="userSpaceOnUse" x="43.4" y="56.3" width="12.2" height="19.5">
			<feFlood  style="flood-color:white;flood-opacity:1" result="back"/>
			<feBlend  in="SourceGraphic" in2="back" mode="normal"/>
		</filter>
	</defs>
	<mask maskUnits="userSpaceOnUse" x="43.4" y="56.3" width="12.2" height="19.5" id="SVGID_36_">
		<g class="st25">
			<g>
				<g>
					<defs>
						<rect id="SVGID_37_" x="-4.2" y="45.7" width="89.5" height="76.1"/>
					</defs>
					<clipPath id="SVGID_38_">
						<use xlink:href="#SVGID_37_"  style="overflow:visible;"/>
					</clipPath>
					<g class="st6">
						<g>
							<defs>
								<rect id="SVGID_39_" x="-4.2" y="45.7" width="89.5" height="76.1"/>
							</defs>
							<clipPath id="SVGID_40_" class="st26">
								<use xlink:href="#SVGID_39_"  style="overflow:visible;"/>
							</clipPath>
							<g>
								<defs>
									<rect id="SVGID_41_" x="-4.2" y="45.7" width="89.5" height="76.1"/>
								</defs>
								<clipPath id="SVGID_42_" class="st27">
									<use xlink:href="#SVGID_41_"  style="overflow:visible;"/>
								</clipPath>
								<g>
									
										<linearGradient id="SVGID_43_" gradientUnits="userSpaceOnUse" x1="-111.2168" y1="463.0491" x2="-110.2168" y2="463.0491" gradientTransform="matrix(0 -76.1213 -76.1213 0 35288.2813 -8344.3262)">
										<stop  offset="0" style="stop-color:#000000"/>
										<stop  offset="0.4615" style="stop-color:#000000"/>
										<stop  offset="1" style="stop-color:#FFFFFF"/>
									</linearGradient>
									<rect x="-4.4" y="45.5" class="st28" width="89.5" height="76.1"/>
								</g>
							</g>
						</g>
					</g>
				</g>
			</g>
		</g>
	</mask>
	<g class="st29">
		<g>
			<defs>
				<rect id="SVGID_44_" x="43.4" y="56.3" width="12.2" height="19.5"/>
			</defs>
			<clipPath id="SVGID_45_">
				<use xlink:href="#SVGID_44_"  style="overflow:visible;"/>
			</clipPath>
			<path class="st30" d="M48.8,60.6c-1.7,3.8-3.4,8.7-5.4,15.2C47.5,70,51.6,65.1,55.6,61c-0.6-1.7-1.2-3.3-1.8-4.7
				C52.1,57.6,50.5,59,48.8,60.6"/>
		</g>
	</g>
	<path class="st31" d="M55.3,55.2c-0.5,0.3-1,0.7-1.5,1.1c0.6,1.4,1.2,3,1.8,4.7c0.7-0.7,1.5-1.4,2.2-2.1
		C57,57.6,56.2,56.3,55.3,55.2"/>
	<path class="st32" d="M57,54.1c-0.6,0.4-1.2,0.8-1.7,1.2c0.9,1.1,1.7,2.4,2.5,3.7c0.6-0.6,1.3-1.1,1.9-1.7C58.9,56.1,58,55,57,54.1
		"/>
	<defs>
		<filter id="Adobe_OpacityMaskFilter_3_" filterUnits="userSpaceOnUse" x="110.3" y="48" width="50.2" height="62.4">
			<feFlood  style="flood-color:white;flood-opacity:1" result="back"/>
			<feBlend  in="SourceGraphic" in2="back" mode="normal"/>
		</filter>
	</defs>
	<mask maskUnits="userSpaceOnUse" x="110.3" y="48" width="50.2" height="62.4" id="SVGID_46_">
		<g class="st33">
			<g>
				<g>
					<defs>
						<rect id="SVGID_47_" x="93.4" y="46.6" width="89.5" height="54.6"/>
					</defs>
					<clipPath id="SVGID_48_">
						<use xlink:href="#SVGID_47_"  style="overflow:visible;"/>
					</clipPath>
					<g class="st6">
						<g>
							<defs>
								<rect id="SVGID_49_" x="93.4" y="46.6" width="89.5" height="54.6"/>
							</defs>
							<clipPath id="SVGID_50_" class="st34">
								<use xlink:href="#SVGID_49_"  style="overflow:visible;"/>
							</clipPath>
							<g>
								<defs>
									<rect id="SVGID_51_" x="93.4" y="46.6" width="89.5" height="54.6"/>
								</defs>
								<clipPath id="SVGID_52_" class="st35">
									<use xlink:href="#SVGID_51_"  style="overflow:visible;"/>
								</clipPath>
								<g>
									
										<linearGradient id="SVGID_53_" gradientUnits="userSpaceOnUse" x1="-111.2168" y1="463.0491" x2="-110.2168" y2="463.0491" gradientTransform="matrix(0 54.6486 54.6486 0 -25166.7168 6124.4419)">
										<stop  offset="0" style="stop-color:#29292A"/>
										<stop  offset="0.7308" style="stop-color:#FFFFFF"/>
										<stop  offset="1" style="stop-color:#FFFFFF"/>
									</linearGradient>
									<rect x="19" y="46.6" class="st36" width="163.9" height="163.9"/>
								</g>
							</g>
						</g>
					</g>
				</g>
			</g>
		</g>
	</mask>
	<g class="st37">
		<g>
			<defs>
				<rect id="SVGID_54_" x="110.3" y="48" width="49.8" height="62.1"/>
			</defs>
			<clipPath id="SVGID_55_">
				<use xlink:href="#SVGID_54_"  style="overflow:visible;"/>
			</clipPath>
			<g class="st38">
				<defs>
					<path id="SVGID_56_" d="M151.6,48c-7.8,30.2-24.2,54.5-37.9,60.6c0,0,0,0,0,0c-0.2,0.1-0.5,0.2-0.7,0.3c0,0-0.1,0-0.1,0
						c-0.1,0-0.1,0.1-0.2,0.1c0,0-0.1,0-0.1,0c-0.1,0-0.2,0.1-0.3,0.1c0,0-0.1,0-0.1,0c-0.1,0-0.1,0-0.2,0.1c-0.1,0-0.1,0-0.2,0.1
						c-0.1,0-0.1,0-0.1,0c-0.1,0-0.2,0.1-0.3,0.1c0,0-0.1,0-0.1,0c-0.1,0-0.1,0-0.2,0.1c0,0-0.1,0-0.1,0c-0.1,0-0.1,0-0.2,0.1
						c-0.1,0-0.2,0-0.3,0.1c0.6,0.2,1.3,0.3,2,0.3c13,0,26.1-23.3,47.9-62.1H151.6z"/>
				</defs>
				<clipPath id="SVGID_57_">
					<use xlink:href="#SVGID_56_"  style="overflow:visible;"/>
				</clipPath>
				<g class="st39">
					
						<linearGradient id="SVGID_58_" gradientUnits="userSpaceOnUse" x1="-111.2168" y1="463.0491" x2="-110.2168" y2="463.0491" gradientTransform="matrix(0 -60.7101 -60.7101 0 28247.2734 -6644.9214)">
						<stop  offset="0" style="stop-color:#006DB0"/>
						<stop  offset="2.597624e-02" style="stop-color:#0072B5"/>
						<stop  offset="0.1449" style="stop-color:#008BC8"/>
						<stop  offset="0.2633" style="stop-color:#00A0D9"/>
						<stop  offset="0.3797" style="stop-color:#00B2E6"/>
						<stop  offset="0.4931" style="stop-color:#1BBEEF"/>
						<stop  offset="0.6" style="stop-color:#1FC4F4"/>
						<stop  offset="1" style="stop-color:#1FC4F4"/>
					</linearGradient>
					<rect x="110.6" y="-71.7" class="st40" width="182.1" height="182.1"/>
				</g>
			</g>
		</g>
	</g>
	<defs>
		<filter id="Adobe_OpacityMaskFilter_4_" filterUnits="userSpaceOnUse" x="0" y="49.4" width="45.4" height="62.4">
			<feFlood  style="flood-color:white;flood-opacity:1" result="back"/>
			<feBlend  in="SourceGraphic" in2="back" mode="normal"/>
		</filter>
	</defs>
	<mask maskUnits="userSpaceOnUse" x="0" y="49.4" width="45.4" height="62.4" id="SVGID_59_">
		<g class="st41">
			<g>
				<g>
					<defs>
						<rect id="SVGID_60_" x="-25.3" y="42.7" width="89.5" height="76.1"/>
					</defs>
					<clipPath id="SVGID_61_">
						<use xlink:href="#SVGID_60_"  style="overflow:visible;"/>
					</clipPath>
					<g class="st6">
						<g>
							<defs>
								<rect id="SVGID_62_" x="-25.3" y="42.7" width="89.5" height="76.1"/>
							</defs>
							<clipPath id="SVGID_63_" class="st42">
								<use xlink:href="#SVGID_62_"  style="overflow:visible;"/>
							</clipPath>
							<g>
								<defs>
									<rect id="SVGID_64_" x="-25.3" y="42.7" width="89.5" height="76.1"/>
								</defs>
								<clipPath id="SVGID_65_" class="st43">
									<use xlink:href="#SVGID_64_"  style="overflow:visible;"/>
								</clipPath>
								<g>
									
										<linearGradient id="SVGID_66_" gradientUnits="userSpaceOnUse" x1="-111.2168" y1="463.0491" x2="-110.2168" y2="463.0491" gradientTransform="matrix(0 -76.1162 -76.1162 0 35265.2891 -8346.2822)">
										<stop  offset="0" style="stop-color:#000000"/>
										<stop  offset="1" style="stop-color:#FFFFFF"/>
									</linearGradient>
									<rect x="-25" y="43" class="st44" width="89.5" height="76.1"/>
								</g>
							</g>
						</g>
					</g>
				</g>
			</g>
		</g>
	</mask>
	<g class="st45">
		<g>
			<defs>
				<rect id="SVGID_67_" y="49.4" width="45.3" height="62.4"/>
			</defs>
			<clipPath id="SVGID_68_">
				<use xlink:href="#SVGID_67_"  style="overflow:visible;"/>
			</clipPath>
			<path class="st46" d="M40.6,50.6C40.6,50.6,40.6,50.6,40.6,50.6C40.6,50.6,40.6,50.6,40.6,50.6C40.6,50.6,40.6,50.6,40.6,50.6
				c0.1-0.1,0.2-0.1,0.3-0.1c0,0,0,0,0,0c0,0,0,0,0.1,0c0.1,0,0.2-0.1,0.2-0.1c0,0,0,0,0,0c0.2-0.1,0.3-0.1,0.5-0.2c0,0,0,0,0.1,0
				c0.1,0,0.1,0,0.2-0.1c0,0,0.1,0,0.1,0c0.1,0,0.1,0,0.2-0.1c0,0,0.1,0,0.1,0c0.2-0.1,0.5-0.1,0.7-0.2c0,0,0.1,0,0.1,0
				c0.1,0,0.1,0,0.2,0c0,0,0.1,0,0.1,0c0.1,0,0.1,0,0.2,0c0,0,0,0,0.1,0c0.1,0,0.3-0.1,0.4-0.1c0,0,0.1,0,0.1,0c0.1,0,0.1,0,0.2,0
				c0,0,0.1,0,0.1,0c0.1,0,0.1,0,0.2,0c0,0,0.1,0,0.1,0c0.2,0,0.3,0,0.5,0c-0.5,0-0.9-0.1-1.4-0.1c-14.7,0-34.9,27.2-44,62.4
				c0,0,0.7,0,1.8,0c2.9-5.2,5.5-10.1,7.9-14.7C16,72.1,29,55.1,40.6,50.6"/>
		</g>
	</g>
	<path class="st47" d="M48.8,60.6c1.7-1.6,3.3-3,5-4.3c-0.4-0.8-0.8-1.6-1.2-2.3C51.3,55.6,50,57.8,48.8,60.6"/>
	<path class="st47" d="M50,50.8c1,0.8,1.8,1.9,2.6,3.2c0.2-0.3,0.5-0.6,0.8-0.8c-1.1-1-2.3-1.9-3.5-2.5C49.9,50.7,49.9,50.7,50,50.8
		C50,50.8,50,50.8,50,50.8"/>
	<g>
		<defs>
			<path id="SVGID_69_" d="M9.7,97.1C23,71.3,29.4,55,40.6,50.6l0,0C29,55.1,16,72.1,9.7,97.1"/>
		</defs>
		<clipPath id="SVGID_70_">
			<use xlink:href="#SVGID_69_"  style="overflow:visible;"/>
		</clipPath>
		<g class="st48">
			
				<linearGradient id="SVGID_71_" gradientUnits="userSpaceOnUse" x1="-111.2168" y1="463.0491" x2="-110.2168" y2="463.0491" gradientTransform="matrix(0 -62.1623 -62.1623 0 28809.0352 -6805.2754)">
				<stop  offset="0" style="stop-color:#008FD0"/>
				<stop  offset="0.2022" style="stop-color:#0095D5"/>
				<stop  offset="0.6786" style="stop-color:#00A0DD"/>
				<stop  offset="1" style="stop-color:#00A4E0"/>
			</linearGradient>
			<rect x="9.4" y="-89.6" class="st49" width="186.5" height="186.5"/>
		</g>
	</g>
	<path class="st50" d="M53.4,53.2c-0.3,0.3-0.5,0.5-0.8,0.8c0.4,0.7,0.8,1.5,1.2,2.3c0.5-0.4,1-0.7,1.5-1.1
		C54.7,54.5,54,53.8,53.4,53.2"/>
	<defs>
		<filter id="Adobe_OpacityMaskFilter_5_" filterUnits="userSpaceOnUse" x="14.7" y="75.8" width="28.9" height="36.1">
			<feFlood  style="flood-color:white;flood-opacity:1" result="back"/>
			<feBlend  in="SourceGraphic" in2="back" mode="normal"/>
		</filter>
	</defs>
	<mask maskUnits="userSpaceOnUse" x="14.7" y="75.8" width="28.9" height="36.1" id="SVGID_72_">
		<g class="st51">
			<g>
				<g>
					<defs>
						<rect id="SVGID_73_" x="-13" y="54.7" width="67.7" height="79.7"/>
					</defs>
					<clipPath id="SVGID_74_">
						<use xlink:href="#SVGID_73_"  style="overflow:visible;"/>
					</clipPath>
					<g class="st6">
						<g>
							<defs>
								<rect id="SVGID_75_" x="-13" y="54.7" width="67.7" height="79.7"/>
							</defs>
							<clipPath id="SVGID_76_" class="st52">
								<use xlink:href="#SVGID_75_"  style="overflow:visible;"/>
							</clipPath>
							<g>
								<defs>
									<polygon id="SVGID_77_" points="-13,116.3 19.4,134.4 54.7,72.8 22.3,54.7 									"/>
								</defs>
								<clipPath id="SVGID_78_" class="st53">
									<use xlink:href="#SVGID_77_"  style="overflow:visible;"/>
								</clipPath>
								<g>
									
										<linearGradient id="SVGID_79_" gradientUnits="userSpaceOnUse" x1="-111.2168" y1="463.0491" x2="-110.2168" y2="463.0491" gradientTransform="matrix(-58.2128 104.0936 104.0936 58.2128 -54640.168 -15309.293)">
										<stop  offset="0" style="stop-color:#000000"/>
										<stop  offset="9.644912e-03" style="stop-color:#353436"/>
										<stop  offset="3.777952e-02" style="stop-color:#66676A"/>
										<stop  offset="6.813429e-02" style="stop-color:#888A8C"/>
										<stop  offset="0.1001" style="stop-color:#A5A7AA"/>
										<stop  offset="0.1339" style="stop-color:#C0C2C4"/>
										<stop  offset="0.1702" style="stop-color:#D6D7D9"/>
										<stop  offset="0.21" style="stop-color:#E7E7E8"/>
										<stop  offset="0.2549" style="stop-color:#F3F3F4"/>
										<stop  offset="0.3094" style="stop-color:#FBFBFB"/>
										<stop  offset="0.4" style="stop-color:#FFFFFF"/>
										<stop  offset="1" style="stop-color:#FFFFFF"/>
									</linearGradient>
									<polygon class="st54" points="88.1,73.8 -86.6,386.1 -398.8,211.4 -224.2,-100.8 									"/>
								</g>
							</g>
						</g>
					</g>
				</g>
			</g>
		</g>
	</mask>
	<g class="st55">
		<g>
			<defs>
				<rect id="SVGID_80_" x="14.7" y="75.8" width="28.7" height="36"/>
			</defs>
			<clipPath id="SVGID_81_">
				<use xlink:href="#SVGID_80_"  style="overflow:visible;"/>
			</clipPath>
			<g class="st56">
				<defs>
					<path id="SVGID_82_" d="M15.7,111.7L15.7,111.7c-0.1,0-0.2,0-0.2,0c0,0,0,0,0,0c-0.1,0-0.1,0-0.2,0c0,0,0,0,0,0
						c-0.2,0-0.3,0-0.5,0h-0.1c13.5-0.4,19.7-7.2,22.8-17c2.3-7.5,4.3-13.7,5.9-19c-5.7,8-11.4,17.5-17.1,28.1
						C23.5,109.1,19.3,111.2,15.7,111.7"/>
				</defs>
				<clipPath id="SVGID_83_">
					<use xlink:href="#SVGID_82_"  style="overflow:visible;"/>
				</clipPath>
				<g class="st57">
					
						<linearGradient id="SVGID_84_" gradientUnits="userSpaceOnUse" x1="-111.2168" y1="463.0491" x2="-110.2168" y2="463.0491" gradientTransform="matrix(0 -60.4251 -60.4251 0 28008.9766 -6611.5737)">
						<stop  offset="0" style="stop-color:#00A0E4"/>
						<stop  offset="1" style="stop-color:#00A0E4"/>
					</linearGradient>
					<rect x="14.9" y="-69.4" class="st58" width="181.3" height="181.3"/>
				</g>
			</g>
		</g>
	</g>
	<g>
		<defs>
			<path id="SVGID_85_" d="M15.7,111.7L15.7,111.7c3.6-0.5,7.8-2.6,10.6-7.7l0,0C32,93.3,37.7,83.8,43.4,75.8l0,0
				c2.1-6.5,3.8-11.4,5.4-15.2l0,0C37.5,71.3,26.2,89.2,15.7,111.7"/>
		</defs>
		<clipPath id="SVGID_86_">
			<use xlink:href="#SVGID_85_"  style="overflow:visible;"/>
		</clipPath>
		<g class="st59">
			
				<linearGradient id="SVGID_87_" gradientUnits="userSpaceOnUse" x1="-111.2168" y1="463.0491" x2="-110.2168" y2="463.0491" gradientTransform="matrix(0 -51.0602 -51.0602 0 23675.4531 -5567.2349)">
				<stop  offset="0" style="stop-color:#005DA3"/>
				<stop  offset="0.1538" style="stop-color:#005DA4"/>
				<stop  offset="0.3237" style="stop-color:#007DC1"/>
				<stop  offset="0.5" style="stop-color:#00A0E4"/>
				<stop  offset="0.9176" style="stop-color:#71BEE3"/>
				<stop  offset="1" style="stop-color:#71BEE3"/>
			</linearGradient>
			<rect x="15.5" y="60.5" class="st60" width="33.1" height="51.1"/>
		</g>
	</g>
	<path class="st61" d="M9.7,97.1c-2.4,4.6-5,9.5-7.9,14.7c1.3,0,3.1,0,5.1,0C7.5,106.6,8.5,101.7,9.7,97.1"/>
	<g>
		<defs>
			<path id="SVGID_88_" d="M44.9,49.5c0,0-0.1,0-0.1,0l0,0c-0.1,0-0.1,0-0.2,0l0,0c0,0-0.1,0-0.1,0l0,0c-0.1,0-0.1,0-0.2,0l0,0
				c0,0-0.1,0-0.1,0l0,0c-0.1,0-0.3,0.1-0.4,0.1l0,0c0,0,0,0-0.1,0l0,0c-0.1,0-0.1,0-0.2,0l0,0c0,0-0.1,0-0.1,0l0,0
				c-0.1,0-0.1,0-0.2,0l0,0c0,0-0.1,0-0.1,0l0,0c-0.2,0.1-0.5,0.1-0.7,0.2l0,0c0,0-0.1,0-0.1,0l0,0c-0.1,0-0.1,0-0.2,0.1l0,0
				c0,0-0.1,0-0.1,0l0,0c-0.1,0-0.1,0-0.2,0.1l0,0c0,0,0,0-0.1,0l0,0c-0.2,0.1-0.3,0.1-0.5,0.2l0,0c0,0,0,0,0,0l0,0
				c-0.1,0-0.1,0.1-0.2,0.1l0,0c0,0-0.1,0-0.1,0l0,0c-0.1,0-0.1,0-0.2,0.1l0,0c0,0-0.1,0-0.1,0l0,0C29.4,55,23,71.3,9.7,97.1l0,0
				c-1.2,4.6-2.1,9.6-2.8,14.7l0,0h0.7c2,0,2.6,0,4.9,0l0,0h0.1h0.3h0.1h0h0.1h0.1h0h0.1h0.3H14h0.2h0.1c0.1,0,0.3,0,0.4,0l0,0
				c0.2,0,0.3,0,0.5,0l0,0c0,0,0,0,0,0l0,0c0.1,0,0.1,0,0.2,0l0,0c0,0,0,0,0.1,0l0,0c0.1,0,0.2,0,0.2,0l0,0v0
				c10.5-22.4,21.8-40.3,33.1-51.1l0,0c1.2-2.8,2.5-5,3.8-6.6l0,0c-0.8-1.3-1.6-2.4-2.6-3.2l0,0c0,0,0,0,0,0l0,0
				c-0.1,0-0.1,0-0.2-0.1l0,0c-0.1,0-0.1-0.1-0.2-0.1l0,0c0,0-0.1,0-0.2-0.1l0,0c-0.1,0-0.1,0-0.2-0.1l0,0c-0.1,0-0.1,0-0.1-0.1l0,0
				c-0.1,0-0.2-0.1-0.3-0.1l0,0c0,0-0.1,0-0.1,0l0,0c-0.1,0-0.2-0.1-0.2-0.1l0,0c0,0-0.1,0-0.1,0l0,0c-0.1,0-0.2-0.1-0.3-0.1l0,0
				c0,0,0,0,0,0l0,0c-0.1,0-0.2-0.1-0.4-0.1l0,0c0,0-0.1,0-0.1,0l0,0c-0.1,0-0.2-0.1-0.3-0.1l0,0c0,0,0,0-0.1,0l0,0
				c-0.2-0.1-0.5-0.1-0.7-0.2l0,0c0,0-0.1,0-0.1,0l0,0c-0.1,0-0.2,0-0.3-0.1l0,0c0,0,0,0-0.1,0l0,0c-0.1,0-0.3,0-0.4,0l0,0
				c0,0,0,0-0.1,0l0,0c-0.1,0-0.2,0-0.3,0l0,0C45.2,49.4,45,49.5,44.9,49.5"/>
		</defs>
		<clipPath id="SVGID_89_">
			<use xlink:href="#SVGID_88_"  style="overflow:visible;"/>
		</clipPath>
		<g class="st62">
			
				<linearGradient id="SVGID_90_" gradientUnits="userSpaceOnUse" x1="-111.2168" y1="463.0491" x2="-110.2168" y2="463.0491" gradientTransform="matrix(-9.7621 -55.3637 -55.3637 9.7621 24584.2285 -10569.6328)">
				<stop  offset="0" style="stop-color:#005496"/>
				<stop  offset="0.1044" style="stop-color:#005496"/>
				<stop  offset="1" style="stop-color:#0082C5"/>
			</linearGradient>
			<polygon class="st63" points="7.8,119.3 -21.5,-46.8 144.6,-76.1 173.9,90 			"/>
		</g>
	</g>
	<g>
		<defs>
			<path id="SVGID_91_" d="M121,64.8c-2.6,8.2-4.7,15-6.5,20.6l0,0c7.1-9.7,14-21.9,20.6-36l0,0C127.4,51.8,123.3,57.3,121,64.8"/>
		</defs>
		<clipPath id="SVGID_92_">
			<use xlink:href="#SVGID_91_"  style="overflow:visible;"/>
		</clipPath>
		<g class="st64">
			
				<linearGradient id="SVGID_93_" gradientUnits="userSpaceOnUse" x1="-111.2168" y1="463.0491" x2="-110.2168" y2="463.0491" gradientTransform="matrix(0 -28.9327 -28.9327 0 13521.6963 -3141.0354)">
				<stop  offset="0" style="stop-color:#00A0E4"/>
				<stop  offset="0.4842" style="stop-color:#009EE1"/>
				<stop  offset="0.7218" style="stop-color:#009ADA"/>
				<stop  offset="0.8736" style="stop-color:#0095D4"/>
				<stop  offset="1" style="stop-color:#0095D4"/>
			</linearGradient>
			<rect x="114.1" y="-1.7" class="st65" width="86.8" height="86.8"/>
		</g>
	</g>
	<defs>
		<filter id="Adobe_OpacityMaskFilter_6_" filterUnits="userSpaceOnUse" x="102.5" y="41.6" width="58.7" height="73.6">
			<feFlood  style="flood-color:white;flood-opacity:1" result="back"/>
			<feBlend  in="SourceGraphic" in2="back" mode="normal"/>
		</filter>
	</defs>
	<mask maskUnits="userSpaceOnUse" x="102.5" y="41.6" width="58.7" height="73.6" id="SVGID_94_">
		<g class="st66">
			<g>
				<g>
					<defs>
						<rect id="SVGID_95_" x="95.9" y="42.5" width="89.5" height="31.2"/>
					</defs>
					<clipPath id="SVGID_96_">
						<use xlink:href="#SVGID_95_"  style="overflow:visible;"/>
					</clipPath>
					<g class="st6">
						<g>
							<defs>
								<rect id="SVGID_97_" x="95.9" y="42.5" width="89.5" height="31.2"/>
							</defs>
							<clipPath id="SVGID_98_" class="st67">
								<use xlink:href="#SVGID_97_"  style="overflow:visible;"/>
							</clipPath>
							<g>
								<defs>
									<rect id="SVGID_99_" x="95.9" y="42.5" width="89.5" height="31.2"/>
								</defs>
								<clipPath id="SVGID_100_" class="st68">
									<use xlink:href="#SVGID_99_"  style="overflow:visible;"/>
								</clipPath>
								<g>
									
										<linearGradient id="SVGID_101_" gradientUnits="userSpaceOnUse" x1="-111.2168" y1="463.0491" x2="-110.2168" y2="463.0491" gradientTransform="matrix(0 31.1768 31.1768 0 -14295.2793 3510.2209)">
										<stop  offset="0" style="stop-color:#000000"/>
										<stop  offset="1" style="stop-color:#FFFFFF"/>
									</linearGradient>
									<rect x="92.3" y="42.8" class="st69" width="93.5" height="93.5"/>
								</g>
							</g>
						</g>
					</g>
				</g>
			</g>
		</g>
	</mask>
	<g class="st70">
		<g>
			<defs>
				<rect id="SVGID_102_" x="113.6" y="48" width="38" height="60.6"/>
			</defs>
			<clipPath id="SVGID_103_">
				<use xlink:href="#SVGID_102_"  style="overflow:visible;"/>
			</clipPath>
			<g class="st71">
				<defs>
					<path id="SVGID_104_" d="M114.7,108.1c-0.4,0.2-0.7,0.4-1.1,0.5c13.7-6.1,30.1-30.4,37.9-60.6H150
						C132,80.2,126.2,101.7,114.7,108.1"/>
				</defs>
				<clipPath id="SVGID_105_">
					<use xlink:href="#SVGID_104_"  style="overflow:visible;"/>
				</clipPath>
				<g class="st72">
					
						<linearGradient id="SVGID_106_" gradientUnits="userSpaceOnUse" x1="-111.2168" y1="463.0491" x2="-110.2168" y2="463.0491" gradientTransform="matrix(-11.7641 66.7171 66.7171 11.7641 -32064.0527 2018.2631)">
						<stop  offset="0" style="stop-color:#00A4E0"/>
						<stop  offset="0.3571" style="stop-color:#00A4E0"/>
						<stop  offset="0.9615" style="stop-color:#0089CF"/>
						<stop  offset="1" style="stop-color:#0089CF"/>
					</linearGradient>
					<polygon class="st73" points="161.2,49.9 125.9,250.1 -74.3,214.8 -39,14.6 					"/>
				</g>
			</g>
		</g>
	</g>
	<path class="st74" d="M105.8,105.4c3-3.6,5.4-9.8,8.7-20.1c-3.8,5.3-7.7,9.8-11.5,13.5c0,0,0,0,0,0
		C103.8,101.4,104.7,103.6,105.8,105.4"/>
	<path class="st20" d="M105.8,105.4c-1,1.2-2.1,2.2-3.3,2.9c-0.3,0.2-0.5,0.3-0.8,0.4c1.3,0.7,2.6,1.1,4.2,1.3h0h0
		c0.2,0,0.4,0,0.7,0.1h0c0.1,0,0.2,0,0.3,0h0c0.1,0,0.2,0,0.3,0c0.1,0,0.2,0,0.4,0c0,0,0.1,0,0.1,0c0.1,0,0.2,0,0.3,0
		c0,0,0.1,0,0.1,0c0.1,0,0.2,0,0.2,0c0,0,0,0,0,0c0,0,0.1,0,0.1,0c0.1,0,0.2,0,0.3,0c0,0,0,0,0,0c0,0,0.1,0,0.1,0c0.1,0,0.2,0,0.3,0
		c0,0,0.1,0,0.1,0c0.1,0,0.2,0,0.3-0.1h0c0,0,0,0,0,0c0.2,0,0.4-0.1,0.6-0.1C108.5,109.2,107,107.6,105.8,105.4"/>
	<path class="st75" d="M80.4,110.2c1.3,0,2.6-0.1,3.9-0.4c1.2-0.2,2.4-0.6,3.6-1c1,0.5,2.1,0.9,3.2,1.1c0.9,0.2,1.8,0.3,2.7,0.3
		H80.4z"/>
	<path class="st75" d="M93.8,110.2c3.2,0,5.7-0.4,7.8-1.4c1.3,0.7,2.6,1.1,4.2,1.3h0h0c0.2,0,0.4,0,0.7,0.1h0c0.1,0,0.2,0,0.3,0h0
		c0.1,0,0.2,0,0.3,0H93.8z"/>
	<path class="st76" d="M107.3,110.2c0.1,0,0.2,0,0.4,0c0,0,0.1,0,0.1,0c0.1,0,0.2,0,0.3,0c0,0,0.1,0,0.1,0c0.1,0,0.2,0,0.2,0
		c0,0,0,0,0,0c0,0,0.1,0,0.1,0c0.1,0,0.2,0,0.3,0c0,0,0,0,0,0c0,0,0.1,0,0.1,0c0.1,0,0.2,0,0.3,0c0,0,0.1,0,0.1,0
		c0.1,0,0.2,0,0.3-0.1h0c0,0,0,0,0,0c0.2,0,0.4-0.1,0.6-0.1h0c0.6,0.2,1.3,0.3,2,0.3L107.3,110.2z"/>
	<path class="st77" d="M102.9,98.9C102.9,98.9,102.9,98.9,102.9,98.9c-1.4,1.3-2.8,2.6-4.2,3.7c-0.7,0.6-1.5,1.1-2.2,1.7
		c0.6,0.7,1.3,1.4,1.9,2.1c1,1,2.1,1.8,3.3,2.4c0.3-0.1,0.5-0.3,0.8-0.4c1.2-0.7,2.3-1.6,3.3-2.9
		C104.7,103.6,103.8,101.4,102.9,98.9"/>
	<g>
		<defs>
			<path id="SVGID_107_" d="M145,48h-6.7c-0.2,0-0.4,0-0.7,0l0,0c-0.2,0-0.4,0-0.6,0l0,0h0c-0.4,0-0.9,0-1.3,0.1l0,0
				c-0.2,0.4-0.4,0.8-0.6,1.3l0,0c-6.6,14.1-13.6,26.3-20.6,36l0,0c-3.3,10.2-5.8,16.4-8.7,20.1l0,0c1.3,2.2,2.8,3.7,4.5,4.4l0,0
				c0.1,0,0.1,0,0.1,0l0,0c0,0,0,0,0,0l0,0c0,0,0.1,0,0.1,0l0,0c0.1,0,0.2,0,0.2-0.1l0,0c0,0,0.1,0,0.1,0l0,0c0.1,0,0.1,0,0.2-0.1
				l0,0c0,0,0.1,0,0.1,0l0,0c0.1,0,0.2-0.1,0.3-0.1l0,0c0,0,0.1,0,0.1,0l0,0c0.1,0,0.1,0,0.2-0.1l0,0c0.1,0,0.1,0,0.2-0.1l0,0
				c0,0,0.1,0,0.1-0.1l0,0c0.1,0,0.2-0.1,0.3-0.1l0,0c0,0,0.1,0,0.1,0l0,0c0.1,0,0.1-0.1,0.2-0.1l0,0c0,0,0.1,0,0.1,0l0,0
				c0.2-0.1,0.5-0.2,0.7-0.3l0,0c0,0,0,0,0,0l0,0c0.4-0.2,0.7-0.3,1.1-0.5l0,0c11.5-6.4,17.3-28,35.3-60.1l0,0H145z"/>
		</defs>
		<clipPath id="SVGID_108_">
			<use xlink:href="#SVGID_107_"  style="overflow:visible;"/>
		</clipPath>
		<g class="st78">
			
				<linearGradient id="SVGID_109_" gradientUnits="userSpaceOnUse" x1="-111.2168" y1="463.0491" x2="-110.2168" y2="463.0491" gradientTransform="matrix(0 63.1199 63.1199 0 -29099.3457 7068.1499)">
				<stop  offset="0" style="stop-color:#008DCF"/>
				<stop  offset="0.5" style="stop-color:#0087C8"/>
				<stop  offset="1" style="stop-color:#00508F"/>
			</linearGradient>
			<rect x="-39" y="48.3" class="st79" width="189.4" height="189.4"/>
		</g>
	</g>
	<defs>
		<filter id="Adobe_OpacityMaskFilter_7_" filterUnits="userSpaceOnUse" x="43.6" y="41.9" width="29.3" height="17.9">
			<feFlood  style="flood-color:white;flood-opacity:1" result="back"/>
			<feBlend  in="SourceGraphic" in2="back" mode="normal"/>
		</filter>
	</defs>
	<mask maskUnits="userSpaceOnUse" x="43.6" y="41.9" width="29.3" height="17.9" id="SVGID_110_">
		<g class="st80">
			<g>
				<g>
					<defs>
						<rect id="SVGID_111_" x="32.4" y="46.9" width="38" height="8.8"/>
					</defs>
					<clipPath id="SVGID_112_">
						<use xlink:href="#SVGID_111_"  style="overflow:visible;"/>
					</clipPath>
					<g class="st6">
						<g>
							<defs>
								<rect id="SVGID_113_" x="32.4" y="46.9" width="38" height="8.8"/>
							</defs>
							<clipPath id="SVGID_114_" class="st81">
								<use xlink:href="#SVGID_113_"  style="overflow:visible;"/>
							</clipPath>
							<g>
								<defs>
									<rect id="SVGID_115_" x="32.4" y="46.9" width="38" height="8.8"/>
								</defs>
								<clipPath id="SVGID_116_" class="st82">
									<use xlink:href="#SVGID_115_"  style="overflow:visible;"/>
								</clipPath>
								<g>
									
										<linearGradient id="SVGID_117_" gradientUnits="userSpaceOnUse" x1="-111.2168" y1="463.0491" x2="-110.2168" y2="463.0491" gradientTransform="matrix(0 -8.7535 -8.7535 0 4104.9189 -917.6976)">
										<stop  offset="0" style="stop-color:#FFFFFF"/>
										<stop  offset="0.1438" style="stop-color:#F7F7F7"/>
										<stop  offset="0.3399" style="stop-color:#E8E9EA"/>
										<stop  offset="0.5663" style="stop-color:#D0D2D3"/>
										<stop  offset="0.8132" style="stop-color:#AFB1B4"/>
										<stop  offset="1" style="stop-color:#949698"/>
									</linearGradient>
									<rect x="32.6" y="29.6" class="st83" width="38" height="26.3"/>
								</g>
							</g>
						</g>
					</g>
				</g>
			</g>
		</g>
	</mask>
	<g class="st84">
		<g>
			<defs>
				<rect id="SVGID_118_" x="44" y="49.4" width="27.3" height="5.9"/>
			</defs>
			<clipPath id="SVGID_119_">
				<use xlink:href="#SVGID_118_"  style="overflow:visible;"/>
			</clipPath>
			<path class="st85" d="M45.3,49.4C45.4,49.4,45.4,49.4,45.3,49.4c0.2,0,0.2,0,0.3,0c0,0,0,0,0.1,0c0.1,0,0.3,0,0.4,0
				c0,0,0,0,0.1,0c0.1,0,0.2,0,0.3,0.1c0,0,0.1,0,0.1,0c0.2,0,0.5,0.1,0.7,0.2c0,0,0,0,0.1,0c0.1,0,0.2,0.1,0.3,0.1c0,0,0.1,0,0.1,0
				c0.1,0,0.2,0.1,0.4,0.1c0,0,0,0,0,0c0.1,0,0.2,0.1,0.3,0.1c0,0,0.1,0,0.1,0c0.1,0,0.2,0.1,0.2,0.1c0,0,0.1,0,0.1,0
				c0.1,0,0.2,0.1,0.3,0.1c0,0,0.1,0,0.1,0.1c0.1,0,0.1,0.1,0.2,0.1c0.1,0,0.1,0.1,0.2,0.1c0.1,0,0.1,0.1,0.2,0.1
				c1.3,0.6,2.5,1.5,3.5,2.5c0.4-0.4,0.8-0.8,1.3-1.1c-2.4-1.7-5.1-2.7-8.2-2.7C46.1,49.4,45.7,49.4,45.3,49.4"/>
			<path class="st86" d="M53.4,53.2c0.7,0.6,1.3,1.3,1.9,2.1c0.6-0.4,1.2-0.8,1.7-1.2c-0.8-0.8-1.6-1.4-2.4-2
				C54.2,52.4,53.8,52.8,53.4,53.2"/>
			<g class="st87">
				<defs>
					<path id="SVGID_120_" d="M45.3,49.4c0.4,0,0.7,0,1.1,0c3.1,0,5.8,1,8.2,2.7c2.5-2,5.6-2.7,9.8-2.7H44
						C44.4,49.4,44.9,49.4,45.3,49.4"/>
				</defs>
				<clipPath id="SVGID_121_">
					<use xlink:href="#SVGID_120_"  style="overflow:visible;"/>
				</clipPath>
				<g class="st88">
					
						<linearGradient id="SVGID_122_" gradientUnits="userSpaceOnUse" x1="-111.2168" y1="463.0491" x2="-110.2168" y2="463.0491" gradientTransform="matrix(14.5393 6.0305 6.0305 -14.5393 -1127.4369 7449.4272)">
						<stop  offset="0" style="stop-color:#8CCEEC"/>
						<stop  offset="0.7033" style="stop-color:#1FBAE8"/>
						<stop  offset="1" style="stop-color:#1FBAE8"/>
					</linearGradient>
					<polygon class="st89" points="47.6,41.9 65.9,49.5 62,59.1 43.6,51.4 					"/>
				</g>
			</g>
			<g class="st87">
				<defs>
					<path id="SVGID_123_" d="M64.4,49.4c-4.2,0-7.3,0.7-9.8,2.7c0.8,0.6,1.6,1.3,2.4,2c3.5-2.2,7-3.7,10.4-4.3
						c1.3-0.2,2.6-0.4,3.9-0.4H64.4z"/>
				</defs>
				<clipPath id="SVGID_124_">
					<use xlink:href="#SVGID_123_"  style="overflow:visible;"/>
				</clipPath>
				<g class="st90">
					
						<linearGradient id="SVGID_125_" gradientUnits="userSpaceOnUse" x1="-111.2168" y1="463.0491" x2="-110.2168" y2="463.0491" gradientTransform="matrix(11.4831 -5.2057 -5.2057 -11.4831 3743.1858 4791.5366)">
						<stop  offset="0" style="stop-color:#68C5EA"/>
						<stop  offset="0.3352" style="stop-color:#68C5EA"/>
						<stop  offset="0.5616" style="stop-color:#43BBE8"/>
						<stop  offset="0.839" style="stop-color:#00B4E9"/>
						<stop  offset="1" style="stop-color:#00B2EA"/>
					</linearGradient>
					<polygon class="st91" points="52.7,49.6 87.1,34 102.7,68.5 68.3,84.1 					"/>
				</g>
			</g>
		</g>
	</g>
	<defs>
		<filter id="Adobe_OpacityMaskFilter_8_" filterUnits="userSpaceOnUse" x="102.8" y="47.8" width="33" height="51">
			<feFlood  style="flood-color:white;flood-opacity:1" result="back"/>
			<feBlend  in="SourceGraphic" in2="back" mode="normal"/>
		</filter>
	</defs>
	<mask maskUnits="userSpaceOnUse" x="102.8" y="47.8" width="33" height="51" id="SVGID_126_">
		<g class="st92">
			<g>
				<g>
					<defs>
						<rect id="SVGID_127_" x="75.3" y="52.8" width="89.5" height="49.1"/>
					</defs>
					<clipPath id="SVGID_128_">
						<use xlink:href="#SVGID_127_"  style="overflow:visible;"/>
					</clipPath>
					<g class="st6">
						<g>
							<defs>
								<rect id="SVGID_129_" x="75.3" y="52.8" width="89.5" height="49.1"/>
							</defs>
							<clipPath id="SVGID_130_" class="st93">
								<use xlink:href="#SVGID_129_"  style="overflow:visible;"/>
							</clipPath>
							<g>
								<defs>
									<rect id="SVGID_131_" x="75.3" y="52.8" width="89.5" height="49.1"/>
								</defs>
								<clipPath id="SVGID_132_" class="st94">
									<use xlink:href="#SVGID_131_"  style="overflow:visible;"/>
								</clipPath>
								<g>
									
										<linearGradient id="SVGID_133_" gradientUnits="userSpaceOnUse" x1="-111.2168" y1="463.0491" x2="-110.2168" y2="463.0491" gradientTransform="matrix(0 -49.0962 -49.0962 0 22854.2383 -5358.2754)">
										<stop  offset="0" style="stop-color:#000000"/>
										<stop  offset="1" style="stop-color:#FFFFFF"/>
									</linearGradient>
									<rect x="75.6" y="-45.2" class="st95" width="147.3" height="147.3"/>
								</g>
							</g>
						</g>
					</g>
				</g>
			</g>
		</g>
	</mask>
	<g class="st96">
		<g>
			<defs>
				<rect id="SVGID_134_" x="103" y="48.1" width="32.8" height="50.8"/>
			</defs>
			<clipPath id="SVGID_135_">
				<use xlink:href="#SVGID_134_"  style="overflow:visible;"/>
			</clipPath>
			<g class="st97">
				<defs>
					<path id="SVGID_136_" d="M114.5,85.4c1.8-5.6,3.9-12.4,6.5-20.6c2.3-7.4,6.4-13,14.2-15.4c0.2-0.4,0.4-0.8,0.6-1.3
						c-12.6,0.8-18.5,7.2-21.4,16.6c-5.2,16.6-8.3,27.3-11.3,34.1C106.8,95.2,110.7,90.6,114.5,85.4"/>
				</defs>
				<clipPath id="SVGID_137_">
					<use xlink:href="#SVGID_136_"  style="overflow:visible;"/>
				</clipPath>
				<g class="st98">
					
						<linearGradient id="SVGID_138_" gradientUnits="userSpaceOnUse" x1="-111.2168" y1="463.0491" x2="-110.2168" y2="463.0491" gradientTransform="matrix(0 61.7375 61.7375 0 -28468.3652 6917.3071)">
						<stop  offset="0" style="stop-color:#00A5E4"/>
						<stop  offset="0.8776" style="stop-color:#00A8E3"/>
						<stop  offset="1" style="stop-color:#00A8E3"/>
					</linearGradient>
					<rect x="-49.7" y="47.8" class="st99" width="185.2" height="185.2"/>
				</g>
			</g>
		</g>
	</g>
</g>
</svg>
