<?xml version="1.0" encoding="utf-8"?>
<!-- Generator: Adobe Illustrator 24.0.0, SVG Export Plug-In . SVG Version: 6.00 Build 0)  -->
<svg version="1.1" id="Layer_1" xmlns="http://www.w3.org/2000/svg" xmlns:xlink="http://www.w3.org/1999/xlink" x="0px" y="0px"
	 viewBox="0 0 792 790.8" style="enable-background:new 0 0 792 790.8;" xml:space="preserve">
<style type="text/css">
	.st0{fill:#252F3E;}
	.st1{fill:#FE9900;}
	.st2{fill:#FE9800;}
</style>
<g>
	<path class="st0" d="M724.9,174.7c12.1,7,19.1,20.6,13.6,33.2c-3.4,7.8-9.5,3.9-14.2,1.8c-19.7-8.8-40.4-11.6-61.7-9.6
		c-4.7,0.4-9.3,1.4-13.9,2.8c-11.8,3.5-19.5,10.9-20.6,23.5c-1,12.1,5.1,20.3,15.3,26.1c12.5,7.1,26.4,10.2,39.8,14.8
		c10.2,3.5,20.6,6.3,30.4,10.6c44.9,19.6,52.4,76.8,13.7,107.1c-28.1,22-61,23.3-94.7,18.1c-13.6-2.1-27-5.4-39.4-11.8
		c-10.1-5.3-15.3-22.7-10-32.5c3.7-6.7,8.9-3.5,13.5-1.6c18.4,7.8,37.5,12.5,57.5,13.1c12.1,0.4,24.2-0.6,35.4-5.4
		c11.5-5,18.9-13.4,19.2-26.5c0.3-12.8-6.7-21.3-17.9-25.7c-14-5.5-28.4-9.8-42.7-14.5c-6.1-2.1-12.3-3.8-18.3-6.2
		c-28.9-11.5-45.3-33.9-44.9-61.2c0.3-27,17.6-49.4,46.5-60.1c6.3-2.3,10-3.9,19.9-6.2C676.8,161.7,711.5,167,724.9,174.7z"/>
	<path class="st1" d="M780.1,507.9c-7.7,29.9-19.9,57.5-42.7,79.2c-3.5,3.3-7.5,9.2-12.9,5.6c-5.9-3.8-1-9.3,0.7-13.8
		c7.6-20,15.6-39.9,20.2-60.9c6-27.3,1.1-34.1-26.9-36.1c-20.2-1.4-40.3,1.2-60.4,3.2c-3.8,0.4-7.7,0.9-11.5,1.2
		c-2.6,0.2-5.4,0.3-6.7-2.5c-1.5-3.3,0.1-6,2.6-7.8c3.7-2.9,7.6-5.7,11.8-7.7c36.5-18,74.7-21.1,114.1-12.5
		c6.5,1.4,13.8,3.2,14.7,12.1C785.3,474.7,781.3,503.2,780.1,507.9z"/>
	<path class="st0" d="M405.7,231.5c-12.1,50.4-24.4,100.8-36.1,151.4c-2.7,11.8-8.5,16.1-20.5,16c-29.2-0.4-29.2,0.1-37.7-28
		c-18.4-60.2-36.9-120.5-55.2-180.7c-5.5-18-4.4-19.3,14-19.4c3.4,0,6.9,0.2,10.3,0c11.8-0.8,17.8,4.4,20.6,16.1
		C313.7,238,327,289,340,340.1c0.6,2.2,1.3,4.5,4.1,6.9c5.7-24,11.5-48,17.2-72c7-29.6,14.3-59.2,20.8-88.9
		c2.3-10.7,7.9-15.6,18.6-15.3c0.4,0,0.9,0,1.3,0c28.6-1.2,28.7-1.2,35.3,26.3c12.1,50.7,24.1,101.4,38.3,152.4
		c4.1-15.5,8.3-31.1,12.3-46.6c9.8-37.8,19.4-75.6,29.2-113.3c4.2-16.2,30.2-26.5,44.2-17.4c6.5,4.2,2.8,10.2,1.3,15.1
		c-9.3,30.8-19,61.4-28.7,92.1c-10.8,34.3-22,68.6-32.2,103.1c-3.5,11.8-9.1,16.9-21.8,16.4c-29.9-1.1-28.3,4.6-36.1-28.5
		c-10.9-46.3-22.2-92.5-33.4-138.8C408.9,229.4,407.3,229.4,405.7,231.5z"/>
	<path class="st2" d="M392.3,625.3C255.6,623.4,131.2,579,24.1,488.1c-3.3-2.8-6.6-5.5-9.5-8.7c-2.8-3-4.5-6.6-1.3-10.3
		c2.6-3.1,5.9-3.1,9.4-1.3c3.1,1.6,6.1,3.2,9.1,4.8c128.5,70.9,266.3,102.6,412.7,95.6c84.8-4.1,166.6-23.1,245.3-55.1
		c2-0.8,3.9-1.8,5.9-2.5c7.3-2.6,14.9-3.9,19.1,4.4c4,7.9-1.9,12.8-7.6,16.9c-47.4,33.9-100.1,56.3-156,71.8
		C500.3,617.8,448.5,624.7,392.3,625.3z"/>
	<path class="st0" d="M239.2,369.9c-8.6-14-10.1-29.8-10.1-45.8c0-26.2,0.3-52.3-0.1-78.5c-0.6-48.2-21-71.5-68.4-79.2
		c-1.1-0.2-19.4-2.9-29.3-1.9c-0.2,0-2.1,0.1-2.2,0.1c-5.9,0.2-40.3,7.8-52.4,12.3c-13.8,5.2-19.4,13-18.3,27.9
		c0.8,11.1,4.3,13.8,14.2,9.7c14.3-6,29-11.2,44.4-12.8c59-6,70.6,14.1,69.4,59.9c-0.2,9.3-3.3,9.5-10.6,7.7
		c-12.9-3.3-26.2-4.8-39.5-5.3c-25.5-0.9-49.9,2.8-70,20.3c-23.1,20.1-27,46.1-19.9,74c6.8,26.5,25.8,41.1,52.3,45
		c30,4.4,57.2-2.5,80.2-23.1c3-2.7,5.9-5.4,9.1-8.4c0.8-0.8,2.1-0.6,2.6,0.4c1.6,2.9,2.9,5.3,4.2,7.7c13,23.2,17.9,24.1,39.4,9.2
		C242,383.8,244.4,378.4,239.2,369.9z M186.6,313.9c-2,38.7-34,63.2-71.3,55.7c-15.2-3-24.3-13.2-26.2-29.4
		c-2.3-18.9,4.8-33.9,20.8-40.2c23.9-9.5,48.3-5.4,72.4-0.3C191,301.6,185.3,309.8,186.6,313.9z"/>
</g>
</svg>
