<?xml version="1.0" encoding="utf-8"?>
<!-- Generator: Adobe Illustrator 24.0.0, SVG Export Plug-In . SVG Version: 6.00 Build 0)  -->
<svg version="1.1" id="Layer_1" xmlns="http://www.w3.org/2000/svg" xmlns:xlink="http://www.w3.org/1999/xlink" x="0px" y="0px"
	 viewBox="0 0 322.4 341.2" style="enable-background:new 0 0 322.4 341.2;" xml:space="preserve">
<style type="text/css">
	.st0{fill:url(#SVGID_1_);}
</style>
<circle cx="39.7" cy="37.7" r="26.6"/>
<path d="M26.1,76.6l97.2,253.2c1.5,3.8,5.8,5.6,9.5,3.9h0c3.1-1.4,4.7-4.8,4-8.1L75.1,58.4c0,0-3.2,16.2-22.3,21.6
	C46.3,81.9,38.6,82.9,26.1,76.6z"/>
<linearGradient id="SVGID_1_" gradientUnits="userSpaceOnUse" x1="92.5217" y1="94.6739" x2="314.3913" y2="94.6739">
	<stop  offset="5.586592e-03" style="stop-color:#000000"/>
	<stop  offset="0.5475" style="stop-color:#414141"/>
	<stop  offset="1" style="stop-color:#000000"/>
</linearGradient>
<path class="st0" d="M92.5,52.4c0,0,59.6-37.9,102.8-34.2s76.8-0.5,98.9-14.1l20.1,123.1c0,0-40.7,28.7-90.4,12s-103.4,46-103.4,46
	L92.5,52.4z"/>
</svg>
