<?xml version="1.0" encoding="utf-8"?>
<!-- Generator: Adobe Illustrator 24.0.0, SVG Export Plug-In . SVG Version: 6.00 Build 0)  -->
<svg version="1.1" id="Layer_1" xmlns="http://www.w3.org/2000/svg" xmlns:xlink="http://www.w3.org/1999/xlink" x="0px" y="0px"
	 viewBox="0 0 512 512" style="enable-background:new 0 0 512 512;" xml:space="preserve">
<style type="text/css">
	.st0{display:none;}
</style>
<g>
	<path d="M128,80H32C14.3,80,0,94.3,0,112v352c0,17.7,14.3,32,32,32h96c17.7,0,32-14.3,32-32V112C160,94.3,145.7,80,128,80z
		 M128,208H32v-32h96V208z M128,144H32v-32h96V144z"/>
	<path d="M336,432v-32h-96v32c-17.7,0-32,14.3-32,32h160C368,446.3,353.7,432,336,432z"/>
	<path d="M480,16H96c-17.7,0-32,14.3-32,32h32h96h288v256H192v64h288c17.7,0,32-14.3,32-32V48C512,30.3,497.7,16,480,16z"/>
</g>
<g>
	<g transform="translate(0.000000,511.000000) scale(0.100000,-0.100000)">
		<path class="st0" d="M2411,4983.6c-3.2,0.5-48.8-102.4-59.4-133.1c-3.2-8.5-12.7-9.6-95.5-9.6h-92.3l-30.2,71.6l-30.8,71.1
			l-16.4-2.7c-99.7-17-246.1-59.9-251.4-74.2c-2.6-6.9,4.3-79,12.2-129.9l3.2-19.1l-46.7-25.5c-26-13.8-61-34.5-78-45.6
			c-17-11.7-31.8-20.7-33.4-20.7c-1.1,0-29.7,20.7-63.1,45.6l-61.5,45.6l-19.6-14.9c-45.6-34.5-176.1-169.2-176.1-182.4
			c0-2.7,19.1-30.3,42.4-61.5c23.3-30.8,43.5-57.8,45.1-60.5c1.1-2.1-7.9-20.2-21.2-39.8c-12.7-20.2-33.4-54.6-45.1-78
			c-14.3-27-24.9-41.4-30.8-41.4c-4.8,0-37.7,3.7-72.7,7.9c-34.5,4.2-65.8,7.9-69.5,7.9c-12.7,0-69-192.5-72.1-248.7l-1.6-23.3
			l69-29.7l69-29.7v-91.8l-0.5-91.8l-68.4-29.2c-38.2-16.4-69.5-30.2-70.5-31.3c-7.4-6.9,28.1-153.3,55.7-229.1l13.8-38.7h24.4
			c13.3,0,48.2,3.7,77.4,7.9c29.2,3.7,53,6.9,53.6,6.4c23.3-45.1,51.5-93.9,69-122l23.3-36.1l-45.1-59.9
			c-24.9-32.9-45.1-62.1-45.1-64.7c0-14.3,100.8-119.3,167.6-175.6l27-22.3l62.6,46.7l62.6,47.2l35-22.8
			c19.1-12.2,54.1-32.9,77.4-45.1c23.3-12.7,43-23.3,44-24.4c1.1-0.5-2.6-35-7.9-75.8c-7.9-66.3-8.5-75.8-1.6-80.6
			c25.4-16.4,218-68.4,253.5-68.4c7.4,0,15.4,11.1,31.3,46.1c11.7,26,25.4,57.3,30.2,70.5l9,23.9h92.3h92.3l9-23.9
			c4.8-13.3,18.6-44.5,30.2-70c15.9-35.5,23.9-46.7,31.3-46.7c36.1,0,227,51.5,253,68.4c6.9,4.2,6.9,13.3,1.1,62.6
			c-3.2,31.3-7.4,65.8-9,75.8c-3.2,18.5-2.6,19.1,28.1,33.4c17,8.5,36.6,19.6,43.5,24.9l12.7,9.6l-109.8,116.7l-110.3,116.6
			l-37.6-14.9c-81.7-31.3-130.5-39.3-234.4-39.3c-82.2,0-102.4,1.6-145.9,12.2c-170.8,42.4-307.6,136.9-401.5,277.4
			c-260.4,390.9-43,917,418.5,1012.5c75.8,15.4,181.9,15.4,257.8,0c264.6-54.6,461.4-253,518.7-521.4
			c19.1-90.7,10.6-238.7-18.6-324.1l-10.6-29.7l115.1-99.7c62.6-54.6,118.8-102.9,124.1-106.6c7.9-5.8,10.1-4.8,17,12.2
			c7.4,17.5,9.6,19.1,25.5,15.9c43-7.4,93.9-13.3,116.2-13.3h24.9l16.4,46.7c18.5,52,45.1,154.9,50.4,195.2l3.2,26.5l-70,29.7
			l-70,30.2v92.8c-0.5,89.1,0,93.3,10.1,96.5c17.5,5.3,121.5,50.4,126.2,55.2c4.8,4.2-7.4,77.4-20.7,127.3
			c-17,62.6-46.7,143.2-52,143.2c-3.7,0-35-3.7-69.5-7.9c-35-4.2-67.9-7.9-72.7-7.9c-6.4,0-15.4,11.7-26,32.9
			c-9,18-28.7,52.5-43.5,75.8c-14.3,23.3-26.5,45.1-26.5,47.7c0,3.2,19.6,31.3,43.5,62.6c23.3,31.3,43,59.4,43,62.1
			c0,13.3-130.5,148-176.1,182.4l-19.6,14.9l-61.5-45.6c-33.4-24.9-62.6-45.6-64.2-45.6s-16.4,9-32.9,20.2
			c-16.4,11.2-50.9,31.8-76.9,45.6c-25.5,13.8-46.1,27-46.1,28.7c0,2.1,3.7,30.2,7.9,62.1c4.2,32.4,7.9,65.8,7.9,74.8v16.4
			l-78.5,24.4c-67.3,21.8-116.7,34-170.8,42.4C2420,4981.4,2412.6,4983,2411,4983.6z"/>
		<path d="M2013.8,4348.2l-29.2-3.2l196.2-197.8l195.7-197.8l110.8,110.3c60.5,60.5,113,114.6,115.6,119.3
			c4.2,7.4-2.1,14.8-35.5,41.4c-78,62.1-204.2,111.9-321.4,126.2C2201,4352.4,2056.2,4353.5,2013.8,4348.2z"/>
		<path d="M1811.7,4161.5c-13.8,2.6-18.5-115.1-7.9-188.3c24.9-170.3,107.1-332.5,245.6-484.2l31.3-33.9l195.2,6.4
			c162.8,5.8,196.8,5.3,202.1-0.5c3.7-3.7,113.5-126.2,244.5-272.1c588.7-656.1,765.3-847.5,804-870.9
			c51.5-31.3,110.3-33.9,161.8-7.4c61,30.8,125.7,97.1,154.3,158.1c11.7,25.5,14.3,37.6,14.3,73.2c-0.5,53-12.7,80.1-57.8,128.9
			c-40.3,43-347.4,328.8-785.5,730.3c-203.1,186.2-333.6,309.2-333.6,315c0.5,4.8,8,36.1,15.9,69.5c13.3,54.6,14.8,70.5,14.8,151.1
			c0,80.6-1.1,93.3-11.7,122c-12.7,33.9-43,82.2-51.5,82.2c-2.6,0-96-92.3-206.8-204.7l-201.5-204.7L2027,3946.2
			C1910.3,4063.9,1813.2,4161,1811.7,4161.5z"/>
	</g>
</g>
</svg>
