<?xml version="1.0" encoding="utf-8"?>
<!-- Generator: Adobe Illustrator 24.0.0, SVG Export Plug-In . SVG Version: 6.00 Build 0)  -->
<svg version="1.1" id="Layer_1" xmlns="http://www.w3.org/2000/svg" xmlns:xlink="http://www.w3.org/1999/xlink" x="0px" y="0px"
	 viewBox="0 0 465.6 430.5" style="enable-background:new 0 0 465.6 430.5;" xml:space="preserve">
<style type="text/css">
	.st0{fill:#68217A;}
</style>
<g>
	<path class="st0" d="M313.2,267.1c30.3,17.3,60.1,34.3,89.8,51.3c-31.3,62.1-116.6,119.8-219.4,102.2
		C84.6,403.8,11.6,321.4,6.9,222.1C2.6,129.3,71.5,40.1,166.5,15.6C257.6-8,362.2,35,403.4,114.3c-29.8,16.9-59.7,33.8-91.3,51.7
		c-27-37.4-61.8-56.9-108.4-49.4c-28.2,4.5-51.9,17.2-68.7,40.6c-32.4,45.1-22.8,107,21.5,140.5
		C197.4,328.5,269.1,330.3,313.2,267.1z"/>
	<path class="st0" d="M370.1,270.3c0-5.8,0-11.1,0-17.4c-7.4,0-13.9,0-21.1,0c0-7.3,0-13.6,0-20.8c6.7-0.3,13.3-0.6,20.5-0.9
		c0-9.3,0-18.2,0-28c-6.6,0-13.1,0-20.3,0c0-7.2,0-13.6,0-20.6c6.4-0.3,13-0.6,20.5-0.9c0-6.6,0-12.6,0-19.5c7.4,0,13.8,0,21.3,0
		c0,6.4,0,12.7,0,19.4c10.3,0,19.4,0,29.3,0c0.4-6.8,0.9-13.2,1.3-19.8c6.8,0,13,0,20.2,0c0,6.4,0,12.4,0,19.2
		c6.6,0.5,12.3,1,18.3,1.5c0,6.6,0,12.6,0,19.6c-5.7,0.3-11.1,0.5-17.2,0.8c0,9.1,0,18,0,28c5.2,0.3,10.5,0.6,16.8,0.9
		c0,6.4,0,12.7,0,20.1c-5.1,0.3-10.5,0.6-17.1,1c0,5.5,0,11.1,0,17.3c-7.6,0-14.1,0-21.1,0c-0.4-5.8-0.7-11.1-1.1-17.1
		c-9.5,0-18.7,0-29,0c0,5.3,0,10.9,0,17.1C384.1,270.3,378,270.3,370.1,270.3z M391.3,231c10.2,0,19.4,0,29,0c0-9.6,0-18.7,0-27.6
		c-10.2,0-19.6,0-29,0C391.3,212.9,391.3,221.5,391.3,231z"/>
</g>
</svg>
