<?xml version="1.0" encoding="utf-8"?>
<!-- Generator: Adobe Illustrator 24.0.0, SVG Export Plug-In . SVG Version: 6.00 Build 0)  -->
<svg version="1.1" id="Layer_1" xmlns="http://www.w3.org/2000/svg" xmlns:xlink="http://www.w3.org/1999/xlink" x="0px" y="0px"
	 viewBox="0 0 512 512" style="enable-background:new 0 0 512 512;" xml:space="preserve">
<g>
	<g>
		<path d="M396,116l0-73.7c0-2-0.8-3.8-2.2-5.2c-1.4-1.4-3.3-2.2-5.2-2.2h-81c-2.6,0-5,1.4-6.4,3.6l-41.1,65.8l-9.1,11.6H123.4
			c-4.1,0-7.4,3.3-7.4,7.4v110.6c0,4.1,3.3,7.4,7.4,7.4h70.5l1.5,1.6l-78.5,145.4c-0.6,1.1-0.9,2.3-0.9,3.5v77.9
			c0,4.1,3.3,7.4,7.4,7.4h81c2.6,0,5-1.4,6.4-3.6l43.9-77.4l5.2-7.4h128.7c4.1,0,7.4-3.3,7.4-7.4V278.1c0-4.1-3.3-7.4-7.4-7.4H318
			l-1.4-1.4l78.5-149.9C395.7,118.4,396,117.2,396,116z"/>
	</g>
</g>
</svg>
