<?xml version="1.0" encoding="utf-8"?>
<!-- Generator: Adobe Illustrator 24.0.0, SVG Export Plug-In . SVG Version: 6.00 Build 0)  -->
<svg version="1.1" id="Layer_1" xmlns="http://www.w3.org/2000/svg" xmlns:xlink="http://www.w3.org/1999/xlink" x="0px" y="0px"
	 viewBox="0 0 355.9 277" style="enable-background:new 0 0 355.9 277;" xml:space="preserve">
<style type="text/css">
	.st0{fill:#020202;}
	.st1{fill:#010101;}
	.st2{fill:#010201;}
</style>
<g>
	<path class="st0" d="M339.2,18.1c-15.5,17.3-33.5,27.7-58.3,22.1c-13-2.9-25,0.8-35.2,9.4c-1.7,1.4-3.3,2.8-5,4.2
		c1.9,2.1,3.7,4.2,5.4,6.4l0,0c25.3,34,19.8,84-7.1,114c-0.9,1-2.3,1-3.2,0.1c-14.3-14.5-28.6-29-43.1-43.3c-2.3-2.3-2-3.5,0.2-5.6
		c5.6-5.6,9-6.6,14-19c5-12.3-5.3-22.6-10-26.8c-4.6-4.2-17.3-7.6-25.5-1.5s-10.4,8-10.4,8s-6.5,6.6-13.3-0.2
		c-12.5-12.5-25.1-25.1-37.6-37.6c-1.9-1.9-4.1-3.2-0.6-6c32-25.7,77.9-30.4,111.4-6.9c1.2,0.8,2.3,1.6,3.4,2.5
		c1.5,1.2,2.9,2.6,5.4,4.8c16.9-15.9,32.4-22.9,57.9-17.6c12.4,2.6,22.3-1.8,31.4-9.5c1.9-1.6,3.7-3.1,5.5-4.7
		c6.5-5.8,8.5-6.6,13.9-2.4C342.8,12,342.4,14.5,339.2,18.1z"/>
	<path class="st1" d="M95.5,271C53.1,264.8,9.6,219.3,16,163.7c3.4-29.4,12.4-40.6,27.8-56.3c15.7-16,31.7-31.6,47.4-47.6
		c2.9-2.9,4.5-3.1,7.4-0.1c13.4,13.8,27.1,27.3,40.8,40.8c2.4,2.4,3.1,3.7,0.6,7c-9.4,11.9-8.5,24.8,1.6,34.6
		c9.6,9.3,22.5,9.6,34.1,0.2c2.7-2.2,3.8-1.7,5.8,0.4c14.1,14.2,28.2,28.3,42.4,42.3c2.3,2.3,2.1,3.6-0.1,5.7
		c-18.4,17.7-35.4,36.9-54.7,53.7C147.8,263,137.9,277.2,95.5,271z"/>
	<path class="st2" d="M191.5,109.5c-7.7,7.7-15.3,15.6-23.2,23.2c-5.5,5.3-13.3,5.5-18.3,0.7c-5.3-5-5.5-13.1-0.1-18.8
		c7.5-7.9,15.3-15.6,23.2-23.2c4.2-4.1,11.2-6.5,17.5-0.2C198.6,99.1,194,106.9,191.5,109.5z"/>
</g>
</svg>
