<?xml version="1.0" encoding="utf-8"?>
<!-- Generator: Adobe Illustrator 24.0.0, SVG Export Plug-In . SVG Version: 6.00 Build 0)  -->
<svg version="1.1" id="Layer_1" xmlns="http://www.w3.org/2000/svg" xmlns:xlink="http://www.w3.org/1999/xlink" x="0px" y="0px"
	 viewBox="0 0 1050 1024" style="enable-background:new 0 0 1050 1024;" xml:space="preserve">
<style type="text/css">
	.st0{fill:#35F900;}
	.st1{fill:#072600;}
</style>
<g>
	<path class="st0" d="M525,0.1c173.5,0,346.9,0,520.4-0.1c3.7,0,4.6,0.8,4.6,4.6c-0.1,338.3-0.1,676.5,0,1014.8
		c0,3.7-0.8,4.6-4.6,4.6c-346.9-0.1-693.9-0.1-1040.8,0c-3.7,0-4.6-0.8-4.6-4.6C0.1,681.1,0.1,342.9,0,4.6C0,0.8,0.8,0,4.6,0
		C178.1,0.1,351.5,0.1,525,0.1z"/>
	<path class="st1" d="M524.5,980.1c-157.8,0-315.6,0-473.4,0c-8.1,0-7.2,1-7.2-7.2c0-307.3,0-614.5,0-921.8c0-8.2-1-7.1,7.2-7.1
		c315.9,0,631.9,0,947.8,0c8.1,0,7.2-1,7.2,7.2c0,307.3,0,614.5,0,921.8c0,8.2,1,7.1-7.2,7.1C840.7,980.1,682.6,980.1,524.5,980.1z"
		/>
	<path class="st0" d="M205.3,233.7c35.3-0.3,63.5-1.6,91.5,2.4c47.3,6.6,89.1,24.4,121.9,60.2c23.5,25.6,38.6,55.8,46.6,89.4
		c15.9,67.1,14.6,133.8-10.5,198.4c-28.6,73.7-84.3,115.5-161.4,129.9c-27.9,5.2-56.1,3.7-84.2,3.3c-21.2-0.3-42.3-0.6-63.5-0.9
		c-8.5-0.1-8.7-0.4-8.7-8.9c-0.1-118.3-0.2-236.6-0.2-354.8c0-36.3,0.1-72.6,0.2-109c0-7,0.9-8.1,8-8.3
		C167.5,234.6,190,234.1,205.3,233.7z"/>
	<path class="st0" d="M714.8,445.1c-1.6,8.4-3.1,16.9-4.7,25.3C695.5,550.1,678,629,659.8,707.8c-1.5,6.5-2.9,7.5-9.6,7.5
		c-22.2,0-44.3,0-66.5,0c-7.9,0-8.7-0.7-10.4-8.4c-25.4-112.9-50.7-225.7-76-338.6c-1.6-7.2-0.5-8.6,6.9-8.6c22.2,0,44.3,0,66.5,0
		c6.7,0,7.2,0.6,8.4,7.2c10.3,58.5,20.4,117.1,29.6,175.8c4.3,27.6,8.3,55.3,12.4,83c0.1,0.8,0.1,1.7,0.3,2.5
		c0.2,1.1,0.2,2.5,1.8,2.6c2.1,0.1,1.8-1.5,2-2.7c1.6-9.4,3-18.7,4.7-28.1c8.7-50.7,19.2-101.1,29.7-151.4
		c5.7-27.4,11.7-54.7,17.4-82.1c1-4.9,2.9-6.9,8.2-6.9c23.2,0.3,46.3,0.3,69.5,0c5.3-0.1,7.5,2,8.3,6.9c7.6,42.9,15.4,85.9,23,128.8
		c7.1,40,14.4,80,20.6,120.1c0.9,5.8,0.9,11.8,3,17.9c2.2-1.6,2.1-3.5,2.3-5.2c11.5-77.2,25.9-154,40.5-230.7
		c2-10.3,4.1-20.6,5.9-30.9c0.8-4.9,2.9-7,8.2-7c20.7,0.3,41.3,0.1,62,0.1c6.2,0,6.7,0.7,5.2,6.7c-28.2,113.5-56.4,227.1-84.7,340.6
		c-2,8.1-2.1,8.2-10.3,8.2c-22.2,0-44.3,0-66.5,0c-7.2,0-7.9-0.8-9.2-7.6c-10.5-56.6-21-113.3-31.5-169.9
		C725.8,507.1,720.2,476.3,714.8,445.1z"/>
	<path class="st1" d="M215.2,475.2c0-54.6,0-109.3,0-163.9c0-9.4-1.2-7.9,8.3-8.3c16.3-0.7,32.6-1.6,48.9-0.1
		c55.2,4.9,95.2,37.4,111.5,90.7c8.5,27.7,10.6,56.2,9.6,85c-1,28.6-4.9,56.7-15.6,83.5c-15.3,38.5-40.9,66.6-81.3,79.6
		c-22.1,7.1-44.9,7-67.8,5.9c-1.3-0.1-2.7-0.2-4-0.3c-9.7-0.6-9.7-0.6-9.7-10.6C215.2,582.8,215.2,529,215.2,475.2z"/>
</g>
</svg>
