<?xml version="1.0" encoding="utf-8"?>
<!-- Generator: Adobe Illustrator 24.0.0, SVG Export Plug-In . SVG Version: 6.00 Build 0)  -->
<svg version="1.1" id="Layer_1" xmlns="http://www.w3.org/2000/svg" xmlns:xlink="http://www.w3.org/1999/xlink" x="0px" y="0px"
	 viewBox="0 0 123.3 122.5" style="enable-background:new 0 0 123.3 122.5;" xml:space="preserve">
<style type="text/css">
	.st0{fill-rule:evenodd;clip-rule:evenodd;fill:#2ABBAD;}
	.st1{fill-rule:evenodd;clip-rule:evenodd;fill:#58595B;}
</style>
<g>
	<path class="st0" d="M22.3,119.3c0.9,0,1.9,0,2.9,0.1c1,0.1,2,0.2,3,0.1c0.9,0,1.7-0.1,2.6-0.2c0.9-0.1,1.7-0.2,2.6-0.4
		c1.5-0.3,3-0.7,4.4-1.1c1.4-0.5,2.8-1.1,4.2-1.7c1.1-0.5,2.2-1.1,3.3-1.8c1-0.7,2-1.4,3-2.2c0.8-0.7,1.6-1.5,2.3-2.3
		c0.7-0.8,1.4-1.6,2.2-2.4c0.8-1,1.7-1.9,2.6-2.8c0.9-0.9,1.8-1.8,2.8-2.6c1.1-1,2.3-1.8,3.5-2.7c1.2-0.8,2.5-1.6,3.8-2.3
		c0.8-0.4,1.7-0.8,2.6-1.2c0.9-0.3,1.8-0.6,2.7-0.9c1.2-0.3,2.4-0.6,3.7-0.8c1.2-0.2,2.5-0.5,3.7-0.6c1-0.2,1.9-0.3,2.8-0.6
		c0.9-0.2,1.9-0.4,2.8-0.7c1.3-0.3,2-0.5,2.8-0.6c0.7-0.2,1.4-0.4,2.7-0.9c0.8-0.3,1.3-0.5,1.9-0.9c0.6-0.4,1.7-0.8,2.3-1.6
		c0.7-0.4,0.7-0.8,1-0.6c0.3,0.2,1.5,0.9,1.6,1.5c0.1,0.9-0.7,1.7-1.4,2.6c-1,0.5-1.5,0.7-1.9,0.8c-0.7,0.2-0.9,0.3-1.2,0.4
		c-0.3,0.1-0.6,0.2-1.2,0.4c-1.2,0.4-1.8,0.5-2.4,0.7c-0.6,0.1-1.2,0.2-2.4,0.5c-1.1,0.2-2.3,0.4-3.4,0.6c-1.1,0.2-2.3,0.4-3.4,0.7
		c-0.9,0.2-1.7,0.4-2.6,0.6c-0.9,0.2-1.7,0.5-2.6,0.8c-1.1,0.4-2.2,0.8-3.3,1.2c-1.1,0.4-2.1,0.9-3.2,1.4c-0.8,0.4-1.5,0.8-2.3,1.2
		c-0.7,0.4-1.5,0.9-2.2,1.4c-0.6,0.4-1.2,0.8-1.8,1.2c-0.6,0.4-1.1,0.8-1.7,1.3c-0.5,0.4-1,0.8-1.5,1.2c-0.5,0.4-1,0.8-1.4,1.2
		c-0.8,0.7-1.6,1.4-2.3,2.2c-0.8,0.7-1.5,1.5-2.2,2.3c-0.6,0.6-1.2,1.3-1.8,1.9c-0.6,0.7-1.2,1.3-1.8,2c-1,1.1-2.2,2-3.4,2.8
		c-1.2,0.8-2.6,1.3-4,1.8c-0.9,0.3-1.8,0.5-2.8,0.7c-0.9,0.2-1.9,0.3-2.8,0.5c-0.9,0.1-1.8,0.2-2.6,0.3c-0.9,0.1-1.8,0.2-2.6,0.2
		c-0.3,0-0.7,0-1,0.1c-0.3,0-0.7,0-1,0c-0.3,0-0.7,0-1,0.1c-0.3,0-0.7,0-1,0c-1,0-1.9,0-2.9-0.1c-1,0-1.9-0.1-2.9-0.2
		c-0.3,0-0.7,0-1-0.1c-0.3-0.1-0.7-0.1-1-0.3c-0.2-0.1-0.3-0.4-0.4-0.6c0-0.2,0.1-0.5,0.3-0.6c0.4-0.3,0.9-0.5,1.3-0.6
		c0.5-0.1,1-0.2,1.4-0.2c0.3,0,0.5,0,0.8,0C21.7,119.3,22,119.3,22.3,119.3z"/>
	<path class="st1" d="M26.1,117.5c-2.4,0-4.9-0.1-7.2-0.9c-0.3-0.1-0.5-0.2-0.7-0.3c-0.8-0.4-1.4-0.9-1.2-1.9c0.1-0.9,0.6-1.7,1.5-2
		c1.1-0.4,2.2-0.4,3.3-0.4c2.6-0.1,5.3-0.4,7.8-1.2c2.5-0.8,4.3-2.4,5.7-4.5c1.5-2.3,2.5-4.9,3.7-7.4c1.2-2.2,2.2-4.5,3-6.9
		c0.3-0.8,0.5-1.6,0.6-2.5c0.1-0.7,0.4-0.9,1-0.4c0.9,0.6,1.5,1.5,2.1,2.4c1.7,2.4,3.4,4.9,4.6,7.7c1.2,2.6,1,5-0.8,7.3
		c-2.6,3.3-5.7,6.2-9.5,8.1c-3.3,1.6-6.8,2.5-10.5,2.8C28.3,117.5,27.2,117.5,26.1,117.5z"/>
	<path class="st1" d="M75.4,91.4c-7.6,1.6-14.3,5.4-20.7,10.4c-1.1-2.8-2-5.2-2.9-7.6c-1.3-3.7-6.3-6.9-4.6-10.3
		c2.8-6,7.5-11.2,11.6-16.5c2.1-2.7,3.4-0.2,4.8,1.4C69.2,75.2,72.8,82.9,75.4,91.4z"/>
	<path class="st1" d="M93.6,80.1c-0.8,3.4-2.4,5.8-4.7,7.3c-2.3,1.6-5.2,2.4-8.5,2.8c-0.6,0.1-2.3-3-3.7-6.3
		c-1.4-3.3-4.2-8.6-3.3-8.6c3.6,0,6.5,1.1,10.1-0.1c3.6-1.2,4.5-1.5,7-3.6c2,1.2,2.5,2.3,2.9,3.9C93.9,77,93.8,78.6,93.6,80.1z"/>
</g>
<g>
	<path class="st0" d="M100.7,6.8c2.4,3.5,4.7,7,6.4,11c2.1,5,1.2,9.4-2.1,13.6c-4.7,5.9-10.5,10.3-16.9,14.1
		c-4.7,2.7-9.4,5.4-13.5,8.9c-0.9,0.8-1.8,1.5-2.6,2.4c-4.5,5-4.5,9.8,0,14.9c0.3,0.3,0.8,0.6,0.6,1.2c-5.9-1.1-10-7.5-8.8-13.4
		c1-5.2,4.2-9.1,7.5-12.9c4.9-5.7,10.1-11.2,15.1-16.7c6.1-6.7,11.4-14,13.9-22.9C100.3,6.9,100.5,6.8,100.7,6.8z"/>
	<path class="st0" d="M84,61.7C82.7,61.8,81,62,79.6,62c-1.4,0.1-2.9,0.1-4.3-0.3c-1-0.2-1.6-0.5-1.8-1c-0.2-0.4,0.1-1,0.8-1.8
		c1-1.2,2.2-2.2,3.5-3.1c1.3-0.9,2.6-1.7,4-2.5c3.1-1.7,6.1-3.4,9.1-5.3c3-1.8,5.9-3.8,8.6-6.1c0.5-0.4,0.9-0.6,1.2-0.5
		c0.3,0.1,0.4,0.5,0.5,1.3c0.2,1.9,0.1,3.8-0.2,5.6c-0.3,1.8-0.8,3.6-1.6,5.4c-0.2,0.5-0.5,0.9-0.8,1.3c-0.3,0.4,0,0-0.3,0.4
		c-1.7,2.1-4.6,3.8-6.8,4.7C89.1,60.9,86.8,61.4,84,61.7z"/>
	<path class="st0" d="M84,72.3c-6.1,1.2-10.3-1-12-5.9c-0.2-0.7-0.6-1.4-0.1-2c0.6-0.8,1.3-0.3,1.9-0.1c6.2,2.1,12.3,1.3,18.4-0.7
		c0.5-0.2,1.1-0.6,1.5-0.1c0.5,0.5,0,1-0.3,1.5C90.7,68.5,87.6,71.3,84,72.3z"/>
</g>
</svg>
