<?xml version="1.0" encoding="utf-8"?>
<!-- Generator: Adobe Illustrator 24.0.0, SVG Export Plug-In . SVG Version: 6.00 Build 0)  -->
<svg version="1.1" id="Layer_1" xmlns="http://www.w3.org/2000/svg" xmlns:xlink="http://www.w3.org/1999/xlink" x="0px" y="0px"
	 viewBox="0 0 614.7 388.2" style="enable-background:new 0 0 614.7 388.2;" xml:space="preserve">
<g>
	<path d="M50.6,11.7c3.9-1.7,511.4-1.4,517.1,0.2c-86.6,76.4-172.9,152.7-259.6,229.2C222.3,164.7,136.6,88.3,50.6,11.7z"/>
	<path d="M385.7,220.6c58.4,51.1,116.5,102,175.2,153.3c-170,0-339.3,0-509.7,0c60.2-51.6,119.7-102.5,179.4-153.7
		c25.8,23,51.5,45.9,77.4,68.9C333.9,266.3,359.7,243.6,385.7,220.6z"/>
	<path d="M596.8,34.2c0.8,4.4,1.9,7.8,1.9,11.3c0.1,98,0.1,196-0.1,294.1c0,5.1-2.3,10.2-3.7,16.4
		c-61.3-53.6-121.5-106.3-182.1-159.3C474.1,142.6,535.1,88.7,596.8,34.2z"/>
	<path d="M20,353.5c-1-5.1-2.5-9.3-2.6-13.5c-0.1-98.4-0.1-196.8,0-295.1c0-3.9,1.3-7.7,2.1-12.6c61.7,55,122.7,109.2,184,163.9
		C142.4,248.5,81.6,300.6,20,353.5z"/>
</g>
</svg>
