<?xml version="1.0" encoding="utf-8"?>
<!-- Generator: Adobe Illustrator 24.0.0, SVG Export Plug-In . SVG Version: 6.00 Build 0)  -->
<svg version="1.1" id="Layer_1" xmlns="http://www.w3.org/2000/svg" xmlns:xlink="http://www.w3.org/1999/xlink" x="0px" y="0px"
	 viewBox="0 0 238.7 241.5" style="enable-background:new 0 0 238.7 241.5;" xml:space="preserve">
<g>
	<path d="M173.6,89.7c0,2.6,2.7,4.3,5.1,3.2c0.5-0.3,1-0.5,1.5-0.8c14.2-7.2,28.5-14.5,42.7-21.7c4.9-2.5,6.6-1.5,6.6,4.1
		c0,50.5,0,101,0.1,151.5c0,3.6-1.2,5.3-4.8,5.3c-32.8,0-65.7,0-98.5-0.1c-0.3,0-0.6-0.2-1.1-0.4c0-20.7,0-41.5,0-62.3
		c0-10.7,0-21.3,0-32c0-10-2.1-13.3-10.8-14.7c-1.7-0.3-3-1.7-3-3.5c0-5.6-0.1-11.2,0.1-16.7c0.1-1.4,1.6-3.3,2.9-4.1
		c17.8-9.4,35.7-18.6,53.6-27.8c3.4-1.7,5.4-0.4,5.5,3.5C173.6,78.6,173.6,84,173.6,89.7z M175.6,129.6
		C175.6,129.6,175.6,129.6,175.6,129.6c9.5,0,19,0,28.5,0c2.7,0,5.4,0.3,8-0.2c0.2,0,0.4-0.1,0.7-0.3c2-1.2,2.1-4,0.4-5.6
		c-0.3-0.3-0.5-0.4-0.9-0.7c-0.6-0.4-1.8-0.2-2.6-0.2c-22.7,0-45.3,0-68,0c-1.2,0-2.5-0.3-3.4,0.2c-1.1,0.6-2.6,1.9-2.6,2.9
		c-0.1,1.1,1.1,2.8,2.2,3.3c1.2,0.6,2.9,0.5,4.4,0.5C153.3,129.6,164.5,129.6,175.6,129.6z M175.2,155
		C175.2,155,175.2,155,175.2,155c11.8,0,23.6,0,35.5,0c2.3,0,5.1,0.2,4.9-3.3c-0.2-3.1-2.5-3.6-5-3.6c-0.8,0-1.7,0-2.5,0
		c-22,0-44,0-65.9,0c-1.5,0-3.2-0.2-4.4,0.5c-1.1,0.6-2.1,2.2-2.2,3.3c-0.1,0.9,1.2,2.3,2.2,2.8c1.1,0.5,2.6,0.4,3.9,0.4
		C152.9,155,164,155,175.2,155z M175.3,180.9c10,0,20,0,30,0c2.3,0,4.7,0.3,7-0.2c1.2-0.3,3-2,3.1-3.1c0-1.2-0.8-2.8-2.7-3.4
		c-0.8-0.2-1.9-0.3-2.9-0.3c-23,0-45.9,0-68.9,0c-2.6,0-5.4,0.1-5.4,3.6c0,3.7,3,3.3,5.5,3.3C152.4,180.9,163.9,180.9,175.3,180.9z
		 M175.4,206.8c11.6,0,23.3,0,34.9,0c2.4,0,5.1,0.2,5.1-3.1c0-3.4-2.5-3.7-5.2-3.7c-23.1,0-46.3,0-69.4,0c-2.6,0-5.4,0.1-5.4,3.6
		c0,3.6,3,3.3,5.5,3.3C152.4,206.8,163.9,206.8,175.4,206.8z"/>
	<path d="M67.3,121.6c-4.1,0-7.9,0-11.7,0c-9,0-12.4,3.4-12.4,12.3c0,31.5,0,63,0,94.5c0,0.6-0.1,1.3-0.1,2.4c-10,0-19.7,0.1-29.5,0
		c-3.2,0-3.5-2.5-3.3-5c0.7-7.6,1.5-15.2,2.3-22.8c2.9-28.7,5.8-57.3,8.8-85.9c1.5-14.6,3.2-29.1,4.6-43.7c0.4-4.2,2.4-5.3,6.2-5.2
		c8.5,0.1,17,0.1,25.5,0c4.1-0.1,5.9,1.4,6.1,5.8c1,14.5,2.3,28.9,3.5,43.3C67.4,118.4,67.3,119.7,67.3,121.6z"/>
	<path d="M50.2,179.2c0-15,0-30,0-45c0-5.4,0.3-5.7,5.6-5.7c19,0,38,0,57-0.1c3.8,0,5.4,1.3,5.4,5.2c-0.1,30.7-0.1,61.3,0,92
		c0,3.9-1.5,5.3-5.4,5.2c-19.2-0.1-38.3-0.1-57.5,0c-3.9,0-5.3-1.3-5.2-5.2C50.3,210.2,50.2,194.7,50.2,179.2z M84,183.7
		C84,183.7,84,183.7,84,183.7c-4.8,0-9.6,0.1-14.4-0.1c-3.6-0.1-5.2,1.4-5.1,5c0.1,6,0.1,12,0,17.9c0,3.4,1.6,4.9,4.9,4.9
		c9.8,0,19.6,0,29.4,0c3,0,4.6-1.5,4.6-4.6c0-6.1,0-12.3,0-18.4c0-3.4-1.5-4.8-4.8-4.8C93.7,183.8,88.8,183.7,84,183.7z M83.8,170.6
		c4,0,8,0,12,0c6.1,0,6.7-0.5,6.7-6.4c0-4.8-0.2-9.7,0-14.5c0.2-4-1.2-5.8-5.4-5.7c-8.8,0.1-17.7,0.1-26.5,0c-3.6,0-5.1,1.6-5.1,5.2
		c0.1,5.3,0.1,10.7,0,16c-0.1,4.2,1.9,5.6,5.8,5.5C75.4,170.5,79.6,170.6,83.8,170.6z"/>
	<path d="M92.9,47.9c-9.3,3.7-9.3,3.7-15.5,11c-5.4,6.4-14.8,8.8-22.7,5.8c-8-3-13.5-11.2-13.3-19.8c0.2-8.5,6.3-16.7,14.4-19.1
		c2.1-0.6,4.2-0.9,6.2-1.4c5.8-12.6,15.8-18.2,26.6-13.5c6.3,2.8,11.7,4.3,18.7,2.7c6.2-1.4,11.9,1.9,16.4,6.7
		c1.2,1.2,3.3,2.1,4.9,2c10.1-0.7,18.7,4.7,21.7,13.9c3,9.2-0.8,19.2-9.2,24.2c-8.3,4.9-19,3.5-25.5-3.8c-1.9-2.1-3.6-2.7-6.4-2.4
		C102.9,54.9,97.4,52.3,92.9,47.9z"/>
	<path d="M71.6,204.2c0-4.5,0-8.7,0-13.2c8.1,0,16.2,0,24.4,0c0,4.3,0,8.6,0,13.2C88,204.2,80.1,204.2,71.6,204.2z"/>
	<path d="M72.6,163.4c0-4.1,0-7.9,0-12c7.5,0,14.9,0,22.6,0c0,4,0,7.9,0,12C87.7,163.4,80.4,163.4,72.6,163.4z"/>
</g>
</svg>
