<?xml version="1.0" encoding="utf-8"?>
<!-- Generator: Adobe Illustrator 24.0.0, SVG Export Plug-In . SVG Version: 6.00 Build 0)  -->
<svg version="1.1" id="Capa_1" xmlns="http://www.w3.org/2000/svg" xmlns:xlink="http://www.w3.org/1999/xlink" x="0px" y="0px"
	 viewBox="0 0 22.3 22.3" style="enable-background:new 0 0 22.3 22.3;" xml:space="preserve">
<g>
	<path d="M6.2,4.1c0,1.2-0.9,2.2-2.3,2.2l0,0c-1.5,0-2.3-1-2.3-2.2C1.5,2.9,2.5,2,3.9,2S6.1,2.9,6.2,4.1z M1.8,20.3h4.1V7.9H1.8
		V20.3z M16,7.7c-2.2,0-3.2,1.2-3.7,2.1l0,0l0,0l0,0V8H8.2c0.1,1.1,0,12.4,0,12.4h4.1v-6.9c0-0.3,0-0.8,0.2-1
		c0.3-0.8,0.9-1.5,2.1-1.5c1.5,0,2.1,1.1,2.1,2.8v6.6h4.1v-7.1C20.8,9.4,18.7,7.7,16,7.7z"/>
</g>
</svg>
