<?xml version="1.0" encoding="utf-8"?>
<!-- Generator: Adobe Illustrator 24.0.0, SVG Export Plug-In . SVG Version: 6.00 Build 0)  -->
<svg version="1.1" id="Layer_1" xmlns="http://www.w3.org/2000/svg" xmlns:xlink="http://www.w3.org/1999/xlink" x="0px" y="0px"
	 viewBox="0 0 415.9 612" style="enable-background:new 0 0 415.9 612;" xml:space="preserve">
<g>
	<path d="M209.1,608.5c-9.9-15-19.6-29.3-28.9-43.8c-43.5-67.3-84.7-136.1-120.4-207.9c-17.7-35.5-33.6-71.7-44.1-110.2
		c-9.8-35.9-7.6-71.2,4.2-106c16.5-48.6,47.4-85.7,92-110.8C150.7,7.9,192.5,0.2,236.9,6.3c35.3,4.9,66.9,18.2,94.9,40.1
		c37.1,29,61.1,66.5,72.3,112.2c8.5,34.5,6,68.5-4.9,102.1c-10.4,32-23.6,62.8-38.5,92.9c-43.6,87.8-94.9,171-149.3,252.4
		C210.8,606.6,210.3,607.1,209.1,608.5z M312.9,202.8c0-57.1-46.4-103.3-103.6-103.3c-57.2,0-103.7,46.4-103.6,103.4
		c0.1,57,46.8,103.6,103.6,103.6C266.2,306.4,312.9,259.6,312.9,202.8z"/>
</g>
</svg>
