<?xml version="1.0" encoding="utf-8"?>
<!-- Generator: Adobe Illustrator 24.0.0, SVG Export Plug-In . SVG Version: 6.00 Build 0)  -->
<svg version="1.1" id="Layer_1" xmlns="http://www.w3.org/2000/svg" xmlns:xlink="http://www.w3.org/1999/xlink" x="0px" y="0px"
	 viewBox="0 0 302.6 302.3" style="enable-background:new 0 0 302.6 302.3;" xml:space="preserve">
<style type="text/css">
	.st0{fill:#003F7E;}
	.st1{fill:#F3901F;}
</style>
<g>
	<path class="st0" d="M154.3,129.7c0.1-0.4,0.1-0.8,0.1-1.1c0-14.2,0-28.3,0-42.5c0-6.2-0.6-12.4-2.2-18.4
		c-1.7-6.4-5.6-10.5-12.2-11.7c-3.6-0.7-7.1-1.3-10.9-2c0-1.4,0-3.1,0-4.8c20.9,0,41.8,0,62.6,0c0,1.6,0,3.3,0,4.8
		c-3.4,0.7-6.7,1.2-9.9,2c-3.1,0.7-6.1,2-8.7,3.9c-2.8,2.1-4.1,5.1-5,8.4c-1.6,6.1-1.9,12.4-1.9,18.7c0,15.5,0,31,0,46.6
		c0,1,0.3,1.3,1.3,1.6c4.8,1.2,9.6,2.6,14.5,3.7c3.3,0.8,7.1-1.3,8.4-4.5c0.4-1,0.9-1.3,1.8-1.2c0.6,0.1,1.2,0,2,0
		c0.5,12.7,1,25.3,1.6,38.3c0.3-0.6,0.4-0.9,0.5-1.2c9.4-20.9,25.1-33.4,48-36.5c10.9-1.5,21.6-0.2,32.1,3c2.7,0.8,5.4,1.5,8.1,2.1
		c3.4,0.7,7.1-1.3,8.4-4.5c0.4-1,0.9-1.3,1.8-1.2c0.6,0.1,1.3,0,2,0c0.6,13.5,1.1,26.9,1.7,40.4c-1.4,0-2.8,0-4.1,0
		c-1.2-3.1-2.3-6.2-3.6-9.2c-3.2-7.2-7.7-13.4-14.3-17.8c-7.2-4.8-15.2-6.5-23.6-5.9c-17.7,1.1-28.7,11.3-35.4,26.9
		c-3,6.9-4.2,14.1-4.7,21.6c-0.6,8.6-0.4,17.2,1.8,25.6c3.4,13.1,10.6,23.5,22.7,30.1c6.8,3.7,14.3,4.9,22,4.6
		c13.2-0.5,24.3-5.8,34.1-14.4c1.3-1.2,2.7-2.4,4-3.6c1.1,1.1,2.1,2.3,3.4,3.6c-1.9,2-3.9,4.3-6.2,6.4c-10.2,9.2-22,15-35.9,16.1
		c-14.6,1.1-28.6-1.1-41-9.4c-13.3-8.9-21.5-21.4-24.7-37.1c-2.5-12.3-1.9-24.6,1.9-36.6c0.1-0.2,0.1-0.4,0.1-0.6
		c-0.2,0-0.4,0-0.5,0c-2.8-0.1-2.8-0.1-3.6-2.7c-2.4-7-5.5-13.5-10.6-19c-3.7-3.9-8-7-13.1-8.9c-0.3-0.1-0.5-0.2-0.9-0.3
		c0,12.6,0,25.1,0,37.9c-36-43.8-71.8-87.4-107.6-131.1c0.5,0,0.8-0.1,1.2-0.1c9.6,0,19.1,0,28.7,0c0.8,0,1.3,0.3,1.8,0.9
		c18.9,23.4,37.7,46.8,56.6,70.2C149.4,123.6,151.9,126.7,154.3,129.7h0.1c0,0,0,0,0-0.1C154.4,129.7,154.4,129.7,154.3,129.7z"/>
	<path class="st1" d="M6.5,49.5c15,0,30.1,0,45.1,0c37.8,46.5,75.6,93,113.5,139.5c0.8,0.9,1.1,1.8,1.1,3c0,10.7,0,21.4,0,32
		c0,0.4,0,0.8,0,1.5c-0.4-0.5-0.7-0.7-0.9-1c-16.2-19.4-32.3-38.9-48.5-58.3c-0.3-0.3-0.6-0.6-0.9-1c-3.6-4.3-7.1-8.6-10.7-12.9
		c-4.2-5-8.3-10-12.5-15.1C76.8,118,60.8,98.9,44.9,79.7c-0.3-0.3-0.5-0.6-0.9-1c0,0.5-0.1,0.8-0.1,1c0,36,0,72.1,0,108.1
		c0,5.9,0.6,11.7,1.9,17.5c1.6,7.3,5.8,11.8,13.3,13.2c3.1,0.6,6.3,1.2,9.5,1.8c0,1.5,0,3.1,0,4.7c-20.7,0-41.3,0-62.1,0
		c0-1.6,0-3.1,0-4.8c2.1-0.3,4.2-0.5,6.2-1c2.8-0.6,5.5-1.3,8.2-2.2c5.1-1.7,8.1-5.3,9.3-10.6c1.1-4.9,1.6-9.9,1.7-15
		c0.1-2.2,0.1-4.3,0.1-6.5c0-38.2,0-76.5,0-114.7c0-0.9-0.2-1.6-0.8-2.3c-2.1-2.3-4.2-4.7-6.3-7.1c-3.6-4-8.2-5.9-13.4-6.3
		c-1.7-0.1-3.3-0.3-5.1-0.4C6.5,52.7,6.5,51.1,6.5,49.5z"/>
	<path class="st0" d="M105.2,152.4c3.6,4.3,7.1,8.6,10.7,12.9c-2.5,5.3-4,10.9-4.9,16.7c-1.4,9.5-1.6,19,0.2,28.5
		c2.3,12.4,7.9,22.8,17.9,30.6c6.9,5.3,14.8,7.9,23.5,8.1c13,0.4,24.6-3.5,34.8-11.6c2.6-2,5-4.2,7.5-6.4c1,1.1,2.1,2.2,3.4,3.6
		c-2.5,2.5-4.9,5.2-7.6,7.5c-9.9,8.6-21.4,14-34.6,15c-14.2,1.1-27.8-1-40-8.8c-13.1-8.3-21.5-20.2-25.1-35.3
		c-3.5-14.8-2.8-29.4,3.1-43.6C96.7,163.3,100.5,157.6,105.2,152.4z"/>
</g>
</svg>
