<?xml version="1.0" encoding="utf-8"?>
<!-- Generator: Adobe Illustrator 24.0.0, SVG Export Plug-In . SVG Version: 6.00 Build 0)  -->
<svg version="1.1" id="Layer_1" xmlns="http://www.w3.org/2000/svg" xmlns:xlink="http://www.w3.org/1999/xlink" x="0px" y="0px"
	 viewBox="0 0 360.7 356.2" style="enable-background:new 0 0 360.7 356.2;" xml:space="preserve">
<style type="text/css">
	.st0{fill:#FFFFFF;}
	.st1{fill:none;stroke:#000000;stroke-width:2;stroke-linecap:round;stroke-linejoin:round;stroke-miterlimit:10;}
</style>
<g>
	<path class="st0" d="M342.7,222.3c0.1,0.2,0.1,0.5,0.2,0.7C342.8,222.8,342.7,222.6,342.7,222.3
		C342.7,222.4,342.7,222.3,342.7,222.3z"/>
	<path d="M302.3,178.2c-0.2,67.3-53.7,122.8-122.9,122.6c-69.9-0.2-121.2-55.3-122.4-120.5c-1.3-69.8,55-125.5,123.6-125
		C246.4,55.6,302.3,109.4,302.3,178.2z M102,101.6c0.3-0.4,0.6-0.8,1-1.2c-0.4,1.7-1.1,3.5-1.1,5.2c0,0.9,1.2,1.9,1.8,2.8
		c0.6-0.9,1.4-1.7,1.6-2.6c0.6-3.1,1-6.2,1.4-9.3c0.4-0.4,0.7-0.7,1.1-1.1c3.4-0.3,5.1-2.3,5.6-5.5c0.1,0,0.1,0.1,0.2,0.1
		c0-0.1,0-0.2,0-0.3c-2.1,1.7-6.9,0.8-5.6,5.8c-0.4,0.4-0.7,0.8-1.1,1.2c-3,0.2-6,0.5-9.1,0.8c-1.4,0.1-2.8,0.3-4.1,0.4
		c0.1,0.6,0,1.8,0.2,1.8c1.5,0.3,3.1,0.4,4.6,0.5c1.5,0.1,3,0.2,4.5,0.4C102.6,100.8,102.3,101.2,102,101.6
		c-0.4,0.4-0.8,0.8-1.2,1.1c-4.9-1.9-4.6,3.2-6.8,5c-3.1,1.2-6.3,2.4-9.4,3.6c-0.8,0.3-1.5,1-2.3,1.6c1,0.5,2.1,1.7,2.9,1.5
		c1.7-0.4,3.3-1.5,4.9-2.1c0.4-0.2,1.1,0.3,1.7,0.4c-0.4,0.5-0.7,1-1.1,1.6c-0.6,0.1-1.2,0.2-1.9,0.2c-2.4,2.5-5.2,4.9-4,9
		c-3.8,1.2-7.5,2.4-11.2,3.7c-0.3,0.1-0.6,1.5-0.3,2c0.4,0.6,1.6,1.5,2.1,1.3c1.5-0.6,2.8-1.8,4.3-2.4c0.5-0.2,1.4,0.8,2.2,1.2
		c-0.7,0-1.3,0.1-2,0.1c-0.9,1.5-2.4,2.9-2.5,4.5c-0.3,4.9-3.6,7.1-7.2,9.3c-1.3,0.8-2.5,1.7-3.7,2.5c0.5,0.7,1.2,2,1.4,1.9
		c1.5-0.6,2.9-1.3,4.3-2.2c0.5-0.3,0.7-1.1,1.2-1.5c1.5-1.2,2.9-1.9,3,1.1c0,0.8,0.3,1.6,0.7,2.3c0.7,1.2,1.5,2.3,2.4,3.3
		c0.1,0.1,1.5-0.8,1.5-1c-0.3-1.1-0.8-2.2-1.4-3.3c-1.9-3.9-4.2-7.6,0.1-11.6c0.9-0.8,0.1-3.5,0.1-5.4c0.6,0,1.3-0.1,1.9-0.1
		c0.5,1,0.9,2,1.5,2.9c0.7,1.1,1.7,2.1,2.5,3.1c0.1-1.3,0.4-2.6,0.3-3.9c-0.3-2.7-0.8-5.3-1.3-8c1.2-3.1,6.3-4.4,4-9
		c0.6-0.1,1.2-0.2,1.8-0.3c0.4,1.8,0.6,3.6,1.2,5.3c0.3,0.7,1.4,1.2,2.2,1.5c0.2,0.1,1.2-1,1.2-1.5c-0.4-4-0.9-8-1.4-11.9
		c4.2,0.9,5.1-2.7,6.9-5C101.2,102.3,101.6,102,102,101.6z M258.6,255.1c0.4-0.2,0.9-0.4,1.3-0.7c2.6-2,5.9-3.6,5.1-7.9
		c3.2-0.8,6.3-1.7,9.5-2.5c1-0.3,2.2-0.4,3.1-0.9c0.2-0.1-0.2-2.2-0.5-2.2c-1.2-0.1-2.7-0.3-3.7,0.3c-4.4,2.8-6.1,1.9-5-3.3
		c0.1-0.3,0.1-0.8-0.1-1c-0.8-0.9-1.6-1.8-2.5-2.7c-0.3,1-0.9,2.1-0.9,3.1c-0.1,3.1,0.1,6.2,0.2,9.3c-2.3,2.2-6.9,2.8-5.2,7.7
		c-0.4,0.3-0.8,0.5-1.2,0.8c-0.5,0-1-0.1-1.5-0.1c0.2-2.1,0.5-4.3,0.5-6.4c0-0.6-1.2-1.1-1.9-1.6c-0.5,0.6-1.4,1.2-1.4,1.8
		c-0.3,3.9-0.4,7.8-0.6,11.7c-5-1.6-6.2,2.7-8.5,5.4c-0.4,0.1-0.7,0.1-1.1,0.2c0.3-1.1,0.8-2.2,0.9-3.3c0.1-1.4,0-2.8-0.3-4.2
		c0-0.2-1.2-0.3-1.8-0.4c-0.2,1.2-0.3,2.5-0.8,3.6c-1.3,2.9-2.4,6.1-4.4,8.5c-1.7,2-4.5,2.9-6.8,4.4c-0.1,0.2-0.1,0.3-0.1,0.5
		c0,0.1,0.1,0.1,0.1,0.2c0-0.3,0-0.6-0.1-0.8c2-0.3,4.9,0.2,6-1c3.7-4.2,8.1-3.8,12.8-3.1c0.9,0.1,1.9-0.6,2.9-1
		c-0.9-0.8-1.6-2-2.6-2.2c-1.9-0.4-3.9-0.2-5.8-0.3c0.3-0.4,0.6-0.8,0.9-1.2c2.9-1.7,5.8-3.5,8.6-5.2c3.4-0.7,6.8-1.3,10.1-2.1
		c0.9-0.2,1.6-1.1,2.4-1.6c-0.7-0.6-1.5-1.6-2.2-1.6c-1.9,0.1-3.8,0.6-5.7,1c0-0.1-0.1-0.3-0.1-0.4
		C258.3,255.5,258.4,255.3,258.6,255.1z M266.9,112.7c-0.4-0.3-0.7-0.7-1.1-1c1.5-4.1-0.9-5.7-3.9-7.1c-0.4,0.3-0.7,0.5-1.1,0.8
		c1.7,2.1,3.3,4.2,5,6.3C266.2,111.9,266.6,112.3,266.9,112.7c0.4,0,0.5,0.2,0.5,0.6c-1.3-0.3-2.5-0.8-3.8-1
		c-1.2-0.2-2.4-0.1-3.6,0.1c-0.3,0.1-0.5,1.7-0.5,1.7c1.1,0.4,2.2,0.9,3.3,1c4.5,0.5,8.9,0.7,9.6,6.9c0.1,1.5,2.2,2.7,3.4,4.1
		c0.2-2.4,0-4.8-1.2-5.9c-4-3.6-3.5-7.8-3-12.3c0.1-1-0.1-2.1-0.1-3.2c-0.6,0-1.6-0.2-1.9,0.2c-0.6,0.9-1.1,1.9-1.2,3
		c-0.2,1.8-0.1,3.6-0.2,5.4C267.9,113,267.4,112.9,266.9,112.7z M256.7,98.7c-0.1,0.5-0.2,1-0.3,1.5c-1.8-0.2-3.6-0.8-5.4-0.6
		c-0.9,0.1-1.8,1.2-2.7,1.9c0.8,0.5,1.5,1.5,2.3,1.5c2.9,0.3,5.9,0.2,8.8,0.3c-0.1-2.7-0.1-5.4-0.1-8.2c0-0.7,0.5-1.4,0.3-1.9
		c-0.3-0.8-0.9-1.4-1.4-2.1c-0.6,0.7-1.8,1.5-1.8,2.2c0.1,2,0.6,3.9,1,5.8c-0.4,0.1-0.6-0.1-0.8-0.4c-0.4-0.3-0.7-0.7-1.1-1
		c-1.7-3-3.3-6.2-7.6-5.2c-0.9-3.9-1.7-7.8-2.6-11.7c-0.1-0.4-1.4-1-1.6-0.8c-0.6,0.6-1.6,1.6-1.4,2.2c0.5,2,1.5,3.9,2.3,5.9
		c-0.3,0.4-0.7,0.7-1,1.1c-1.6,0.1-3.3,0-4.9,0.2c-1,0.2-2.1,0.6-3,1.2c-0.2,0.1,0.1,1.6,0.4,1.7c1,0.2,2,0.2,3,0.2c3,0,6,0,9-0.1
		c2.5,1.8,2.9,6.6,7.6,5.3C255.9,98,256.3,98.4,256.7,98.7z M274.3,234c-1.5,1.9-2.9,3.7-4.4,5.6c-0.1,0.4-0.2,0.8-0.2,1.3
		c0.1,0,0.3,0,0.4,0c-0.1-0.4-0.2-0.9-0.3-1.3c3.9,0.2,4.7-2.1,4.7-5.3c0.4-0.2,0.9-0.4,1.3-0.6c2.8-1.8,5.7-3.4,8.5-5.3
		c0.8-0.6,1.4-1.6,2-2.4c-1.1-0.2-2.2-0.5-3.3-0.5c-0.6,0-1.1,0.6-1.7,1c-2.9,2.2-4.3,1.2-4.7-2.1c-0.1-0.8,0-1.8-0.4-2.4
		c-0.6-0.7-1.6-1.1-2.4-1.7c-0.3,0.9-0.9,1.8-0.7,2.6c0.8,3.6,1.8,7.2,2.8,10.8C275.3,233.7,274.8,233.9,274.3,234z M126.7,80.4
		c-2.3,1.4-4.5,2.8-6.8,4.1c-3.5,0.2-7,0.2-10.5,0.5c-0.8,0.1-1.5,0.7-2.3,1.1c0.6,0.7,1.3,2.2,1.7,2.1c6.2-1.2,8.5,0.5,5.6,6.8
		c-0.2,0.5,0.7,1.4,1.1,2.1c0.7-0.5,1.8-0.8,1.9-1.4c1-3.8,1.7-7.6,2.5-11.3C123.7,85.7,126.7,85.6,126.7,80.4
		c0.4,0.2,0.8,0.4,1.3,0.5c0.1,0,0.2-0.1,0.3-0.2C127.7,80.6,127.2,80.5,126.7,80.4z M241.5,86.9c0,0.2,0.1,0.4,0.1,0.7
		c0-0.1,0.1-0.2,0.1-0.3c-0.1-0.1-0.2-0.2-0.3-0.3c-1.9-1.8-3.8-3.5-5.7-5.3c-0.3,0.3-0.6,0.7-0.9,1C235.9,85.9,237.7,88,241.5,86.9
		z M109.4,263c0.2,0.5,0.4,1,0.6,1.6c1.1,3,2.3,6,3.5,9c0.3,0.8,1,1.5,1.5,2.3c0.5-1,1.8-2.4,1.5-2.9c-3.7-6.1-0.9-7.3,4.8-6.7
		c0.6,0.1,1.5-0.3,1.7-0.8c0.3-0.7,0.2-1.6-0.1-2.3c-0.1-0.3-1-0.7-1.4-0.6c-3.8,0.6-7.6,1.3-11.4,2c-0.2-0.5-0.4-1-0.7-1.5
		c0.8-4.4-3.5-4.4-5.4-6.4c-0.3-0.4-0.7-0.9-1-1.3c1.7,0.2,3.5,0.7,5.2,0.5c0.8-0.1,1.6-1.3,2.3-2c-0.9-0.5-1.7-1.2-2.7-1.3
		c-3.4-0.7-6.7-1.1-10.1-1.7c-0.6-2.9-1.7-5.5-5.2-5.7c-0.2-0.2-0.4-0.3-0.6-0.5c0.2,0.1,0.5,0.2,0.7,0.4c-0.1,3.6,1.2,5.9,5.3,5.7
		c0.5,3.7,0.9,7.4,1.5,11.1c0.1,0.9,0.7,1.7,1.1,2.6c0.7-0.8,1.9-1.6,2-2.5c0.2-2.2-0.1-4.5-0.3-6.7l0,0.1c0.3,0,0.6,0.1,0.8,0.2
		c0.4,0.4,0.8,0.8,1.2,1.2C103.6,260.6,105.6,262.5,109.4,263z M172.9,287.7c-3.6-0.5-7.2-1-10.8-1.6c1.3-0.7,2.7-1.3,3.9-2.1
		c1-0.7,2-1.6,2.8-2.6c0.1-0.1-1.2-1.8-1.4-1.7c-1.1,0.4-2,1.3-3.1,1.9c-2.6,1.2-5.2,3.3-7.9,3.3c-3,0-6-1.7-9.5-2.9
		c1.5-0.7,2.9-1.1,3.9-1.9c0.8-0.6,1.1-1.8,1.6-2.7c-1-0.1-2.1-0.4-3-0.1c-2.9,1-5.8,2.2-8.6,3.4c-3.3-3-7.3-4.1-11.6-4.6
		c1.8-0.5,3.8-0.7,5.4-1.6c1.1-0.6,1.7-2,2.5-3c-1.2,0.1-2.5-0.2-3.5,0.2c-3.4,1.2-6.5,3.1-10.1,0.2c-2.1-1.6-4.6-2.7-6.9-3.9
		l-0.2-0.1l0.4,0c1,1.4,1.7,3.8,2.9,4.1c6.2,1.4,8.2,5.8,9.5,11.2c0.1,0.6,1.2,1,1.9,1.5c0.4-0.9,1.4-2.1,1.2-2.7
		c-0.7-1.8-1.9-3.4-3-5c1.2,0.4,2.9,0.4,3.5,1.3c2.2,3.1,5,3.1,8.1,2.3c1.8,3,3.5,6.1,5.3,9c0.4,0.6,1.3,1,1.9,1.5
		c0.3-1,1.1-2.2,0.8-3c-0.5-1.5-1.7-2.8-2.5-4.1l-0.1,0.1c2.1,0.7,4.2,2.2,6.1,2c5.6-0.6,8.3,2.7,11.2,6.5c0.7,0.9,1.9,1.3,2.9,1.9
		c-0.2-1.2-0.2-2.5-0.8-3.6c-1-1.7-2.3-3.2-3.5-4.8C165.7,287.2,168.7,291.4,172.9,287.7c0.7,0,1.4-0.1,2.1-0.1
		c2.5,2.4,4.9,4.8,7.4,7c0.5,0.5,1.5,0.4,2.3,0.5c0-1,0.4-2.4-0.1-2.9c-1.1-1.2-2.6-2-4-2.9c2.4-0.4,4.9,0.8,6.4,0.1
		c5.6-2.6,9.4-0.2,13.4,3.2c0.6,0.5,1.7,0.2,2.6,0.3c-0.2-1-0.2-2.6-0.8-3c-1.9-1.2-4.1-1.9-6.1-2.8c1-0.4,2-0.9,3-1.3
		c1.6,0.5,3.7,1.9,4.6,1.3c5.3-3.4,10-2.2,14.7,1.1c0.4,0.3,1.5-0.3,2.2-0.5c-0.2-0.9-0.2-2.3-0.7-2.6c-1.3-0.7-3-0.5-4.2-1.2
		c-0.9-0.6-1.6-2.1-1.5-3.1c0.1-1,1.4-1.8,1.9-2.8c0.4-0.9,0.5-2,0.5-3.1c0-0.3-1.4-1-1.6-0.8c-0.7,0.7-1.3,1.6-1.7,2.5
		c-1.6,3.3-2.2,7.3-7.3,7.5c-2.3,0.1-4.5,1.2-6.8,1.8c-1,0-2.1,0.1-3.1,0.1c1.6-1.5,3.3-2.8,4.6-4.5c0.4-0.5-0.3-1.9-0.5-2.9
		c-0.8,0.4-1.7,0.7-2.3,1.3c-2.1,2.2-3.7,5.7-6.2,6.6c-3.9,1.3-8.5,0.8-12.7,1.1c1.8-1.4,3.7-2.6,5.4-4.2c0.4-0.4-0.1-1.8-0.2-2.8
		c-0.8,0.2-1.7,0.3-2.3,0.8c-2.4,2-4.6,4.1-6.9,6.2C174.3,287.6,173.6,287.7,172.9,287.7z M82.2,229.3c0-0.8,0.1-1.6,0.1-2.4
		c1.5,1,2.9,2.3,4.6,2.8c0.9,0.3,2.2-0.8,3.3-1.3c-0.8-0.7-1.5-1.6-2.4-2.1c-3.1-1.8-6.4-3.5-9.6-5.3c2.9-3.9-2.6-5.6-2.4-8.8
		c0-0.3,0.1-0.5,0.1-0.8c0.1,0.1,0.3,0.2,0.4,0.3c0.6,0.5,1.2,1.1,1.9,1.6c0.5,0.4,1,1.1,1.6,1.1c1.1,0.1,2.2-0.2,3.3-0.4
		c-0.6-0.8-1.1-2-2-2.5c-3.3-1.7-7.3-2.4-7.9-7.2c-0.3-2.3-1-4.6-1.4-6.9c-0.2-1.4-0.3-2.8-0.4-4.1c0,0-0.2-0.1-0.2-0.1
		c1.4,1.8,2.8,3.7,4.4,5.3c0.5,0.5,1.8,0.2,2.8,0.2c-0.3-1-0.3-2.3-1-3c-1.1-1-2.9-1.2-3.8-2.3c-1.4-1.8-2.7-3.9-3.2-6.1
		c-0.5-2.4-0.1-5-0.1-7.4c-0.4,0-0.9-0.1-1.3-0.1c-0.3,2-0.6,3.9-0.8,5.9c-0.4,3.1-0.4,6.3-1.1,9.3c-0.4,2.1-1.6,4-2.5,5.9
		c1.9-1.4,3.7-2.8,5.7-4.3c0,1.6-0.8,4.1,0.1,5.6c3.1,4.8,1.1,8.8-0.8,13.1c-0.4,1-0.2,2.2-0.2,3.4c1.1-0.7,2.4-1.2,3.1-2.2
		c1.1-1.3,1.9-3,2.8-4.5c-0.3,3.2-2,6.9,2.5,8.7c-0.4,3.9-0.9,7.7-1.2,11.6c-0.1,1,0.5,2,0.7,2.9c0.8-0.7,2.1-1.2,2.3-2.1
		c0.6-2.1,0.8-4.4,1.1-6.5c0.3,0.8,0.6,1.5,1,2.3c-0.2,4,1.6,6.9,5.1,8.9c-0.3,3.6-0.6,7.2-0.8,10.7c0,0.7,0.7,1.4,1,2.2
		c0.9-0.5,1.9-0.9,2.5-1.6c0.4-0.5,0.3-1.7,0.1-2.4c-1.8-5.5,0.7-5.5,4.7-3.7c0.7,0.3,1.8,0.9,2.3,0.7c0.8-0.4,1.4-1.5,2.1-2.2
		c-0.7-0.4-1.3-1.1-2-1.3c-3.3-0.8-6.7-1.5-10-2.2C87.5,234.2,85.8,231.2,82.2,229.3z M130.5,79.6c0,0,0.1-0.1,0.1-0.1
		c-0.9,2.3-1.9,4.5-2.7,6.9c-0.2,0.5,0.6,1.8,1.1,1.9c0.7,0.2,2-0.3,2.2-0.8c1.3-3.6,2.4-7.2,3.6-10.8c3.9,1.6,7,0.3,8.9-4
		c-2.9,1.3-5.9,2.7-8.8,4c-3.2-0.4-6.3-1-9.5-1.3c-1-0.1-2,0.4-3,0.6c0.8,0.8,1.4,2.1,2.4,2.4C126.6,79.1,128.6,79.2,130.5,79.6z
		 M227.3,79.3c-1.7-2.9-4.1-4.6-7.6-4.5c-2.4-2.8-4.8-5.6-7.3-8.3c-0.6-0.6-1.5-1-2.3-1.5c-0.2,1-1,2.3-0.6,2.9
		c1.1,1.8,2.6,3.3,4.3,5.2c-2.1,0.9-4.5,1.7-6.6,2.8c-0.7,0.4-0.8,1.7-1.1,2.6c0.9,0.1,1.9,0.6,2.7,0.3c3.7-1.3,7.3-2.8,10.9-4.2
		c0.5,5.1,4.8,3.5,7.7,4.4c-1.6,0.8-3.3,1.5-4.9,2.5c-0.6,0.4-1.3,1.5-1.1,2.1c0.1,0.5,1.4,1.4,1.9,1.2c3.4-1.1,6.6-2.4,9.6-3.5
		c-1.2-2.9-2.3-5.8-3.6-8.6c-0.3-0.7-1.2-1.2-1.9-1.8c-0.4,1-1.4,2.3-1.1,3c0.9,1.7,2.3,3,3.6,4.5l0.1,0
		C229.1,78.9,228.2,79.1,227.3,79.3z M286.7,200.6c3-2.6,6.1-5.1,9-7.8c0.4-0.4,0-1.7,0-2.6c-1,0.2-2.5,0-2.9,0.6
		c-3.6,6.1-6,4.8-8-1.1c-0.2-0.6-1.9-0.6-2.9-0.9c0.2,1,0.2,2.1,0.5,2.9C283.9,194.9,285.3,197.7,286.7,200.6
		c-0.9,2.7-1.7,5.4-2.6,8.1C288.1,206.7,288.9,203.9,286.7,200.6z M288.4,161.2l0.1,0.1c-1.6-1.4-3.1-2.9-4.8-4.2
		c-0.7-0.6-1.6-1.1-2.4-1.1c-0.5,0-1.4,1.4-1.2,1.8c0.3,0.8,1.2,1.5,2,1.9c4.1,2.4,8.4,4.5,5.7,10.7c-0.4,0.9,0.9,2.6,1.8,5
		c0.8-2.6,1.9-4.2,1.4-5.1c-2.6-5.4-0.4-9.5,3-13.5c0.5-0.5,0.1-1.7,0.2-2.6c-1,0.3-2.4,0.2-2.8,0.9
		C290.1,157,289.3,159.1,288.4,161.2z M284.3,144.3c-0.5-2.7-0.1-6.1-1.6-8c-3.6-4.5-2.5-8.8-1.1-13.5c0.3-0.9-0.4-2-0.6-3
		c-0.8,0.6-2.3,1.3-2.3,1.8c0.3,6.6-1.8,8.1-7.3,4c-0.4-0.3-1.8,0.7-2.7,1.2c0.7,0.8,1.3,1.9,2.2,2.3c2.6,1.2,6.4,1.5,7.8,3.5
		c2.3,3.4,3.2,7.8,4.6,11.8c-1.1-1-2.2-2.1-3.4-2.8c-1-0.6-2.3-0.8-3.6-0.9c-0.3,0-1,1.5-0.9,1.5c0.9,0.7,1.9,1.5,2.9,1.9
		c4.2,1.8,8.2,3.6,7.1,9.6c-0.3,1.4,1.3,3.1,2.7,5.9c0-3.2,0.7-5.4-0.1-6.7c-2.8-4.9-1.4-9.1,1.2-13.4c0.4-0.6,0-1.8,0-2.7
		c-1,0.4-2.5,0.5-2.8,1.2C285.4,139.9,285,142.1,284.3,144.3z M195.7,67.8c-1.5-0.1-3-0.3-4.5-0.3c-1.8-0.1-3.6,0-5.5,0
		c0,0.6,0,1.2,0,1.8c3.1,0.3,6.1,0.6,9.9,1c-1.7,0.9-3,1.1-3.6,1.9c-0.8,1-1.1,2.4-1.7,3.7c1.1-0.5,2.3-0.9,3.4-1.5
		c3.6-2.2,6.8-6.1,11.6-1.8c1.1,0.9,3.4,0.5,5.1,0.6c-1.4-1.7-3-3.5-4.6-3.5c-5.6,0.1-8.9-2.6-11.5-7.1c-0.3-0.6-1.9-0.4-2.9-0.6
		c0.1,0.9-0.2,2.1,0.3,2.7c1.1,1.2,2.5,2.1,3.8,3.1L195.7,67.8z M179.7,81.2c-51.8,0.6-95.1,40.2-96.7,94.1
		c-1.6,54,40.5,99.4,96.5,99.6c52.5,0.2,95-40.7,96.7-92.9C277.9,125.9,235.5,82.4,179.7,81.2z M176.3,68.5c0-0.4-0.1-0.7-0.1-1.1
		c-2-0.1-4.2-0.9-5.8-0.3c-4.6,1.9-7.9-0.3-11.3-2.7c-1-0.7-2.1-1.3-3.2-1.8c-0.1-0.1-1.3,1.7-1.2,1.9c0.7,1,1.7,1.8,2.7,2.5
		c0.7,0.5,1.5,0.9,2.3,0.9c3.4,0,0.9,2.2,1,3.1c0.1,0.8-1.8,1.5-2.2,2.5c-0.5,1.1-0.3,2.5-0.5,3.8c1-0.6,2.3-1,2.8-1.9
		c2.4-3.9,4.6-7.9,10.5-5.7C172.7,70.3,174.7,69,176.3,68.5z M287.7,192c0.5,0.1,1,0.3,1.5,0.4c0.5-1.7,1.7-3.4,1.4-4.9
		c-1.1-5.3,1.3-8.9,5-12.1c0.7-0.6,1.3-1.4,1.6-2.2c0.1-0.3-1.3-1.5-1.7-1.3c-0.9,0.2-1.8,1-2.4,1.7c-3.5,4.9-3.4,4.9-6.9,0.4
		c-0.7-0.9-1.9-1.5-3-1.8c-0.3-0.1-1.7,1.4-1.5,1.6c0.5,0.9,1.4,1.6,2.1,2.3c2.7,2.5,6.3,4.4,5,9.2C288.1,187.3,288,189.7,287.7,192
		z M71.9,162.1c-0.4,0-0.8,0-1.2,0.1c-0.7,1.6-2.4,3.5-2.1,4.9c1.9,6.4-1.3,10.2-5.9,13.7c-0.4,0.3-0.3,2,0,2.2
		c0.8,0.4,1.9,0.5,2.7,0.2c0.6-0.2,1.1-1.2,1.4-2c1.8-4.6,3.6-4.8,5.9-0.3c0.6,1.2,2.1,2,3.2,2.9c0.4-0.5,1.3-1.3,1.2-1.4
		c-0.7-1.3-1.8-2.4-2.5-3.7c-1.5-2.6-3.5-5.1-4-7.9C70.2,168,71.4,165,71.9,162.1z M74.9,146.8c-0.4-0.1-0.8-0.2-1.2-0.4
		c-0.7,1.6-2,3.3-1.9,4.9c0.2,4.8-2.5,7.6-6.1,10c-1,0.7-1.9,1.5-2.9,2.2c0.5,0.6,1.3,1.8,1.6,1.7c1.2-0.5,2.8-1,3.4-2.1
		c3-5,4.5-3.1,6,0.9c0.4,1.1,1.6,2,2.6,2.7c0.2,0.2,1.9-1.1,1.8-1.2c-0.5-1.1-1.2-2.2-2-3.2c-3.1-3.4-5.6-6.6-1.6-11.2
		C75.3,150.4,74.8,148.3,74.9,146.8z M147.6,72.9c-1.7,2-3.1,3.4-4.2,5.1c-0.5,0.8-0.6,2.1-0.5,3.1c0,0.3,1.5,1,1.6,0.8
		c0.7-0.7,1.4-1.6,1.8-2.6c1.4-4,2.8-7.8,8.5-6.9c1.2,0.2,2.6-1.2,4.8-2.3c-1.7-0.4-2.2-0.7-2.7-0.6c-5.6,0.9-11.3,2.4-16.2-2.1
		c-0.1-0.1-1.8,0.9-1.9,1.6c-0.1,0.6,0.7,1.8,1.4,2C142.4,71.7,144.6,72.1,147.6,72.9z M228.1,276.6c1.3-2,2.3-3.1,2.9-4.5
		c0.5-1.3,0.7-2.7,0.7-4.1c0-0.2-2-0.8-2.1-0.7c-0.5,1.1-1,2.3-1.3,3.5c-1,3.9-1.8,7.7-7.2,7.7c-1.6,0-3.3,1.6-4.9,2.5
		c1.9,0.9,4.1,1.4,4.9,0.5c4.4-4.4,9.1-2.5,13.8-1.1c0.7,0.2,1.7-0.5,2.6-0.7c-0.6-0.8-1-2.2-1.7-2.3
		C233.5,276.9,231.2,276.9,228.1,276.6z M283.2,216.2c2.2-1.4,4.9-3,7.4-4.6c0.9-0.5,1.7-1.2,2.3-1.9c0.1-0.1-0.7-1.4-1.1-1.4
		c-1,0-2.4,0.1-3,0.7c-3.6,4.3-5.8,3.9-6.8-1.8c-0.1-0.5-0.3-1.2-0.6-1.3c-0.9-0.4-1.9-0.5-2.8-0.7c0,0.9-0.4,1.9,0,2.6
		C280,210.6,281.7,213.4,283.2,216.2z M179.8,68.2c-2.2,1.7-4,2.9-5.4,4.4c-0.5,0.5-0.1,1.8-0.1,2.8c0.9-0.2,2-0.2,2.5-0.7
		c2.3-2.1,4.4-4.3,6.5-6.5c-2.3-2.1-4.5-4.3-7-6.3c-0.7-0.5-1.9-0.4-2.9-0.5c0.3,1,0.2,2.4,0.8,2.9
		C175.9,65.8,177.8,66.9,179.8,68.2z M277.9,224.9c0.6,0.3,1.2,0.6,1.7,0.9c1.1-2.4,2.3-4.8,3.4-7.2c-0.6-0.3-1.2-0.6-1.8-0.9
		C280.1,220.2,279,222.6,277.9,224.9z"/>
	<path d="M212.1,327.7c1.3-9.3,2.3-17.3,3.4-25.3c0.3-0.1,0.6-0.2,0.8-0.2c3.6,8.8,7.3,17.5,10.9,26.3c-0.5,0.2-1,0.5-1.5,0.7
		c-2.8-6.5-5.6-13-9-20.9c-1.2,8.7-2.3,16-3.5,24.6c-4.6-7.3-8.6-13.5-13.2-20.8c0,8.3,0,15.3,0,22.4c-0.4,0-0.9,0-1.3,0
		c0-9.3,0-18.7,0-28.3C203,313,207.2,319.8,212.1,327.7z"/>
	<path d="M261.8,287.9c1.7,7.2,3.4,14.5,5.4,22.8c-6.9-5.2-13-9.7-20.2-15.2c3.3,7.9,6,14.5,8.8,21.1c-0.5,0.2-1.1,0.4-1.6,0.6
		c-3.7-8.5-7.3-17-11-25.5c0.3-0.2,0.5-0.5,0.8-0.7c6.3,4.6,12.6,9.3,20,14.8c-2.1-8.9-3.9-16.5-5.4-23c6.1,5.9,12.8,12.3,19.5,18.8
		c0.1,0,0.1-0.1,0.2-0.1c-4.9-5-9.8-10-14.7-15C262.9,286.9,262.3,287.4,261.8,287.9z"/>
	<path d="M308.3,202.1c-0.1,1.1-0.2,2.2-0.2,3.3c0.1,1.9-0.3,5.3,0.4,5.6c4.5,1.5,8.3-0.6,9.3-4.3c0.6-2.1,1.2-4.1,1.8-6.2
		c0.5,0.1,1,0.3,1.5,0.4c-0.5,2.3-1.2,4.5-1.4,6.8c-0.1,0.7,1.1,2.2,1.7,2.2c2.8-0.1,5.7-0.2,8.3-1c1.3-0.3,2.5-1.9,3.1-3.2
		c0.9-2.1,1.3-4.5,2.2-8c2,8.2-0.8,12.8-7.3,13.3c-2.9,0.2-4.2,1.6-4.4,4.2c-0.2,2.8-3,6,1.3,8.3c2,1,3.7,2.5,5.1,4.7
		c-1-0.3-2-0.5-2.9-1c-6.2-3.8-12.2-7.9-18.5-11.6c-3.3-1.9-4.9-4-3.2-7.9c0.8-1.8,1.1-3.9,1.6-5.9
		C307.3,201.9,307.8,202,308.3,202.1z M320.2,220.6c0.4-3,0.7-5.6,1-8.1c-2.3,0.1-4.5,0.1-6.8,0.3c-1.3,0.1-2.6,0.5-4.3,0.9
		c0.8,0.8,1.1,1.1,1.5,1.4C314.2,216.8,316.9,218.4,320.2,220.6z"/>
	<path d="M52.4,203.6c-6.5,4.5-12.9,9-20.5,14.3c9.2,0.8,17.2,1.5,26.7,2.4c-9.7,4.6-18.2,8.7-26.7,12.8c-0.2-0.5-0.5-0.9-0.7-1.4
		c6.2-3.1,12.3-6.2,18.5-9.2c0-0.3,0-0.6,0-1c-7.2-0.7-14.5-1.3-23.1-2.1c7.1-5,13.1-9.1,20.4-14.2c-8.4,0.5-15.3,0.9-22.2,1.3
		c0-0.5-0.1-1-0.1-1.4c9.1-0.8,18.1-1.6,27.2-2.4C52,202.9,52.2,203.3,52.4,203.6z"/>
	<path d="M65.6,265.7c1.8,2.2,3.8,4.4,5.3,6.8c0.4,0.6-0.6,2.7-1.5,3.3c-4.5,3-9.2,2.7-13.8-0.8c-3.9-3-5.1-7.2-4.2-11.9
		c1.4-7,8.1-12.6,15.3-12.7c5.7-0.1,11.2,3.8,12.3,9.6c0.5,2.6-0.3,5.3-0.5,8c-0.5,0-1-0.1-1.6-0.1c-0.1-0.7-0.3-1.5-0.2-2.1
		c1.2-7.8-1.7-12-9-13c-6.4-0.9-13.7,4.7-14.3,10.9c-0.7,7.6,4.6,13.2,11.4,11.9c3.2-0.6,5.2-1.6,2.2-5c-1-1.2-1.7-2.6-2.6-3.9
		C64.8,266.4,65.2,266.1,65.6,265.7z"/>
	<path d="M327.4,123.9c-8.4,3.8-16.9,7.6-25.3,11.4c-0.3-0.2-0.6-0.5-0.9-0.7c4.3-8.9,8.7-17.8,13.4-27.7c-8,3.4-14.8,6.4-21.6,9.3
		c-0.2-0.5-0.4-1-0.6-1.5c8.4-3.8,16.8-7.6,26.4-12c-4.8,10-9.1,18.9-13.9,29c8-3.4,14.9-6.4,21.8-9.4
		C326.9,122.9,327.1,123.4,327.4,123.9z"/>
	<path d="M245.2,59.7c0.4-8.4,7.4-15.2,15.4-14.9c6.4,0.2,11.8,6.2,11.7,13c-0.2,8.3-7.6,15.7-15.7,15.4
		C249.8,72.9,244.8,67,245.2,59.7z M247.3,59.9c0,6.8,3.7,11.1,9.8,11.2c6.6,0.1,13.2-6.8,13.2-13.7c0-5.6-5.1-10.9-10.2-10.9
		C253.3,46.6,247.3,52.9,247.3,59.9z"/>
	<path d="M157.1,49.9c-0.8-8.8-1.5-17.6-2.3-26.3c0.4-0.2,0.7-0.5,1.1-0.7c6.7,7.1,13.4,14.3,20.1,21.4c0.5-0.3,0.9-0.7,1.4-1
		c-0.6-7.4-1.2-14.8-1.8-22.3c0.6-0.1,1.1-0.1,1.7-0.2C178.1,30,179,39,180,49.4c-7.3-8.1-13.8-15.2-20.3-22.3
		c-0.8,0.5-1.6,1-2.3,1.5c0.5,7,0.9,14.1,1.4,21.1C158.2,49.8,157.6,49.9,157.1,49.9z"/>
	<path d="M43,120.6c8.4,0.2,15.5,6.8,15.4,14.4c-0.1,6.7-6.4,12.1-13.9,12c-8.2-0.1-15.4-7.1-15.1-14.7C29.6,126,36,120.5,43,120.6z
		 M44.4,145.1c6.6,0.1,11.8-4.4,12-10.1c0.1-6.2-6.4-12.5-13.1-12.6c-6.2-0.1-11.8,4.8-11.9,10.3C31.2,139.2,37.5,145,44.4,145.1z"
		/>
	<path d="M140.3,330.3c-7.4,0-12.5-5.7-12.5-13.7c0.1-8.2,6.5-15.2,14-15.1c6.7,0.1,12.5,6.4,12.5,13.6
		C154.3,323.2,147.8,330.3,140.3,330.3z M152.3,315.2c-0.1-6.1-5.4-11.9-10.7-11.8c-6.2,0.1-12.1,6.9-11.9,13.8
		c0.2,6.5,5,11.6,10.9,11.4C146.6,328.3,152.5,321.6,152.3,315.2z"/>
	<path d="M116.7,322.8c-0.6-4.8-1.2-9.5-1.9-15.9c-2.4,4.6-4.2,7.9-6.1,11.3c-0.3-0.1-0.7-0.3-1-0.4c0.1-0.8,0.1-1.7,0.5-2.4
		c3.1-6.6,6.3-13.1,9.2-19.7c1.3-3.1,2.8-3.5,5.6-1.9c3.3,1.8,5.1,4.5,4.2,8.1c-0.8,3.4-2.6,6.7-7,6.3c-2.7-0.2-3,1.2-2.8,3.2
		c0.3,3.7,0.6,7.4,1,11.2C117.8,322.7,117.3,322.8,116.7,322.8z M126.9,301c-2.3-2.3-3.6-4-5.3-5.1c-0.3-0.2-2.3,1.8-3.2,3
		c-0.6,0.7-1,1.7-1.2,2.7c-0.3,1.2-1,3-0.5,3.4c1,0.9,3,1.8,3.9,1.3C122.6,305.2,124.2,303.3,126.9,301z"/>
	<path d="M42.6,255.8c1.2-4,7.7-5.9,4.1-12.7c-3.5-6.6-8.4-2.6-12.5-3.7c0-0.4-0.1-0.9-0.1-1.3c9.8-1.2,19.7-2.4,30.4-3.7
		C56.7,242.1,49.6,249,42.6,255.8z M59.6,238.8c-0.4-0.5-0.8-1.1-1.1-1.6c-1.6,0.1-3.3,0.1-4.9,0.3c-1.5,0.1-3.1,0.1-4.3,0.8
		c-0.8,0.5-1.8,2.2-1.5,3c1.4,5.3,2.4,5.5,6.4,1.7C55.8,241.3,57.8,240.1,59.6,238.8z"/>
	<path d="M168.7,335.4c-2.3-4.4-4.5-8.8-7.3-14.2c-0.7,5-1.3,8.9-1.8,12.7c-0.5-0.1-1-0.1-1.5-0.2c0.8-8.7,1.6-17.4,2.6-26.2
		c0.1-0.6,2-1.6,2.6-1.4c2.5,0.9,5.6,1.6,7.1,3.4c3.1,3.9,1.2,9.6-3.5,11.3c-2.8,1-2.3,2-1.3,3.9c1.6,3.3,3.1,6.6,4.6,9.9
		C169.6,334.9,169.1,335.1,168.7,335.4z M160.6,316.3c1.3,1.3,2.2,2.8,3.2,2.9c3.5,0.3,5.6-1.6,5.8-5.2c0.2-3.6-1.9-6.4-5-5.6
		C162.8,308.9,162.1,313.1,160.6,316.3z"/>
	<path d="M93.9,46.6c1.6,0.8,3.4,1.3,4.9,2.3c6.6,4.9,13.1,9.9,19.6,14.9c-0.3,0.4-0.6,0.8-0.9,1.3c-2-1.4-3.8-3.1-5.9-4
		c-1.5-0.6-4-0.7-5,0.1c-2,1.8-6.8,1.5-5.6,6.2c0.6,2.4,0.9,4.8,1.3,7.2c-0.4,0.1-0.9,0.2-1.3,0.3c-2.4-9.5-4.8-19-7.2-28.5
		L93.9,46.6z M96.9,49.7c1,4.1,1.6,7,2.4,9.8c0.3,0.9,1.6,2.5,1.6,2.5c2-1.1,3.8-2.4,5.7-3.6c-0.7-0.9-1.2-1.9-2-2.6
		C102.5,54,100.3,52.3,96.9,49.7z"/>
	<path d="M196.2,20.4c2.6,11,5,20.6,7.3,30.3c-4.3-2.6-1.3-9.4-9.5-10.2c-8-0.8-6.4,6.1-11.1,7.8C187.1,39.5,191.3,30.7,196.2,20.4z
		 M195.6,26.6c-1.8,3.6-2.9,6.2-4.4,8.6c-1.6,2.7-0.4,3.3,2,3.7c4.9,0.9,5.6,0.3,4.4-4.5C197.1,32.2,196.5,30,195.6,26.6z"/>
	<path d="M322.7,233.5c3,4.5,2.5,9.3-1.6,13.3c-5,4.9-13.8,5.1-19.5,0.3c-6.2-5.1-7.6-12.1-3.3-17.9c1.5-2,4-3.1,6.1-4.7
		c0.3,0.4,0.7,0.8,1,1.2c-0.3,0.4-0.6,1-1,1.2c-5.2,2-6.7,6.1-6.1,11.1c0.6,4.8,5.1,9.3,10.2,10.3c5.2,1,11-1,12.8-5.4
		C322.5,240.1,322.3,236.6,322.7,233.5L322.7,233.5z"/>
	<path d="M69.4,68.1c-0.8,1.1-1.7,2.3-2.5,3.4c-3.3,4.3-2.7,7.4,2.3,9.9c0.7,0.3,2.2,0,2.8-0.6c1.3-1.2,2.3-2.8,3.5-4.1
		c0.4-0.5,1.3-0.5,2-0.8c-0.1,0.7,0,1.5-0.3,2c-4.8,6.8-4.6,6.6,1,12.1c2.4,2.3,3.6,1.8,5.3-0.3c1.3-1.5,2.9-2.8,4.3-4.2
		c0.4,0.4,0.8,0.8,1.2,1.2c-2.4,2.6-4.8,5.2-7.4,7.7c-0.3,0.3-1.7-0.3-2.3-0.8C73.7,88.2,67.9,83,62.4,77.5
		c-0.7-0.7-0.7-2.9-0.1-3.8c1.8-2.4,4-4.5,6.1-6.7C68.7,67.4,69.1,67.7,69.4,68.1z"/>
	<path d="M289.2,110.5c-1.9-2.9-4-5.7-5.7-8.7c-0.3-0.5,0.8-2.3,1.6-2.9c6.1-4.3,12.2-8.5,18.5-12.6c0.8-0.5,3-0.5,3.5,0.1
		c2.1,2.4,3.7,5.2,4.8,8.6c-0.7-0.5-1.3-0.9-2-1.4c-2.5-1.5-1.7-7.9-7.7-4.4c-5.8,3.4-3.2,6.2-0.6,9.7c0.5,0.7,0.5,1.7,1,3.6
		c-1.4-1.3-2-1.7-2.5-2.3c-1.7-1.9-3.9-5.8-4.8-5.5c-3.2,1.1-5.9,3.5-8.6,5.6c-0.4,0.3-0.2,1.9,0.2,2.7c1.2,2.2,2.6,4.3,3.9,6.4
		C290.2,109.9,289.7,110.2,289.2,110.5z"/>
	<path d="M225.3,32.9c-1.5-1.7-2.1-2.4-2.8-3.2c-2.1-2.4-4.5-2.7-6.8-0.4c-2.2,2.2-2.3,4.6,0.1,6.9c1.7,1.8,3.4,3.6,5,5.5
		c2.5,3,2.2,6.2,0.1,9.1c-2.1,3-5.3,4.1-8.8,3.1c-3.6-1-5-3.8-4-7.9c0.5,1,0.9,2,1.4,3c1.7,3.3,4.3,4.1,7.4,2.4
		c3.2-1.7,4.7-4.5,2.5-7.8c-1.6-2.5-4.5-4.2-5.7-6.8c-1-2.2-1.4-5.6-0.4-7.6c0.9-1.8,4.1-3.2,6.3-3.3
		C222.8,25.9,224.8,28.3,225.3,32.9z"/>
	<path d="M68.9,102.3c2.7,5.2,1.8,10.1-1.8,13.3c-4.6,4-12.5,4.2-18,0.4c-5.4-3.7-7.9-10.3-6.1-15.6c1.6-4.6,5.1-7.2,9.1-6.8
		c-7.7,5.5-9.3,9.2-6.5,15.4c2.3,5.1,8.7,8.7,13.8,7.8C66.4,115.5,68.7,112.3,68.9,102.3z"/>
	<path d="M29.7,152c-3,3-6.2,6.1-2,9.3c4.4,3.3,6.8-0.5,9.1-3.6c4.6-6.2,9-7.5,13-3.1c1.8,1.9,2.5,5.7,2.1,8.4
		c-0.3,1.9-3.4,3.4-5.2,5c-0.3-0.4-0.6-0.8-1-1.1c0.1-0.3,0.2-0.7,0.5-0.8c3-1.4,5.3-3.6,4.1-7c-0.7-1.9-3.2-4.6-4.5-4.4
		c-2.6,0.4-5.4,2.1-7.1,4.1c-2.8,3.4-5.4,7-10.1,5c-2.2-0.9-4.4-4.1-4.8-6.5C23.4,154.8,25.2,151.9,29.7,152z"/>
	<path d="M329.3,146.5c0.4-1.2,1.3-2.6,1-3.5c-0.7-1.9-1.8-4.6-3.2-5c-1.6-0.4-4.6,0.8-5.5,2.3c-1.6,2.4-1.9,5.6-3,8.3
		c-1.7,4.1-5.5,4.7-8.7,3.4c-2.5-1-5-3.8-5.8-6.4c-1.1-3.3,1.4-5.9,5.2-6.8c-0.6,0.8-1.5,1.5-1.7,2.4c-0.5,2.1-1.6,4.7-0.8,6.2
		c0.9,1.6,3.8,3,5.6,2.9c1.8-0.2,3.8-2.2,4.9-3.9c1.3-2,1-5.2,2.5-6.9c1.6-1.9,4.4-3.4,6.9-3.6c1.7-0.2,4.8,1.7,5.3,3.3
		c0.7,2.3-0.3,5.2-0.6,7.8C330.7,146.9,330,146.7,329.3,146.5z"/>
	<path d="M288,255.8c-1.2,0.5-3,0.7-3.5,1.6c-1,1.8-2.1,4.3-1.6,5.9c0.4,1.3,3.3,2.4,5.1,2.4c2,0,4.1-1.2,6-2.1
		c4.2-2.1,7.9-0.9,9.8,2.8c1.2,2.3,1.2,6.2,0.1,8.6c-1.7,3.8-5.6,3.8-9.3,1.7c0.9-0.1,1.9,0,2.7-0.4c2-0.9,4.9-1.7,5.4-3.3
		c0.7-1.9,0-5.1-1.4-6.7c-1.1-1.2-4.1-1.3-6.1-1c-2.4,0.4-4.6,2.4-6.9,2.4c-2.3,0-5.5-1-6.8-2.7c-1.3-1.7-1.5-5.2-0.5-7.1
		c1-1.9,4-2.7,6.2-4C287.6,254.6,287.8,255.2,288,255.8z"/>
	<path d="M314.3,166.2c-0.9,0.8-1.8,1.6-2.7,2.5c-2.6,2.8-2.7,5.6,0.2,8.2c3,2.7,6.6,2.1,8.9-1.3c1.3-2.1,2-4.9,3.7-6.4
		c1.9-1.6,5.1-3.2,7.2-2.7c2.2,0.5,4.6,3.4,5.2,5.7c0.5,1.7-1.7,4.2-2.7,6.3c-0.5-0.3-1-0.5-1.5-0.8c0.5-0.9,1.2-1.7,1.6-2.6
		c1.2-2.9,0.7-5.8-2.3-6.5c-1.7-0.4-4.4,1-6.1,2.4c-1.4,1.2-2.2,3.3-3,5.1c-1.7,3.7-4.6,5-8.5,4.2c-3.7-0.7-5.9-3-6.3-6.7
		C307.4,169.2,310,166.9,314.3,166.2z"/>
	<path d="M244.5,39.8c-0.4-0.8-0.8-1.7-1.3-2.5c-1.6-2.5-3.9-3.2-6.3-1.6c-2.5,1.6-3.4,4-1.6,6.8c1.6,2.5,4.2,4.7,4.8,7.4
		c0.5,2.6-0.3,6.3-1.9,8.4c-2.3,2.9-6.3,3.5-9.3,0.9c-2-1.7-2.8-4.7-4.2-7.1c0.6-0.3,1.2-0.6,1.8-0.9c0.4,1.1,0.8,2.1,1.1,3.2
		c1.2,3.7,3.6,5,7.3,3.7c3.5-1.3,4.9-4.9,3.1-8.1c-1.4-2.4-3.8-4.5-4.6-7c-0.7-2.1-0.4-5.4,0.9-7.1c1.3-1.6,4.7-2.9,6.7-2.4
		c2,0.5,3.5,3.3,5.3,5.1C245.7,38.9,245.1,39.4,244.5,39.8z"/>
	<path d="M78,290c-0.1,1.3-0.4,2.7-0.2,4c0.6,3.4,2.9,5.4,6.3,4.9c3.4-0.5,6-2.5,5.1-6.5c-0.6-2.7-2.5-5.3-2.5-8
		c0-2.4,1.1-5.7,2.9-7.1c1.6-1.3,5.4-1.6,7.2-0.6c1.8,1,2.4,4.3,3.5,6.5c-0.5,0.2-1.1,0.5-1.6,0.7c-0.4-1-0.4-2.3-1.1-2.9
		c-1.5-1.3-3.4-3.1-5.1-3.1c-3.1,0.1-4.6,2.6-3.8,5.7c0.7,2.9,2.1,5.6,2.7,8.5c0.8,3.7-1.2,6.3-4.5,7.9c-3.7,1.9-6.9,0.8-9.4-2
		c-2.3-2.5-1.9-5.4-0.8-8.1C77.1,290,77.5,290,78,290z"/>
	<path d="M123.4,36.2c-1.5-0.2-2.4-0.3-3.3-0.5c-2.8-0.6-5.1,0.1-5.6,3.2c-0.6,3.2,0.5,5.6,4.1,6.2c2.4,0.4,5.3,0,7.3,1.1
		c2.3,1.2,4.8,3.5,5.6,5.8c1.2,3.4,0.2,7.5-3.9,8.4c-2.6,0.6-5.7-0.8-8.5-1.4c-0.2,0-0.2-0.8-0.4-1.9c1.4,0.7,2.4,1.1,3.3,1.6
		c3.3,1.8,5.8,0.7,7.4-2.4c1.8-3.4,0.5-7-3.1-8.1c-2.5-0.8-5.5-0.2-7.7-1.3c-2.4-1.2-5.1-3.5-5.7-5.8c-0.5-1.9,1.3-5.3,3.1-6.8
		C118,32.6,121.1,32.8,123.4,36.2z"/>
	<path d="M176.2,307c2.5,7.2,5,14.4,7.5,21.5c0.4,0,0.7,0,1.1,0.1c2.1-7.2,4.1-14.4,6.2-21.7c0.5,0.2,1.1,0.3,1.6,0.5
		c-2.5,9.2-5.1,18.5-7.6,27.7c-0.4,0-0.7,0-1.1,0c-3.1-9.2-6.2-18.4-9.3-27.6C175.1,307.4,175.7,307.2,176.2,307z"/>
	<path d="M269,84.9c4.3-8.6,8.5-17.2,12.8-25.8c0.6,0.3,1.1,0.5,1.7,0.8c-3.4,6.9-6.8,13.8-10.9,22c8-4.3,14.7-7.9,21.3-11.6
		c0.2,0.3,0.4,0.7,0.7,1c-0.6,0.5-1.1,1.2-1.7,1.5c-7.1,3.9-14.2,7.8-21.4,11.6c-0.7,0.4-1.8,0.3-2.7,0.4
		C268.9,84.8,269,84.9,269,84.9z"/>
	<path d="M284,287.5c-2.3-5.4-4.5-10.8-6.8-16.1c-0.8-1.8-1.8-3.6-2.7-5.4c0.5-0.3,1.1-0.5,1.6-0.8c4.4,8.7,8.8,17.5,13.2,26.2
		c-0.2,0.2-0.5,0.4-0.7,0.6c-8.5-4.8-17.1-9.6-25.6-14.4c0.3-0.5,0.6-1.1,0.9-1.6c6.7,3.9,13.5,7.7,20.2,11.6
		c0.1-0.1,0.2-0.1,0.2-0.2C284.2,287.4,284.1,287.5,284,287.5z"/>
	<path d="M104.1,282.8c4.3,2.8,8.3,5.4,12.7,8.2c-0.7,0.6-1.1,1-1.2,1c-5.2-3.8-7.2-0.4-9.5,3.7c-3,5.4-6.6,10.4-10,15.6
		c-0.5-0.2-1-0.5-1.4-0.7c0.6-1.2,1.2-2.5,1.9-3.7c3-4.7,5.9-9.6,9.2-14.1c2.3-3.2,3.2-5.6-1.3-7.4c-0.4-0.1-0.5-0.7-0.8-1.1
		C103.6,284.1,103.7,283.9,104.1,282.8z"/>
	<path d="M73.4,62.3c3.6-3.1,7.2-6.2,11-9.5c0.4,0.9,0.7,1.4,0.7,1.4c-4.8,3.5-3,6.5,0.3,9.9c4.3,4.7,8.2,9.8,12.3,14.7
		c-0.4,0.3-0.8,0.7-1.1,1c-3.5-4-7.1-8-10.6-11.9C82.6,64.4,80.9,57.3,73.4,62.3z"/>
	<path d="M55.1,83c7.4,5.6,14.9,11.2,22.3,16.8c-0.4,0.5-0.7,1-1.1,1.5C68.9,95.6,61.4,90,54,84.4C54.4,84,54.7,83.5,55.1,83z"/>
	<path d="M289.5,246.2c8,5.1,16,10.2,24,15.3c-0.3,0.5-0.6,1-1,1.5c-8-5.1-16.1-10.2-24.1-15.2C288.8,247.3,289.1,246.7,289.5,246.2
		z"/>
	<path d="M88,269.5c-6.3,6.2-12.7,12.3-19.1,18.4c-0.4,0.3-1.3,0.1-1.9,0.1c0.3-0.7,0.4-1.5,0.9-1.9c6.2-6.1,12.4-12.1,18.7-18.2
		C87.1,268.5,87.5,269,88,269.5z"/>
	<path d="M300.3,78c-7.2,6-14.3,12-21.5,18.1c-0.4-0.4-0.7-0.9-1.1-1.3c7.1-6,14.3-12.1,21.4-18.1C299.4,77.1,299.9,77.5,300.3,78z"
		/>
	<path d="M307.1,159c9.3-1.3,18.6-2.6,27.9-3.9c0.1,0.6,0.2,1.2,0.3,1.7c-9.3,1.3-18.6,2.6-27.9,4
		C307.3,160.2,307.2,159.6,307.1,159z"/>
	<path d="M314.4,85.1L314.4,85.1"/>
	<path d="M116.5,27.3l-0.3-0.3"/>
	<path d="M144.2,18L144.2,18c-0.1,0.2,0,0.7-0.1,0.8"/>
	<path d="M165.1,341.9c-0.4,0-0.7-0.4-2.4-1.5"/>
	<path d="M194.9,15.9c0,0,0-0.1,0-0.1"/>
	<path d="M88.3,42.1c-6,4.7-12,9.3-18,14c0,0,0.1,0.1,0.1,0.1c6-4.7,12-9.3,18-14L88.3,42.1z"/>
	<path d="M39.4,183.2c-1.9,1.2-3.2,2.6-4.1,2.4c-1-0.2-2.1-1.9-2.2-3.1c-0.1-0.7,1.7-2.3,2.6-2.2C36.8,180.5,37.7,181.9,39.4,183.2z
		"/>
	<path d="M284.3,304c0,0,0.1,0.1,0.1,0.1c4.1-3.5,8.3-7.1,12.4-10.6c0,0-0.1-0.1-0.1-0.1"/>
	<path d="M28.1,241.3c0.2-0.2,0.4-0.3,0.5-0.5"/>
	<path d="M244.9,327.6c4.8-2.2,9.6-4.3,14.5-6.5l-0.1-0.1C254.4,323.1,249.6,325.3,244.9,327.6C244.8,327.5,244.9,327.6,244.9,327.6
		z"/>
	<path d="M82.3,310.1c0,0,0.1-0.1,0.1-0.1c-3.3-2.7-6.7-5.3-10-8c0,0-0.1,0.1-0.1,0.1"/>
	<path d="M218.5,19c0,0-0.1,0.1-0.1,0.1"/>
	<path d="M116.2,26.9c0,0,0.3,0.3,0.3,0.3"/>
	<path d="M259.3,321c3.3-2,6.7-4,10-6c0,0-0.1-0.1-0.1-0.1c-3.3,2-6.7,4-10,6C259.2,320.9,259.3,321,259.3,321z"/>
	<path d="M144.1,17.9C144.1,17.9,144.2,18,144.1,17.9"/>
	<path d="M140.3,337c-3.6-1-7.3-2.1-10.9-3.1l-0.1,0.1c3.6,1,7.3,2.1,10.9,3.1C140.2,337.1,140.3,337,140.3,337z"/>
	<path d="M314.4,85.1c-2.1-2.6-4.2-5.1-6.3-7.7c0.2-0.1,0.3-0.3,0.5-0.4C310.4,79.7,312.4,82.4,314.4,85.1
		C314.3,85.2,314.4,85.1,314.4,85.1z"/>
	<path d="M88.3,42.1c0,0,0.1,0.1,0.1,0.1"/>
	<path d="M272.4,313.1c2.3-1.7,4.7-3.3,7-5l-0.1-0.1c-2.3,1.7-4.7,3.3-7,5L272.4,313.1z"/>
	<path d="M218.4,19.1c0,0,0.1-0.1,0.1-0.1"/>
	<path d="M51.6,279.8c1.7,2,3.3,4,5,6.1c0,0-0.4,0.3-0.4,0.3c-1.5-2.2-3-4.3-4.5-6.5C51.8,279.7,51.6,279.8,51.6,279.8z"/>
	<path d="M91.4,316c-2-1.3-4-2.7-6-4c0,0-0.1,0.1-0.1,0.1C87.4,313.4,89.3,314.7,91.4,316L91.4,316z"/>
	<path d="M107.4,325c2,1,4,2,6,3c0,0,0.1-0.1,0.1-0.1c-2-1-4-2-5.9-3.1C107.4,324.9,107.4,325,107.4,325z"/>
	<path d="M194.9,15.9c2.2-0.3,4.4-0.6,6.5-1c0,0.5,0,0.9,0,1.4c-2.2-0.2-4.3-0.4-6.5-0.6C195,15.8,194.9,15.9,194.9,15.9z"/>
	<path d="M161.6,341.2c-2-0.1-4-0.2-5.9-0.3c0-0.4,0-0.7,0.1-1.1"/>
	<path d="M279.4,308.1c1.7-1.3,3.3-2.7,5-4c0,0-0.1-0.1-0.1-0.1c-1.7,1.3-3.3,2.7-5,4C279.3,308,279.4,308.1,279.4,308.1z"/>
	<path d="M23.4,227c0,0-0.1,0.1-0.1,0.1"/>
	<path d="M99.4,321c-1.7-0.9-3.5-1.9-5.2-2.8c0.1-0.1,0.3-0.3,0.4-0.4c1.6,1.1,3.1,2.2,4.7,3.3L99.4,321z"/>
	<path d="M118.2,330.2c-1.6-0.8-3.2-1.5-4.8-2.3c0,0-0.1,0.1-0.1,0.1c1.8,0.6,3.5,1.1,5.3,1.7C118.5,329.9,118.3,330.1,118.2,330.2z
		"/>
	<path d="M118.2,330.2c0.1-0.2,0.3-0.3,0.4-0.5c1.6,0.8,3.2,1.5,4.7,2.3"/>
	<path d="M240.4,26.1c1.8,0.5,3.6,1,5.5,1.5c0,0,0-0.1,0-0.1c-1.9-0.4-3.8-0.8-5.6-1.2C240.2,26.2,240.4,26.1,240.4,26.1z"/>
	<path d="M276.3,46.1C276.3,46.1,276.2,46.2,276.3,46.1"/>
	<path d="M103.6,322.8c1.3,0.7,2.5,1.5,3.8,2.2c0,0,0.1-0.1,0.1-0.1c-1.4-0.6-2.8-1.1-4.3-1.7C103.3,323.1,103.4,322.9,103.6,322.8z
		"/>
	<path d="M219.4,337.2c0,0-0.1-0.1-0.1-0.1"/>
	<path d="M99.3,321.1c1.4,0.6,2.9,1.1,4.3,1.7c-0.1,0.2-0.3,0.3-0.4,0.5c-1.3-0.8-2.5-1.5-3.8-2.3C99.4,321,99.3,321.1,99.3,321.1z"
		/>
	<path d="M144.4,338c1.5,0.5,3,1.1,4.5,1.6l0.1-0.1C147.4,339,145.9,338.5,144.4,338L144.4,338z"/>
	<path d="M149,339.5c0,0-0.1,0.1-0.1,0.1"/>
	<path d="M153.6,338.9"/>
	<path d="M276.2,46.2C276.2,46.2,276.3,46.1,276.2,46.2"/>
	<path d="M91.3,316.1c1.1,0.6,2.2,1.1,3.3,1.7c-0.1,0.1-0.3,0.3-0.4,0.4C93.3,317.5,92.4,316.7,91.3,316.1
		C91.4,316,91.3,316.1,91.3,316.1z"/>
	<path d="M85.5,311.9c-1-0.6-2-1.3-3-1.9c0,0-0.1,0.1-0.1,0.1c1,0.6,2,1.3,3,1.9C85.4,312,85.5,311.9,85.5,311.9z"/>
	<path d="M144.4,338c-1.3-0.3-2.7-0.7-4-1c0,0-0.1,0.1-0.1,0.1C141.6,337.4,143,337.7,144.4,338C144.4,338,144.4,338,144.4,338z"/>
	<path d="M26.7,235.8"/>
	<path d="M237.2,25.3c1.1,0.3,2.1,0.5,3.2,0.8c0,0-0.1,0.2-0.1,0.2c-1-0.4-2-0.7-2.9-1.1C237.3,25.2,237.2,25.3,237.2,25.3z"/>
	<path d="M330,114.4"/>
	<path d="M29.6,113.3c-0.3,0.7-0.7,1.3-1,2c-0.1-0.1-0.3-0.2-0.4-0.4c0.3-0.7,0.7-1.4,1-2C29.3,113,29.4,113.1,29.6,113.3z"/>
	<path d="M237.2,25.3c0,0,0.1-0.1,0.1-0.1"/>
	<path d="M322.8,233.4c-0.3,0.2-0.6,0.3-0.9,0.5c0-0.1,0-0.3,0-0.3c0.3,0,0.6,0,0.9-0.1C322.7,233.5,322.8,233.4,322.8,233.4z"/>
	<path d="M268.9,84.8c0.1,0.2,0.2,0.5,0.3,0.7c-0.1,0-0.2,0.1-0.3,0.1c0.1-0.2,0.1-0.5,0.2-0.7C269,84.9,268.9,84.8,268.9,84.8z"/>
	<path d="M93.9,46.4c0.1,0,0.2,0,0.3,0c-0.1,0-0.1,0.1-0.2,0.1C93.9,46.6,93.9,46.4,93.9,46.4z"/>
	<path class="st0" d="M179.7,81.2c55.8,1.2,98.2,44.8,96.4,100.8c-1.6,52.2-44.1,93.1-96.7,92.9c-56-0.2-98.1-45.6-96.5-99.6
		C84.5,121.3,127.8,81.7,179.7,81.2z M143.2,263.2c1,0.6,1.9,1.4,2.9,1.7c14.5,5.4,29.4,7.5,44.9,5.4c33.7-4.6,58.3-22.4,72.7-52.7
		c19.3-40.8,7.5-86.5-28.4-113.9c-10.3-7.9-21.6-14-34.8-15.7c-7.1-0.9-14.3-2.7-21.4-2.7c-50.5-0.3-92.4,41.1-92.6,91.7
		c-0.1,28,10.6,51.7,31.2,70.6C125.1,254.3,133.3,260.3,143.2,263.2z"/>
	<path class="st0" d="M75.9,212.3c-0.9,1.5-1.7,3.2-2.8,4.5c-0.8,0.9-2.1,1.5-3.1,2.2c0.1-1.1-0.2-2.4,0.2-3.4
		c1.9-4.3,3.9-8.3,0.8-13.1c-0.9-1.4-0.1-4-0.1-5.6c-2,1.5-3.9,2.9-5.7,4.3c0.8-2,2-3.9,2.5-5.9c0.6-3,0.7-6.2,1.1-9.3
		c0.2-2,0.5-4,0.8-5.9c0.4,0,0.9,0.1,1.3,0.1c0,2.5-0.4,5.1,0.1,7.4c0.5,2.2,1.8,4.3,3.2,6.1c0.8,1.1,2.7,1.3,3.8,2.3
		c0.7,0.6,0.7,2,1,3c-1-0.1-2.3,0.3-2.8-0.2c-1.6-1.6-3-3.5-4.4-5.3c-0.1,0.1-0.1,0.2-0.2,0.3c0.1-0.1,0.2-0.1,0.3-0.2
		c0.1,1.4,0.2,2.8,0.4,4.1c0.4,2.3,1.1,4.6,1.4,6.9c0.6,4.7,4.6,5.5,7.9,7.2c0.8,0.4,1.3,1.6,2,2.5c-1.1,0.1-2.2,0.4-3.3,0.4
		c-0.6,0-1.1-0.7-1.6-1.1c-0.6-0.5-1.3-1.1-1.9-1.6c-0.1-0.1-0.3-0.2-0.4-0.3C76,211.8,75.9,212,75.9,212.3L75.9,212.3z"/>
	<path class="st0" d="M175,287.6c2.3-2.1,4.6-4.2,6.9-6.2c0.6-0.5,1.5-0.5,2.3-0.8c0.1,1,0.6,2.4,0.2,2.8c-1.6,1.6-3.6,2.8-5.4,4.2
		c4.3-0.3,8.8,0.2,12.7-1.1c2.5-0.8,4.1-4.3,6.2-6.6c0.6-0.6,1.5-0.9,2.3-1.3c0.2,1,0.9,2.4,0.5,2.9c-1.3,1.7-3,3-4.6,4.5l0.1-0.1
		c0,0.4,0,0.8,0,1.2l-0.2-0.1c2.1,0.9,4.2,1.7,6.1,2.8c0.6,0.4,0.6,2,0.8,3c-0.9-0.1-2.1,0.1-2.6-0.3c-3.9-3.4-7.8-5.8-13.4-3.2
		c-1.6,0.7-4-0.5-6.4-0.1c1.3,0.9,2.9,1.7,4,2.9c0.5,0.5,0.1,1.9,0.1,2.9c-0.8-0.2-1.8-0.1-2.3-0.5
		C179.9,292.3,177.5,289.9,175,287.6L175,287.6z"/>
	<path class="st0" d="M146.4,284c0.9,1.4,2,2.6,2.5,4.1c0.3,0.8-0.5,2-0.8,3c-0.6-0.5-1.5-0.8-1.9-1.5c-1.9-3-3.6-6-5.3-9
		c0,0,0,0,0,0c2.9-1.1,5.7-2.4,8.6-3.4c0.9-0.3,2,0.1,3,0.1c-0.5,0.9-0.8,2.1-1.6,2.7c-1,0.8-2.4,1.2-3.9,1.9c3.5,1.2,6.5,3,9.5,2.9
		c2.6,0,5.3-2.1,7.9-3.3c1.1-0.5,2-1.4,3.1-1.9c0.2-0.1,1.5,1.6,1.4,1.7c-0.8,1-1.7,1.9-2.8,2.6c-1.2,0.8-2.6,1.4-3.9,2.1l0.1-0.1
		c1.2,1.6,2.5,3.1,3.5,4.8c0.6,1,0.5,2.4,0.8,3.6c-1-0.6-2.3-1-2.9-1.9c-2.8-3.7-5.6-7.1-11.2-6.5c-1.9,0.2-4.1-1.3-6.1-2
		c-0.1-0.4-0.2-0.8-0.3-1.3c-0.2,0.1-0.5,0.3-0.7,0.4C145.6,283.5,146,283.7,146.4,284z"/>
	<path class="st0" d="M195.6,67.9c-1.3-1-2.7-1.9-3.8-3.1c-0.5-0.6-0.2-1.8-0.3-2.7c1,0.2,2.6,0,2.9,0.6c2.6,4.5,6,7.2,11.5,7.1
		c1.6,0,3.2,1.8,4.6,3.5c-1.7-0.2-4.1,0.3-5.1-0.6c-4.8-4.3-8-0.4-11.6,1.8c-1.1,0.6-2.3,1-3.4,1.5c0.5-1.2,0.9-2.6,1.7-3.7
		c0.6-0.8,1.9-1.1,3.6-1.9c-3.8-0.4-6.8-0.7-9.9-1c0-0.6,0-1.2,0-1.8c1.8,0,3.6,0,5.5,0c1.5,0,3,0.2,4.5,0.3
		c0.2,0.5,0.3,0.9,0.5,1.4c0,0,0.3-0.1,0.4-0.1C196.3,68.7,195.9,68.3,195.6,67.9z"/>
	<path class="st0" d="M268.3,113.2c0-1.8,0-3.6,0.2-5.4c0.1-1,0.6-2.1,1.2-3c0.2-0.3,1.2-0.1,1.9-0.2c0,1.1,0.3,2.1,0.1,3.2
		c-0.6,4.5-1,8.8,3,12.3c1.3,1.1,1.4,3.5,1.2,5.9c-1.2-1.4-3.2-2.6-3.4-4.1c-0.6-6.2-5.1-6.4-9.6-6.9c-1.1-0.1-2.3-0.6-3.3-1
		c-0.1,0,0.2-1.7,0.5-1.7c1.2-0.2,2.4-0.3,3.6-0.1c1.3,0.2,2.5,0.7,3.8,1l-0.2-0.2c0.2,0.3,0.4,0.6,0.6,0.9c0.2-0.3,0.4-0.6,0.6-0.9
		C268.4,113,268.3,113.2,268.3,113.2z"/>
	<path class="st0" d="M176.3,68.5c-1.7,0.5-3.6,1.7-4.9,1.3c-5.9-2.2-8,1.8-10.5,5.7c-0.6,0.9-1.9,1.3-2.8,1.9
		c0.1-1.3,0-2.7,0.5-3.8c0.4-1,2.2-1.7,2.2-2.5c-0.1-0.9,2.4-3.2-1-3.1c-0.8,0-1.6-0.5-2.3-0.9c-1-0.7-2-1.5-2.7-2.5
		c-0.2-0.3,1-2,1.2-1.9c1.1,0.4,2.2,1.1,3.2,1.8c3.4,2.4,6.7,4.6,11.3,2.7c1.6-0.7,3.9,0.1,5.8,0.3
		C176.3,67.8,176.3,68.2,176.3,68.5z"/>
	<path class="st0" d="M283.3,144.2c-1.5-4-2.3-8.4-4.6-11.8c-1.4-2-5.2-2.2-7.8-3.5c-0.9-0.4-1.5-1.5-2.2-2.3
		c0.9-0.4,2.3-1.4,2.7-1.2c5.5,4.2,7.6,2.6,7.3-4c0-0.6,1.5-1.2,2.3-1.8c0.2,1,0.9,2.2,0.6,3c-1.4,4.7-2.5,9,1.1,13.5
		c1.5,1.9,1.1,5.3,1.6,8l0.1-0.2c-0.4,0-0.8,0-1.2,0L283.3,144.2z"/>
	<path class="st0" d="M129.3,277c1,1.7,2.3,3.2,3,5c0.3,0.6-0.7,1.8-1.2,2.7c-0.7-0.5-1.7-0.9-1.9-1.5c-1.2-5.4-3.3-9.8-9.5-11.2
		c-1.2-0.3-2-2.7-2.9-4.1l-0.1,0c2.3,1.3,4.8,2.3,6.9,3.9c3.6,2.8,6.7,0.9,10.1-0.2c1.1-0.4,2.4-0.2,3.5-0.2c-0.8,1-1.4,2.5-2.5,3
		c-1.6,0.8-3.6,1.1-5.4,1.6c0,0,0.2-0.1,0.2-0.1c0,0.4,0,0.8,0,1.2C129.4,277.1,129.3,277,129.3,277z"/>
	<path class="st0" d="M287.7,192c0.3-2.3,0.4-4.6,1-6.8c1.4-4.8-2.3-6.7-5-9.2c-0.8-0.7-1.6-1.4-2.1-2.3c-0.1-0.2,1.2-1.7,1.5-1.6
		c1.1,0.3,2.3,0.9,3,1.8c3.5,4.5,3.4,4.5,6.9-0.4c0.6-0.8,1.5-1.5,2.4-1.7c0.4-0.1,1.8,1.1,1.7,1.3c-0.3,0.8-0.9,1.6-1.6,2.2
		c-3.7,3.2-6,6.8-5,12.1c0.3,1.5-0.9,3.3-1.4,4.9C288.7,192.2,288.2,192.1,287.7,192z"/>
	<path class="st0" d="M71.9,162.1c-0.5,2.9-1.7,5.9-1.3,8.7c0.5,2.8,2.5,5.3,4,7.9c0.7,1.3,1.8,2.4,2.5,3.7c0.1,0.2-0.8,0.9-1.2,1.4
		c-1.1-1-2.6-1.7-3.2-2.9c-2.3-4.5-4.2-4.3-5.9,0.3c-0.3,0.8-0.8,1.7-1.4,2c-0.8,0.3-1.9,0.1-2.7-0.2c-0.3-0.1-0.3-1.9,0-2.2
		c4.6-3.5,7.8-7.3,5.9-13.7c-0.4-1.3,1.3-3.2,2.1-4.9C71.1,162.1,71.5,162.1,71.9,162.1z"/>
	<path class="st0" d="M231.1,274.7c2.3-1.4,5.2-2.4,6.8-4.3c2-2.4,3.1-5.6,4.4-8.5c0.5-1.1,0.5-2.4,0.8-3.6c0.6,0.1,1.7,0.2,1.8,0.4
		c0.3,1.4,0.4,2.8,0.3,4.2c-0.1,1.1-0.6,2.2-0.9,3.3c0,0,0.2-0.2,0.2-0.2c-0.3,0.3-0.5,0.6-0.8,0.9c0.3,0.1,0.5,0.2,0.8,0.3
		l-0.2-0.1c2,0.1,4-0.1,5.8,0.3c1,0.2,1.8,1.4,2.6,2.2c-1,0.4-2,1.1-2.9,1c-4.7-0.7-9.1-1.1-12.8,3.1c-1,1.2-3.9,0.7-6,1
		C231,274.6,231.1,274.7,231.1,274.7z"/>
	<path class="st0" d="M199.3,285.9c2.3-0.6,4.5-1.7,6.8-1.8c5-0.2,5.7-4.2,7.3-7.5c0.4-0.9,1-1.8,1.7-2.5c0.1-0.1,1.5,0.5,1.6,0.8
		c0.1,1,0,2.1-0.5,3.1c-0.5,1-1.8,1.8-1.9,2.8c-0.1,1,0.6,2.6,1.5,3.1c1.2,0.8,2.9,0.6,4.2,1.2c0.5,0.3,0.5,1.7,0.7,2.6
		c-0.8,0.2-1.8,0.8-2.2,0.5c-4.7-3.3-9.4-4.5-14.7-1.1c-0.9,0.6-3-0.8-4.6-1.3C199.2,285.8,199.3,285.9,199.3,285.9z"/>
	<path class="st0" d="M288.4,161.2c1-2.1,1.8-4.2,3-6.1c0.4-0.6,1.9-0.6,2.8-0.9c0,0.9,0.3,2.1-0.2,2.6c-3.4,4-5.6,8.1-3,13.5
		c0.4,0.9-0.7,2.6-1.4,5.1c-1-2.5-2.2-4.1-1.8-5c2.7-6.2-1.6-8.3-5.7-10.7c-0.8-0.5-1.7-1.1-2-1.9c-0.2-0.4,0.8-1.8,1.2-1.8
		c0.8,0,1.7,0.6,2.4,1.1c1.7,1.3,3.2,2.8,4.8,4.2c-0.2,0.1-0.4,0.3-0.7,0.4C288,161.5,288.2,161.4,288.4,161.2z"/>
	<path class="st0" d="M74.9,146.8c-0.1,1.5,0.4,3.6-0.4,4.5c-4,4.6-1.4,7.8,1.6,11.2c0.8,0.9,1.5,2,2,3.2c0.1,0.1-1.6,1.4-1.8,1.2
		c-1-0.7-2.2-1.6-2.6-2.7c-1.5-4-3.1-5.9-6-0.9c-0.6,1-2.2,1.6-3.4,2.1c-0.3,0.1-1-1.1-1.6-1.7c1-0.8,1.9-1.6,2.9-2.2
		c3.6-2.4,6.3-5.2,6.1-10c-0.1-1.6,1.2-3.3,1.9-4.9C74,146.5,74.5,146.7,74.9,146.8z"/>
	<path class="st0" d="M147.6,72.9c-3-0.7-5.3-1.2-7.4-1.9c-0.7-0.2-1.5-1.5-1.4-2c0.2-0.7,1.8-1.7,1.9-1.6c4.9,4.5,10.6,3,16.2,2.1
		c0.4-0.1,0.9,0.2,2.7,0.6c-2.2,1.1-3.7,2.5-4.8,2.3c-5.7-1-7,2.8-8.5,6.9c-0.3,1-1.1,1.8-1.8,2.6c-0.1,0.1-1.6-0.5-1.6-0.8
		c-0.1-1,0-2.3,0.5-3.1C144.5,76.3,145.9,74.9,147.6,72.9z"/>
	<path class="st0" d="M228.1,276.6c3.1,0.3,5.4,0.3,7.6,0.9c0.7,0.2,1.2,1.5,1.7,2.3c-0.9,0.3-1.9,0.9-2.6,0.7
		c-4.8-1.4-9.4-3.3-13.8,1.1c-0.8,0.8-3,0.3-4.9-0.5c1.6-0.9,3.3-2.5,4.9-2.5c5.5,0,6.2-3.8,7.2-7.7c0.3-1.2,0.7-2.4,1.3-3.5
		c0.1-0.1,2.1,0.5,2.1,0.7c0,1.4-0.2,2.8-0.7,4.1C230.4,273.4,229.4,274.6,228.1,276.6z"/>
	<path class="st0" d="M79.9,129.6c0,1.8,0.8,4.5-0.1,5.4c-4.4,4-2,7.8-0.1,11.6c0.5,1.1,1,2.2,1.4,3.3c0,0.2-1.4,1-1.5,1
		c-0.9-1-1.7-2.2-2.4-3.3c-0.4-0.7-0.7-1.5-0.7-2.3c-0.1-3-1.5-2.3-3-1.1c-0.5,0.4-0.7,1.2-1.2,1.5c-1.4,0.8-2.8,1.6-4.3,2.2
		c-0.2,0.1-0.9-1.2-1.4-1.9c1.2-0.8,2.4-1.8,3.7-2.5c3.6-2.2,6.9-4.4,7.2-9.3C77.5,132.5,79.1,131.1,79.9,129.6L79.9,129.6z"/>
	<path class="st0" d="M284.3,144.3c0.6-2.1,1.1-4.4,2-6.3c0.3-0.7,1.9-0.8,2.8-1.2c0,0.9,0.4,2,0,2.7c-2.6,4.3-4,8.5-1.2,13.4
		c0.8,1.3,0.1,3.5,0.1,6.7c-1.3-2.8-2.9-4.5-2.7-5.9c1.1-6-2.9-7.8-7.1-9.6c-1.1-0.5-2-1.2-2.9-1.9c-0.1-0.1,0.6-1.5,0.9-1.5
		c1.2,0.1,2.5,0.3,3.6,0.9c1.3,0.7,2.3,1.9,3.4,2.8c0,0-0.1-0.1-0.1-0.1c0.4,0,0.8,0,1.2,0L284.3,144.3z"/>
	<path class="st0" d="M81.9,129.5c-0.7-0.5-1.7-1.4-2.2-1.3c-1.5,0.6-2.8,1.8-4.3,2.4c-0.5,0.2-1.6-0.7-2.1-1.3
		c-0.3-0.4,0-1.8,0.3-2c3.7-1.3,7.5-2.5,11.2-3.7c0,0,0,0,0,0c0.4,2.7,1,5.3,1.3,8c0.1,1.3-0.2,2.6-0.3,3.9c-0.8-1-1.7-2-2.5-3.1
		C82.8,131.5,82.4,130.4,81.9,129.5C81.8,129.5,81.9,129.5,81.9,129.5z"/>
	<path class="st0" d="M87.3,238.2c3.3,0.7,6.7,1.4,10,2.2c0.7,0.2,1.3,0.8,2,1.3c-0.7,0.8-1.2,1.8-2.1,2.2c-0.5,0.3-1.5-0.3-2.3-0.7
		c-4-1.7-6.5-1.8-4.7,3.7c0.2,0.7,0.3,1.9-0.1,2.4c-0.6,0.7-1.6,1.1-2.5,1.6c-0.4-0.7-1.1-1.5-1-2.2c0.1-3.6,0.5-7.2,0.8-10.7
		L87.3,238.2z"/>
	<path class="st0" d="M265.1,246.7c-0.1-3.1-0.2-6.2-0.2-9.3c0-1,0.6-2.1,0.9-3.1c0.8,0.9,1.7,1.7,2.5,2.7c0.2,0.2,0.1,0.7,0.1,1
		c-1,5.3,0.7,6.1,5,3.3c0.9-0.6,2.5-0.4,3.7-0.3c0.3,0,0.7,2.1,0.5,2.2c-0.9,0.5-2,0.6-3.1,0.9c-3.2,0.8-6.3,1.7-9.5,2.5
		C264.9,246.6,265.1,246.7,265.1,246.7z"/>
	<path class="st0" d="M253.8,260.6c0.2-3.9,0.3-7.8,0.6-11.7c0-0.6,0.9-1.2,1.4-1.8c0.7,0.5,1.8,1.1,1.9,1.6c0,2.1-0.3,4.3-0.5,6.4
		c0,0,0.2-0.1,0.2-0.1c-0.3,0.1-0.5,0.2-0.8,0.3c0.3,0.3,0.5,0.6,0.8,0.8l-0.2-0.2c0.1,0.2,0.3,0.4,0.4,0.7c0.3-0.2,0.5-0.4,0.8-0.7
		l-0.1,0.2c1.9-0.4,3.8-0.9,5.7-1c0.7,0,1.5,1,2.2,1.6c-0.8,0.6-1.5,1.4-2.4,1.6C260.5,259.2,257.2,259.8,253.8,260.6
		C253.8,260.5,253.8,260.6,253.8,260.6z"/>
	<path class="st0" d="M109.9,264.6c3.8-0.7,7.6-1.4,11.4-2c0.5-0.1,1.3,0.3,1.4,0.6c0.3,0.7,0.4,1.6,0.1,2.3
		c-0.2,0.4-1.1,0.8-1.7,0.8c-5.6-0.6-8.5,0.6-4.8,6.7c0.3,0.5-1,1.9-1.5,2.9c-0.5-0.8-1.2-1.5-1.5-2.3
		C112.2,270.6,111.1,267.6,109.9,264.6C109.9,264.6,109.9,264.6,109.9,264.6z"/>
	<path class="st0" d="M90.8,114.4c0.4-0.5,0.7-1.1,1.1-1.6c-0.6-0.2-1.2-0.6-1.7-0.4c-1.7,0.6-3.2,1.8-4.9,2.1
		c-0.8,0.2-1.9-1-2.9-1.5c0.8-0.5,1.5-1.2,2.3-1.6c3.1-1.3,6.2-2.4,9.4-3.6l-0.1-0.1c0.5,4,1,8,1.4,11.9c0,0.5-1,1.5-1.2,1.5
		c-0.8-0.3-2-0.8-2.2-1.5c-0.6-1.7-0.9-3.5-1.2-5.3L90.8,114.4z"/>
	<path class="st0" d="M275.8,233.6c-1-3.6-2-7.2-2.8-10.8c-0.2-0.8,0.5-1.7,0.7-2.6c0.8,0.5,1.9,0.9,2.4,1.7
		c0.4,0.6,0.3,1.6,0.4,2.4c0.4,3.3,1.8,4.3,4.7,2.1c0.5-0.4,1.1-1,1.7-1c1.1,0,2.2,0.3,3.3,0.5c-0.7,0.8-1.2,1.8-2,2.4
		C281.5,230.1,278.6,231.8,275.8,233.6C275.8,233.6,275.8,233.6,275.8,233.6z"/>
	<path class="st0" d="M78.3,221.1c3.2,1.8,6.4,3.5,9.6,5.3c0.9,0.5,1.6,1.4,2.4,2.1c-1.1,0.5-2.5,1.5-3.3,1.3
		c-1.7-0.5-3.1-1.8-4.6-2.8c0,0,0.1,0.2,0.1,0.2c-0.4,0-0.8,0-1.2,0c0,0,0.1-0.2,0.1-0.2c-0.3,2.2-0.5,4.4-1.1,6.5
		c-0.3,0.9-1.5,1.4-2.3,2.1c-0.3-1-0.8-2-0.7-2.9c0.3-3.9,0.8-7.8,1.2-11.6C78.4,221,78.3,221.1,78.3,221.1z"/>
	<path class="st0" d="M283.2,216.2c-1.5-2.8-3.2-5.6-4.6-8.5c-0.3-0.7,0-1.7,0-2.6c1,0.2,2,0.4,2.8,0.7c0.3,0.1,0.6,0.8,0.6,1.3
		c1,5.6,3.1,6.1,6.8,1.8c0.5-0.6,2-0.7,3-0.7c0.4,0,1.2,1.3,1.1,1.4c-0.7,0.7-1.5,1.4-2.3,1.9C288,213.2,285.4,214.8,283.2,216.2z"
		/>
	<path class="st0" d="M219.8,74.7c-3.6,1.4-7.3,2.9-10.9,4.2c-0.8,0.3-1.8-0.2-2.7-0.3c0.4-0.9,0.5-2.2,1.1-2.6
		c2.1-1.2,4.4-1.9,6.6-2.8c-1.6-1.9-3.2-3.4-4.3-5.2c-0.4-0.6,0.3-1.9,0.6-2.9c0.8,0.5,1.7,0.9,2.3,1.5
		C214.9,69.2,217.3,72,219.8,74.7L219.8,74.7z"/>
	<path class="st0" d="M102,255.2c0.1,2.2,0.5,4.5,0.3,6.7c-0.1,0.9-1.3,1.7-2,2.5c-0.4-0.9-0.9-1.7-1.1-2.6c-0.6-3.7-1-7.4-1.5-11.1
		c0,0-0.2,0.1-0.2,0.1c3.4,0.5,6.8,1,10.1,1.7c0.9,0.2,1.8,0.9,2.7,1.3c-0.8,0.7-1.5,2-2.3,2c-1.7,0.2-3.5-0.3-5.2-0.5
		c0,0,0-0.1,0-0.1c-0.3,0-0.6-0.1-0.8-0.1c-0.3,0.1-0.6,0.2-0.9,0.3c0,0,0,0.2,0,0.2C101.4,255.6,101.7,255.4,102,255.2z"/>
	<path class="st0" d="M119.9,84.6c-0.8,3.8-1.6,7.6-2.5,11.3c-0.2,0.6-1.2,1-1.9,1.4c-0.4-0.7-1.3-1.7-1.1-2.1
		c2.9-6.3,0.6-8-5.6-6.8c-0.4,0.1-1.1-1.4-1.7-2.1c0.8-0.4,1.5-1.1,2.3-1.1C112.9,84.8,116.4,84.7,119.9,84.6L119.9,84.6z"/>
	<path class="st0" d="M286.8,200.6c-1.4-2.9-2.9-5.8-4.2-8.7c-0.4-0.9-0.4-2-0.5-2.9c1,0.3,2.7,0.3,2.9,0.9c2,5.9,4.4,7.1,8,1.1
		c0.3-0.6,1.9-0.4,2.9-0.6c0,0.9,0.4,2.2,0,2.6C292.9,195.6,289.8,198.1,286.8,200.6L286.8,200.6z"/>
	<path class="st0" d="M230,78.6c-1.2-1.5-2.7-2.8-3.6-4.5c-0.3-0.6,0.7-2,1.1-3c0.6,0.6,1.6,1.1,1.9,1.8c1.3,2.8,2.4,5.7,3.6,8.6
		c-3,1.1-6.2,2.4-9.6,3.5c-0.5,0.2-1.8-0.7-1.9-1.2c-0.1-0.7,0.5-1.7,1.1-2.1c1.5-1,3.2-1.7,4.9-2.5c0,0-0.2,0.2-0.2,0.2
		C228.2,79.1,229.1,78.9,230,78.6c-0.2,0.2-0.4,0.5-0.5,0.7c0.1,0.1,0.3,0.1,0.4,0.2C229.9,79.2,230,78.9,230,78.6z"/>
	<path class="st0" d="M244.4,88.1c-0.8-2-1.7-3.9-2.3-5.9c-0.2-0.6,0.8-1.6,1.4-2.2c0.2-0.2,1.5,0.4,1.6,0.8c1,3.9,1.8,7.8,2.6,11.7
		c0,0,0.1-0.1,0.1-0.1c-3,0-6,0-9,0c-1,0-2.1,0.1-3-0.2c-0.3-0.1-0.5-1.6-0.4-1.7c0.9-0.5,2-1,3-1.2c1.6-0.2,3.2-0.2,4.9-0.2
		l-0.1-0.2c0.1,0.3,0.2,0.5,0.3,0.8c0.3-0.2,0.6-0.5,0.9-0.7c0,0-0.2,0.2-0.2,0.2c0-0.4,0-0.8,0-1.2L244.4,88.1z"/>
	<path class="st0" d="M257.4,99.2c-0.4-1.9-0.9-3.9-1-5.8c0-0.7,1.1-1.5,1.8-2.2c0.5,0.7,1.2,1.3,1.4,2.1c0.2,0.5-0.3,1.3-0.3,1.9
		c0,2.7,0.1,5.4,0.1,8.2c-2.9-0.1-5.9,0-8.8-0.3c-0.8-0.1-1.5-1-2.3-1.5c0.9-0.7,1.7-1.8,2.7-1.9c1.8-0.1,3.6,0.4,5.4,0.6
		c0,0-0.2-0.2-0.2-0.2c0.1,0.3,0.2,0.5,0.3,0.8c0.3-0.3,0.6-0.5,0.9-0.8l-0.1,0.2c0-0.4,0-0.8,0-1.2L257.4,99.2z"/>
	<path class="st0" d="M134.8,76.6c-1.2,3.6-2.3,7.2-3.6,10.8c-0.2,0.5-1.5,1-2.2,0.8c-0.5-0.1-1.3-1.4-1.1-1.9
		c0.7-2.3,1.7-4.6,2.7-6.9c0,0-0.1-0.3-0.1-0.3l0,0.4c-1.9-0.3-3.9-0.5-5.7-1.1c-1-0.4-1.6-1.6-2.4-2.4c1-0.2,2-0.7,3-0.6
		C128.6,75.7,131.7,76.2,134.8,76.6L134.8,76.6z"/>
	<path class="st0" d="M179.8,68.2c-1.9-1.3-3.9-2.5-5.5-3.9c-0.6-0.6-0.6-1.9-0.8-2.9c1,0.1,2.3,0,2.9,0.5c2.4,2,4.7,4.2,7,6.3
		c-2.2,2.2-4.3,4.4-6.5,6.5c-0.6,0.5-1.7,0.5-2.5,0.7c0-1-0.4-2.3,0.1-2.8C175.8,71.1,177.6,69.9,179.8,68.2z"/>
	<path class="st0" d="M102.9,100.4c-1.5-0.1-3-0.2-4.5-0.3c-1.5-0.1-3.1-0.2-4.6-0.5c-0.2,0-0.2-1.2-0.2-1.8
		c1.4-0.1,2.8-0.3,4.1-0.4c3-0.3,6-0.5,9-0.8c0,0-0.1-0.1-0.1-0.1c-0.5,3.1-0.8,6.2-1.4,9.3c-0.2,0.9-1,1.8-1.6,2.6
		c-0.6-0.9-1.8-1.9-1.8-2.8C101.9,103.9,102.6,102.2,102.9,100.4L102.9,100.4z"/>
	<path class="st0" d="M87.5,238.1c-3.5-1.9-5.3-4.8-5.1-8.9c0,0-0.1,0.1-0.1,0.1c3.6,1.9,5.3,4.8,5.1,8.9
		C87.3,238.2,87.5,238.1,87.5,238.1z"/>
	<path class="st0" d="M129.3,276c4.3,0.4,8.3,1.5,11.6,4.6c0,0,0,0,0,0c-3.1,0.8-5.9,0.8-8.1-2.3c-0.6-0.8-2.3-0.9-3.5-1.3
		c0,0,0.1,0.1,0.1,0.1c0-0.4,0-0.8,0-1.2L129.3,276z"/>
	<path class="st0" d="M162.2,286.1c3.6,0.5,7.2,1,10.8,1.6c0,0-0.1,0-0.1,0C168.7,291.4,165.7,287.2,162.2,286.1
		C162.2,286.1,162.2,286.1,162.2,286.1z"/>
	<path class="st0" d="M286.7,200.6c2.2,3.3,1.4,6-2.6,8.1C285,206,285.9,203.3,286.7,200.6C286.8,200.6,286.7,200.6,286.7,200.6z"/>
	<path class="st0" d="M134.9,76.6c2.9-1.3,5.9-2.7,8.8-4C141.8,76.9,138.8,78.2,134.9,76.6C134.8,76.6,134.9,76.6,134.9,76.6z"/>
	<path class="st0" d="M97.7,250.7c-4,0.2-5.4-2-5.3-5.7l-0.1,0.1c3.6,0.3,4.6,2.8,5.2,5.7C97.6,250.9,97.7,250.7,97.7,250.7z"/>
	<path class="st0" d="M84.9,123.6c-1.2-4.2,1.6-6.5,4-9c0,0,0,0,0,0C91.2,119.2,86.1,120.6,84.9,123.6
		C84.9,123.6,84.9,123.6,84.9,123.6z"/>
	<path class="st0" d="M277.9,224.9c1.1-2.4,2.2-4.7,3.3-7.1c0.6,0.3,1.2,0.6,1.8,0.9c-1.1,2.4-2.3,4.8-3.4,7.2
		C279.1,225.5,278.5,225.2,277.9,224.9z"/>
	<path class="st0" d="M253.8,260.5c-2.9,1.7-5.8,3.5-8.6,5.2c0,0,0.1,0.2,0.1,0.2C247.6,263.3,248.8,258.9,253.8,260.5
		C253.8,260.6,253.8,260.5,253.8,260.5z"/>
	<path class="st0" d="M255.6,97.7c-4.7,1.4-5.1-3.5-7.6-5.2c0,0-0.1,0.1-0.1,0.1c4.4-0.9,6,2.2,7.6,5.3
		C255.4,97.8,255.6,97.7,255.6,97.7z"/>
	<path class="st0" d="M103.9,256.7c1.9,2,6.2,2,5.4,6.4l0.1-0.1C105.6,262.5,103.6,260.6,103.9,256.7L103.9,256.7z"/>
	<path class="st0" d="M259.9,254.5c-1.7-4.9,2.9-5.5,5.2-7.7c0,0-0.1-0.1-0.1-0.1C265.8,250.9,262.5,252.4,259.9,254.5L259.9,254.5z
		"/>
	<path class="st0" d="M241.5,86.9c-3.8,1.1-5.6-1-6.8-4.2c0.3-0.3,0.6-0.7,0.9-1c1.9,1.8,3.8,3.5,5.7,5.3L241.5,86.9z"/>
	<path class="st0" d="M265.8,111.6c-1.7-2.1-3.3-4.2-5-6.3c0.4-0.3,0.7-0.5,1.1-0.8C264.9,105.9,267.3,107.6,265.8,111.6
		C265.8,111.6,265.8,111.6,265.8,111.6z"/>
	<path class="st0" d="M219.7,74.8c3.5,0,5.9,1.6,7.6,4.5c0,0,0.2-0.2,0.2-0.2C224.6,78.2,220.3,79.8,219.7,74.8
		C219.8,74.7,219.7,74.8,219.7,74.8z"/>
	<path class="st0" d="M119.9,84.6c2.3-1.4,4.5-2.8,6.8-4.1c0,0,0,0,0,0C126.7,85.6,123.7,85.7,119.9,84.6
		C119.9,84.6,119.9,84.6,119.9,84.6z"/>
	<path class="st0" d="M94,107.7c2.2-1.8,1.9-7,6.8-5l0,0C99,105,98.1,108.6,94,107.7C93.9,107.7,94,107.7,94,107.7z"/>
	<path class="st0" d="M75.9,212.3c-0.2,3.2,5.3,4.9,2.4,8.8c0,0,0.1-0.1,0.1-0.1C73.9,219.2,75.6,215.5,75.9,212.3
		C75.9,212.3,75.9,212.3,75.9,212.3z"/>
	<path class="st0" d="M274.5,234.2c0.1,3.2-0.8,5.6-4.7,5.3c0,0,0.1,0,0.1,0c1.5-1.9,2.9-3.7,4.4-5.6L274.5,234.2z"/>
	<path class="st0" d="M107.9,95.5c-1.3-5,3.5-4.1,5.6-5.8l-0.1,0.1c-0.5,3.2-2.2,5.2-5.6,5.5L107.9,95.5z"/>
	<path class="st0" d="M196.2,286c1,0,2.1-0.1,3.1-0.1c0,0-0.1-0.2-0.2-0.2c-1,0.4-2,0.9-3,1.3c0,0,0.2,0.1,0.2,0.1
		C196.3,286.8,196.3,286.4,196.2,286C196.3,285.9,196.2,286,196.2,286z"/>
	<path class="st0" d="M82.4,227c0,0.8-0.1,1.6-0.1,2.4c0,0,0.1-0.1,0.1-0.1c-0.3-0.7-0.6-1.5-1-2.3c0,0-0.1,0.2-0.1,0.2
		c0.4,0,0.8,0,1.2,0C82.5,227.1,82.4,227,82.4,227z"/>
	<path class="st0" d="M269.8,239.5c0.1,0.4,0.2,0.9,0.3,1.3c-0.1,0-0.3,0-0.4,0C269.7,240.5,269.8,240,269.8,239.5
		C269.9,239.6,269.8,239.5,269.8,239.5z"/>
	<path class="st0" d="M126.7,80.4c0.5,0.1,1,0.2,1.5,0.3c-0.1,0.1-0.2,0.2-0.3,0.2C127.5,80.8,127.1,80.6,126.7,80.4
		C126.7,80.4,126.7,80.4,126.7,80.4z"/>
	<path class="st0" d="M256.7,98.7c-0.4-0.3-0.8-0.7-1.1-1c0,0-0.1,0.1-0.1,0.1c0.4,0.3,0.7,0.7,1.1,1L256.7,98.7z"/>
	<path class="st0" d="M245.2,265.8c-0.3,0.4-0.6,0.8-0.9,1.2c0,0,0.2,0.1,0.2,0.1c0-0.4,0-0.8,0-1.2c0,0-0.2,0.2-0.2,0.2
		c0.4-0.1,0.7-0.1,1.1-0.2C245.3,265.9,245.2,265.8,245.2,265.8z"/>
	<path class="st0" d="M116.8,267.9l-0.4,0c0,0,0.2,0.1,0.2,0.1C116.6,267.9,116.8,267.9,116.8,267.9z"/>
	<path class="st0" d="M107.7,95.4c-0.4,0.4-0.7,0.7-1.1,1.1c0,0,0.1,0.1,0.1,0.1c0.4-0.4,0.7-0.8,1.1-1.1
		C107.9,95.5,107.7,95.4,107.7,95.4z"/>
	<path class="st0" d="M266.9,112.7c0.5,0.2,0.9,0.3,1.4,0.5c0,0,0.1-0.2,0.1-0.2c-0.4,0-0.8,0-1.2,0l0.2,0.2
		C267.5,112.9,267.3,112.7,266.9,112.7L266.9,112.7z"/>
	<path class="st0" d="M231,274.6c0,0.3,0,0.6,0.1,0.8c0-0.1-0.1-0.2-0.1-0.2c0-0.2,0.1-0.3,0.1-0.5C231.1,274.7,231,274.6,231,274.6
		z"/>
	<path class="st0" d="M113.4,89.7c0,0.1,0,0.2,0,0.3c-0.1,0-0.1-0.1-0.2-0.1C113.3,89.9,113.4,89.7,113.4,89.7z"/>
	<path class="st0" d="M274.3,234c0.5-0.1,1-0.3,1.5-0.4c0,0,0,0,0,0c-0.4,0.2-0.9,0.4-1.3,0.6C274.5,234.2,274.3,234,274.3,234z"/>
	<path class="st0" d="M243.4,89.2c0.3-0.4,0.7-0.7,1-1.1c0,0-0.1-0.1-0.1-0.1c0,0.4,0,0.8,0,1.2c0,0,0.2-0.2,0.2-0.2
		c-0.4,0-0.8,0-1.2,0C243.2,89.1,243.4,89.2,243.4,89.2z"/>
	<path class="st0" d="M241.4,87c0.1,0.1,0.2,0.2,0.3,0.3c0,0.1,0,0.2-0.1,0.3c0-0.2-0.1-0.4-0.1-0.7C241.5,86.9,241.4,87,241.4,87z"
		/>
	<path class="st0" d="M90.6,114.2c-0.6,0.1-1.2,0.2-1.8,0.3c0,0,0,0,0,0c0.6-0.1,1.2-0.2,1.9-0.2C90.8,114.4,90.6,114.2,90.6,114.2z
		"/>
	<path class="st0" d="M175,287.6c-0.7,0-1.4,0.1-2.1,0.1c0,0,0.1,0,0.1,0C173.6,287.7,174.3,287.6,175,287.6
		C175,287.6,175,287.6,175,287.6z"/>
	<path class="st0" d="M259.8,254.5c-0.4,0.2-0.9,0.4-1.3,0.7c0,0,0.2,0.1,0.2,0.1C259.1,255,259.5,254.7,259.8,254.5
		C259.9,254.5,259.8,254.5,259.8,254.5z"/>
	<path class="st0" d="M92.5,245c-0.2-0.1-0.5-0.2-0.7-0.4c0.2,0.2,0.4,0.3,0.6,0.5C92.3,245.1,92.5,245,92.5,245z"/>
	<path class="st0" d="M258.6,255.1c-0.1,0.2-0.3,0.4-0.4,0.7c0,0.1,0.1,0.3,0.1,0.4c0,0,0.1-0.2,0.1-0.2c-0.4,0-0.8,0-1.2,0
		c0,0,0.2,0.2,0.2,0.2c0-0.4,0-0.8,0-1.2c0,0-0.2,0.1-0.2,0.1c0.5,0,1,0.1,1.5,0.1C258.7,255.2,258.6,255.1,258.6,255.1z"/>
	<path class="st0" d="M103,100.4c-0.3,0.4-0.6,0.8-1,1.1c0,0,0,0,0,0C102.3,101.2,102.6,100.8,103,100.4
		C102.9,100.4,103,100.4,103,100.4z"/>
	<path class="st0" d="M104,256.7c-0.4-0.4-0.8-0.8-1.2-1.3c0,0,0,0.1,0,0C103.1,255.8,103.5,256.3,104,256.7
		C103.9,256.7,104,256.7,104,256.7z"/>
	<path class="st0" d="M79.9,129.6c0.7,0,1.3-0.1,2-0.1c0,0-0.1,0,0,0C81.2,129.5,80.6,129.6,79.9,129.6
		C79.9,129.6,79.9,129.6,79.9,129.6z"/>
	<path class="st0" d="M100.8,102.7c0.4-0.4,0.8-0.8,1.2-1.1c0,0,0,0,0,0C101.6,102,101.2,102.3,100.8,102.7
		C100.8,102.7,100.8,102.7,100.8,102.7z"/>
	<path class="st0" d="M267,112.6c-0.4-0.3-0.8-0.7-1.1-1c0,0,0,0,0,0C266.2,112,266.6,112.3,267,112.6
		C266.9,112.7,267,112.6,267,112.6z"/>
	<path class="st0" d="M256.6,98.8c0.2,0.3,0.5,0.4,0.8,0.4c0,0-0.2-0.2-0.2-0.2c0,0.4,0,0.8,0,1.2c0,0,0.1-0.2,0.1-0.2
		c-0.4,0-0.8,0-1.2,0c0,0,0.2,0.2,0.2,0.2c0.1-0.5,0.2-1,0.3-1.5C256.7,98.7,256.6,98.8,256.6,98.8z"/>
	<path class="st0" d="M109.3,263.1c0.2,0.5,0.4,1,0.7,1.5c0,0,0,0,0,0c-0.2-0.5-0.4-1-0.6-1.6C109.4,263,109.3,263.1,109.3,263.1z"
		/>
	<path class="st0" d="M320.2,220.6c-3.3-2.1-6-3.8-8.6-5.5c-0.4-0.3-0.7-0.7-1.5-1.4c1.7-0.4,3-0.8,4.3-0.9c2.3-0.2,4.5-0.2,6.8-0.3
		C320.9,215,320.6,217.5,320.2,220.6z"/>
	<path class="st0" d="M247.3,59.9c0-7,6-13.3,12.7-13.3c5.2,0,10.2,5.3,10.2,10.9c0.1,6.9-6.6,13.8-13.2,13.7
		C251,71,247.3,66.7,247.3,59.9z"/>
	<path class="st0" d="M44.4,145.1c-7-0.1-13.2-5.9-13-12.3c0.1-5.5,5.8-10.4,11.9-10.3c6.6,0.1,13.2,6.4,13.1,12.6
		C56.3,140.7,51,145.2,44.4,145.1z"/>
	<path class="st0" d="M152.3,315.2c0.1,6.5-5.8,13.2-11.7,13.4c-5.8,0.2-10.7-4.9-10.9-11.4c-0.2-6.9,5.7-13.7,11.9-13.8
		C146.9,303.3,152.2,309.1,152.3,315.2z"/>
	<path class="st0" d="M126.9,301c-2.6,2.3-4.3,4.2-6.3,5.3c-0.9,0.5-3-0.4-3.9-1.3c-0.5-0.5,0.2-2.3,0.5-3.4
		c0.3-0.9,0.6-1.9,1.2-2.7c1-1.2,2.9-3.2,3.2-3C123.3,297,124.6,298.7,126.9,301z"/>
	<path class="st0" d="M59.6,238.8c-1.8,1.4-3.8,2.6-5.5,4.1c-3.9,3.7-4.9,3.6-6.4-1.7c-0.2-0.8,0.7-2.5,1.5-3
		c1.2-0.7,2.8-0.6,4.3-0.8c1.6-0.2,3.3-0.2,4.9-0.3C58.9,237.7,59.3,238.2,59.6,238.8z"/>
	<path class="st0" d="M160.6,316.3c1.5-3.2,2.3-7.4,4-7.9c3.1-0.8,5.3,1.9,5,5.6c-0.2,3.6-2.4,5.4-5.8,5.2
		C162.8,319.2,161.9,317.6,160.6,316.3z"/>
	<path class="st0" d="M96.9,49.7c3.4,2.6,5.6,4.3,7.7,6.1c0.8,0.7,1.4,1.7,2,2.6c-1.9,1.2-3.7,2.5-5.7,3.6c-0.1,0-1.3-1.5-1.6-2.5
		C98.5,56.7,97.9,53.8,96.9,49.7z"/>
	<path class="st0" d="M195.6,26.6c0.9,3.5,1.5,5.6,2,7.8c1.2,4.8,0.6,5.4-4.4,4.5c-2.5-0.4-3.7-1.1-2-3.7
		C192.7,32.8,193.8,30.1,195.6,26.6z"/>
	<path class="st0" d="M284,287.5c0.1,0,0.2-0.1,0.4-0.1c-0.1,0.1-0.2,0.1-0.2,0.2C284.1,287.6,284,287.5,284,287.5z"/>
	<path d="M200.5,87.9c13.2,1.7,24.5,7.8,34.8,15.7c35.9,27.4,47.7,73.2,28.4,113.9c-14.4,30.4-39.1,48.1-72.7,52.7
		c-15.4,2.1-30.4,0.1-44.9-5.4c-1-0.4-1.9-1.2-2.9-1.7c0.1-0.2,0.2-0.3,0.4-0.5c1.1,0.3,2.3,0.5,3.3,0.9c14.8,5.5,30,7.3,45.5,5.1
		c47.7-6.8,82.3-49.7,78.3-97.5c-2.7-31.9-18.1-56.2-45.6-72.3c-7.7-4.5-16.6-7.1-24.9-10.6L200.5,87.9z"/>
	<path d="M143.2,263.2c-9.9-2.9-18.1-8.9-25.6-15.7C97,228.6,86.3,205,86.5,176.9c0.3-50.6,42.1-91.9,92.6-91.7
		c7.1,0,14.3,1.7,21.4,2.7c0,0-0.3,0.4-0.3,0.4c-5.6-0.6-11.2-1.7-16.8-1.8C154,86,129.3,96.3,110,118.8
		c-30.4,35.4-29.3,88.7,4.3,123.6c8.4,8.7,18.6,14.8,29.2,20.4C143.4,262.9,143.3,263.1,143.2,263.2z"/>
	<path d="M71.6,193.6c-0.1,0.1-0.2,0.1-0.3,0.2c0.1-0.1,0.1-0.2,0.2-0.3C71.5,193.5,71.6,193.6,71.6,193.6z"/>
	<path d="M196.3,285.9c0,0.4,0,0.8,0,1.2C196.3,286.8,196.3,286.4,196.3,285.9z"/>
	<path d="M146.4,284c-0.4-0.3-0.8-0.5-1.2-0.8c0.2-0.1,0.5-0.3,0.7-0.4c0.1,0.4,0.2,0.8,0.3,1.3C146.2,284.1,146.4,284,146.4,284z"
		/>
	<path d="M195.6,67.9c0.4,0.4,0.7,0.8,1.1,1.1c-0.1,0-0.4,0.1-0.4,0.1c-0.2-0.5-0.3-0.9-0.5-1.4C195.7,67.8,195.6,67.9,195.6,67.9z"
		/>
	<path d="M267.2,113c0.4,0,0.8,0,1.2,0c-0.2,0.3-0.4,0.6-0.6,0.9C267.6,113.7,267.4,113.4,267.2,113z"/>
	<path d="M284.5,144.1c-0.4,0-0.8,0-1.2,0C283.6,144.1,284,144.1,284.5,144.1z"/>
	<path d="M129.4,275.9c0,0.4,0,0.8,0,1.2C129.4,276.7,129.4,276.3,129.4,275.9z"/>
	<path d="M244.4,265.9c0,0.4,0,0.8,0,1.2c-0.3-0.1-0.5-0.2-0.8-0.3C243.9,266.5,244.1,266.2,244.4,265.9z"/>
	<path d="M288.4,161.2c-0.2,0.2-0.4,0.3-0.6,0.5c0.2-0.1,0.4-0.3,0.7-0.4C288.5,161.3,288.4,161.2,288.4,161.2z"/>
	<path d="M257.4,255c0,0.4,0,0.8,0,1.2c-0.3-0.3-0.5-0.6-0.8-0.8C256.8,255.2,257.1,255.1,257.4,255z"/>
	<path d="M257.2,256c0.4,0,0.8,0,1.2,0c-0.3,0.2-0.5,0.4-0.8,0.7C257.5,256.4,257.3,256.2,257.2,256z"/>
	<path d="M82.5,227.1c-0.4,0-0.8,0-1.2,0C81.7,227.1,82.1,227.1,82.5,227.1z"/>
	<path d="M102,255.2c-0.3,0.2-0.6,0.4-0.9,0.6c0-0.1,0-0.2,0-0.2c0.3-0.1,0.6-0.2,0.9-0.3C102,255.2,102,255.2,102,255.2z"/>
	<path d="M230,78.6c0,0.3-0.1,0.6-0.1,0.9c-0.1-0.1-0.3-0.1-0.4-0.2C229.7,79.1,229.8,78.9,230,78.6C230.1,78.6,230,78.6,230,78.6z"
		/>
	<path d="M244.3,89.2c0-0.4,0-0.8,0-1.2C244.3,88.4,244.3,88.8,244.3,89.2z"/>
	<path d="M243.2,89.1c0.4,0,0.8,0,1.2,0c-0.3,0.2-0.6,0.5-0.9,0.7C243.4,89.6,243.3,89.3,243.2,89.1z"/>
	<path d="M256.2,100c0.4,0,0.8,0,1.2,0c-0.3,0.3-0.6,0.5-0.9,0.8C256.4,100.6,256.3,100.3,256.2,100z"/>
	<path d="M257.2,100.2c0-0.4,0-0.8,0-1.2C257.2,99.4,257.2,99.8,257.2,100.2z"/>
	<path d="M130.5,79.6l0-0.4c0,0,0.1,0.3,0.1,0.3C130.5,79.4,130.5,79.6,130.5,79.6z"/>
	<path class="st0" d="M143.6,262.8c-10.6-5.6-20.8-11.7-29.2-20.4c-33.6-34.9-34.8-88.3-4.3-123.6c19.3-22.5,44-32.8,73.4-32.2
		c5.6,0.1,11.2,1.2,16.8,1.8c8.3,3.5,17.2,6.1,24.9,10.6c27.5,16.1,42.9,40.4,45.6,72.3c4.1,47.9-30.6,90.8-78.3,97.5
		c-15.6,2.2-30.8,0.4-45.5-5.1C145.8,263.3,144.7,263.1,143.6,262.8z M218.4,225.1c-1.1,0.7-2.1,1.4-3.2,2c0.2-4.1,0.4-8.1,0.7-13.4
		c-5.6,5.7-7.5,9.4-5.5,12.6c2.8,4.6,0.3,6.7-2.9,8.7c-2.3,1.5-4.8,2.6-7.2,3.9c-6,0.9-11.9,1.8-17.9,2.6c-1.9,0.3-3.9,0.5-5.7,0.1
		c-3.3-0.6-6.5-1.6-9.7-2.5c-0.1,0.4-0.2,0.8-0.2,1.2c2.9,0.8,5.9,1.5,8.8,2.5c1.5,0.6,3.1,1.7,0.4,3.4c-0.9,0.6-1,2.5-1.4,3.8
		c0.4,0.1,0.8,0.1,1.1,0.2c1.4-1.4,2.7-2.9,4.1-4.3c1.2,1.5,2.5,3.1,3.7,4.6c0.8-1.5,0.9-3.3,0.1-3.9c-3.5-2.5-1.4-3.6,1-4.5
		c1.7-0.6,3.5-1,5.2-1.3c3.5-0.7,7-1.3,10.6-1.9c9.4,7,9.9,7.1,18.7,1.3c-6-0.6-10.7-1.1-14.8-1.6c1.4-1,3.6-2.9,6-4.1
		c2-1,4.5-1.9,6.6-1.5c7.2,1.4,10.4-0.5,12.4-9.5c-4.4,2.8-7.9,4.8-11,7.1c-2.9,2.2-2.8,0.1-3-1.8
		C216.3,227.7,217.3,226.3,218.4,225.1c0.2-0.8,0.4-1.5,0.7-2.3c8.1-4.6,9.6-10.4,5-18.2c-4.1,5.4-6.1,11.4-4.8,18.3
		C218.9,223.7,218.6,224.4,218.4,225.1z M139.4,224c0.7,1,1.3,2,2,3c0.8,1.5,1.6,3.1,2.8,5.5c-5.5-1.8-8.6-8-14.7-5.9
		c3.2,7.4,5.4,8.4,13,6.9c1.8-0.4,4.1,0.5,5.9,1.2c2.1,0.9,3.9,2.3,5.8,3.5c0,0.6,0,1.2,0,1.8c-4.6-2.7-8.4-0.3-13.1,1.9
		c4,2.2,8.1,5,11.3,2.4c3.7-2.9,7-5.3,11.8-4.9c-3.2-0.6-6.4-1.1-9.6-1.7c-2.1-1.6-4.4-3-6.2-4.8c-0.9-0.9-1.5-2.9-1.1-4.1
		c2.2-6.1,1.6-8.7-3.6-13.4c-1.2,4.8-3.1,9.6,1,14c-1.2-0.8-2.3-1.5-3.5-2.3C140.6,226.1,140,225.1,139.4,224
		c0.8-6.9-0.2-13.4-5.4-19C130.6,214.4,131.3,216.9,139.4,224z M179.6,233.4c6.8,0,13.7,0.1,20.5-0.1c1.4-0.1,3.7-1.2,4.1-2.4
		c7-20.1,14.1-40.2,20.5-60.6c1.9-6.1,3.8-13.2-2.3-18.6c-3.8-3.4-8-6.3-11.9-9.6c-1.4-1.2-3-2.7-3.5-4.4c-1.2-4.3-1.9-8.7-2.6-13.2
		c-0.3-1.6-0.5-3.7,2.5-2.5c0.3,0.1,1.1-0.8,1.7-1.2c-0.5-0.6-1.3-1.8-1.5-1.7c-4.1,1.9-3.8-1.4-4.3-3.6c-0.4-1.8-0.1-4.3-1.2-5.2
		c-1.9-1.6-4.6-2.2-7-3.2c-0.2,1.5-0.7,3.1-0.7,4.6c0,1.5,0.6,2.9,0.8,4.4c0.1,1.3,0.4,2.8-0.1,3.7c-0.3,0.5-2.7,0.7-3.2,0.2
		c-0.8-1-0.8-2.6-1.1-3.9c-0.3-1-0.5-2.1-0.8-3.1c-0.3,1.1-0.5,2.2-0.8,3.3c-0.1,0.5,0.1,1.1-0.1,1.5c-0.5,0.9-1.2,1.6-1.8,2.4
		c-0.5-0.8-1.4-1.6-1.5-2.4c-0.2-1.8,0.1-3.7,0-5.5c0-0.6-0.8-1.1-1.3-1.7c-0.3,0.5-0.9,1-0.9,1.6c-0.1,1.7,0.2,3.3,0,5
		c-0.1,1.1-0.9,2-1.4,3c-0.6-1-1.6-1.9-1.7-3c-0.2-2.3,0.1-4.6,0-6.9c0-0.7-0.5-1.4-0.7-2.1c-0.4,0.7-1.2,1.4-1.2,2.1
		c-0.1,2.7,0.1,5.3,0,8c0,0.7-1.1,1.8-1.5,1.8c-0.7-0.1-1.9-1-1.9-1.6c-0.1-1.9,0.3-3.9,0.4-5.9c0-0.6-0.7-1.1-1.1-1.7
		c-0.5,0.5-1.3,1.1-1.3,1.6c-0.1,1.6,0.4,3.3,0.2,5c-0.1,0.9-1,1.8-1.5,2.7c-0.6-0.9-1.4-1.8-1.7-2.9c-0.2-0.7,0.4-1.6,0.2-2.4
		c-0.1-0.6-0.8-1.2-1.2-1.8c-0.5,0.5-1.2,1-1.3,1.6c-0.2,0.8,0.1,1.6,0.3,2.4c0.4,2.4-0.7,3.7-3,3c-0.9-0.3-2-2-2-3
		c0-2.5,0.7-4.9,1-7.4c0.1-0.8-0.1-2.1-0.6-2.3c-2.6-1.2-7.1,1.3-7.6,4.1c-0.4,2-0.8,3.9-1,5.9c-0.2,2.1-0.6,3.7-3.3,2.4
		c-0.5-0.2-1.5,0.8-2.2,1.3c0.7,0.5,1.4,1.1,2.1,1.6c0.7,0.5,2.2,1.1,2.1,1.5c-1.5,8.2-0.6,17-10.4,21.8
		c-9.6,4.7-12.3,13.1-9.7,23.9c5.2,21.2,13.3,41.3,21.9,61.2c0.5,1.2,2.6,2.4,4,2.4C166,233.5,172.8,233.4,179.6,233.4z"/>
	<path d="M179.6,233.4c-6.8,0-13.7,0.1-20.5-0.1c-1.4-0.1-3.5-1.2-4-2.4c-8.7-19.9-16.8-40-21.9-61.2c-2.6-10.8,0.1-19.2,9.7-23.9
		c9.8-4.8,9-13.6,10.4-21.8c0.1-0.3-1.4-0.9-2.1-1.5c-0.7-0.5-1.4-1.1-2.1-1.6c0.8-0.5,1.8-1.5,2.2-1.3c2.8,1.2,3.1-0.3,3.3-2.4
		c0.2-2,0.6-3.9,1-5.9c0.5-2.8,5.1-5.3,7.6-4.1c0.5,0.2,0.7,1.5,0.6,2.3c-0.3,2.5-1,4.9-1,7.4c0,1.1,1.1,2.7,2,3
		c2.3,0.7,3.4-0.5,3-3c-0.1-0.8-0.4-1.7-0.3-2.4c0.1-0.6,0.8-1.1,1.3-1.6c0.4,0.6,1.1,1.1,1.2,1.8c0.1,0.8-0.5,1.7-0.2,2.4
		c0.3,1,1.1,1.9,1.7,2.9c0.5-0.9,1.4-1.8,1.5-2.7c0.2-1.6-0.3-3.3-0.2-5c0-0.6,0.8-1.1,1.3-1.6c0.4,0.6,1.1,1.2,1.1,1.7
		c0,2-0.4,3.9-0.4,5.9c0,0.6,1.2,1.5,1.9,1.6c0.5,0,1.5-1.1,1.5-1.8c0.1-2.6-0.1-5.3,0-8c0-0.7,0.8-1.4,1.2-2.1
		c0.2,0.7,0.7,1.4,0.7,2.1c0.1,2.3-0.2,4.6,0,6.9c0.1,1,1.1,2,1.7,3c0.5-1,1.3-2,1.4-3c0.2-1.6-0.1-3.3,0-5c0-0.5,0.6-1,0.9-1.6
		c0.4,0.6,1.2,1.1,1.3,1.7c0.1,1.8-0.2,3.7,0,5.5c0.1,0.9,1,1.6,1.5,2.4c0.6-0.8,1.3-1.6,1.8-2.4c0.2-0.4,0-1,0.1-1.5
		c0.2-1.1,0.5-2.2,0.8-3.3c0.3,1,0.5,2,0.8,3.1c0.3,1.3,0.3,2.9,1.1,3.9c0.4,0.5,2.9,0.4,3.2-0.2c0.5-1,0.3-2.5,0.1-3.7
		c-0.2-1.5-0.8-2.9-0.8-4.4c0-1.5,0.4-3.1,0.7-4.6c2.4,1,5.1,1.6,7,3.2c1.1,0.9,0.8,3.4,1.2,5.2c0.5,2.2,0.2,5.5,4.3,3.6
		c0.2-0.1,1,1.1,1.5,1.7c-0.6,0.4-1.4,1.4-1.7,1.2c-3-1.2-2.7,0.8-2.5,2.5c0.7,4.4,1.4,8.9,2.6,13.2c0.5,1.7,2.1,3.2,3.5,4.4
		c3.9,3.3,8.1,6.2,11.9,9.6c6,5.4,4.2,12.6,2.3,18.6c-6.4,20.3-13.5,40.4-20.5,60.6c-0.4,1.2-2.6,2.4-4.1,2.4
		C193.3,233.5,186.5,233.4,179.6,233.4z M190.4,153.8c-0.5,0-0.9,0-1.4,0c-0.1-1.6-0.2-3.2-0.2-4.8c0-8,0.1-16-0.1-24
		c0-1.2-1.1-2.3-1.6-3.5c-0.6,1.1-1.7,2.2-1.7,3.3c-0.1,8.2-0.1,16.3-0.1,24.5c0,1.5,0,2.9,0,4.4c-0.4,0-0.8,0-1.2,0
		c-0.1-1.1-0.2-2.2-0.2-3.4c-0.2-8.6-0.3-17.3-0.6-25.9c0-0.9-0.8-1.8-1.3-2.7c-0.6,0.9-1.6,1.9-1.6,2.8c-0.1,8.3-0.1,16.6-0.1,25
		c0,1.5-0.2,3-0.3,4.5c-0.4,0-0.9,0-1.3,0c-0.1-1.5-0.3-3-0.3-4.5c0-8.3,0-16.6-0.1-25c0-1-1.1-2-1.7-2.9c-0.6,1-1.8,1.9-1.8,2.9
		c-0.2,7.3-0.1,14.6-0.1,22c0,2.3,0,4.6,0,6.8c-0.4,0-0.9,0-1.3-0.1c0-1.6,0-3.3,0-4.9c0-7.3,0.1-14.7-0.1-22c0-1.6-1.1-3.1-1.7-4.7
		c-0.6,1.5-1.7,2.9-1.8,4.4c-0.2,5.5-0.1,11-0.1,16.5c0,3.6,0,7.2,0,10.8c-0.6,0-1.2,0-1.9,0c0-8.9,0.1-17.8-0.1-26.7
		c0-1.9,1.4-4.9-2.7-5.1c-3.7-0.2-3.3,2.3-3.7,4.5c-0.9,5.4-2,10.8-2.5,16.2c-0.3,3.2-1.4,4.9-4.6,6.1c-5.2,2.1-9.9,5.5-9.8,11.9
		c0.4,17.8,5.8,33.9,18.4,46.9c1.3,1.3,3.3,1.8,5,2.7c0.2-1.6,0.5-3.2,0.5-4.8c0-9.6,0-19.2,0-28.7c1,0.9,1.3,1.8,1.3,2.8
		c0.3,9.8,0.4,19.6,0.8,29.3c0.1,1.4,1.1,2.7,1.6,4c0.6-1.3,1.7-2.6,1.7-3.9c0-9.5-0.3-19-0.4-28.4c0-1.3,0.3-2.6,0.4-3.9
		c0.4,0,0.8,0,1.3,0.1c0.1,1.5,0.3,3.1,0.3,4.6c0,9.7,0,19.3,0.1,29c0,1.2,1.1,2.3,1.6,3.5c0.6-1.1,1.7-2.3,1.7-3.4
		c0.1-9.7,0.1-19.3,0.1-29c0-1.5,0.1-3.1,0.2-4.6c1.1,1.5,1.2,3.1,1.3,4.6c0.1,9.6,0.2,19.3,0.4,28.9c0,1.2,1,2.3,1.6,3.5
		c0.7-1.2,1.9-2.3,1.9-3.5c0-9.3-0.2-18.6-0.4-27.9c0-1.9,0-3.8,0-5.6c0.5,0,1,0,1.6-0.1c0.1,1.7,0.3,3.3,0.3,5c0,9.3,0,18.6,0.1,28
		c0,1,1,2,1.5,3c0.7-1,2-1.9,2-2.9c0.2-6.2,0.1-12.3,0.1-18.5c0-4.7,0-9.4,0-14c0.5,0,1,0,1.5,0c0,11,0,22,0,33.6
		c1.8-1.1,2.8-1.5,3.7-2.3c1.4-1.2,2.8-2.4,3.9-3.8c9.6-11.7,13.9-25.4,15.3-40.3c0.8-8.3-3.3-13.3-10.7-16.6
		c-1.7-0.7-3.3-3.1-3.8-5c-1.3-5.6-1.9-11.4-3.2-17c-0.3-1.5-2.1-2.7-3.1-4c-0.9,1.4-2.4,2.7-2.6,4.2c-0.4,2.6,0,5.3,0,8
		C190.5,140.3,190.4,147,190.4,153.8z M178.8,224.1c5,0,10,0.1,15-0.1c0.8,0,1.7-1,2.5-1.6c-0.7-0.7-1.4-1.9-2.2-1.9
		c-10.2-0.1-20.3-0.1-30.5,0c-0.7,0-1.5,1.2-2.2,1.9c0.8,0.5,1.6,1.5,2.4,1.6C168.8,224.1,173.8,224.1,178.8,224.1z"/>
	<path d="M200.3,238.9c2.4-1.3,4.9-2.4,7.2-3.9c3.2-2.1,5.7-4.2,2.9-8.7c-1.9-3.2,0-6.9,5.5-12.6c-0.3,5.3-0.5,9.3-0.7,13.4
		c0,0,0.2-0.2,0.2-0.2c-0.6,0.6-1.3,1.3-1.9,1.9c0.6,0.1,1.3,0.2,1.9,0.2l-0.1-0.1c0.2,1.9,0.1,4,3,1.8c3.1-2.4,6.6-4.3,11-7.1
		c-2,9.1-5.3,10.9-12.4,9.5c-2-0.4-4.6,0.5-6.6,1.5c-2.4,1.2-4.6,3.1-6,4.1c4.1,0.4,8.8,0.9,14.8,1.6c-8.7,5.8-9.2,5.8-18.7-1.3
		L200.3,238.9z"/>
	<path d="M154.1,238.3c-1.9-1.2-3.7-2.7-5.8-3.5c-1.8-0.8-4.1-1.6-5.9-1.2c-7.6,1.5-9.7,0.5-13-6.9c6.1-2.1,9.3,4.2,14.7,5.9
		c-1.2-2.4-2-3.9-2.8-5.5l-0.1,0.1c1.2,0.8,2.3,1.5,3.5,2.3c-4.2-4.4-2.2-9.1-1-14c5.2,4.8,5.7,7.3,3.6,13.4
		c-0.4,1.1,0.2,3.2,1.1,4.1c1.8,1.9,4.1,3.2,6.2,4.8C154.4,238,154.3,238.1,154.1,238.3z"/>
	<path d="M219.2,222.9c-1.3-6.9,0.7-12.9,4.9-18.3c4.6,7.8,3.1,13.6-5,18.2C219.1,222.8,219.2,222.9,219.2,222.9z"/>
	<path d="M139.4,224c-8.1-7.1-8.9-9.6-5.4-19C139.2,210.6,140.2,217.1,139.4,224C139.3,224.1,139.4,224,139.4,224z"/>
	<path d="M200.4,239.1c-3.5,0.6-7,1.2-10.6,1.9c-1.8,0.3-3.6,0.7-5.2,1.3c-2.4,0.9-4.5,2-1,4.5c0.8,0.6,0.7,2.4-0.1,3.9
		c-1.2-1.5-2.5-3.1-3.7-4.6c-1.4,1.4-2.7,2.9-4.1,4.3c-0.4-0.1-0.8-0.1-1.1-0.2c0.4-1.3,0.5-3.3,1.4-3.8c2.7-1.7,1.1-2.8-0.4-3.4
		c-2.8-1.1-5.8-1.7-8.8-2.5c0.1-0.4,0.2-0.8,0.2-1.2c3.2,0.8,6.4,1.9,9.7,2.5c1.8,0.3,3.8,0.1,5.7-0.1c6-0.8,11.9-1.8,17.9-2.6
		C200.3,238.9,200.4,239.1,200.4,239.1z"/>
	<path d="M154.6,237.8c3.2,0.6,6.4,1.1,9.6,1.7c-4.8-0.4-8.1,2-11.8,4.9c-3.2,2.5-7.3-0.2-11.3-2.4c4.7-2.1,8.6-4.5,13.1-1.9
		c0-0.6,0-1.2,0-1.8C154.3,238.1,154.4,238,154.6,237.8z"/>
	<path d="M215.2,227.1c1.1-0.7,2.1-1.4,3.2-2c0,0-0.1-0.1-0.1-0.1c-1,1.3-2,2.7-3,4c0,0,0.1,0.1,0.1,0.1c0-0.7,0-1.4,0-2.1
		C215.4,227,215.2,227.1,215.2,227.1z"/>
	<path d="M141.4,227c-0.7-1-1.3-2-2-3c0,0-0.1,0.1-0.1,0.1c0.7,1,1.3,2,2,3C141.3,227.1,141.4,227,141.4,227z"/>
	<path d="M218.4,225.1c0.3-0.7,0.6-1.4,0.9-2.2c0,0-0.1-0.1-0.1-0.1C218.8,223.5,218.5,224.3,218.4,225.1
		C218.3,225,218.4,225.1,218.4,225.1z"/>
	<path class="st0" d="M178.8,224.1c-5,0-10,0.1-15-0.1c-0.8,0-1.6-1-2.4-1.6c0.7-0.7,1.5-1.9,2.2-1.9c10.2-0.1,20.3-0.1,30.5,0
		c0.7,0,1.5,1.2,2.2,1.9c-0.8,0.5-1.6,1.5-2.5,1.6C188.8,224.1,183.8,224.1,178.8,224.1z"/>
	<path class="st0" d="M215.4,227c0,0.7,0,1.4,0,2.1c-0.6-0.1-1.3-0.2-1.9-0.2C214.1,228.2,214.8,227.6,215.4,227z"/>
	<path class="st1" d="M202.3,88.6c27.3,7.3,47.3,23.7,60,49c7.3,14.5,9.7,29.7,9.2,46c-1.5,41.3-34.4,78.2-74.6,85
		c-28.3,4.8-53.9-0.9-75.9-19.6c-23.6-20.1-34.4-45.5-33.3-76.9c1.2-35.7,29.8-71.7,63.2-81.7c17.1-5.1,33.9-5.7,51.1-2.3"/>
	<path class="st1" d="M158.9,107.6c0,0.5,0,1,0,1.5"/>
	<path class="st1" d="M41.4,121.6c-6.7,1.2-11.3,6-11,11.5c0.3,6.5,6.1,12.5,13,12.9c7.6,0.4,12.2-3.2,13.9-9.4
		c1.5-5.4-4-12.7-10.4-14.5c-1.6-0.4-3.3-0.7-5-1"/>
	<path class="st1" d="M305.8,225.6c-6.2,2.2-9.5,6.1-9,11c0.6,6.5,5.8,11.8,12,12.5c10.6,1.2,14.5-2.7,14.5-14.5"/>
	<path class="st1" d="M286.8,255c-3,1.4-6.5,2.8-5.4,7c0.5,1.9,2.6,4.8,3.8,4.8c3.2-0.2,6.3-1.9,9.5-2.6c1.7-0.4,3.9-0.7,5.4,0
		c3.6,1.7,5.2,5,4,8.9c-1.5,4.7-5.6,4.4-9.4,4"/>
	<path class="st1" d="M51.9,93.6c-6.4,2.5-10,8-8.5,13c1.9,6.5,10.2,12.8,15.5,11.4c9.1-2.4,11.6-6.1,10.5-13.9"/>
	<path class="st1" d="M143.4,303c8.8,0.6,12.8,12.5,7,21c-3.2,4.6-7.8,6.6-13.4,5c-5.2-1.5-7.1-5.8-7.9-10.5c-1-5.6,1.3-10.3,6-13.4
		c2.3-1.5,5.3-1.8,7.9-2.6"/>
	<path class="st1" d="M45.9,166.6c3.2-0.8,5.3-2.3,5.6-6c0.3-3.7-1.7-5.8-4.6-6.9c-1.6-0.6-4.1-0.4-5.3,0.5
		c-2.2,1.7-3.8,4.2-5.6,6.4c-1.8,2.2-4.3,3.6-6.9,2.4c-1.8-0.9-4.5-3.2-4.3-4.3c0.5-2.2,2.7-4.1,4.2-6.1"/>
	<path class="st1" d="M77.4,267.5c2.7-9.2-1.3-14.3-9.5-16c-5.3-1.1-14.4,4.6-15.4,10.5c-1.3,7.9,1.1,12.3,8.4,14.4
		c2.1,0.6,4.8,0.2,6.9-0.5c1.8-0.6,3.3-2.2,1.1-4.4c-1.3-1.3-2.4-3-3.5-4.5"/>
	<path class="st1" d="M98.9,283.5c-1-5.8-2.3-7.5-5.5-7c-3.6,0.6-6.5,2.3-5.9,6.5c0.4,2.7,1.5,5.4,2.4,8c1.3,3.6,0.4,6.6-3.1,7.9
		c-2,0.8-5.2,1-6.8-0.1c-1.7-1.1-2.3-4.1-3.1-6.3c-0.3-0.9-0.1-2-0.1-3"/>
	<path class="st1" d="M330.3,146.1c1.4-3.5,3.2-7-2-9c-4-1.5-7.2,0.2-9,5c-0.4,1-1,2-1,3c0.1,3.9-2,6.2-5.6,6.4
		c-3.1,0.1-6-0.7-7.6-4.3c-1.9-4.2,1.1-5.8,3.1-8.1"/>
	<path class="st1" d="M178.8,176.6c0.2,2.8,0.5,5.7,0.5,8.5c0.1,9.5,0,19,0,28.5"/>
	<path class="st1" d="M189.8,176.6c0.2,11.5,0.3,23,0.5,34.5"/>
	<path class="st1" d="M224.3,31.2c-3.9-5.4-6.6-6-10-2c-1.9,2.3-2.4,4.7,0,7c1.7,1.7,3.5,3.2,5,5c2.1,2.5,3.4,5.7,0.9,8.4
		c-1.7,1.8-4.4,3.1-6.9,3.5c-3.8,0.5-4.5-3-5.5-5.8c-0.1-0.5,0-1,0-1.5"/>
	<path class="st1" d="M184.3,110.6c0,14.3,0,28.7,0,43"/>
	<path class="st1" d="M179.3,108.6c0,15,0,30,0,45"/>
	<path class="st1" d="M168.8,121.6c0,10.7,0,21.3,0,32"/>
	<path class="st1" d="M173.8,112.6c0,13.7,0,27.3,0,41"/>
	<path class="st1" d="M244.8,39.7c-1.5-2-2.6-4.9-4.6-5.7c-1.4-0.5-4.2,1.7-5.8,3.2c-2.7,2.5-0.5,4.8,0.9,6.9c0.6,1,1.2,2.1,2,3
		c2.6,3,3.8,6.4,0.9,9.4c-1.6,1.7-4.7,3.2-6.8,2.9c-3.6-0.6-5.1-4-5-7.7"/>
	<path class="st1" d="M174.3,176.6c0,11.5,0,23,0,34.5c0,0.7-0.3,1.3-0.5,2"/>
	<path class="st1" d="M189.8,121.6c-0.2,10.2-0.3,20.3-0.5,30.5"/>
	<path class="st1" d="M122.9,35.7c-2.9-1.6-6.1-2-8.4,0.6c-1.1,1.3-1.5,4.1-1,5.8c1,3.3,4,4.2,7.3,4.1c5.7-0.1,9.9,2.4,9.9,5.9
		c0,2.8,0,5.8-3.4,7.6c-3.3,1.7-5.7,0.4-8-1.6"/>
	<path class="st1" d="M164.9,341"/>
	<path class="st1" d="M162.9,321c4.1-0.7,7.4-2.3,8-7c0.4-3.8-3.6-7.6-7.5-6.9c-0.7,0.1-1.9,0.9-1.9,1.5c-0.3,4-0.4,8-0.6,12"/>
	<path class="st1" d="M332.8,177.6c1-2.2,2.9-4.4,2.7-6.5c-0.1-1.5-2.8-3.3-4.7-3.9c-2.7-0.9-4.9,0.4-6,3.3c-0.6,1.6-1.8,3-2.4,4.5
		c-1.3,3.1-3.8,5.2-7,4.3c-2.3-0.7-4.3-2.9-6-4.9c-2.7-3,0.6-4.8,2-6.9c0.4-0.7,1.3-1,2-1.5"/>
	<path class="st1" d="M119.9,267.5c-1.7-0.3-3.3-0.6-5.7-1c1.8,2.7,3.2,4.8,4.7,7"/>
	<path class="st1" d="M137.4,221.1c2.5,3.5,4.9,6.9,7.8,10.9c0.6-2.1,0.9-3.2,1.2-4.4"/>
	<path class="st1" d="M317.3,104.1c-4.3,8.7-8.7,17.3-13,26c-0.3,0.5-0.2,1.9,0,1.9c0.8,0.2,1.8,0.4,2.5,0c6.5-2.9,13-6,19.5-9"/>
	<path class="st1" d="M175.8,20.7c0.7,5.2,1.4,10.3,2,15.5c0.5,4.2,0.7,8.3,1,12.5"/>
	<path class="st1" d="M200.8,311.5c3.8,5.7,7.7,11.3,11.5,17"/>
	<path class="st1" d="M81.9,234.6c-0.4-2.5-0.7-5-1.2-8.2c3.4,2.6,6,4.6,8.7,6.7"/>
	<path class="st1" d="M290.3,248c7.3,4.7,14.7,9.3,22,14"/>
	<path class="st1" d="M282.3,60.1c-3,6.2-6,12.3-9,18.5c-0.5,1.1-0.7,2.3-1,3.5"/>
	<path class="st1" d="M191.3,307.5c-2,7.3-4,14.7-6,22"/>
	<path class="st1" d="M184.3,176.6c0.2,12.2,0.3,24.3,0.5,36.5"/>
	<path class="st1" d="M109.4,289c-4.8,7.2-9.7,14.3-14.5,21.5"/>
	<path class="st1" d="M275.8,267c3.7,7.2,7.4,14.4,11.1,21.7c-0.3,0.2-0.6,0.5-0.8,0.7c-7.3-4-14.5-7.9-21.8-11.9"/>
	<path class="st1" d="M175.3,308c2.7,7.2,5.3,14.3,8,21.5"/>
	<path class="st1" d="M314.8,106.1c-7.2,3-14.3,6-21.5,9"/>
	<path class="st1" d="M116.9,307.5c3.1-0.7,7,0.9,8.6-4c1.4-4.4,0.9-6.2-3.1-8.6c-4.3-2.6-4.1,1.7-4.9,3.2
		c-3.3,6.2-6.1,12.6-9.1,18.9"/>
	<path class="st1" d="M134.9,275.5c-1.8,0-3.7,0-6.1,0c2.2,2.7,3.9,4.9,5.6,7"/>
	<path class="st1" d="M55.4,84.1c7,5.3,14,10.7,21,16"/>
	<path class="st1" d="M293.8,71.1c-7.8,4.3-15.7,8.7-23.5,13"/>
	<path class="st1" d="M246.8,295.5c2.2,5.7,4.4,11.3,6.5,17c0.5,1.3,0.7,2.7,1,4"/>
	<path class="st1" d="M299.8,77.6c-7,5.7-14,11.3-21,17"/>
	<path class="st1" d="M216.8,307.5c3.2,6.8,6.3,13.7,9.5,20.5"/>
	<path class="st1" d="M60.9,237.1c-6,6.5-12,13-18,19.5"/>
	<path class="st1" d="M168.8,175.6c0.2,10.3,0.4,20.7,0.5,31c0,1.8-0.6,3.7-1,5.5"/>
	<path class="st1" d="M284.8,138.6c0,1.8,0,3.7,0,5.4c-2.5-2.1-4.7-4-7-5.9"/>
	<path class="st1" d="M199.3,312.5c0.2,6.5,0.4,13,0.5,19.5c0,0.8-0.6,1.7-1,2.5"/>
	<path class="st1" d="M259.8,45.2c-3.8,2.3-8.3,4-11.3,7.2c-3.2,3.4-3.3,8.5-1.6,12.8c1.7,4.1,4.8,7.3,9.9,7
		c7.2-0.5,13.1-4.9,14.5-13.5c0.9-6.1-3.6-11.3-11-13"/>
	<path class="st1" d="M167.8,284.5c-2,0.6-4.1,1.1-6.9,1.9c2.2,1.3,3.8,2.2,5.4,3.1"/>
	<path class="st1" d="M157.4,26.7c6.7,6.3,13.3,12.7,20,19"/>
	<path class="st1" d="M260.8,286c1.3,8,2.1,16.1,6,23.5"/>
	<path class="st1" d="M80.4,59.6c5.5,6.7,11,13.3,16.5,20"/>
	<path class="st1" d="M73.9,166.6c-0.9-2-1.8-3.9-2.9-6.3c-1,1.6-2.1,3.2-3.1,4.8"/>
	<path class="st1" d="M108.4,58.1c-0.2,0.2-0.3,0.4-0.5,0.5c-7.5,3.2-9,8.8-6.5,16"/>
	<path class="st1" d="M335.3,199.6c-0.5,2.3-1,4.7-1.5,7c-0.5,2.5-1.6,3.9-4.5,3.5c-4.5-0.6-7.5,0.5-7.1,6c0.1,1.6-0.9,3.3-1.4,5"/>
	<path class="st1" d="M86.9,268.5c-6.3,6.3-12.7,12.7-19,19"/>
	<path class="st1" d="M202.8,288.5c-2.4-0.5-4.7-1.1-7.1-1.6c2.7-1.9,5.2-3.6,7.6-5.4"/>
	<path class="st1" d="M256.8,98.6c-0.7-1.8-1.3-3.7-2-5.5"/>
	<path class="st1" d="M139.4,72.1c2.2,0.3,4.4,0.5,7.2,0.9c-2.1,2.3-3.9,4.2-5.7,6.1"/>
	<path class="st1" d="M27.9,218.6c7.8,0.7,15.7,1.3,23.5,2c0.1,0.4,0.3,0.9,0.4,1.3c-2,1.1-4,2.1-6,3.2c-2.3,1.3-4.6,2.7-7,4
		c-2.1,1.1-4.3,2-6.5,3"/>
	<path class="st1" d="M165.8,14.7"/>
	<path class="st1" d="M47.9,205.1c-5.7,4.3-11.3,8.7-17,13"/>
	<path class="st1" d="M266.8,107.6c0.6,1.8,1.2,3.6,2.1,6.2c-3.3-1.8-5.9-3.2-8.6-4.7"/>
	<path class="st1" d="M282.8,205.6c0.5,2,1,4,1.7,6.9c1.3-1.7,2.3-3.1,3.3-4.4"/>
	<path class="st1" d="M276.8,120.6c0.4,2.3,0.7,4.6,1.3,8.2c-3.2-2.5-5.2-4.1-7.3-5.7"/>
	<path class="st1" d="M112.9,93.6c0.8-1.4,1.6-2.7,2.7-4.8c-2.6,0.3-4.9,0.5-7.2,0.8"/>
	<path class="st1" d="M195.8,24.7c-4,8-8,16-12,24"/>
	<path class="st1" d="M183.3,250.5c-0.7-4.5-5.8-8.8-12-10c-1.5-0.3-3-0.4-4.5-0.5"/>
	<path class="st1" d="M73.9,212.6c0,1.8,0,3.7,0,5.5"/>
	<path class="st1" d="M258.8,281.5c6.2,6.5,12.3,13,18.5,19.5"/>
	<path class="st1" d="M227.3,79.1c-1.7,0.2-3.3,0.3-5,0.5"/>
	<path class="st1" d="M243.8,291.5c6.7,4.8,13.3,9.7,20,14.5"/>
	<path class="st1" d="M262.8,253.5c-1.3,0.7-2.7,1.3-4,2"/>
	<path class="st1" d="M81.9,131.6c-0.2-0.8-0.3-1.7-0.5-2.5"/>
	<path class="st1" d="M126.9,84.6c1-1.5,2-3,3-4.5c-1.8-0.2-3.7-0.3-5.5-0.5"/>
	<path class="st1" d="M246.8,261.5c-0.9,1.8-1.9,3.6-3.2,6.2c2.8-0.9,4.7-1.5,6.7-2.2"/>
	<path class="st1" d="M259.8,248.5c-0.7,2-1.3,4-2,6"/>
	<path class="st1" d="M91.9,249.5c-0.4-2.1-0.7-4.3-1.2-6.9c2.7,1.2,4.7,2,6.7,2.9"/>
	<path class="st1" d="M107.9,257.5c-1.8-0.5-3.7-1-5.5-1.5c0.5,2,1,4,1.5,6"/>
	<path class="st1" d="M194.8,70.6c-1.5,0.3-3,0.7-4.5,1"/>
	<path class="st1" d="M99.9,106.6c1-2.2,1.9-4.4,3.2-7.3c-2.2,0.9-4,1.6-5.7,2.3"/>
	<path class="st1" d="M228.3,226.1c-0.5,0.5-1,1-1.5,1.5"/>
	<path class="st1" d="M218.3,232.1c-4.6,0.5-6-0.8-5.5-5"/>
	<path class="st1" d="M307.8,201.6c-0.7,3.5-1.3,7-2,10.5"/>
	<path class="st1" d="M309.8,212.6c4.2-0.3,8.3-0.7,12.5-1"/>
	<path class="st1" d="M158.4,333c0.3-2,0.6-4,1-6c0.5-2.3,1.1-4.5,1.8-7.7c3.3,5.8,6,10.5,8.7,15.2"/>
	<path class="st1" d="M235.8,275.5c-2.1,0.3-4.3,0.6-7.1,1c2.2-2.8,3.9-4.9,5.6-7"/>
	<path class="st1" d="M308.8,213.6c5.7,3.8,11.3,7.7,17,11.5c1.3,0.9,2.7,1.7,4,2.5"/>
	<path class="st1" d="M95.4,46.7c1.3,5.3,2.7,10.7,4,16"/>
	<path class="st1" d="M220.8,220.6c-2.2,3.5-4.3,7-6.5,10.5"/>
	<path class="st1" d="M96.9,49.2c6.8,5,13.7,10,20.5,15"/>
	<path class="st1" d="M311.3,94.1c-5.5-8.5-5.5-8.4-13.5-2.5c-2.9,2.1-5.8,4.3-9,5.9c-4.7,2.4-4.8,5-1.5,8.6c0.8,0.9,1.4,2,2,3"/>
	<path class="st1" d="M334.8,156.1c-8.7,1-17.3,2-26,3"/>
	<path class="st1" d="M215.8,302.5c-0.7,6.2-1.3,12.3-2,18.5c-0.4,3.5-0.7,7-1,10.5"/>
	<path class="st1" d="M289.8,155.6c-0.7,2-1.3,4-2,6"/>
	<path class="st1" d="M84.4,54.2c-3.5,2.8-7,5.7-10.5,8.5"/>
	<path class="st1" d="M50.4,203.6c-7,0.7-14,1.4-21,2c-1.8,0.2-3.7,0-5.5,0"/>
	<path class="st1" d="M90.4,114.1c-0.2,2-0.3,4-0.5,6"/>
	<path class="st1" d="M213.8,72.6c-2.5,0.7-5,1.3-7.5,2"/>
	<path class="st1" d="M189.8,38.7c1.2,0.3,2.4,1,3.5,0.9c8.2-0.5,8.2,5.6,9,11"/>
	<path class="st1" d="M215.8,283c1.5,0.2,3,0.3,4.5,0.5"/>
	<path class="st1" d="M68.4,68.1c-2.1,2.5-4.2,5.1-6.5,7.8c6.2,5.8,12.6,11.8,19,17.7c2.2-2.2,4.3-4.3,6.5-6.5"/>
	<path class="st1" d="M137.9,233.6c4-1.5,8.1-2.1,11.4,1.1c4.5,4.2,9.7,5.5,15.5,4.9"/>
	<path class="st1" d="M172.8,64.6c1.8,1,3.7,2,6,3.3c-1.7,1-3.1,1.9-4.5,2.7"/>
	<path class="st1" d="M236.8,87.6c2,0.2,4,0.3,6,0.5"/>
	<path class="st1" d="M69.9,196.6c-0.3,1.5-0.7,3-1,4.5"/>
	<path class="st1" d="M65.4,187.1c1.3-2.9,2.6-5.9,4.2-9.5c1.5,2.4,2.4,4,3.3,5.5"/>
	<path class="st1" d="M190.3,65.1c2.2,1.2,4.3,2.3,6.5,3.5"/>
	<path class="st1" d="M212.3,231.6c-3.3,2.5-6.7,5-10,7.5"/>
	<path class="st1" d="M156.4,25.2c0.5,8.2,1,16.3,1.5,24.5"/>
	<path class="st1" d="M285.8,188.6c0.8,1.7,1.7,3.3,2.5,5"/>
	<path class="st1" d="M183.8,285.5c-1.7,0.7-3.3,1.3-5,2"/>
	<path class="st1" d="M320.3,200.6c-0.7,3.2-1.3,6.3-2,9.5"/>
	<path class="st1" d="M277.8,220.6c0,2,0,4,0,7.1c2.7-2.1,4.6-3.6,6.5-5.1"/>
	<path class="st1" d="M155.9,67.6c1.3,0.7,2.7,1.3,4,2c-1.2,1.3-2.3,2.7-3.5,4"/>
	<path class="st1" d="M292.8,171.6c-0.9,1.5-1.7,3-3,5.2c-1.4-2-2.7-3.9-4-5.7"/>
	<path class="st1" d="M340.9,226.1"/>
	<path class="st1" d="M195.8,120.6c-7.3,0.2-14.7,0.3-22,0.5"/>
	<path class="st1" d="M204.8,241.6c-2.5-3.1-5.7-2.6-9-2c-5.2,0.9-10.9,0.1-15,4.5"/>
	<path class="st1" d="M61.9,236.1c-8.8,0.8-17.7,1.7-26.5,2.5"/>
	<path class="st1" d="M296.8,93.1c1.7,2.8,3.3,5.7,5,8.5"/>
	<path class="st1" d="M70.9,193.6c1,1.8,2,3.7,3,5.5"/>
	<path class="st1" d="M91.9,112.6c-2.7,1.5-5.3,3-8,4.5"/>
	<path class="st1" d="M45.9,238.6c1.2,2.7,2.3,5.3,3.5,8"/>
	<path class="st1" d="M184.3,66.1c0,1.2,0,2.3,0,3.5"/>
	<path class="st1" d="M284.8,156.6c1,1,2,2,3,3"/>
	<path class="st1" d="M248.3,97.1c2.5,0.8,5,1.7,7.5,2.5"/>
	<path class="st1" d="M275.8,238.1c-2.1,1.6-4.2,3.2-7,5.3c0.2-3.1,0.4-5.4,0.5-7.8"/>
	<path class="st1" d="M114.9,305.5c0.8,5.7,1.7,11.3,2.5,17"/>
	<path class="st1" d="M196.3,26.7c0.8,4.3,1.7,8.7,2.5,13"/>
	<path class="st1" d="M223.8,73.1c2,2.2,4,4.3,6,6.5"/>
	<path class="st1" d="M75.9,211.6c1.8,2.2,3.7,4.3,5.5,6.5"/>
	<path class="st1" d="M132.9,341"/>
	<path class="st1" d="M189.3,114.1c0,2.2,0,4.3,0,6.5"/>
	<path class="st1" d="M149.9,286.5c-1.2-0.8-2.3-1.7-3.5-2.5"/>
	<path class="st1" d="M75.9,146.1c0.3,1.7,0.7,3.3,1,5"/>
	<path class="st1" d="M155.9,339.5"/>
	<path class="st1" d="M318.8,81.6"/>
	<path class="st1" d="M206.8,67.1c1.8,1.8,3.7,3.7,5.5,5.5"/>
	<path class="st1" d="M104.4,284c3.7,2.3,7.3,4.7,11,7"/>
	<path class="st1" d="M239.3,81.6c1.8,2.3,3.7,4.7,5.5,7c0,0-0.3,0.4-0.5,0.5c-0.3,0.1-0.7,0-1,0"/>
	<path class="st1" d="M153.9,121.6c-1-0.2-2-0.3-3-0.5"/>
	<path class="st1" d="M76.4,77.1c-1.7,2-3.3,4-5,6"/>
	<path class="st1" d="M80.9,127.6c-1.8,1.7-3.7,3.3-5.5,5"/>
	<path class="st1" d="M161.9,120.6c3.7,0,7.3,0,11,0"/>
	<path class="st1" d="M57.9,220.6c-1.8,0.3-3.7,0.7-5.5,1"/>
	<path class="st1" d="M173.8,289.5c0.3-1.2,0.7-2.3,1-3.5"/>
	<path class="st1" d="M172.8,286.5c0.3,0.7,0.7,1.3,1,2"/>
	<path class="st1" d="M219.3,276.5c-1.8,2.3-3.7,4.7-5.5,7"/>
	<path class="st1" d="M207.8,122.6c-0.5-3.4-2.6-2-4.5-1.5"/>
	<path class="st1" d="M73.4,145.6c-1.3,1.3-2.7,2.7-4,4"/>
	<path class="st1" d="M140.9,279.5c-0.2,0.5-0.3,1-0.5,1.5"/>
	<path class="st1" d="M180.8,289.5c2.2,0.8,4.3,1.7,6.5,2.5"/>
	<path class="st1" d="M178.3,245.6c-1,1-2,2-3,3"/>
	<path class="st1" d="M184.3,331c0,1.2,0,2.3,0,3.5"/>
	<path class="st1" d="M168.8,115.1c-0.2,1.8-0.3,3.7-0.5,5.5"/>
	<path class="st1" d="M111.4,261.5c-0.3,0.8-0.7,1.7-1,2.5"/>
	<path class="st1" d="M75.9,143.6c-0.3,0.7-0.7,1.3-1,2c-0.3-0.7-0.7-1.3-1-2"/>
	<path class="st1" d="M145.9,282.5c-0.3,0.3-0.7,0.7-1,1"/>
</g>
<circle class="st1" cx="180.9" cy="178" r="164"/>
<circle class="st1" cx="180.9" cy="178" r="171.6"/>
<g>
	<g>
		<path d="M156.6,173.1c0.2-0.6,0.3-1.3,0.6-2.1s0.5-1.7,0.8-2.7c0.3-1,0.7-2.3,1.1-3.7c0.4-1.4,0.9-3.1,1.5-5.1
			c0-0.1,0.1-0.2,0.1-0.3c0-0.2,0-0.3,0-0.5c0-0.1,0-0.2-0.1-0.3c0-0.1-0.1-0.1-0.2-0.1c-0.3,0-0.6,0.1-0.9,0.4
			c-0.3,0.2-0.5,0.5-0.7,0.9c-0.2,0.4-0.4,0.7-0.5,1.1s-0.2,0.7-0.2,1c0,0.3,0,0.5,0.1,0.7c-0.4,0-0.7-0.1-0.9-0.3
			c-0.2-0.2-0.3-0.5-0.3-0.8c0-0.4,0.1-0.9,0.4-1.3c0.3-0.4,0.6-0.8,1-1.2c0.4-0.4,0.8-0.7,1.3-0.9c0.4-0.2,0.8-0.3,1.2-0.3
			c0.4,0,0.7,0.2,1,0.5c0.2,0.3,0.5,0.8,0.6,1.3c0.2,0.6,0.3,1.2,0.4,1.9c0.1,0.7,0.2,1.5,0.3,2.2c0.1,0.6,0.2,1.3,0.2,1.9
			c0.1,0.6,0.2,1.2,0.2,1.8c0.1,0.6,0.1,1.1,0.2,1.6c0.1,0.5,0.1,0.9,0.2,1.2c0.1-0.6,0.2-1.3,0.4-2s0.4-1.6,0.6-2.4
			s0.4-1.6,0.7-2.4c0.2-0.8,0.4-1.5,0.6-2.2c0.2-0.7,0.4-1.2,0.5-1.7c0.1-0.4,0.2-0.7,0.3-0.8c0.1-0.2,0.2-0.4,0.4-0.6
			c0.2-0.2,0.5-0.3,0.8-0.3c-0.2,0.6-0.5,1.3-0.7,2.2c-0.3,0.9-0.6,1.8-0.8,2.8c-0.3,1-0.6,2-0.8,3c-0.3,1-0.5,2-0.7,3
			c-0.2,1-0.4,1.8-0.5,2.6c-0.1,0.8-0.2,1.4-0.2,1.9c-0.4,0-0.7-0.1-1-0.3c-0.2-0.2-0.4-0.6-0.5-1.2c-0.1-0.3-0.1-0.8-0.2-1.4
			c-0.1-0.6-0.2-1.2-0.3-1.9s-0.2-1.5-0.3-2.2c-0.1-0.8-0.2-1.5-0.3-2.3c-0.1-0.7-0.2-1.4-0.3-2c-0.1-0.6-0.2-1.1-0.2-1.5
			c-0.6,2.2-1.1,4.1-1.6,5.6c-0.4,1.5-0.8,2.8-1.1,3.7s-0.6,1.7-0.8,2.2c-0.2,0.5-0.4,0.9-0.7,1.1S156.9,173.1,156.6,173.1z"/>
		<path d="M167.7,173.1c0.1-0.2,0.3-0.6,0.6-1.4c0.3-0.8,0.8-1.8,1.4-3c0.6-1.2,1.2-2.6,1.9-4.2c0.7-1.6,1.4-3.2,2.2-4.9
			c0-0.1,0.1-0.2,0.1-0.4c0-0.1,0.1-0.3,0.1-0.4c0-0.1,0-0.3-0.1-0.4c-0.1-0.1-0.3-0.1-0.5-0.1c-0.5,0-1,0.2-1.3,0.5
			c-0.4,0.4-0.6,0.8-0.8,1.4c-0.2,0.5-0.3,1.1-0.3,1.6c0,0.1,0,0.2,0,0.3c0,0.1,0,0.2,0,0.3c-0.2,0-0.4-0.1-0.6-0.3
			c-0.1-0.2-0.3-0.4-0.3-0.6c-0.1-0.2-0.1-0.5-0.1-0.7c0-0.4,0.1-0.8,0.3-1.2c0.2-0.4,0.5-0.7,0.9-1c0.4-0.3,0.8-0.5,1.2-0.7
			c0.4-0.2,0.9-0.3,1.3-0.3c0.4,0,0.8,0.1,1.1,0.4c0.3,0.2,0.5,0.7,0.7,1.3c0.1,0.6,0.2,1.5,0.2,2.7c0,0.8,0,1.6-0.1,2.5
			c-0.1,0.9-0.1,1.8-0.2,2.6s-0.1,1.7-0.1,2.4c0.2-0.8,0.5-1.6,0.9-2.5c0.4-0.9,0.8-1.8,1.2-2.6c0.5-0.9,0.9-1.7,1.4-2.5
			c0.4-0.8,0.9-1.4,1.2-2c0.4-0.6,0.6-1,0.8-1.2c0.2-0.3,0.3-0.5,0.5-0.6c0.1-0.1,0.3-0.2,0.5-0.2c0.2,0,0.4,0,0.6,0.1
			c-0.1,0.2-0.2,0.6-0.4,1c-0.2,0.5-0.3,1-0.5,1.7c-0.2,0.8-0.4,1.7-0.6,2.7c-0.2,1-0.4,2-0.6,3c-0.2,1-0.3,2-0.4,2.9
			s-0.2,1.7-0.2,2.3c0,0.3,0,0.5,0,0.7c0,0.2,0.1,0.3,0.1,0.4c0,0.1,0.1,0.3,0.1,0.5c-0.4,0-0.8-0.1-1-0.2c-0.2-0.1-0.4-0.4-0.5-0.7
			c-0.1-0.3-0.1-0.7-0.1-1.3c0-1.5,0.2-3.2,0.6-4.9s0.8-3.6,1.3-5.4c-0.4,0.5-0.8,1.1-1.2,1.8c-0.4,0.7-0.8,1.5-1.2,2.3
			c-0.4,0.8-0.8,1.7-1.2,2.5s-0.7,1.6-1,2.3c-0.3,0.7-0.5,1.3-0.7,1.8c-0.1,0-0.1,0-0.2,0.1c0,0-0.1,0-0.1,0c-0.3,0-0.6-0.2-0.7-0.6
			c-0.1-0.4-0.2-1-0.2-1.7c0-0.5,0-1.1,0-1.9c0-0.7,0.1-1.5,0.1-2.2c0-0.8,0.1-1.5,0.1-2.2c0-0.7,0-1.3,0-1.8c0-0.3,0-0.5,0-0.6
			c0-0.2,0-0.3,0-0.4c-1,2.4-1.9,4.4-2.6,6.1s-1.3,3-1.7,4.1c-0.5,1-0.9,1.8-1.2,2.3C168.4,172.8,168,173.1,167.7,173.1z"/>
		<path d="M186.1,173.1c-0.8,0-1.4-0.2-2-0.5c-0.6-0.3-1-0.7-1.3-1.3c-0.3-0.5-0.5-1.1-0.5-1.7c0-0.6,0.1-1.2,0.4-1.7
			c0.3-0.6,0.6-1.1,1.1-1.5c0.5-0.5,1-0.9,1.6-1.2c0.6-0.3,1.2-0.5,1.9-0.5c-0.5-0.4-0.9-0.9-1.1-1.4s-0.4-1.1-0.4-1.6
			c0-0.7,0.2-1.3,0.5-1.9c0.3-0.6,0.8-1.1,1.4-1.5s1.3-0.6,2-0.6c0.7,0,1.3,0.2,1.6,0.5c0.4,0.4,0.6,0.9,0.6,1.5
			c0,0.5-0.1,0.9-0.3,1.4s-0.4,0.8-0.6,1.1s-0.5,0.4-0.7,0.4c-0.1,0-0.3-0.1-0.4-0.2c-0.1-0.1-0.2-0.3-0.3-0.4
			c0.4-0.4,0.8-0.8,1.1-1.3c0.3-0.4,0.5-0.9,0.5-1.4c0-0.4-0.1-0.7-0.3-0.9c-0.2-0.2-0.6-0.3-1-0.3c-0.6,0-1.1,0.2-1.5,0.5
			c-0.4,0.4-0.7,0.8-0.9,1.4c-0.2,0.6-0.3,1.2-0.3,1.9c0,0.5,0.1,1,0.2,1.5c0.1,0.5,0.4,1,0.9,1.4c-0.9,0.1-1.6,0.5-2.2,1
			s-1.1,1.1-1.5,1.8c-0.4,0.7-0.5,1.4-0.5,2.1c0,0.4,0.1,0.8,0.2,1.3c0.2,0.4,0.4,0.8,0.8,1.1c0.4,0.3,0.8,0.4,1.4,0.4
			c0.7,0,1.4-0.2,2-0.6s1.3-0.9,1.9-1.5c0.6-0.6,1-1.3,1.3-2l0.3,0.2c-0.4,0.9-1,1.7-1.6,2.3s-1.3,1.2-2,1.6
			C187.8,172.9,187,173.1,186.1,173.1z"/>
		<path d="M192.5,173.1c-0.3-0.2-0.5-0.3-0.5-0.5c-0.1-0.2-0.1-0.3-0.1-0.5c0-0.4,0.1-0.8,0.4-1.5c0.3-0.6,0.6-1.3,1.1-2.1
			s0.9-1.6,1.5-2.4c-0.5,0-0.9-0.1-1.2-0.1c-0.3,0-0.6,0-0.9,0h-0.7c0.1-0.4,0.4-0.6,0.7-0.8c0.4-0.1,0.8-0.2,1.3-0.2
			c0.2,0,0.4,0,0.7,0c0.2,0,0.5,0.1,0.7,0.1c0.7-1,1.3-1.9,2-2.9c0.7-0.9,1.3-1.8,1.9-2.5s1.1-1.3,1.5-1.6c0.4-0.4,0.7-0.5,0.9-0.5
			c0.1,0,0.3,0.1,0.5,0.2c0.2,0.1,0.4,0.3,0.5,0.5c-0.1,0.1-0.3,0.4-0.5,0.8s-0.4,1-0.6,1.7c-0.2,0.7-0.4,1.4-0.7,2.2
			c-0.2,0.8-0.4,1.6-0.6,2.4c-0.2,0.8-0.3,1.6-0.4,2.4c-0.1,0.7-0.2,1.4-0.2,2c0,0.5,0.1,0.9,0.2,1.1c0.1,0.3,0.3,0.4,0.5,0.4
			c0.3,0,0.7-0.2,1.1-0.7c0.4-0.5,0.9-1.2,1.4-2.1l0.2,0.2c-0.4,1-0.9,1.9-1.5,2.5c-0.6,0.7-1.2,1-1.9,1c-0.5,0-0.9-0.2-1.1-0.7
			c-0.2-0.5-0.4-1.1-0.4-1.9c0-0.4,0-0.9,0.1-1.3s0.1-1,0.2-1.5c-0.6-0.1-1.1-0.2-1.5-0.2c-0.5-0.1-0.9-0.1-1.3-0.2
			c-0.6,1.1-1.2,2.3-1.8,3.4S193,171.9,192.5,173.1z M198.9,165.9c0.2-0.8,0.4-1.7,0.7-2.6c0.3-0.9,0.5-1.7,0.8-2.5
			c0.3-0.8,0.6-1.5,0.8-2.1c-0.4,0.2-0.9,0.7-1.4,1.3c-0.5,0.6-1.1,1.4-1.6,2.3c-0.6,0.9-1.2,1.9-1.8,2.9c0.4,0.1,0.9,0.2,1.3,0.3
			C198.1,165.7,198.5,165.8,198.9,165.9z"/>
	</g>
</g>
</svg>
