<?xml version="1.0" encoding="utf-8"?>
<!-- Generator: Adobe Illustrator 24.0.0, SVG Export Plug-In . SVG Version: 6.00 Build 0)  -->
<svg version="1.1" id="Layer_1" xmlns="http://www.w3.org/2000/svg" xmlns:xlink="http://www.w3.org/1999/xlink" x="0px" y="0px"
	 viewBox="0 0 511.8 554.9" style="enable-background:new 0 0 511.8 554.9;" xml:space="preserve">
<g>
	<path d="M356.7,545.1c-24.5-0.1-47.7-4.7-70.1-12.9c-28.1-10.2-53.6-25.1-77.7-42.7c-15.4-11.3-30-23.7-44-36.7
		c-16.4-15.3-31.8-31.5-46.6-48.3c-20.8-23.7-40.2-48.4-57.4-74.8c-12.1-18.5-22.9-37.7-31.9-57.9C20,251.6,13,230.7,8.8,208.9
		c-2.8-14.4-4.2-29-3.8-43.7C5.4,145.9,8.6,127.1,15,109c6.6-18.7,16.3-35.7,29.1-50.8c7.7-9.1,16.4-17.2,25.9-24.4
		c5.2-4,9.9-8.5,14.8-12.8c6-5.4,12.3-10.3,20.1-12.9c9.5-3.3,18.6-2,27.3,2.9c8.8,4.9,15.6,12,21.9,19.6
		c9.6,11.7,17.4,24.6,25.3,37.4c5.4,8.7,10.6,17.7,15.4,26.8c4.7,8.8,7.9,18.3,9.3,28.2c2.1,14.6-1,27.8-10.2,39.5
		c-4.5,5.6-10,10.1-15.3,14.8c-4.6,4.1-9.2,8.2-14.1,12.1c-4,3.1-8.4,5.8-12.4,8.8c-7.4,5.7-12.9,12.7-15.3,21.8
		c-1.8,7-1.7,14.1-0.4,21.1c2.3,12.5,7.5,23.9,13.6,34.9c9.4,16.8,20.8,32.1,33,46.9c12.7,15.4,26,30.2,40.5,43.9
		c12.5,11.9,25.7,22.9,41,31c9.7,5.1,19.8,8.7,31,8.2c8.5-0.4,16-3.4,22.4-8.9c4-3.4,7.5-7.4,11.3-11c4.5-4.3,8.9-8.5,13.6-12.6
		c5.3-4.6,10.6-9.3,16.2-13.5c7.2-5.4,15.4-8.6,24.3-9.5c8.1-0.8,16,0.5,23.6,3.2c11,3.9,20.9,9.7,30,16.8
		c9.9,7.8,19.5,15.9,29,24.1c6.9,5.9,13.6,12,20,18.4c7.1,7,13.2,14.8,17.4,24c6.1,13.4,4.7,25.9-4.8,37.1c-4.2,4.9-9.2,9.2-14,13.6
		c-5.4,5-10.9,9.8-16.3,14.8c-9.1,8.4-19.1,15.6-29.9,21.7c-14.8,8.4-30.7,14.2-47.3,17.7C379.7,543.9,367.9,545,356.7,545.1z"/>
</g>
</svg>
