<?xml version="1.0" encoding="utf-8"?>
<!-- Generator: Adobe Illustrator 24.0.0, SVG Export Plug-In . SVG Version: 6.00 Build 0)  -->
<svg version="1.1" xmlns="http://www.w3.org/2000/svg" xmlns:xlink="http://www.w3.org/1999/xlink" x="0px" y="0px"
	 viewBox="0 0 350 300" style="enable-background:new 0 0 350 300;" xml:space="preserve">
<style type="text/css">
	.st0{fill:#FFFFFF;}
</style>
<g id="Layer_1">
</g>
<g id="html">
	<g id="program">
		<path d="M20.7,300H0l0-24.2c0,0,0-1.6,0-2.4c0-82.3,0-164.6,0-246.9C0,13.5,0,0,0,0s24.4,0.1,27,0.1C125.7,0,323.2,0,323.2,0
			L350,0l-0.1,27c0,0,0.1,115.1,0.1,172.7c0,24.2,0,48.3,0,72.5c0,14.9,0,27.8,0,27.8s-20.4-0.2-20.7,0C226.4,300,20.7,300,20.7,300
			z M325,62.9c-1.3-0.1-2.5-0.2-3.6-0.2c-97.4,0-194.9,0-292.3-0.1c-3.3,0-4.2,0.9-4.2,4.2c0.1,68,0.1,136,0,204.1
			c0,3.4,1,4.2,4.3,4.2c97.3-0.1,194.6-0.1,292-0.1c1.2,0,2.5-0.1,3.8-0.2C325,204.2,325,133.8,325,62.9z M325.1,25.3
			c-1.5-0.1-2.6-0.2-3.8-0.2c-55.7,0-111.3,0-167,0c-0.8,0-1.7-0.2-2.4,0.1c-0.8,0.4-1.8,1.2-1.9,1.8c-0.2,3.4-0.1,6.8-0.1,10.3
			c58.6,0,116.8,0,175.1,0C325.1,33.3,325.1,29.5,325.1,25.3z M43.7,43.8c6.7,0.1,12.6-5.7,12.7-12.4c0.1-6.7-5.6-12.6-12.4-12.6
			c-6.8-0.1-12.6,5.6-12.7,12.4C31.2,37.8,36.9,43.7,43.7,43.8z M81.4,18.8c-6.9-0.1-12.5,5.4-12.6,12.3
			c-0.1,6.8,5.6,12.6,12.4,12.7c6.8,0.1,12.6-5.6,12.7-12.4C93.9,24.5,88.3,18.8,81.4,18.8z M132,31.6c0.2-7-5.2-12.7-12.1-12.8
			c-6.9-0.1-12.7,5.3-12.9,12.1c-0.2,6.7,5.4,12.7,12.2,12.9C126,44,131.9,38.4,132,31.6z"/>
		<path class="st0" d="M325,60c0,70.3,0,215,0,215H25V60C25,60,323.7,59.9,325,60z"/>
		<path class="st0" d="M325,25c0,4.2,0,10.9,0,15c-58.5,0-116.2,0-175,0c0-3.5,0-15,0-15s4,0,4.8,0c55.8,0,111.7,0,167.5,0
			C323.5,25,323.5,24.9,325,25z"/>
		<path class="st0" d="M43.8,43.4c-6.7-0.1-12.5-5.9-12.5-12.6c0.1-6.7,5.9-12.3,12.7-12.3c6.8,0.1,12.6,5.8,12.5,12.5
			C56.4,37.8,50.6,43.5,43.8,43.4z"/>
		<path class="st0" d="M81.7,18.6c6.9,0.1,12.5,5.7,12.5,12.5c-0.1,6.7-6,12.4-12.7,12.3C74.6,43.3,69,37.6,69,30.9
			C69.1,24,74.7,18.6,81.7,18.6z"/>
		<path class="st0" d="M132.4,31.4c-0.2,6.7-6.1,12.3-12.8,12.1c-6.8-0.2-12.4-6.1-12.2-12.8c0.2-6.8,6-12.2,12.9-12
			C127.3,18.8,132.6,24.4,132.4,31.4z"/>
	</g>
</g>
</svg>
