<?xml version="1.0" encoding="utf-8"?>
<!-- Generator: Adobe Illustrator 24.0.0, SVG Export Plug-In . SVG Version: 6.00 Build 0)  -->
<svg version="1.1" id="Layer_1" xmlns="http://www.w3.org/2000/svg" xmlns:xlink="http://www.w3.org/1999/xlink" x="0px" y="0px"
	 viewBox="0 0 373.3 377.6" style="enable-background:new 0 0 373.3 377.6;" xml:space="preserve">
<g>
	<path d="M372.1,189.5c0,5.8,0,11.5,0,17.3c0,8.7-5,13.6-13.7,13.5c-8.2,0-16.5-0.2-24.7-0.2c-6,0-10,3.2-12.6,9.6
		c-3.8,9.2-7.7,18.3-11.6,27.4c-1.9,4.5-0.2,11,3.8,14.8c5.6,5.4,11,10.8,16.3,16.4c8.4,8.9,5.7,14.8-0.9,21.7
		c-7.4,7.8-15.3,15.2-22.9,22.8c-5.4,5.4-12.6,5.9-18.2,0.7c-5.8-5.3-11.2-11-16.5-16.8c-4.8-5.2-10.2-6.9-16.6-4.2
		c-9.6,4-19.1,8.1-28.7,12.2c-5.1,2.2-7.8,6.2-7.7,11.6c0.1,8.5,0.2,17,0.1,25.5c0,7.4-4.8,12.6-12.1,12.8
		c-12.9,0.3-25.9,0.2-38.8,0c-5.8-0.1-10.4-4.9-10.6-11c-0.3-8.9-0.2-17.8-0.2-26.6c0-6.4-2.5-10.1-8.4-12.6
		c-9.7-4.1-19.3-8.3-28.9-12.4c-4.3-1.8-10.7,0-14.1,3.5c-6,6.1-12,12.2-18.3,18.1c-5.4,5-11.5,5.3-17,0.3
		c-6.5-6-12.6-12.5-18.9-18.8c-1.4-1.4-2.8-2.8-4.4-4.1c-10.2-8.5-8.1-16.9,0.5-24.8c5.1-4.8,10.4-9.4,15.1-14.6
		c4.3-4.7,4-10.3,1.4-16c-3.8-8.5-7.4-17.2-10.8-25.8c-2.3-5.9-6.3-8.9-12.7-8.9c-7.9,0-15.8,0-23.7,0.1
		c-8.2,0.1-14.4-4.3-14.4-13.2c0-12.5-0.4-25.1,0.2-37.5c0.3-6.1,3.9-10.6,11.1-10.8c8.6-0.3,17.3-0.5,25.9-0.1
		c7,0.3,11.5-3.3,13.9-9.7c3.6-9.3,7.6-18.3,11.6-27.4c1.8-4.2,0.2-10.7-3.6-14.5c-6-5.9-12.1-11.8-17.8-17.9
		c-5.1-5.5-5.4-11.6-0.4-17c8.9-9.5,18.1-18.8,27.4-27.9c3.7-3.6,11.7-3,16.1,1.1c5.9,5.6,11.7,11.3,17.1,17.3
		c4.4,4.8,10.2,6.2,16.7,3.5c8.9-3.7,17.7-7.4,26.6-11.1c8.6-3.5,9.3-8,9.3-15.8c0-8.2-0.2-16.3,0-24.5c0.1-5.7,5.8-10.5,12.9-10.6
		c12.5-0.1,25-0.1,37.5,0.1c5.7,0.1,10.7,5,10.9,10.7c0.3,8.6,0.4,17.2,0.4,25.8c0,8.4,2.5,11.8,9.8,14.6
		c9.1,3.6,18.1,7.5,27.1,11.4c4,1.8,10.6,0.4,14.2-3.3c4.8-4.9,9.6-9.8,14.4-14.7c10-10,16.6-9.7,26,0.6c6.1,6.6,12,13.8,19.1,19.1
		c8.4,6.3,7.3,17.2-1.4,24.2c-5.4,4.4-10.4,9.4-15.1,14.6c-3.8,4.2-4.4,9.3-1.9,14.8c4.2,9.3,8,18.8,11.9,28.3
		c2.2,5.2,6.3,7.7,12,7.6c9.2-0.1,18.5-0.1,27.7,0.1c5.4,0.1,10.2,5.5,10.3,11.4c0.1,6.5,0,13,0,19.5
		C372,189.5,372.1,189.5,372.1,189.5z M259.2,189.6c0.1-39.4-32.2-72.5-72.9-72.2c-39.7,0.3-71.3,31.9-71.5,72
		c-0.3,40,32.2,72.5,72.4,72.4C227.2,261.7,258.9,229.8,259.2,189.6z"/>
</g>
</svg>
