<?xml version="1.0" encoding="utf-8"?>
<!-- Generator: Adobe Illustrator 24.0.0, SVG Export Plug-In . SVG Version: 6.00 Build 0)  -->
<svg version="1.1" id="Layer_1" xmlns="http://www.w3.org/2000/svg" xmlns:xlink="http://www.w3.org/1999/xlink" x="0px" y="0px"
	 viewBox="0 0 611.1 612" style="enable-background:new 0 0 611.1 612;" xml:space="preserve">
<style type="text/css">
	.st0{fill:#FFFFFF;}
</style>
<g>
	<path d="M302.6,510.2c-21.6,0-43.2-0.2-64.8,0.1c-5.5,0.1-7.6-1.3-8.5-7.2c-3.8-23.1-12.9-44.5-24.7-64.5
		c-11.8-20.2-23.9-40.4-37.9-59c-12.3-16.3-18.2-34.4-20.6-53.7c-8.8-71,26.4-134.5,90.8-165.2c64.4-30.6,146.8-10.6,189.6,46.5
		c35.2,46.9,42.9,98.3,23,153.5c-1.7,4.8-4.7,9.4-7.8,13.6c-22.1,30-42.3,61-56.2,95.7c-4.4,10.9-7.3,22.5-9.8,34
		c-1.1,5.1-3,6.3-7.7,6.3C346.3,510,324.4,510.1,302.6,510.2C302.6,510.1,302.6,510.2,302.6,510.2z M204.1,370.5
		c0.6-12.5,0.8-24.2,1.8-36c5.8-68.9,39.1-119.1,102.1-148.8c1.7-0.8,3.3-1.8,4.9-2.7c-2.9-1.5-5.4-1.8-8-1.9
		c-59.4-1.7-113.7,42.1-123.6,100.8C175.9,314.2,179.2,344.8,204.1,370.5z"/>
	<path d="M350.4,584.3c0,3.9,0.1,7,0,10.1c-0.3,6.5-3.3,9.9-9.7,9.9c-25.5,0.2-51.1,0.2-76.6,0c-6.4,0-9.3-3.3-9.8-9.9
		c-0.2-3.1-0.3-6.3-0.4-9.1c-0.8-0.7-1.2-1.2-1.7-1.3c-19.5-2.3-27.5-15.3-20.9-34.1c2.7-7.7,9-11.7,19.5-11.7
		c29-0.1,57.9-0.1,86.9-0.1c6.1,0,12.1-0.2,18.2,0.1c11.5,0.5,18,6.8,18.7,18.2c0.2,3.1,0.2,6.3-0.1,9.5c-0.8,10.6-7,16.8-17.5,17.8
		C355.1,583.9,353.3,584,350.4,584.3z"/>
	<path d="M81.1,294.5c-10.3,0-20.5,0.1-30.8,0c-11.1-0.1-18.6-5.5-18.6-13c-0.1-7.4,6.7-12.9,17.7-13.2c21.3-0.4,42.7-0.5,64-0.3
		c10.5,0.1,18,5.9,18,13c0.1,7.1-7.4,12.9-17.8,13.2c-10.8,0.3-21.6,0.1-32.4,0.1C81.1,294.4,81.1,294.5,81.1,294.5z"/>
	<path d="M143.6,201.6c-4.8-1.7-8.5-2.4-11.6-4.1c-18.5-10.4-37-21-55.3-31.7c-9.5-5.5-13.2-14.2-9.2-20.6c3.8-6.2,12.5-7.3,22-2
		c18.5,10.4,36.9,21,55.3,31.8c3.1,1.8,6.5,4.4,7.8,7.5c1.5,3.7,2.5,9.1,0.9,12.3C151.9,197.9,146.8,199.5,143.6,201.6z"/>
	<path d="M447.6,57.2c0,3.8-2.1,8.6-3.9,11.8c-10.4,18.2-20.9,36.4-31.5,54.5c-5.6,9.6-14.1,13.3-20.6,9.6
		c-6.5-3.7-7.5-12.8-1.9-22.6c10.4-18.2,20.9-36.4,31.6-54.5c1.8-3.1,4.5-5.8,7.4-8c4-3,9.2-4.3,13.1-0.9
		C444.7,49.8,447.6,53.4,447.6,57.2z"/>
	<path d="M544.7,156.2c0,2.8-1,4.6-2.2,6.5c-1.5,2.2-4.2,3.9-6.5,5.3c-19.5,11.9-39.4,23.1-59.2,34.4c-1.8,1-3.9,1.7-5.9,2
		c-5.5,0.9-10.7,0-13.9-5.1c-3.2-5.2-1.7-10.3,1.9-14.5c2.4-2.7,5.4-5.1,8.5-6.9c17.4-10.2,34.8-20.5,52.6-30.1
		c4.5-2.5,10.4-3.4,15.7-3.4C541.3,144.4,544,147.9,544.7,156.2z"/>
	<path d="M159.8,56.2c2.2-3.5,3.7-8.6,6.9-10.2c3.3-1.6,8.7-0.8,12.4,0.8c3.3,1.4,6,5.1,7.9,8.4C197.7,73,208,91,218.3,109
		c5.8,10.1,4.8,19.3-2.2,23.1c-6.6,3.6-14.5-0.2-20.3-10c-10.4-17.6-20.6-35.3-30.8-53.1C163,65.3,161.9,61.2,159.8,56.2z"/>
	<path d="M530,301.5c-10.8,0-21.6,0.2-32.4-0.1c-10.6-0.2-17.9-5.8-17.7-13.1c0.2-7.2,7.7-12.8,18.1-12.8c21.3-0.1,42.7,0,64,0
		c1.3,0,2.6,0.1,3.9,0.3c8.2,1.5,13.7,6.9,13.6,13.1c-0.1,6.5-6.2,12.1-14.8,12.4C553.2,301.8,541.6,301.5,530,301.5z"/>
	<path d="M289.5,59.2c0-10.8-0.1-21.5,0-32.3c0.1-10.4,5.4-17.9,12.6-18.2c7.4-0.3,13.2,7.5,13.2,18.3c0.1,21,0,42,0,63
		c0,1.3,0,2.6-0.1,3.9c-0.9,8.3-6.5,14.5-12.9,14.5c-6.6-0.1-12.3-6.1-12.6-14.6c-0.4-11.5-0.1-23.1-0.1-34.6
		C289.5,59.2,289.5,59.2,289.5,59.2z"/>
	<path class="st0" d="M204.1,370.5c-24.8-25.7-28.2-56.4-22.7-88.6c9.9-58.7,64.2-102.5,123.6-100.8c2.5,0.1,5.1,0.4,8,1.9
		c-1.6,0.9-3.2,1.9-4.9,2.7c-63,29.7-96.3,79.9-102.1,148.8C204.9,346.3,204.7,358.1,204.1,370.5z"/>
</g>
</svg>
