<?xml version="1.0" encoding="utf-8"?>
<!-- Generator: Adobe Illustrator 24.0.0, SVG Export Plug-In . SVG Version: 6.00 Build 0)  -->
<svg version="1.1" id="Layer_1" xmlns="http://www.w3.org/2000/svg" xmlns:xlink="http://www.w3.org/1999/xlink" x="0px" y="0px"
	 viewBox="0 0 494.4 436.9" style="enable-background:new 0 0 494.4 436.9;" xml:space="preserve">
<style type="text/css">
	.st0{fill:#FFFFFF;stroke:#000000;stroke-width:14;stroke-miterlimit:10;}
	.st1{fill:none;stroke:#000000;stroke-width:6;stroke-miterlimit:10;}
	.st2{fill:none;stroke:#000000;stroke-width:13;stroke-miterlimit:10;}
	.st3{fill:none;stroke:#000000;stroke-width:19;stroke-miterlimit:10;}
	.st4{fill:none;stroke:#000000;stroke-width:23;stroke-miterlimit:10;}
</style>
<rect id="canvas" x="47.6" y="123.5" class="st0" width="399.7" height="275"/>
<circle id="nail" cx="247.2" cy="63.5" r="10"/>
<path id="string" class="st1" d="M147.2,123.5l90-81c5.7-5.1,14.4-5.1,20.1,0l90,81"/>
<g id="lines">
	<path class="st2" d="M72.2,248.5c0,0,80-55,150-40s65,50,115,35c50-15,75-30,75-30"/>
	<path class="st1" d="M72.2,198.5c0,0,80-55,150-40s65,50,115,35s75-30,75-30"/>
	<path class="st3" d="M72.2,308.5c0,0,80-55,150-40c70,15,65,50,115,35s75-30,75-30"/>
	<path class="st4" d="M72.2,373.5c0,0,80-55,150-40s65,50,115,35s75-30,75-30"/>
</g>
</svg>
