<?xml version="1.0" encoding="utf-8"?>
<!-- Generator: Adobe Illustrator 24.0.0, SVG Export Plug-In . SVG Version: 6.00 Build 0)  -->
<svg version="1.1" id="Layer_1" xmlns="http://www.w3.org/2000/svg" xmlns:xlink="http://www.w3.org/1999/xlink" x="0px" y="0px"
	 viewBox="0 0 637.7 637.1" style="enable-background:new 0 0 637.7 637.1;" xml:space="preserve">
<path d="M172.5,448.9c2-24.2,4.8-48.4,5.9-72.7c3.9-86.3,6.9-172.6,10.9-258.9c1.1-24.5,3.8-48.9,6.7-73.2
	c2.1-17.8,8.3-27,16.4-25.5c13.1,2.5,12.7,14.6,13.8,23.9c3.3,27.6,6.3,55.4,7.7,83.2c3.1,61.8,5.1,123.6,7.5,185.4
	c2.5,65.7,4.9,131.4,7.6,197.2c0.3,8.2,1.9,16.3,5.6,24.4c1.5-25.2,3.1-50.4,4.4-75.6c4.6-90.2,9-180.3,13.9-270.5
	c0.7-12.1,3.6-24.2,5.9-36.2c1.4-7.2,3.6-14.7,12.9-15.1c10.2-0.4,13.4,7.8,14.6,15.4c3.4,21.4,7,42.9,8.4,64.5
	c4.1,63.9,7.1,128,10.9,191.9c0.7,12.6,2.8,25.1,4.3,37.7c1.2,0.1,2.5,0.3,3.7,0.4c0.8-4.3,2.1-8.7,2.4-13
	c4.5-52.2,8.8-104.3,13.4-156.5c0.6-7.2,2-14.4,4.2-21.2c2.9-8.9,5.4-18.8,17.7-19.3c9.2-0.4,16.4,5.5,19.4,19.6
	c3.7,17.9,5.8,36.2,7.9,54.5c2.6,22.7,4.3,45.5,6.9,68.1c0.7,6.2,3.4,12.2,5.7,20.2c10.1-7.8,9.8-17.2,11.5-25.4
	c2.7-13.1,4.2-26.4,7.2-39.4c2.5-10.6,7.1-20.2,20.2-21.4c12.6-1.1,21.2,4.6,27.3,15.2c14.2,24.6,14.3,24.6,37,6.8
	c9.7-7.6,21.4-10.2,31.2-3.7c17.4,11.4,36.1,9.1,54.8,9.6c7.8,0.2,19.7-3.2,20,8.8c0.3,13.5-12.3,9.8-20.5,9.9
	c-20.5,0.3-41.2,2.3-59.9-10.2c-3.4-2.3-11.1,0.5-16.2,2.5c-3.3,1.3-5.4,5.5-8.4,8c-17.8,15.2-37.8,11.2-48.3-9.4
	c-3.4-6.6-7-13.2-10.6-19.7c-1.5,0.1-3.1,0.1-4.6,0.2c-2.2,5.7-5.1,11.3-6.3,17.2c-2.7,13.1-4.3,26.4-6.9,39.5
	c-1.1,5.4-3,10.7-5.5,15.7c-4.2,8.5-10.7,13.9-20.9,13.9c-10.8,0-17.2-6.4-19.4-15.3c-4.3-17.8-7.6-35.8-9.9-53.9
	c-3-23.7-4.5-47.7-6.8-71.5c-0.3-3.4-1.9-6.7-2.8-10.1c-1.5,0-3,0-4.5,0.1c-2.3,22.8-5,45.6-6.9,68.5c-3.5,39.9-6.5,79.9-9.9,119.9
	c-0.5,5.5-1.9,11-3.7,16.2c-2.7,8.1-6.2,16.2-16.7,15.9c-9.8-0.3-13.1-8.2-15-15.7c-3.1-12.4-6-25-7-37.7
	c-4-55.6-7.2-111.2-10.7-166.8c-1.2-19.5-2.4-38.9-3.8-58.4c-0.2-2.5-1.2-4.9-4.3-7.5c-0.8,2.8-2.1,5.6-2.2,8.5
	c-3.6,71.2-6.8,142.5-10.7,213.7c-2.8,52.3-6.3,104.5-9.9,156.8c-0.5,7.7-1.7,15.8-4.8,22.7c-2.1,4.7-7.8,9.7-12.6,10.6
	c-2.7,0.5-9.3-6.4-10.1-10.8c-3.5-18-6.8-36.2-7.7-54.5c-4-84.1-7.3-168.2-10.7-252.2c-2.5-62.4-4.9-124.7-7.4-187.1
	c-0.1-3.3-0.8-6.5-1.2-9.8c-1.1-0.2-2.2-0.4-3.3-0.6c-0.7,4.2-1.8,8.3-2,12.5c-2.4,53.5-4.3,106.9-7.1,160.4
	c-3,59-6.5,117.9-10.5,176.8c-0.7,11-3.6,22-7.2,32.4c-1.5,4.2-7.5,9.2-11.7,9.4c-4.3,0.2-10.5-3.9-13-7.9
	c-3.7-5.9-6.1-13.3-6.9-20.3c-3.8-33.7-7.1-67.5-10-101.4c-2.8-32.2-4.8-64.4-7.4-96.6c-0.4-5.4-2.2-10.8-6.5-16.7
	c-1.4,6.4-3.1,12.8-4,19.3c-4.5,31.4-8.7,62.8-13.3,94.2c-0.7,4.9-2.1,9.8-4,14.4c-7,17.4-22.4,20.3-35.5,6.6
	c-2.7-2.8-5-6.1-6.7-9.5c-4.5-9.3-11.9-12.4-21.9-11.8c-7.8,0.5-15.8,0.9-23.3-0.4c-4-0.7-7.3-5.2-10.9-8c3.2-3.3,5.9-8.5,9.8-9.5
	c27.4-7.2,48.5,0.7,65.1,23.3c0.9,1.2,2.4,2,5.9,4.8c2.1-8.5,4.5-15.6,5.5-22.8c4.6-31.4,8.6-62.9,13.5-94.2
	c1.4-8.7,3.8-17.7,8.3-25.1c2.9-4.9,10.2-9.7,15.6-9.8c4.2-0.1,10.9,6.2,12.5,11.1c4.2,12.6,7.6,25.7,8.8,38.9
	c3.2,34.4,5,68.9,7.5,103.3c2,26.4,4.2,52.7,6.4,79C169.2,448.9,170.9,448.9,172.5,448.9z"/>
</svg>
